<svg width="387" height="312" viewBox="0 0 387 312" fill="none" xmlns="http://www.w3.org/2000/svg">
<path d="M21.7451 187.04L5.29443 165.759L34.6169 73.914L90.2573 49.815H300.393L367.25 167.653C355.449 189.748 335.939 205.356 300.393 192.902H106.908L105.78 172.436C96.7437 192.902 61.2664 209.249 21.7451 187.04Z" fill="black"/>
<path fill-rule="evenodd" clip-rule="evenodd" d="M314.63 172.987L265.218 170.557L265.21 170.714L221.96 168.658L224.882 105.275L216.827 105.275L228.553 62.6415L273.56 64.7325C284.842 65.1995 293.653 68.9055 300.976 76.8448C308.405 84.8053 311.953 95.4591 311.489 106.777C310.995 118.827 306.778 129.54 298.083 137.164L314.63 172.987ZM288.074 134.573C298.032 128.65 302.988 118.832 303.496 106.449C303.883 97.0101 300.928 88.5098 295.112 82.2863C289.382 76.0663 282.649 73.1119 273.21 72.7249L234.57 70.9297L227.325 97.2754L233.259 97.2754L230.319 161.046L257.62 162.344L258.943 135.989L269.275 162.747L301.827 164.348L288.074 134.573ZM265 114.858C264.728 114.869 264.453 114.873 264.174 114.869C264.074 114.867 263.973 114.864 263.872 114.86C263.846 114.859 263.819 114.858 263.793 114.857L257.002 114.674L257.484 96.9378L265.541 97.2013C271.862 97.4604 274.164 102.286 273.958 107.308C273.777 111.721 269.981 114.643 265 114.858ZM265.262 105.197L265.218 106.811C265.56 106.756 265.808 106.673 265.97 106.602C265.963 106.169 265.914 105.817 265.849 105.555C265.817 105.423 265.784 105.326 265.757 105.258C265.655 105.235 265.495 105.209 265.262 105.197Z" fill="black"/>
<path fill-rule="evenodd" clip-rule="evenodd" d="M248.402 169.424H200.648L198.083 156.599H186.064L182.284 169.424H135.636L153.602 102.417H145.582L155.437 61.0843H219.675L248.402 169.424ZM164.029 94.4171L146.064 161.424H176.301L180.081 148.599H204.641L207.206 161.424H238.004L213.519 69.0843H161.754L155.714 94.4171H164.029ZM194.433 96.8943L187.278 124.299H200.807L194.433 96.8943Z" fill="black"/>
<path fill-rule="evenodd" clip-rule="evenodd" d="M168.303 60.4453L156.78 106.375L137.33 107.211L140.322 167.883L98.2845 170.283L95.3841 109.083L72.4831 110.123L80.2944 68.1319L118.712 66.1223L119.346 62.6121L168.303 60.4453ZM102.997 100.729L105.893 161.835L131.941 160.348L128.943 99.5641L150.473 98.6391L157.931 68.9122L126.083 70.3218L125.459 73.7803L87.0067 75.7917L82.1921 101.674L102.997 100.729Z" fill="black"/>
<path fill-rule="evenodd" clip-rule="evenodd" d="M86.6171 164.313L86.5893 164.337C76.7897 172.849 64.6526 175.909 51.1157 176.465C36.7065 177.058 25.0769 175.02 10.2624 167.631L4.83574 164.924L13.9892 117.097C5.43428 109.428 1.26117 98.1234 0.799577 86.8939C0.307851 74.9312 4.26561 63.7539 13.3032 55.378C21.7353 47.5171 32.7126 44.5377 40.4668 43.7069C43.5741 43.374 46.808 43.2541 49.4967 43.2238L50.4122 38.7636L98.4574 45.8558L84.8779 96.5782C95.1389 103.98 100.507 114.599 101.039 127.547C101.621 141.684 97.3502 154.815 86.6448 164.288L86.6171 164.313ZM56.0026 51.3151C56.0026 51.3151 48.1067 50.9341 41.3191 51.6614C34.5314 52.3886 25.4569 54.9798 18.75 61.2375C11.6152 67.8451 8.38585 76.6644 8.79283 86.5653C9.23832 97.4032 13.6767 107.484 21.9827 113.235C26.6437 116.367 33.0298 118.606 43.4338 121.613C51.4885 123.94 56.6332 126.939 56.7423 129.593C56.8877 133.132 54.4775 135.003 49.5114 135.207C45.2076 135.384 40.0283 134.434 33.9736 132.356L20.1535 127.448L13.8331 160.472C27.3758 167.227 37.6548 169.012 50.7871 168.472C63.3677 167.955 73.4449 165.158 81.3431 158.297C89.8761 150.746 93.5507 140.151 93.0461 127.876C92.6052 117.148 88.2846 108.852 80.0844 102.985C75.6442 99.8442 68.6495 96.9696 58.3513 93.848C50.4069 91.5159 45.9844 89.0706 45.8934 86.8588C45.748 83.3199 49.7876 81.3225 53.8493 81.1556C56.8289 81.0331 60.542 81.3692 65.1658 82.3692C67.3768 82.8473 69.5957 83.4044 71.6771 84.018C74.5846 84.8751 77.2238 85.8424 79.1983 86.8588L88.4079 52.4591L56.7277 47.7826L56.0026 51.3151Z" fill="black"/>
<path fill-rule="evenodd" clip-rule="evenodd" d="M363.136 169.441L363.105 169.462C352.703 176.442 340.728 177.908 327.77 176.828C313.966 175.677 303.111 172.346 289.872 163.542L284.822 160.184L299.202 115.802C292.012 107.437 289.412 96.1791 290.306 85.4582C291.264 73.9545 296.39 63.7155 306.054 56.7697C315.073 50.2471 325.931 48.7135 333.433 48.8447C336.329 48.8954 339.31 49.1488 341.817 49.4274L343.173 45.4264L386.591 56.3623L369.975 104.789C378.623 113.055 382.357 123.734 381.336 135.99C380.205 149.56 374.556 161.625 363.166 169.42L363.136 169.441ZM347.273 58.2553C347.273 58.2553 339.823 56.9577 333.293 56.8435C326.763 56.7293 317.841 58.1135 310.733 63.2589C303.176 68.6858 299.065 76.6753 298.278 86.1225C297.416 96.4639 300.435 106.56 307.638 113.004C311.691 116.529 317.488 119.413 327.008 123.5C334.379 126.664 338.907 130.12 338.696 132.653C338.415 136.029 335.905 137.52 331.167 137.126C327.06 136.783 322.256 135.267 316.754 132.577L304.217 126.279L294.302 156.88C306.357 164.898 315.904 167.811 328.434 168.855C340.439 169.856 350.337 168.395 358.648 162.819C367.643 156.661 372.387 147.039 373.364 135.326C374.217 125.09 371.098 116.702 364.009 110.161C360.166 106.653 353.867 103.095 344.461 98.9107C337.196 95.7551 333.287 92.9094 333.463 90.799C333.744 87.4222 337.816 86.005 341.692 86.3279C344.535 86.5649 348.02 87.3241 352.291 88.8214C354.178 89.4829 356.013 90.3047 357.728 91.1828C360.463 92.5827 362.893 94.1255 364.742 95.3897L376.2 61.995L348.38 54.9878L347.273 58.2553Z" fill="black"/>
<path d="M263.088 74.1179L263.177 72.9703L240.492 74.7795L239.647 72.313L239.164 74.9901L215.118 76.8571L213.546 71.7824L195.438 72.9892L194.105 67.0226L190.31 67.1802L189.022 73.417L164.883 74.8877L165.036 73.4176L133.014 72.0761C130.846 73.2323 127.761 74.0358 125.843 74.2631L125.837 74.2638L102.543 77L88.3881 64.4601L85.2925 37.1637L80.1289 30.7893L82.5669 6.33209L110.675 2.99357C115.314 2.44256 119.667 3.52906 123.358 6.38125C123.915 6.81182 124.435 7.26771 124.919 7.74727L126.922 0.57932L151.873 1.67567L151.885 1.67626C157.676 1.95693 162.735 3.99449 166.671 7.92537L167.608 2.31053L203.757 0L205.926 6.51019L226.105 5.04919L228.155 8.71263L229.097 4.73624L252.143 3.13533L254.412 6.64691L254.995 2.70057L283.684 0.665436L283.221 3.61222L302.133 4.83033L299.719 37.7531L316.129 38.5625L308.773 63.5961L294.661 76.1017L263.088 74.1179Z" fill="black"/>
<path d="M308.949 43.5575L304.681 58.47L278.218 56.7528L280.824 23.1143L277.644 22.9494L279.597 8.73373L296.238 9.80555L293.818 42.8113L308.949 43.5575Z" fill="white"/>
<path d="M277.183 6.47048L269.49 55.4297L250.547 56.7421L244.034 38.6635L240.398 57.7377L221.54 59.0518L205.87 11.8627L224.368 10.523L230.81 29.1315L234.241 9.63349L248.964 8.47665L255.481 27.377L258.961 7.75213L277.183 6.47048Z" fill="white"/>
<path d="M215.898 53.7689L199.505 54.7219L197.934 48.0844L184.58 48.7652L183.282 55.9473L167.128 56.8318L174.295 20.6536L169.925 20.9772L172.197 7.36309L199.847 5.59576L215.898 53.7689ZM193.869 35.4216L189.464 21.568L186.595 35.945L193.869 35.4216Z" fill="white"/>
<path d="M166.97 55.9448L149.488 55.0975L143.897 40.623L143.206 54.793L128.592 54.0848L130.246 20.2029L127.036 20.0474L130.934 6.10304L151.552 7.00901C156.514 7.24952 160.487 9.05932 163.471 12.4384C166.5 15.8197 167.891 20.0591 167.642 25.1566C167.316 31.8441 164.866 36.8813 159.6 40.0481L166.97 55.9448ZM153.031 25.0717C153.164 22.3592 151.568 20.9225 148.245 20.7614L144.762 20.5926L144.41 29.3809H148C151.323 29.5419 152.906 27.6438 153.031 25.0717Z" fill="white"/>
<path d="M127.91 41.8732C128.326 45.6411 127.32 48.8711 124.89 51.5631C122.675 54.1355 119.706 55.6427 115.983 56.085L93.1597 58.8552L89.353 25.1795L86.1199 25.5487L87.4981 11.1157L111.25 8.29462C114.569 7.90037 117.471 8.66319 119.955 10.5831C122.439 12.503 123.872 15.1841 124.252 18.6263C124.781 23.4176 123.225 27.2312 119.585 30.067C122.342 31.5775 124.307 33.1115 125.478 34.6689C126.765 36.4482 127.576 38.8496 127.91 41.8732ZM108.864 24.1793C108.659 22.3186 106.635 21.6523 105.213 21.7614L102.589 22.0731L103.261 28.5315L106.424 28.1559C108.864 27.7238 109.07 26.04 108.864 24.1793ZM112.644 41.3567C112.418 39.31 110.366 38.0377 107.181 38.416L104.488 38.7078L105.224 46.8224L108.696 46.5428C112.202 46.0029 112.89 43.5895 112.644 41.3567Z" fill="white"/>
<path d="M301.827 164.348L269.275 162.747L258.943 135.989L257.62 162.344L230.319 161.046L233.259 97.2754L227.325 97.2754L234.57 70.9297L273.21 72.7248C282.649 73.1118 289.382 76.0663 295.112 82.2862C300.928 88.5097 303.882 97.01 303.496 106.449C302.988 118.832 298.031 128.649 288.074 134.573L301.827 164.348ZM273.958 107.308C274.164 102.286 271.862 97.4604 265.541 97.2012L257.484 96.9378L257.002 114.673L263.793 114.857C269.356 115.098 273.762 112.071 273.958 107.308Z" fill="#F01919"/>
<path d="M238.004 161.424H207.206L204.641 148.599H180.081L176.301 161.424H146.064L164.029 94.4171H155.714L161.754 69.0843H213.52L238.004 161.424ZM200.807 124.299L194.433 96.8943L187.278 124.299H200.807Z" fill="#F01919"/>
<path d="M157.931 68.9122L150.473 98.6391L128.943 99.5641L131.941 160.348L105.893 161.835L102.997 100.729L82.1921 101.674L87.0068 75.7917L125.459 73.7803L126.083 70.3218L157.931 68.9122Z" fill="#F01919"/>
<path d="M81.3431 158.297C89.8761 150.746 93.5507 140.151 93.0462 127.876C92.6052 117.148 88.2847 108.851 80.0845 102.985C75.6442 99.8442 68.6495 96.9696 58.3513 93.848C50.4069 91.5159 45.9844 89.0706 45.8935 86.8587C45.748 83.3198 49.7876 81.3225 53.8493 81.1556C56.8289 81.0331 60.542 81.3692 65.1658 82.3691C70.4652 83.5152 75.8103 85.1148 79.1983 86.8587L88.4079 52.459L56.7278 47.7825L56.0027 51.3151C56.0027 51.3151 48.1068 50.9341 41.3191 51.6614C34.5314 52.3886 25.4569 54.9798 18.75 61.2375C11.6152 67.8451 8.38587 76.6644 8.79285 86.5653C9.23834 97.4032 13.6767 107.484 21.9827 113.235C26.6437 116.367 33.0298 118.606 43.4338 121.613C51.4885 123.94 56.6332 126.938 56.7423 129.593C56.8878 133.132 54.4775 135.003 49.5115 135.207C45.2076 135.384 40.0283 134.434 33.9736 132.356L20.1535 127.448L13.8331 160.472C27.3758 167.227 37.6548 169.012 50.7872 168.472C63.3677 167.955 73.445 165.158 81.3431 158.297Z" fill="#F01919"/>
<path d="M358.648 162.818C367.643 156.661 372.388 147.039 373.364 135.326C374.217 125.09 371.099 116.702 364.009 110.161C360.167 106.653 353.867 103.095 344.461 98.9106C337.196 95.755 333.287 92.9094 333.463 90.7989C333.745 87.4222 337.816 86.0049 341.692 86.3279C344.535 86.5648 348.02 87.324 352.291 88.8214C357.186 90.5376 361.733 93.3325 364.742 95.3897L376.2 61.995L348.38 54.9878L347.273 58.2553C347.273 58.2553 339.823 56.9577 333.293 56.8435C326.763 56.7292 317.841 58.1134 310.733 63.2589C303.176 68.6858 299.065 76.6753 298.278 86.1225C297.416 96.4638 300.435 106.559 307.638 113.004C311.691 116.529 317.488 119.413 327.008 123.5C334.379 126.664 338.908 130.12 338.696 132.653C338.415 136.029 335.905 137.52 331.167 137.125C327.06 136.783 322.256 135.267 316.754 132.577L304.217 126.279L294.302 156.88C306.358 164.898 315.904 167.811 328.435 168.855C340.439 169.856 350.337 168.395 358.648 162.818Z" fill="#F01919"/>
<path d="M112.848 181.956L138.946 192.911V262.94C119.516 257.791 110.157 244.592 110.994 222.598L121.536 223.849C112.187 216.015 105.285 201.143 112.848 181.956Z" fill="white"/>
<path fill-rule="evenodd" clip-rule="evenodd" d="M140.881 188.301C142.738 189.08 143.946 190.897 143.946 192.911V262.94C143.946 264.492 143.225 265.957 141.995 266.903C140.765 267.85 139.165 268.171 137.665 267.774C127.1 264.973 118.764 259.832 113.268 251.945C107.801 244.099 105.552 234.124 105.998 222.408C106.051 221.014 106.685 219.705 107.746 218.798C108.377 218.258 109.126 217.89 109.921 217.715C104.34 208.186 102.249 195.21 108.196 180.123C108.689 178.871 109.666 177.871 110.905 177.349C112.145 176.826 113.543 176.825 114.783 177.346L140.881 188.301ZM116.209 218.182C110.629 210.642 107.53 199.823 111.239 186.704C111.678 185.153 112.212 183.57 112.848 181.956L138.946 192.911V262.94C137.198 262.477 135.531 261.949 133.946 261.354C119.302 255.865 111.625 244.767 110.986 227.632C110.926 226.009 110.929 224.331 110.995 222.598L121.536 223.849C119.624 222.247 117.814 220.35 116.209 218.182Z" fill="black"/>
<path d="M271.221 181.956L245.123 192.911V262.94C264.553 257.791 273.912 244.592 273.074 222.598L262.533 223.849C271.882 216.015 278.784 201.143 271.221 181.956Z" fill="white"/>
<path fill-rule="evenodd" clip-rule="evenodd" d="M243.188 188.301C241.331 189.08 240.123 190.897 240.123 192.911V262.94C240.123 264.492 240.844 265.957 242.074 266.903C243.304 267.85 244.904 268.171 246.404 267.774C256.969 264.973 265.305 259.832 270.801 251.945C276.268 244.099 278.517 234.124 278.071 222.408C278.018 221.014 277.384 219.705 276.324 218.798C275.692 218.258 274.943 217.89 274.148 217.715C279.729 208.186 281.82 195.21 275.873 180.123C275.38 178.871 274.403 177.871 273.164 177.349C271.924 176.826 270.527 176.825 269.286 177.346L243.188 188.301ZM267.86 218.182C273.44 210.642 276.539 199.823 272.83 186.704C272.391 185.153 271.857 183.57 271.221 181.956L245.123 192.911V262.94C246.871 262.477 248.538 261.949 250.123 261.354C264.767 255.865 272.444 244.767 273.083 227.632C273.143 226.009 273.14 224.331 273.075 222.598L262.533 223.849C264.445 222.247 266.255 220.35 267.86 218.182Z" fill="black"/>
<path d="M191.876 175.034L215.743 200.93L249.29 209.427L239.609 243.821L249.29 278.215L215.743 286.713L191.876 311.893L168.01 286.713L134.463 278.215L144.143 243.821L134.463 209.427L168.01 200.93L191.876 175.034Z" fill="black"/>
<path fill-rule="evenodd" clip-rule="evenodd" d="M191.719 148.076L219.236 176.85L257.914 186.293L246.752 224.51L257.914 262.728L219.236 272.17L191.719 300.945L164.203 272.17L125.525 262.728L136.687 224.51L125.525 186.293L164.203 176.85L191.719 148.076ZM167.068 181.813L132.417 190.272L142.416 224.51L132.417 258.749L167.068 267.208L191.719 292.987L216.371 267.208L251.022 258.749L241.023 224.51L251.022 190.272L216.371 181.813L191.719 156.034L167.068 181.813Z" fill="black"/>
<mask id="mask0_2023_569" style="mask-type:alpha" maskUnits="userSpaceOnUse" x="132" y="156" width="120" height="137">
<path d="M191.719 156.034L216.371 181.813L251.022 190.272L241.023 224.51L251.022 258.749L216.371 267.208L191.719 292.987L167.068 267.208L132.417 258.749L142.416 224.51L132.417 190.272L167.068 181.813L191.719 156.034Z" fill="#D9D9D9"/>
</mask>
<g mask="url(#mask0_2023_569)">
<path d="M93.3379 210.047L223.717 134.772L254.623 188.303L124.244 263.578L93.3379 210.047Z" fill="#FFE35B"/>
<path d="M124.244 263.578L254.623 188.303L285.529 241.834L155.15 317.108L124.244 263.578Z" fill="#FFB921"/>
<path d="M191.72 225.461L130.941 189.659L191.72 154.697V225.461Z" fill="white"/>
<path d="M191.719 224.51L253.125 259.787L191.719 295.274V224.51Z" fill="#C95E40"/>
</g>
<path d="M233.179 226.278C233.179 248.973 214.618 267.371 191.721 267.371C168.824 267.371 150.262 248.973 150.262 226.278C150.262 203.584 168.824 185.186 191.721 185.186C214.618 185.186 233.179 203.584 233.179 226.278Z" fill="#FFE35B"/>
<path d="M233.179 223.485C233.179 246.179 214.618 264.577 191.721 264.577C168.824 264.577 150.262 246.179 150.262 223.485C150.262 200.79 168.824 182.392 191.721 182.392C214.618 182.392 233.179 200.79 233.179 223.485Z" fill="black"/>
<path fill-rule="evenodd" clip-rule="evenodd" d="M209.779 247.439C220.371 242.633 226.637 233.916 226.637 222.237C226.637 206.975 211.004 189.266 191.72 189.266C172.437 189.266 156.804 206.975 156.804 222.237C156.804 233.916 163.299 242.652 173.891 247.439V252.329C173.891 253.942 175.222 255.249 176.863 255.249H206.544C208.185 255.249 209.515 253.942 209.515 252.329L209.779 247.439ZM181.481 214.544C182.394 213.733 183.985 213.647 184.81 214.544L189.519 219.561C190.345 220.458 190.274 221.842 189.361 222.653C188.449 223.464 187.039 223.395 186.213 222.498L181.481 217.72C180.655 216.823 180.568 215.355 181.481 214.544ZM198.866 214.644C199.691 213.747 201.296 213.484 202.209 214.296C203.122 215.107 203.218 216.823 202.392 217.72L197.559 222.653C196.733 223.55 195.323 223.619 194.411 222.808C193.498 221.997 193.427 220.612 194.253 219.716L198.866 214.644ZM186.608 229.933C186.608 235.575 181.951 240.15 176.207 240.15C170.463 240.15 165.807 235.575 165.807 229.933C165.807 224.29 170.463 219.716 176.207 219.716C181.951 219.716 186.608 224.29 186.608 229.933ZM208.064 240.15C213.808 240.15 218.465 235.575 218.465 229.933C218.465 224.29 213.808 219.716 208.064 219.716C202.32 219.716 197.664 224.29 197.664 229.933C197.664 235.575 202.32 240.15 208.064 240.15ZM191.72 233.794L196.867 242.222H186.573L191.72 233.794Z" fill="#FFBF21"/>
<path d="M187.396 198.318C189.784 202.101 187.039 208.123 181.264 211.768C175.49 215.412 168.873 215.3 166.485 211.517C164.097 207.734 166.842 201.712 172.617 198.067C178.391 194.423 185.008 194.535 187.396 198.318Z" fill="white"/>
</svg>
