<svg width="77" height="28" viewBox="0 0 77 28" fill="none" xmlns="http://www.w3.org/2000/svg">
<path d="M0 3.1543H26.4479L22.4711 27.5645L0 27.5645V3.1543Z" fill="black"/>
<path d="M28.4482 1.59961C28.5688 1.59962 28.6828 1.65443 28.7588 1.74805C28.8158 1.81838 28.8473 1.90532 28.8486 1.99414L28.8398 2.08301L23.8848 25.4619C23.8456 25.6468 23.6821 25.7793 23.4932 25.7793H1.9248C1.70405 25.7793 1.52468 25.6006 1.52441 25.3799V2L1.5332 1.91895C1.57069 1.73691 1.73167 1.59961 1.9248 1.59961H28.4482Z" fill="#13AA13" stroke="black" stroke-width="0.8" stroke-linejoin="round"/>
<mask id="mask0_2024_1163" style="mask-type:alpha" maskUnits="userSpaceOnUse" x="1" y="2" width="28" height="24">
<path d="M1.9248 2H28.4482L23.4936 25.3794H1.9248V2Z" fill="#D9D9D9"/>
</mask>
<g mask="url(#mask0_2024_1163)">
<path d="M-0.0273438 -0.666016H29.3604V9.10282L-0.0273438 18.1698V-0.666016Z" fill="#00CC00"/>
</g>
<g filter="url(#filter0_d_2024_1163)">
<path d="M21.8939 13.6942C20.5899 15.5894 19.4191 17.4671 15.1802 19.5687C12.4166 18.5478 8.84067 17.2088 7.29163 13.6942C5.40003 9.40235 9.85395 4.82967 14.4909 8.71884C19.7101 3.5826 24.224 10.3119 21.8939 13.6942Z" fill="white"/>
</g>
<g filter="url(#filter1_d_2024_1163)">
<mask id="path-6-outside-1_2024_1163" maskUnits="userSpaceOnUse" x="31.49" y="0.130005" width="38" height="10" fill="black">
<rect fill="white" x="31.49" y="0.130005" width="38" height="10"/>
<path d="M39.024 8.943C39.024 9.06767 38.6537 9.13 37.913 9.13C37.1723 9.13 36.802 9.06767 36.802 8.943V6.413H35.262V8.943C35.262 9.06767 34.8917 9.13 34.151 9.13C33.4103 9.13 33.04 9.06767 33.04 8.943V1.65C33.04 1.496 33.4103 1.419 34.151 1.419C34.8917 1.419 35.262 1.496 35.262 1.65V4.235H36.802V1.672C36.802 1.56934 36.9853 1.496 37.352 1.452C37.5427 1.43734 37.7297 1.43 37.913 1.43L38.474 1.452C38.8407 1.496 39.024 1.56934 39.024 1.672V8.943ZM43.6941 4.488C43.8334 4.488 43.9031 4.74467 43.9031 5.258C43.9031 5.412 43.8848 5.59534 43.8481 5.808C43.8188 6.01334 43.7601 6.116 43.6721 6.116H42.2751V7.216H44.2991C44.4238 7.216 44.5081 7.37734 44.5521 7.7C44.5741 7.83934 44.5851 7.98967 44.5851 8.151C44.5851 8.305 44.5631 8.50667 44.5191 8.756C44.4751 9.00534 44.4018 9.13 44.2991 9.13H40.5371C40.2584 9.13 40.1191 9.01634 40.1191 8.789V1.716C40.1191 1.52534 40.2034 1.43 40.3721 1.43H44.3101C44.4641 1.43 44.5411 1.75634 44.5411 2.409C44.5411 3.05434 44.4641 3.377 44.3101 3.377H42.2751V4.488H43.6941ZM50.7139 9.152C50.0759 9.152 49.7312 9.04934 49.6799 8.844L49.3169 7.425H47.5679L47.2489 8.789C47.2049 9.01634 46.8529 9.13 46.1929 9.13C45.8409 9.13 45.5806 9.11167 45.4119 9.075C45.2432 9.031 45.1589 8.998 45.1589 8.976L47.1059 1.529C47.1059 1.47034 47.6082 1.441 48.6129 1.441C49.6176 1.441 50.1199 1.47034 50.1199 1.529L52.0229 8.987C52.0229 9.03834 51.8542 9.07867 51.5169 9.108C51.1796 9.13734 50.9119 9.152 50.7139 9.152ZM47.8429 6.028H48.9979L48.5029 3.751H48.4369L47.8429 6.028ZM52.6419 8.481V1.639C52.6419 1.485 53.0122 1.408 53.7529 1.408C54.5009 1.408 54.8749 1.485 54.8749 1.639V7.029H56.5689C56.7009 7.029 56.7926 7.20134 56.8439 7.546C56.8659 7.71467 56.8769 7.887 56.8769 8.063C56.8769 8.239 56.8659 8.41867 56.8439 8.602C56.7852 8.954 56.6899 9.13 56.5579 9.13H53.1699C53.0086 9.13 52.8802 9.064 52.7849 8.932C52.6896 8.8 52.6419 8.64967 52.6419 8.481ZM60.4565 8.954C60.4565 9.10067 60.0935 9.174 59.3675 9.174C58.6415 9.174 58.2785 9.10067 58.2785 8.954V3.432H56.9585C56.8338 3.432 56.7458 3.26334 56.6945 2.926C56.6725 2.76467 56.6615 2.59967 56.6615 2.431C56.6615 2.26234 56.6725 2.09734 56.6945 1.936C56.7458 1.59867 56.8338 1.43 56.9585 1.43H61.7435C61.8681 1.43 61.9561 1.59867 62.0075 1.936C62.0295 2.09734 62.0405 2.26234 62.0405 2.431C62.0405 2.59967 62.0295 2.76467 62.0075 2.926C61.9561 3.26334 61.8681 3.432 61.7435 3.432H60.4565V8.954ZM68.6509 8.943C68.6509 9.06767 68.2806 9.13 67.5399 9.13C66.7993 9.13 66.4289 9.06767 66.4289 8.943V6.413H64.8889V8.943C64.8889 9.06767 64.5186 9.13 63.7779 9.13C63.0373 9.13 62.6669 9.06767 62.6669 8.943V1.65C62.6669 1.496 63.0373 1.419 63.7779 1.419C64.5186 1.419 64.8889 1.496 64.8889 1.65V4.235H66.4289V1.672C66.4289 1.56934 66.6123 1.496 66.9789 1.452C67.1696 1.43734 67.3566 1.43 67.5399 1.43L68.1009 1.452C68.4676 1.496 68.6509 1.56934 68.6509 1.672V8.943Z"/>
</mask>
<path d="M39.024 8.943C39.024 9.06767 38.6537 9.13 37.913 9.13C37.1723 9.13 36.802 9.06767 36.802 8.943V6.413H35.262V8.943C35.262 9.06767 34.8917 9.13 34.151 9.13C33.4103 9.13 33.04 9.06767 33.04 8.943V1.65C33.04 1.496 33.4103 1.419 34.151 1.419C34.8917 1.419 35.262 1.496 35.262 1.65V4.235H36.802V1.672C36.802 1.56934 36.9853 1.496 37.352 1.452C37.5427 1.43734 37.7297 1.43 37.913 1.43L38.474 1.452C38.8407 1.496 39.024 1.56934 39.024 1.672V8.943ZM43.6941 4.488C43.8334 4.488 43.9031 4.74467 43.9031 5.258C43.9031 5.412 43.8848 5.59534 43.8481 5.808C43.8188 6.01334 43.7601 6.116 43.6721 6.116H42.2751V7.216H44.2991C44.4238 7.216 44.5081 7.37734 44.5521 7.7C44.5741 7.83934 44.5851 7.98967 44.5851 8.151C44.5851 8.305 44.5631 8.50667 44.5191 8.756C44.4751 9.00534 44.4018 9.13 44.2991 9.13H40.5371C40.2584 9.13 40.1191 9.01634 40.1191 8.789V1.716C40.1191 1.52534 40.2034 1.43 40.3721 1.43H44.3101C44.4641 1.43 44.5411 1.75634 44.5411 2.409C44.5411 3.05434 44.4641 3.377 44.3101 3.377H42.2751V4.488H43.6941ZM50.7139 9.152C50.0759 9.152 49.7312 9.04934 49.6799 8.844L49.3169 7.425H47.5679L47.2489 8.789C47.2049 9.01634 46.8529 9.13 46.1929 9.13C45.8409 9.13 45.5806 9.11167 45.4119 9.075C45.2432 9.031 45.1589 8.998 45.1589 8.976L47.1059 1.529C47.1059 1.47034 47.6082 1.441 48.6129 1.441C49.6176 1.441 50.1199 1.47034 50.1199 1.529L52.0229 8.987C52.0229 9.03834 51.8542 9.07867 51.5169 9.108C51.1796 9.13734 50.9119 9.152 50.7139 9.152ZM47.8429 6.028H48.9979L48.5029 3.751H48.4369L47.8429 6.028ZM52.6419 8.481V1.639C52.6419 1.485 53.0122 1.408 53.7529 1.408C54.5009 1.408 54.8749 1.485 54.8749 1.639V7.029H56.5689C56.7009 7.029 56.7926 7.20134 56.8439 7.546C56.8659 7.71467 56.8769 7.887 56.8769 8.063C56.8769 8.239 56.8659 8.41867 56.8439 8.602C56.7852 8.954 56.6899 9.13 56.5579 9.13H53.1699C53.0086 9.13 52.8802 9.064 52.7849 8.932C52.6896 8.8 52.6419 8.64967 52.6419 8.481ZM60.4565 8.954C60.4565 9.10067 60.0935 9.174 59.3675 9.174C58.6415 9.174 58.2785 9.10067 58.2785 8.954V3.432H56.9585C56.8338 3.432 56.7458 3.26334 56.6945 2.926C56.6725 2.76467 56.6615 2.59967 56.6615 2.431C56.6615 2.26234 56.6725 2.09734 56.6945 1.936C56.7458 1.59867 56.8338 1.43 56.9585 1.43H61.7435C61.8681 1.43 61.9561 1.59867 62.0075 1.936C62.0295 2.09734 62.0405 2.26234 62.0405 2.431C62.0405 2.59967 62.0295 2.76467 62.0075 2.926C61.9561 3.26334 61.8681 3.432 61.7435 3.432H60.4565V8.954ZM68.6509 8.943C68.6509 9.06767 68.2806 9.13 67.5399 9.13C66.7993 9.13 66.4289 9.06767 66.4289 8.943V6.413H64.8889V8.943C64.8889 9.06767 64.5186 9.13 63.7779 9.13C63.0373 9.13 62.6669 9.06767 62.6669 8.943V1.65C62.6669 1.496 63.0373 1.419 63.7779 1.419C64.5186 1.419 64.8889 1.496 64.8889 1.65V4.235H66.4289V1.672C66.4289 1.56934 66.6123 1.496 66.9789 1.452C67.1696 1.43734 67.3566 1.43 67.5399 1.43L68.1009 1.452C68.4676 1.496 68.6509 1.56934 68.6509 1.672V8.943Z" fill="#98FE98"/>
<path d="M36.802 6.413H37.602V5.613H36.802V6.413ZM35.262 6.413V5.613H34.462V6.413H35.262ZM35.262 4.235H34.462V5.035H35.262V4.235ZM36.802 4.235V5.035H37.602V4.235H36.802ZM37.352 1.452L37.2906 0.654361L37.2736 0.65567L37.2567 0.657703L37.352 1.452ZM37.913 1.43L37.9443 0.630619L37.9287 0.630004H37.913V1.43ZM38.474 1.452L38.5693 0.657703L38.5374 0.653877L38.5053 0.652619L38.474 1.452ZM39.024 8.943H38.224C38.224 8.74127 38.3048 8.57749 38.3967 8.46916C38.478 8.37333 38.5611 8.32729 38.594 8.3107C38.6554 8.27967 38.6799 8.28316 38.6135 8.29435C38.4963 8.31407 38.2729 8.33 37.913 8.33V9.13V9.93C38.2938 9.93 38.6259 9.91477 38.879 9.87216C38.9977 9.85218 39.1611 9.81672 39.3151 9.73894C39.4405 9.67566 39.824 9.44237 39.824 8.943H39.024ZM37.913 9.13V8.33C37.5531 8.33 37.3297 8.31407 37.2125 8.29435C37.1461 8.28316 37.1706 8.27967 37.232 8.3107C37.2649 8.32729 37.3479 8.37333 37.4293 8.46916C37.5212 8.57749 37.602 8.74127 37.602 8.943H36.802H36.002C36.002 9.44237 36.3855 9.67566 36.5108 9.73894C36.6649 9.81672 36.8283 9.85218 36.947 9.87216C37.2001 9.91477 37.5322 9.93 37.913 9.93V9.13ZM36.802 8.943H37.602V6.413H36.802H36.002V8.943H36.802ZM36.802 6.413V5.613H35.262V6.413V7.213H36.802V6.413ZM35.262 6.413H34.462V8.943H35.262H36.062V6.413H35.262ZM35.262 8.943H34.462C34.462 8.74127 34.5428 8.57749 34.6347 8.46916C34.716 8.37333 34.7991 8.32729 34.832 8.3107C34.8934 8.27967 34.9179 8.28316 34.8515 8.29435C34.7343 8.31407 34.5109 8.33 34.151 8.33V9.13V9.93C34.5318 9.93 34.8639 9.91477 35.117 9.87216C35.2357 9.85218 35.3991 9.81672 35.5531 9.73894C35.6785 9.67566 36.062 9.44237 36.062 8.943H35.262ZM34.151 9.13V8.33C33.7911 8.33 33.5677 8.31407 33.4505 8.29435C33.3841 8.28316 33.4086 8.27967 33.47 8.3107C33.5029 8.32729 33.5859 8.37333 33.6673 8.46916C33.7592 8.57749 33.84 8.74127 33.84 8.943H33.04H32.24C32.24 9.44237 32.6235 9.67566 32.7488 9.73894C32.9029 9.81672 33.0663 9.85218 33.185 9.87216C33.4381 9.91477 33.7702 9.93 34.151 9.93V9.13ZM33.04 8.943H33.84V1.65H33.04H32.24V8.943H33.04ZM33.04 1.65H33.84C33.84 1.80272 33.7908 1.94109 33.7167 2.0489C33.6489 2.14764 33.5734 2.2024 33.5328 2.22772C33.4611 2.27246 33.4229 2.272 33.4806 2.26C33.5829 2.23873 33.7939 2.219 34.151 2.219V1.419V0.619004C33.7674 0.619004 33.4229 0.637776 33.1549 0.693506C33.0274 0.720008 32.8503 0.767672 32.686 0.870166C32.5126 0.978329 32.24 1.22917 32.24 1.65H33.04ZM34.151 1.419V2.219C34.5081 2.219 34.7191 2.23873 34.8214 2.26C34.8791 2.272 34.8409 2.27246 34.7692 2.22772C34.7286 2.2024 34.6531 2.14764 34.5853 2.0489C34.5112 1.94109 34.462 1.80272 34.462 1.65H35.262H36.062C36.062 1.22917 35.7894 0.978329 35.6159 0.870166C35.4516 0.767672 35.2746 0.720008 35.1471 0.693506C34.8791 0.637776 34.5346 0.619004 34.151 0.619004V1.419ZM35.262 1.65H34.462V4.235H35.262H36.062V1.65H35.262ZM35.262 4.235V5.035H36.802V4.235V3.435H35.262V4.235ZM36.802 4.235H37.602V1.672H36.802H36.002V4.235H36.802ZM36.802 1.672H37.602C37.602 1.91383 37.4848 2.087 37.3904 2.17761C37.3096 2.25514 37.2391 2.28179 37.2366 2.28279C37.2298 2.2855 37.2843 2.26587 37.4473 2.24631L37.352 1.452L37.2567 0.657703C37.053 0.682139 36.8325 0.72118 36.6424 0.797223C36.5482 0.834885 36.4089 0.901868 36.2823 1.02339C36.1421 1.15801 36.002 1.37884 36.002 1.672H36.802ZM37.352 1.452L37.4133 2.24965C37.5845 2.23648 37.751 2.23 37.913 2.23V1.43V0.630004C37.7083 0.630004 37.5008 0.638191 37.2906 0.654361L37.352 1.452ZM37.913 1.43L37.8816 2.22939L38.4426 2.25139L38.474 1.452L38.5053 0.652619L37.9443 0.630619L37.913 1.43ZM38.474 1.452L38.3787 2.24631C38.5417 2.26587 38.5962 2.2855 38.5894 2.28279C38.5869 2.28179 38.5163 2.25514 38.4356 2.17761C38.3412 2.087 38.224 1.91383 38.224 1.672H39.024H39.824C39.824 1.37884 39.6839 1.15801 39.5436 1.02339C39.4171 0.901868 39.2778 0.834885 39.1836 0.797223C38.9935 0.72118 38.7729 0.682139 38.5693 0.657703L38.474 1.452ZM39.024 1.672H38.224V8.943H39.024H39.824V1.672H39.024ZM43.8481 5.808L43.0597 5.67208L43.0578 5.68345L43.0561 5.69487L43.8481 5.808ZM42.2751 6.116V5.316H41.4751V6.116H42.2751ZM42.2751 7.216H41.4751V8.016H42.2751V7.216ZM44.5521 7.7L43.7594 7.8081L43.7606 7.81645L43.7619 7.82478L44.5521 7.7ZM44.5191 8.756L43.7313 8.61698L43.7313 8.61698L44.5191 8.756ZM42.2751 3.377V2.577H41.4751V3.377H42.2751ZM42.2751 4.488H41.4751V5.288H42.2751V4.488ZM43.6941 4.488V5.288C43.5832 5.288 43.4715 5.26113 43.3705 5.20797C43.2732 5.15674 43.2068 5.09235 43.1652 5.04127C43.1246 4.9914 43.1027 4.94845 43.0926 4.92602C43.0871 4.91392 43.0836 4.90464 43.0816 4.89898C43.0796 4.89328 43.0788 4.89014 43.0788 4.89007C43.0787 4.88995 43.0793 4.89212 43.0803 4.89688C43.0813 4.90162 43.0826 4.90838 43.0841 4.91738C43.0871 4.93563 43.0903 4.96059 43.0933 4.99322C43.0993 5.05921 43.1031 5.14647 43.1031 5.258H43.9031H44.7031C44.7031 4.98327 44.6863 4.70453 44.6229 4.47094C44.5919 4.35671 44.5327 4.18678 44.4059 4.03099C44.2595 3.85127 44.0156 3.688 43.6941 3.688V4.488ZM43.9031 5.258H43.1031C43.1031 5.35242 43.0915 5.48796 43.0597 5.67208L43.8481 5.808L44.6365 5.94393C44.678 5.70272 44.7031 5.47159 44.7031 5.258H43.9031ZM43.8481 5.808L43.0561 5.69487C43.0466 5.76144 43.0425 5.72085 43.0875 5.64209C43.1134 5.59669 43.1696 5.51431 43.2738 5.44137C43.3875 5.36181 43.527 5.316 43.6721 5.316V6.116V6.916C44.1001 6.916 44.3606 6.63906 44.4767 6.43592C44.5804 6.2545 44.6202 6.0599 44.6401 5.92114L43.8481 5.808ZM43.6721 6.116V5.316H42.2751V6.116V6.916H43.6721V6.116ZM42.2751 6.116H41.4751V7.216H42.2751H43.0751V6.116H42.2751ZM42.2751 7.216V8.016H44.2991V7.216V6.416H42.2751V7.216ZM44.2991 7.216V8.016C44.1425 8.016 44.0013 7.96064 43.8962 7.87953C43.803 7.80763 43.7603 7.73323 43.7469 7.70761C43.7249 7.66557 43.7417 7.67797 43.7594 7.8081L44.5521 7.7L45.3448 7.59191C45.3185 7.39937 45.2711 7.16977 45.1648 6.9664C45.0558 6.75781 44.7866 6.416 44.2991 6.416V7.216ZM44.5521 7.7L43.7619 7.82478C43.7765 7.91747 43.7851 8.02564 43.7851 8.151H44.5851H45.3851C45.3851 7.95371 45.3717 7.76121 45.3423 7.57523L44.5521 7.7ZM44.5851 8.151H43.7851C43.7851 8.23834 43.7716 8.38832 43.7313 8.61698L44.5191 8.756L45.3069 8.89503C45.3546 8.62502 45.3851 8.37167 45.3851 8.151H44.5851ZM44.5191 8.756L43.7313 8.61698C43.7153 8.70728 43.7065 8.69052 43.7415 8.63089C43.762 8.59605 43.812 8.52191 43.9082 8.45381C44.0141 8.37876 44.1505 8.33 44.2991 8.33V9.13V9.93C44.7426 9.93 45.0055 9.63782 45.1206 9.44212C45.2291 9.25782 45.2789 9.05407 45.3069 8.89503L44.5191 8.756ZM44.2991 9.13V8.33H40.5371V9.13V9.93H44.2991V9.13ZM40.5371 9.13V8.33C40.486 8.33 40.5962 8.31631 40.7293 8.42486C40.8006 8.48304 40.8539 8.55763 40.8858 8.6356C40.9156 8.70866 40.9191 8.76563 40.9191 8.789H40.1191H39.3191C39.3191 9.07389 39.4143 9.417 39.7179 9.66465C39.9903 9.88687 40.3095 9.93 40.5371 9.93V9.13ZM40.1191 8.789H40.9191V1.716H40.1191H39.3191V8.789H40.1191ZM40.1191 1.716H40.9191C40.9191 1.72149 40.92 1.87504 40.7815 2.03156C40.6265 2.2068 40.4382 2.23 40.3721 2.23V1.43V0.630004C40.1373 0.630004 39.8225 0.70088 39.5831 0.971445C39.3603 1.2233 39.3191 1.51985 39.3191 1.716H40.1191ZM40.3721 1.43V2.23H44.3101V1.43V0.630004H40.3721V1.43ZM44.3101 1.43V2.23C44.1798 2.23 44.055 2.19329 43.9499 2.12965C43.8512 2.06987 43.7908 1.9994 43.7582 1.9534C43.7007 1.87222 43.6953 1.81838 43.7047 1.85847C43.7213 1.92866 43.7411 2.09797 43.7411 2.409H44.5411H45.3411C45.3411 2.06737 45.3224 1.74719 45.262 1.49104C45.2329 1.36796 45.1793 1.19175 45.0641 1.02898C44.9347 0.846215 44.6834 0.630004 44.3101 0.630004V1.43ZM44.5411 2.409H43.7411C43.7411 2.71617 43.7213 2.88191 43.7052 2.94931C43.696 2.98785 43.702 2.93271 43.7607 2.85082C43.7939 2.80444 43.8547 2.7345 43.9533 2.67547C44.0581 2.61277 44.1816 2.577 44.3101 2.577V3.377V4.177C44.6793 4.177 44.9305 3.96536 45.0616 3.78219C45.178 3.61963 45.2322 3.4435 45.2615 3.3207C45.3224 3.06543 45.3411 2.74717 45.3411 2.409H44.5411ZM44.3101 3.377V2.577H42.2751V3.377V4.177H44.3101V3.377ZM42.2751 3.377H41.4751V4.488H42.2751H43.0751V3.377H42.2751ZM42.2751 4.488V5.288H43.6941V4.488V3.688H42.2751V4.488ZM49.6799 8.844L50.456 8.64997L50.4549 8.64574L49.6799 8.844ZM49.3169 7.425L50.0919 7.22674L49.938 6.625H49.3169V7.425ZM47.5679 7.425V6.625H46.9334L46.7889 7.24282L47.5679 7.425ZM47.2489 8.789L46.4699 8.60682L46.4664 8.62184L46.4635 8.63699L47.2489 8.789ZM45.4119 9.075L45.21 9.8491L45.2259 9.85325L45.242 9.85675L45.4119 9.075ZM45.1589 8.976L44.3849 8.77365L44.3589 8.87315V8.976H45.1589ZM47.1059 1.529L47.8799 1.73136L47.9059 1.63185V1.529H47.1059ZM50.1199 1.529H49.3199V1.62946L49.3447 1.7268L50.1199 1.529ZM52.0229 8.987H52.8229V8.88655L52.7981 8.78921L52.0229 8.987ZM51.5169 9.108L51.4476 8.31101L51.5169 9.108ZM47.8429 6.028L47.0688 5.82607L46.8074 6.828H47.8429V6.028ZM48.9979 6.028V6.828H49.9905L49.7796 5.85806L48.9979 6.028ZM48.5029 3.751L49.2846 3.58106L49.1477 2.951H48.5029V3.751ZM48.4369 3.751V2.951H47.8188L47.6628 3.54907L48.4369 3.751ZM50.7139 9.152V8.352C50.5746 8.352 50.4622 8.34635 50.3735 8.33709C50.2831 8.32764 50.2302 8.31572 50.2053 8.3083C50.1764 8.2997 50.2095 8.30445 50.2645 8.34727C50.3291 8.39751 50.4178 8.49708 50.456 8.64998L49.6799 8.844L48.9038 9.03803C49.0359 9.56657 49.4993 9.76748 49.7485 9.84171C50.0311 9.92589 50.3675 9.952 50.7139 9.952V9.152ZM49.6799 8.844L50.4549 8.64574L50.0919 7.22674L49.3169 7.425L48.5419 7.62327L48.9049 9.04227L49.6799 8.844ZM49.3169 7.425V6.625H47.5679V7.425V8.225H49.3169V7.425ZM47.5679 7.425L46.7889 7.24282L46.4699 8.60682L47.2489 8.789L48.0279 8.97119L48.3469 7.60719L47.5679 7.425ZM47.2489 8.789L46.4635 8.63699C46.491 8.49456 46.5677 8.3909 46.6361 8.33198C46.6936 8.28248 46.7316 8.2752 46.7061 8.28346C46.684 8.2906 46.6325 8.3034 46.5409 8.31369C46.4512 8.32376 46.3363 8.33 46.1929 8.33V9.13V9.93C46.5518 9.93 46.9032 9.90116 47.1977 9.80605C47.4742 9.71676 47.9288 9.48597 48.0343 8.94102L47.2489 8.789ZM46.1929 9.13V8.33C45.8519 8.33 45.6628 8.31086 45.5818 8.29326L45.4119 9.075L45.242 9.85675C45.4984 9.91249 45.8299 9.93 46.1929 9.93V9.13ZM45.4119 9.075L45.6138 8.30091C45.5376 8.28102 45.511 8.2712 45.5137 8.27226C45.5164 8.27332 45.5258 8.27705 45.5396 8.28369C45.5521 8.28967 45.5786 8.3029 45.6117 8.32448C45.6396 8.34268 45.7053 8.38788 45.7718 8.466C45.8353 8.54045 45.9589 8.71588 45.9589 8.976H45.1589H44.3589C44.3589 9.24163 44.4852 9.4229 44.5539 9.50354C44.6257 9.58785 44.6992 9.63958 44.7377 9.66466C44.8166 9.71614 44.8921 9.74717 44.9306 9.76225C45.0177 9.79631 45.1175 9.82499 45.21 9.8491L45.4119 9.075ZM45.1589 8.976L45.9329 9.17836L47.8799 1.73136L47.1059 1.529L46.3319 1.32665L44.3849 8.77365L45.1589 8.976ZM47.1059 1.529H47.9059C47.9059 1.84023 47.7328 2.03785 47.6389 2.12014C47.5477 2.20002 47.4617 2.23683 47.4321 2.2489C47.3671 2.27547 47.3231 2.28114 47.3381 2.2785C47.3541 2.27571 47.4109 2.26855 47.5293 2.26164C47.7563 2.24839 48.114 2.241 48.6129 2.241V1.441V0.641004C48.1071 0.641004 47.7113 0.648288 47.436 0.664365C47.3032 0.672121 47.1717 0.683299 47.062 0.702504C47.0143 0.710872 46.9231 0.728454 46.8267 0.767856C46.7815 0.78635 46.6837 0.829797 46.5847 0.916559C46.4829 1.00572 46.3059 1.21044 46.3059 1.529H47.1059ZM48.6129 1.441V2.241C49.1117 2.241 49.4695 2.24839 49.6965 2.26164C49.8148 2.26855 49.8717 2.27571 49.8877 2.2785C49.9027 2.28114 49.8587 2.27547 49.7937 2.2489C49.7641 2.23683 49.6781 2.20002 49.5869 2.12014C49.493 2.03785 49.3199 1.84023 49.3199 1.529H50.1199H50.9199C50.9199 1.21044 50.7429 1.00572 50.6411 0.916559C50.5421 0.829797 50.4443 0.78635 50.399 0.767856C50.3027 0.728454 50.2115 0.710872 50.1638 0.702504C50.0541 0.683299 49.9226 0.672121 49.7898 0.664365C49.5145 0.648288 49.1187 0.641004 48.6129 0.641004V1.441ZM50.1199 1.529L49.3447 1.7268L51.2477 9.1848L52.0229 8.987L52.7981 8.78921L50.8951 1.33121L50.1199 1.529ZM52.0229 8.987H51.2229C51.2229 8.75569 51.3228 8.58272 51.4108 8.48136C51.4912 8.38875 51.573 8.34023 51.6093 8.32054C51.6807 8.28173 51.7297 8.27307 51.7103 8.27769C51.6853 8.28369 51.6065 8.29719 51.4476 8.31101L51.5169 9.108L51.5862 9.905C51.7646 9.88948 51.9389 9.86815 52.0825 9.83382C52.1475 9.81827 52.2597 9.78807 52.3733 9.72634C52.4295 9.6958 52.8229 9.48007 52.8229 8.987H52.0229ZM51.5169 9.108L51.4476 8.31101C51.1196 8.33953 50.8782 8.352 50.7139 8.352V9.152V9.952C50.9456 9.952 51.2395 9.93515 51.5862 9.905L51.5169 9.108ZM47.8429 6.028V6.828H48.9979V6.028V5.228H47.8429V6.028ZM48.9979 6.028L49.7796 5.85806L49.2846 3.58106L48.5029 3.751L47.7212 3.92095L48.2162 6.19795L48.9979 6.028ZM48.5029 3.751V2.951H48.4369V3.751V4.551H48.5029V3.751ZM48.4369 3.751L47.6628 3.54907L47.0688 5.82607L47.8429 6.028L48.617 6.22994L49.211 3.95294L48.4369 3.751ZM54.8749 7.029H54.0749V7.829H54.8749V7.029ZM56.8439 7.546L57.6372 7.44253L57.6362 7.43534L57.6352 7.42816L56.8439 7.546ZM56.8439 8.602L57.633 8.73352L57.636 8.71548L57.6382 8.69732L56.8439 8.602ZM52.7849 8.932L53.4334 8.46361L53.4334 8.46361L52.7849 8.932ZM52.6419 8.481H53.4419V1.639H52.6419H51.8419V8.481H52.6419ZM52.6419 1.639H53.4419C53.4419 1.79172 53.3927 1.93009 53.3186 2.0379C53.2508 2.13664 53.1753 2.1914 53.1347 2.21672C53.063 2.26146 53.0248 2.261 53.0825 2.249C53.1848 2.22773 53.3958 2.208 53.7529 2.208V1.408V0.608005C53.3693 0.608005 53.0248 0.626776 52.7568 0.682506C52.6293 0.709008 52.4523 0.756672 52.2879 0.859166C52.1145 0.967328 51.8419 1.21816 51.8419 1.639H52.6419ZM53.7529 1.408V2.208C54.1138 2.208 54.3282 2.22773 54.4331 2.24932C54.4922 2.26149 54.4553 2.26236 54.3844 2.21858C54.3443 2.19383 54.2685 2.13956 54.2001 2.04093C54.1252 1.93303 54.0749 1.79361 54.0749 1.639H54.8749H55.6749C55.6749 1.21432 55.3975 0.96371 55.2252 0.857303C55.0608 0.755771 54.8836 0.708523 54.7557 0.682189C54.4866 0.626783 54.14 0.608005 53.7529 0.608005V1.408ZM54.8749 1.639H54.0749V7.029H54.8749H55.6749V1.639H54.8749ZM54.8749 7.029V7.829H56.5689V7.029V6.229H54.8749V7.029ZM56.5689 7.029V7.829C56.4126 7.829 56.2737 7.7733 56.1721 7.69503C56.0823 7.62583 56.0417 7.55533 56.0304 7.53395C56.0122 7.49983 56.0316 7.52247 56.0526 7.66385L56.8439 7.546L57.6352 7.42816C57.6049 7.22488 57.5528 6.98901 57.443 6.78256C57.3321 6.57408 57.0603 6.229 56.5689 6.229V7.029ZM56.8439 7.546L56.0506 7.64948C56.068 7.78267 56.0769 7.92041 56.0769 8.063H56.8769H57.6769C57.6769 7.8536 57.6638 7.64667 57.6372 7.44253L56.8439 7.546ZM56.8769 8.063H56.0769C56.0769 8.20563 56.068 8.35345 56.0496 8.50669L56.8439 8.602L57.6382 8.69732C57.6638 8.4839 57.6769 8.27238 57.6769 8.063H56.8769ZM56.8439 8.602L56.0548 8.47049C56.0305 8.6163 56.0097 8.64522 56.025 8.61698C56.0347 8.59903 56.0734 8.53168 56.1603 8.46443C56.2588 8.38816 56.3975 8.33 56.5579 8.33V9.13V9.93C57.0527 9.93 57.3234 9.57921 57.4318 9.37903C57.5425 9.17479 57.5987 8.93971 57.633 8.73352L56.8439 8.602ZM56.5579 9.13V8.33H53.1699V9.13V9.93H56.5579V9.13ZM53.1699 9.13V8.33C53.2013 8.33 53.2567 8.33729 53.3185 8.36907C53.3801 8.40072 53.4169 8.4407 53.4334 8.46361L52.7849 8.932L52.1364 9.4004C52.3804 9.73835 52.7489 9.93 53.1699 9.93V9.13ZM52.7849 8.932L53.4334 8.46361C53.4334 8.46352 53.4345 8.46504 53.436 8.46809C53.4376 8.47118 53.4391 8.47476 53.4402 8.47846C53.4414 8.48214 53.4419 8.48478 53.4421 8.48584C53.4422 8.48684 53.4419 8.4854 53.4419 8.481H52.6419H51.8419C51.8419 8.8114 51.9389 9.12693 52.1364 9.4004L52.7849 8.932ZM58.2785 3.432H59.0785V2.632H58.2785V3.432ZM56.6945 2.926L55.9017 3.03411L55.9036 3.04636L56.6945 2.926ZM56.6945 1.936L55.9035 1.81564L55.9018 1.82791L56.6945 1.936ZM62.0075 1.936L62.8002 1.8279L62.7984 1.81565L62.0075 1.936ZM62.0075 2.926L62.7984 3.04637L62.8001 3.0341L62.0075 2.926ZM60.4565 3.432V2.632H59.6565V3.432H60.4565ZM60.4565 8.954H59.6565C59.6565 8.7948 59.7093 8.65249 59.7863 8.54367C59.8564 8.44451 59.9336 8.39046 59.9738 8.3661C60.0452 8.32277 60.083 8.32329 60.0258 8.33485C59.925 8.35521 59.7177 8.374 59.3675 8.374V9.174V9.974C59.7433 9.974 60.0804 9.95613 60.3426 9.90316C60.4669 9.87806 60.6408 9.83274 60.803 9.73441C60.9707 9.63279 61.2565 9.38431 61.2565 8.954H60.4565ZM59.3675 9.174V8.374C59.0173 8.374 58.8099 8.35521 58.7091 8.33485C58.6519 8.32329 58.6897 8.32277 58.7612 8.3661C58.8014 8.39046 58.8785 8.44451 58.9487 8.54367C59.0256 8.65249 59.0785 8.7948 59.0785 8.954H58.2785H57.4785C57.4785 9.38431 57.7642 9.63279 57.9319 9.73441C58.0941 9.83274 58.268 9.87806 58.3923 9.90316C58.6545 9.95613 58.9917 9.974 59.3675 9.974V9.174ZM58.2785 8.954H59.0785V3.432H58.2785H57.4785V8.954H58.2785ZM58.2785 3.432V2.632H56.9585V3.432V4.232H58.2785V3.432ZM56.9585 3.432V2.632C57.1241 2.632 57.2675 2.6931 57.3689 2.77358C57.4582 2.84434 57.4978 2.91538 57.5082 2.93545C57.5253 2.96814 57.5065 2.94481 57.4854 2.80565L56.6945 2.926L55.9036 3.04636C55.9337 3.24453 55.9846 3.47421 56.0897 3.67556C56.1918 3.87128 56.4581 4.232 56.9585 4.232V3.432ZM56.6945 2.926L57.4871 2.81791C57.4702 2.69366 57.4615 2.56481 57.4615 2.431H56.6615H55.8615C55.8615 2.63454 55.8747 2.83568 55.9018 3.0341L56.6945 2.926ZM56.6615 2.431H57.4615C57.4615 2.2972 57.4702 2.16835 57.4871 2.04409L56.6945 1.936L55.9018 1.82791C55.8747 2.02633 55.8615 2.22747 55.8615 2.431H56.6615ZM56.6945 1.936L57.4854 2.05636C57.5065 1.91719 57.5253 1.89387 57.5082 1.92656C57.4978 1.94663 57.4582 2.01767 57.3689 2.08843C57.2675 2.16891 57.1241 2.23 56.9585 2.23V1.43V0.630004C56.4581 0.630004 56.1918 0.990727 56.0897 1.18645C55.9846 1.3878 55.9337 1.61748 55.9036 1.81565L56.6945 1.936ZM56.9585 1.43V2.23H61.7435V1.43V0.630004H56.9585V1.43ZM61.7435 1.43V2.23C61.5778 2.23 61.4344 2.16891 61.333 2.08843C61.2437 2.01767 61.2042 1.94663 61.1937 1.92656C61.1766 1.89387 61.1954 1.91719 61.2166 2.05636L62.0075 1.936L62.7984 1.81565C62.7682 1.61748 62.7173 1.3878 62.6122 1.18645C62.5101 0.990727 62.2439 0.630004 61.7435 0.630004V1.43ZM62.0075 1.936L61.2148 2.0441C61.2317 2.16835 61.2405 2.2972 61.2405 2.431H62.0405H62.8405C62.8405 2.22747 62.8272 2.02633 62.8001 1.82791L62.0075 1.936ZM62.0405 2.431H61.2405C61.2405 2.56481 61.2317 2.69366 61.2148 2.81791L62.0075 2.926L62.8001 3.0341C62.8272 2.83568 62.8405 2.63454 62.8405 2.431H62.0405ZM62.0075 2.926L61.2166 2.80565C61.1954 2.94481 61.1766 2.96814 61.1937 2.93545C61.2042 2.91538 61.2437 2.84434 61.333 2.77358C61.4344 2.6931 61.5778 2.632 61.7435 2.632V3.432V4.232C62.2439 4.232 62.5101 3.87128 62.6122 3.67556C62.7173 3.47421 62.7682 3.24453 62.7984 3.04636L62.0075 2.926ZM61.7435 3.432V2.632H60.4565V3.432V4.232H61.7435V3.432ZM60.4565 3.432H59.6565V8.954H60.4565H61.2565V3.432H60.4565ZM66.4289 6.413H67.2289V5.613H66.4289V6.413ZM64.8889 6.413V5.613H64.0889V6.413H64.8889ZM64.8889 4.235H64.0889V5.035H64.8889V4.235ZM66.4289 4.235V5.035H67.2289V4.235H66.4289ZM66.9789 1.452L66.9176 0.654361L66.9006 0.65567L66.8836 0.657703L66.9789 1.452ZM67.5399 1.43L67.5713 0.630619L67.5556 0.630004H67.5399V1.43ZM68.1009 1.452L68.1963 0.657703L68.1644 0.653877L68.1323 0.652619L68.1009 1.452ZM68.6509 8.943H67.8509C67.8509 8.74127 67.9317 8.57749 68.0237 8.46916C68.105 8.37333 68.188 8.32729 68.2209 8.3107C68.2824 8.27967 68.3069 8.28316 68.2404 8.29435C68.1232 8.31407 67.8998 8.33 67.5399 8.33V9.13V9.93C67.9207 9.93 68.2528 9.91477 68.506 9.87216C68.6247 9.85218 68.7881 9.81672 68.9421 9.73894C69.0674 9.67566 69.4509 9.44237 69.4509 8.943H68.6509ZM67.5399 9.13V8.33C67.1801 8.33 66.9566 8.31407 66.8395 8.29435C66.773 8.28316 66.7975 8.27967 66.859 8.3107C66.8918 8.32729 66.9749 8.37333 67.0562 8.46916C67.1482 8.57749 67.2289 8.74127 67.2289 8.943H66.4289H65.6289C65.6289 9.44237 66.0125 9.67566 66.1378 9.73894C66.2918 9.81672 66.4552 9.85218 66.5739 9.87216C66.8271 9.91477 67.1592 9.93 67.5399 9.93V9.13ZM66.4289 8.943H67.2289V6.413H66.4289H65.6289V8.943H66.4289ZM66.4289 6.413V5.613H64.8889V6.413V7.213H66.4289V6.413ZM64.8889 6.413H64.0889V8.943H64.8889H65.6889V6.413H64.8889ZM64.8889 8.943H64.0889C64.0889 8.74127 64.1697 8.57749 64.2617 8.46916C64.343 8.37333 64.426 8.32729 64.4589 8.3107C64.5204 8.27967 64.5449 8.28316 64.4784 8.29435C64.3612 8.31407 64.1378 8.33 63.7779 8.33V9.13V9.93C64.1587 9.93 64.4908 9.91477 64.744 9.87216C64.8627 9.85218 65.0261 9.81672 65.1801 9.73894C65.3054 9.67566 65.6889 9.44237 65.6889 8.943H64.8889ZM63.7779 9.13V8.33C63.4181 8.33 63.1946 8.31407 63.0775 8.29435C63.011 8.28316 63.0355 8.27967 63.097 8.3107C63.1298 8.32729 63.2129 8.37333 63.2942 8.46916C63.3862 8.57749 63.4669 8.74127 63.4669 8.943H62.6669H61.8669C61.8669 9.44237 62.2505 9.67566 62.3758 9.73894C62.5298 9.81672 62.6932 9.85218 62.8119 9.87216C63.0651 9.91477 63.3971 9.93 63.7779 9.93V9.13ZM62.6669 8.943H63.4669V1.65H62.6669H61.8669V8.943H62.6669ZM62.6669 1.65H63.4669C63.4669 1.80272 63.4177 1.94109 63.3437 2.0489C63.2758 2.14764 63.2004 2.2024 63.1598 2.22772C63.088 2.27246 63.0498 2.272 63.1075 2.26C63.2098 2.23873 63.4208 2.219 63.7779 2.219V1.419V0.619004C63.3944 0.619004 63.0499 0.637776 62.7818 0.693506C62.6544 0.720008 62.4773 0.767672 62.313 0.870166C62.1396 0.978329 61.8669 1.22917 61.8669 1.65H62.6669ZM63.7779 1.419V2.219C64.135 2.219 64.346 2.23873 64.4483 2.26C64.506 2.272 64.4678 2.27246 64.3961 2.22772C64.3555 2.2024 64.2801 2.14764 64.2122 2.0489C64.1381 1.94109 64.0889 1.80272 64.0889 1.65H64.8889H65.6889C65.6889 1.22917 65.4163 0.978329 65.2429 0.870166C65.0786 0.767672 64.9015 0.720008 64.774 0.693506C64.506 0.637776 64.1615 0.619004 63.7779 0.619004V1.419ZM64.8889 1.65H64.0889V4.235H64.8889H65.6889V1.65H64.8889ZM64.8889 4.235V5.035H66.4289V4.235V3.435H64.8889V4.235ZM66.4289 4.235H67.2289V1.672H66.4289H65.6289V4.235H66.4289ZM66.4289 1.672H67.2289C67.2289 1.91383 67.1117 2.087 67.0173 2.17761C66.9366 2.25514 66.866 2.28179 66.8636 2.28279C66.8568 2.2855 66.9112 2.26587 67.0743 2.24631L66.9789 1.452L66.8836 0.657703C66.68 0.682139 66.4594 0.72118 66.2693 0.797223C66.1752 0.834885 66.0359 0.901868 65.9093 1.02339C65.7691 1.15801 65.6289 1.37884 65.6289 1.672H66.4289ZM66.9789 1.452L67.0403 2.24965C67.2114 2.23648 67.3779 2.23 67.5399 2.23V1.43V0.630004C67.3353 0.630004 67.1278 0.638191 66.9176 0.654361L66.9789 1.452ZM67.5399 1.43L67.5086 2.22939L68.0696 2.25139L68.1009 1.452L68.1323 0.652619L67.5713 0.630619L67.5399 1.43ZM68.1009 1.452L68.0056 2.24631C68.1687 2.26587 68.2231 2.2855 68.2163 2.28279C68.2138 2.28179 68.1433 2.25514 68.0625 2.17761C67.9682 2.087 67.8509 1.91383 67.8509 1.672H68.6509H69.4509C69.4509 1.37884 69.3108 1.15801 69.1706 1.02339C69.044 0.901868 68.9047 0.834885 68.8106 0.797223C68.6204 0.72118 68.3999 0.682139 68.1963 0.657703L68.1009 1.452ZM68.6509 1.672H67.8509V8.943H68.6509H69.4509V1.672H68.6509Z" fill="black" mask="url(#path-6-outside-1_2024_1163)"/>
</g>
<defs>
<filter id="filter0_d_2024_1163" x="6.2457" y="6.8515" width="16.2776" height="14.2172" filterUnits="userSpaceOnUse" color-interpolation-filters="sRGB">
<feFlood flood-opacity="0" result="BackgroundImageFix"/>
<feColorMatrix in="SourceAlpha" type="matrix" values="0 0 0 0 0 0 0 0 0 0 0 0 0 0 0 0 0 0 127 0" result="hardAlpha"/>
<feOffset dx="-0.6" dy="1.5"/>
<feComposite in2="hardAlpha" operator="out"/>
<feColorMatrix type="matrix" values="0 0 0 0 0 0 0 0 0 0 0 0 0 0 0 0 0 0 1 0"/>
<feBlend mode="normal" in2="BackgroundImageFix" result="effect1_dropShadow_2024_1163"/>
<feBlend mode="normal" in="SourceGraphic" in2="effect1_dropShadow_2024_1163" result="shape"/>
</filter>
<filter id="filter1_d_2024_1163" x="32.24" y="0.608032" width="37.2109" height="10.166" filterUnits="userSpaceOnUse" color-interpolation-filters="sRGB">
<feFlood flood-opacity="0" result="BackgroundImageFix"/>
<feColorMatrix in="SourceAlpha" type="matrix" values="0 0 0 0 0 0 0 0 0 0 0 0 0 0 0 0 0 0 127 0" result="hardAlpha"/>
<feOffset dy="0.8"/>
<feComposite in2="hardAlpha" operator="out"/>
<feColorMatrix type="matrix" values="0 0 0 0 0 0 0 0 0 0 0 0 0 0 0 0 0 0 1 0"/>
<feBlend mode="normal" in2="BackgroundImageFix" result="effect1_dropShadow_2024_1163"/>
<feBlend mode="normal" in="SourceGraphic" in2="effect1_dropShadow_2024_1163" result="shape"/>
</filter>
</defs>
</svg>
