<svg width="100" height="48" viewBox="0 0 100 48" fill="none" xmlns="http://www.w3.org/2000/svg">
<g filter="url(#filter0_dd_2067_891)">
<path d="M3.55321 3.80539C3.65579 2.22742 4.96559 1 6.54689 1H95.6473C97.3807 1 98.7534 2.46483 98.641 4.19461L96.2954 40.2765C96.1929 41.8544 94.8831 43.0819 93.3018 43.0819H4.20135C2.46792 43.0819 1.09522 41.617 1.20767 39.8873L3.55321 3.80539Z" fill="#353C52"/>
<path d="M95.6475 0.5C97.6066 0.500085 99.171 2.10403 99.1475 4.03906L99.1396 4.22656L96.7939 40.3086C96.6743 42.1496 95.1466 43.582 93.3018 43.582H4.20117C2.17892 43.5819 0.577801 41.8725 0.708984 39.8545L3.05469 3.77344C3.17436 1.93248 4.70203 0.500009 6.54688 0.5H95.6475Z" stroke="black"/>
</g>
<mask id="mask0_2067_891" style="mask-type:alpha" maskUnits="userSpaceOnUse" x="1" y="1" width="98" height="43">
<path d="M3.55321 3.80539C3.65579 2.22742 4.96559 1 6.54689 1H95.6473C97.3807 1 98.7534 2.46483 98.641 4.19461L96.2954 40.2765C96.1929 41.8544 94.8831 43.0819 93.3018 43.0819H4.20135C2.46792 43.0819 1.09522 41.617 1.20767 39.8873L3.55321 3.80539Z" fill="#353C52"/>
</mask>
<g mask="url(#mask0_2067_891)">
<rect x="-1.62952" y="39.1465" width="101.515" height="3.93555" fill="#272C3D"/>
</g>
<g filter="url(#filter1_d_2067_891)">
<path d="M71.3405 6.23517L55.6159 19.8793C55.1849 20.2533 55.1537 20.9115 55.5474 21.3246L69.7959 36.2726C70.251 36.75 71.0355 36.6638 71.3761 36.099L75.159 29.8265C75.3654 29.4843 75.3483 29.0521 75.1154 28.7274L69.7256 21.21C69.4551 20.8328 69.4798 20.3189 69.7853 19.9694L75.8862 12.9869C76.1695 12.6626 76.2134 12.1934 75.9953 11.8222L72.8581 6.48382C72.5412 5.94469 71.8129 5.82534 71.3405 6.23517Z" fill="white"/>
<path d="M71.3405 6.23517L55.6159 19.8793C55.1849 20.2533 55.1537 20.9115 55.5474 21.3246L69.7959 36.2726C70.251 36.75 71.0355 36.6638 71.3761 36.099L75.159 29.8265C75.3654 29.4843 75.3483 29.0521 75.1154 28.7274L69.7256 21.21C69.4551 20.8328 69.4798 20.3189 69.7853 19.9694L75.8862 12.9869C76.1695 12.6626 76.2134 12.1934 75.9953 11.8222L72.8581 6.48382C72.5412 5.94469 71.8129 5.82534 71.3405 6.23517Z" stroke="black" stroke-width="0.8"/>
</g>
<defs>
<filter id="filter0_dd_2067_891" x="0.201172" y="0" width="99.4463" height="47.5818" filterUnits="userSpaceOnUse" color-interpolation-filters="sRGB">
<feFlood flood-opacity="0" result="BackgroundImageFix"/>
<feColorMatrix in="SourceAlpha" type="matrix" values="0 0 0 0 0 0 0 0 0 0 0 0 0 0 0 0 0 0 127 0" result="hardAlpha"/>
<feOffset dy="3.5"/>
<feComposite in2="hardAlpha" operator="out"/>
<feColorMatrix type="matrix" values="0 0 0 0 0 0 0 0 0 0 0 0 0 0 0 0 0 0 0.5 0"/>
<feBlend mode="normal" in2="BackgroundImageFix" result="effect1_dropShadow_2067_891"/>
<feColorMatrix in="SourceAlpha" type="matrix" values="0 0 0 0 0 0 0 0 0 0 0 0 0 0 0 0 0 0 127 0" result="hardAlpha"/>
<feOffset dy="1.5"/>
<feComposite in2="hardAlpha" operator="out"/>
<feColorMatrix type="matrix" values="0 0 0 0 0 0 0 0 0 0 0 0 0 0 0 0 0 0 1 0"/>
<feBlend mode="normal" in2="effect1_dropShadow_2067_891" result="effect2_dropShadow_2067_891"/>
<feBlend mode="normal" in="SourceGraphic" in2="effect2_dropShadow_2067_891" result="shape"/>
</filter>
<filter id="filter1_d_2067_891" x="54.8713" y="5.59033" width="21.6619" height="31.9924" filterUnits="userSpaceOnUse" color-interpolation-filters="sRGB">
<feFlood flood-opacity="0" result="BackgroundImageFix"/>
<feColorMatrix in="SourceAlpha" type="matrix" values="0 0 0 0 0 0 0 0 0 0 0 0 0 0 0 0 0 0 127 0" result="hardAlpha"/>
<feOffset dy="0.6"/>
<feComposite in2="hardAlpha" operator="out"/>
<feColorMatrix type="matrix" values="0 0 0 0 0 0 0 0 0 0 0 0 0 0 0 0 0 0 1 0"/>
<feBlend mode="normal" in2="BackgroundImageFix" result="effect1_dropShadow_2067_891"/>
<feBlend mode="normal" in="SourceGraphic" in2="effect1_dropShadow_2067_891" result="shape"/>
</filter>
</defs>
</svg>
