<svg width="103" height="44" viewBox="0 0 103 44" fill="none" xmlns="http://www.w3.org/2000/svg">
<g filter="url(#filter0_dd_2007_745)">
<path d="M3.65095 4.70457C3.80579 2.61588 5.54559 1.00029 7.64001 1.00029H96.8665C99.1921 1.00029 101.027 2.97674 100.856 5.29601L98.5231 36.7581C98.3683 38.8468 96.6285 40.4624 94.5341 40.4624H5.30764C2.982 40.4624 1.14664 38.4859 1.31858 36.1667L3.65095 4.70457Z" fill="#E6311F"/>
<path d="M96.8663 0.500061C99.401 0.500061 101.418 2.58719 101.365 5.0899L101.355 5.33307L99.0216 36.795C98.8474 39.1447 96.8904 40.9619 94.5343 40.962H5.30774C2.69149 40.962 0.626198 38.739 0.819458 36.1299L3.15247 4.66803C3.32666 2.31834 5.28366 0.500182 7.63977 0.500061H96.8663Z" stroke="black"/>
</g>
<mask id="mask0_2007_745" style="mask-type:alpha" maskUnits="userSpaceOnUse" x="1" y="1" width="100" height="40">
<path d="M3.65083 4.70451C3.80567 2.61582 5.54547 1.00023 7.63988 1.00023H96.8663C99.192 1.00023 101.027 2.97668 100.855 5.29595L98.523 36.7581C98.3682 38.8467 96.6284 40.4623 94.5339 40.4623H5.30751C2.98188 40.4623 1.14652 38.4859 1.31845 36.1666L3.65083 4.70451Z" fill="#E6311F"/>
</mask>
<g mask="url(#mask0_2007_745)">
<rect x="-2.34692" y="-6.88916" width="112.898" height="11.5537" fill="#FF7B7B"/>
<rect x="-2.28027" y="36.1357" width="112.898" height="11.805" fill="#CD0034"/>
</g>
<g filter="url(#filter1_d_2007_745)">
<mask id="path-6-outside-1_2007_745" maskUnits="userSpaceOnUse" x="35.5869" y="10.7793" width="32" height="15" fill="black">
<rect fill="white" x="35.5869" y="10.7793" width="32" height="15"/>
<path d="M42.3369 17.1833C42.5649 17.1833 42.6789 17.6033 42.6789 18.4433C42.6789 18.6953 42.6489 18.9953 42.5889 19.3433C42.5409 19.6793 42.4449 19.8473 42.3009 19.8473H40.0149V21.6473H43.3269C43.5309 21.6473 43.6689 21.9113 43.7409 22.4393C43.7769 22.6673 43.7949 22.9133 43.7949 23.1773C43.7949 23.4293 43.7589 23.7593 43.6869 24.1673C43.6149 24.5753 43.4949 24.7793 43.3269 24.7793H37.1709C36.7149 24.7793 36.4869 24.5933 36.4869 24.2213V12.6473C36.4869 12.3353 36.6249 12.1793 36.9009 12.1793H43.3449C43.5969 12.1793 43.7229 12.7133 43.7229 13.7813C43.7229 14.8373 43.5969 15.3653 43.3449 15.3653H40.0149V17.1833H42.3369ZM50.8539 15.8333C50.9019 15.7373 51.2019 15.6893 51.7539 15.6893C53.5539 15.6893 54.4299 15.7553 54.3819 15.8873L52.1859 20.4413C53.6619 23.2013 54.3999 24.5813 54.3999 24.5813C54.3999 24.6533 54.0399 24.7133 53.3199 24.7613C52.5999 24.8093 52.0899 24.8333 51.7899 24.8333C51.0339 24.8333 50.6319 24.7553 50.5839 24.5993L49.6119 21.5933L48.4959 24.7253C48.4719 24.8093 48.1299 24.8513 47.4699 24.8513C46.8099 24.8513 46.2219 24.8273 45.7059 24.7793C45.1899 24.7313 44.9559 24.6713 45.0039 24.5993L47.0379 20.4593C45.6219 17.4953 44.9139 16.0073 44.9139 15.9953C44.9139 15.9233 45.0939 15.8573 45.4539 15.7973C45.8259 15.7373 46.2399 15.7073 46.6959 15.7073C47.1639 15.7073 47.6079 15.7313 48.0279 15.7793C48.4479 15.8153 48.6819 15.8693 48.7299 15.9413L49.6839 18.8573L50.8539 15.8333ZM58.9474 24.6713C58.9474 24.7673 58.3954 24.8153 57.2914 24.8153C56.1994 24.8153 55.6534 24.7733 55.6534 24.6893V15.8513C55.6534 15.7673 56.1994 15.7253 57.2914 15.7253C58.3954 15.7253 58.9474 15.7613 58.9474 15.8333V24.6713ZM58.9474 14.7713C58.9474 14.8553 58.3954 14.8973 57.2914 14.8973C56.1994 14.8973 55.6534 14.8613 55.6534 14.7893V12.1973C55.6534 12.0773 56.1994 12.0173 57.2914 12.0173C58.3954 12.0173 58.9474 12.0533 58.9474 12.1253V14.7713ZM64.8953 24.6713C64.8953 24.8153 64.3913 24.8873 63.3833 24.8873C62.1833 24.8393 61.5833 24.7613 61.5833 24.6533V18.2813H60.6653C60.4253 18.2813 60.3053 17.8673 60.3053 17.0393C60.3053 16.8233 60.3233 16.5593 60.3593 16.2473C60.4073 15.9353 60.4973 15.7793 60.6293 15.7793H61.5833V14.1953C61.5833 13.9553 62.0873 13.8353 63.0953 13.8353C64.1153 13.8353 64.6253 13.9313 64.6253 14.1233V15.2753L64.6433 15.7793H66.1733C66.3773 15.7793 66.4793 16.1993 66.4793 17.0393C66.4793 17.8793 66.3773 18.2993 66.1733 18.2993H64.8953V24.6713Z"/>
</mask>
<path d="M42.3369 17.1833C42.5649 17.1833 42.6789 17.6033 42.6789 18.4433C42.6789 18.6953 42.6489 18.9953 42.5889 19.3433C42.5409 19.6793 42.4449 19.8473 42.3009 19.8473H40.0149V21.6473H43.3269C43.5309 21.6473 43.6689 21.9113 43.7409 22.4393C43.7769 22.6673 43.7949 22.9133 43.7949 23.1773C43.7949 23.4293 43.7589 23.7593 43.6869 24.1673C43.6149 24.5753 43.4949 24.7793 43.3269 24.7793H37.1709C36.7149 24.7793 36.4869 24.5933 36.4869 24.2213V12.6473C36.4869 12.3353 36.6249 12.1793 36.9009 12.1793H43.3449C43.5969 12.1793 43.7229 12.7133 43.7229 13.7813C43.7229 14.8373 43.5969 15.3653 43.3449 15.3653H40.0149V17.1833H42.3369ZM50.8539 15.8333C50.9019 15.7373 51.2019 15.6893 51.7539 15.6893C53.5539 15.6893 54.4299 15.7553 54.3819 15.8873L52.1859 20.4413C53.6619 23.2013 54.3999 24.5813 54.3999 24.5813C54.3999 24.6533 54.0399 24.7133 53.3199 24.7613C52.5999 24.8093 52.0899 24.8333 51.7899 24.8333C51.0339 24.8333 50.6319 24.7553 50.5839 24.5993L49.6119 21.5933L48.4959 24.7253C48.4719 24.8093 48.1299 24.8513 47.4699 24.8513C46.8099 24.8513 46.2219 24.8273 45.7059 24.7793C45.1899 24.7313 44.9559 24.6713 45.0039 24.5993L47.0379 20.4593C45.6219 17.4953 44.9139 16.0073 44.9139 15.9953C44.9139 15.9233 45.0939 15.8573 45.4539 15.7973C45.8259 15.7373 46.2399 15.7073 46.6959 15.7073C47.1639 15.7073 47.6079 15.7313 48.0279 15.7793C48.4479 15.8153 48.6819 15.8693 48.7299 15.9413L49.6839 18.8573L50.8539 15.8333ZM58.9474 24.6713C58.9474 24.7673 58.3954 24.8153 57.2914 24.8153C56.1994 24.8153 55.6534 24.7733 55.6534 24.6893V15.8513C55.6534 15.7673 56.1994 15.7253 57.2914 15.7253C58.3954 15.7253 58.9474 15.7613 58.9474 15.8333V24.6713ZM58.9474 14.7713C58.9474 14.8553 58.3954 14.8973 57.2914 14.8973C56.1994 14.8973 55.6534 14.8613 55.6534 14.7893V12.1973C55.6534 12.0773 56.1994 12.0173 57.2914 12.0173C58.3954 12.0173 58.9474 12.0533 58.9474 12.1253V14.7713ZM64.8953 24.6713C64.8953 24.8153 64.3913 24.8873 63.3833 24.8873C62.1833 24.8393 61.5833 24.7613 61.5833 24.6533V18.2813H60.6653C60.4253 18.2813 60.3053 17.8673 60.3053 17.0393C60.3053 16.8233 60.3233 16.5593 60.3593 16.2473C60.4073 15.9353 60.4973 15.7793 60.6293 15.7793H61.5833V14.1953C61.5833 13.9553 62.0873 13.8353 63.0953 13.8353C64.1153 13.8353 64.6253 13.9313 64.6253 14.1233V15.2753L64.6433 15.7793H66.1733C66.3773 15.7793 66.4793 16.1993 66.4793 17.0393C66.4793 17.8793 66.3773 18.2993 66.1733 18.2993H64.8953V24.6713Z" fill="white"/>
<path d="M42.5889 19.3433L41.8991 19.2244L41.8974 19.2343L41.8959 19.2443L42.5889 19.3433ZM40.0149 19.8473V19.1473H39.3149V19.8473H40.0149ZM40.0149 21.6473H39.3149V22.3473H40.0149V21.6473ZM43.7409 22.4393L43.0473 22.5339L43.0483 22.5412L43.0495 22.5485L43.7409 22.4393ZM43.6869 24.1673L42.9976 24.0456L42.9976 24.0456L43.6869 24.1673ZM40.0149 15.3653V14.6653H39.3149V15.3653H40.0149ZM40.0149 17.1833H39.3149V17.8833H40.0149V17.1833ZM42.3369 17.1833V17.8833C42.2532 17.8833 42.1678 17.8628 42.091 17.8224C42.0175 17.7837 41.9702 17.7365 41.9437 17.704C41.8983 17.6483 41.9012 17.6205 41.9179 17.6817C41.9499 17.7996 41.9789 18.0391 41.9789 18.4433H42.6789H43.3789C43.3789 18.0075 43.351 17.617 43.269 17.3149C43.2286 17.1661 43.1602 16.9808 43.0293 16.82C42.8814 16.6384 42.6448 16.4833 42.3369 16.4833V17.1833ZM42.6789 18.4433H41.9789C41.9789 18.6432 41.9548 18.9013 41.8991 19.2244L42.5889 19.3433L43.2787 19.4622C43.343 19.0893 43.3789 18.7474 43.3789 18.4433H42.6789ZM42.5889 19.3433L41.8959 19.2443C41.8872 19.3054 41.878 19.3465 41.8708 19.3715C41.8632 19.3981 41.8614 19.3946 41.8731 19.374C41.8847 19.3538 41.9213 19.2964 41.9985 19.2423C42.084 19.1825 42.1907 19.1473 42.3009 19.1473V19.8473V20.5473C42.7089 20.5473 42.9648 20.2854 43.0887 20.0686C43.2017 19.8708 43.2534 19.6419 43.2819 19.4423L42.5889 19.3433ZM42.3009 19.8473V19.1473H40.0149V19.8473V20.5473H42.3009V19.8473ZM40.0149 19.8473H39.3149V21.6473H40.0149H40.7149V19.8473H40.0149ZM40.0149 21.6473V22.3473H43.3269V21.6473V20.9473H40.0149V21.6473ZM43.3269 21.6473V22.3473C43.2136 22.3473 43.1119 22.3065 43.0398 22.2509C42.9782 22.2034 42.9587 22.1613 42.9631 22.1696C42.9664 22.176 42.9804 22.2061 42.9979 22.2722C43.015 22.3365 43.0321 22.4225 43.0473 22.5339L43.7409 22.4393L44.4345 22.3447C44.3948 22.0534 44.3289 21.7604 44.2038 21.521C44.0763 21.2771 43.8009 20.9473 43.3269 20.9473V21.6473ZM43.7409 22.4393L43.0495 22.5485C43.079 22.7357 43.0949 22.9448 43.0949 23.1773H43.7949H44.4949C44.4949 22.8818 44.4748 22.5989 44.4323 22.3301L43.7409 22.4393ZM43.7949 23.1773H43.0949C43.0949 23.371 43.0664 23.6557 42.9976 24.0456L43.6869 24.1673L44.3763 24.2889C44.4515 23.8629 44.4949 23.4876 44.4949 23.1773H43.7949ZM43.6869 24.1673L42.9976 24.0456C42.9834 24.126 42.9688 24.1847 42.956 24.2255C42.9427 24.2679 42.935 24.2791 42.9396 24.2714C42.9435 24.2646 42.9719 24.2176 43.0393 24.1698C43.1153 24.116 43.2164 24.0793 43.3269 24.0793V24.7793V25.4793C43.7541 25.4793 44.0176 25.1999 44.1463 24.9812C44.269 24.7725 44.335 24.523 44.3763 24.2889L43.6869 24.1673ZM43.3269 24.7793V24.0793H37.1709V24.7793V25.4793H43.3269V24.7793ZM37.1709 24.7793V24.0793C37.1022 24.0793 37.0667 24.072 37.0553 24.069C37.0455 24.0663 37.0675 24.0706 37.1004 24.0974C37.1363 24.1267 37.163 24.1649 37.1777 24.2007C37.1905 24.2321 37.1869 24.2441 37.1869 24.2213H36.4869H35.7869C35.7869 24.5571 35.8968 24.9222 36.2154 25.1822C36.5068 25.4199 36.8657 25.4793 37.1709 25.4793V24.7793ZM36.4869 24.2213H37.1869V12.6473H36.4869H35.7869V24.2213H36.4869ZM36.4869 12.6473H37.1869C37.1869 12.5795 37.2038 12.6594 37.1147 12.7601C37.069 12.8118 37.0147 12.8455 36.9666 12.8636C36.9226 12.8802 36.8961 12.8793 36.9009 12.8793V12.1793V11.4793C36.6312 11.4793 36.3076 11.5595 36.0661 11.8325C35.8391 12.0892 35.7869 12.4031 35.7869 12.6473H36.4869ZM36.9009 12.1793V12.8793H43.3449V12.1793V11.4793H36.9009V12.1793ZM43.3449 12.1793V12.8793C43.115 12.8793 42.9796 12.7413 42.9389 12.6839C42.9106 12.6439 42.9242 12.6434 42.9471 12.7406C42.9909 12.9262 43.0229 13.2607 43.0229 13.7813H43.7229H44.4229C44.4229 13.2339 44.3919 12.7674 44.3097 12.419C44.2696 12.2492 44.2044 12.0485 44.0816 11.875C43.9464 11.684 43.7008 11.4793 43.3449 11.4793V12.1793ZM43.7229 13.7813H43.0229C43.0229 14.2957 42.9909 14.625 42.9475 14.8068C42.9248 14.9019 42.9118 14.8998 42.9411 14.8588C42.9833 14.7998 43.1186 14.6653 43.3449 14.6653V15.3653V16.0653C43.6973 16.0653 43.9427 15.8648 44.0795 15.6738C44.2033 15.5008 44.269 15.3006 44.3093 15.1318C44.3919 14.7856 44.4229 14.3229 44.4229 13.7813H43.7229ZM43.3449 15.3653V14.6653H40.0149V15.3653V16.0653H43.3449V15.3653ZM40.0149 15.3653H39.3149V17.1833H40.0149H40.7149V15.3653H40.0149ZM40.0149 17.1833V17.8833H42.3369V17.1833V16.4833H40.0149V17.1833ZM50.8539 15.8333L50.2278 15.5202L50.213 15.5498L50.201 15.5807L50.8539 15.8333ZM54.3819 15.8873L55.0124 16.1913L55.0277 16.1596L55.0397 16.1265L54.3819 15.8873ZM52.1859 20.4413L51.5553 20.1373L51.4008 20.4577L51.5686 20.7714L52.1859 20.4413ZM54.3999 24.5813H55.0999V24.4059L55.0171 24.2512L54.3999 24.5813ZM53.3199 24.7613L53.2733 24.0628L53.2733 24.0628L53.3199 24.7613ZM50.5839 24.5993L51.253 24.3934L51.2499 24.3839L50.5839 24.5993ZM49.6119 21.5933L50.2779 21.3779L49.644 19.4176L48.9525 21.3583L49.6119 21.5933ZM48.4959 24.7253L47.8365 24.4903L47.829 24.5114L47.8228 24.533L48.4959 24.7253ZM45.7059 24.7793L45.7707 24.0823L45.7059 24.7793ZM45.0039 24.5993L45.5863 24.9876L45.6118 24.9493L45.6321 24.908L45.0039 24.5993ZM47.0379 20.4593L47.6661 20.768L47.8157 20.4636L47.6695 20.1575L47.0379 20.4593ZM45.4539 15.7973L45.3424 15.1062L45.3388 15.1068L45.4539 15.7973ZM48.0279 15.7793L47.9484 16.4748L47.9582 16.4759L47.9681 16.4767L48.0279 15.7793ZM48.7299 15.9413L49.3952 15.7236L49.3654 15.6327L49.3123 15.553L48.7299 15.9413ZM49.6839 18.8573L49.0186 19.075L49.6287 20.9398L50.3367 19.1099L49.6839 18.8573ZM50.8539 15.8333L51.48 16.1463C51.4257 16.2549 51.3535 16.3219 51.3061 16.3577C51.259 16.3934 51.2202 16.4107 51.2048 16.4171C51.1767 16.4287 51.1758 16.4244 51.2255 16.4165C51.3207 16.4013 51.4902 16.3893 51.7539 16.3893V15.6893V14.9893C51.4655 14.9893 51.2091 15.0013 51.0043 15.0341C50.9039 15.0501 50.7845 15.0759 50.6695 15.1235C50.5767 15.1619 50.3543 15.2672 50.2278 15.5202L50.8539 15.8333ZM51.7539 15.6893V16.3893C52.6505 16.3893 53.2978 16.4059 53.7083 16.4368C53.9205 16.4528 54.0354 16.4704 54.0818 16.4815C54.1166 16.4898 54.0611 16.4822 53.9829 16.4328C53.9429 16.4076 53.841 16.337 53.7655 16.1985C53.6739 16.0306 53.6581 15.8294 53.724 15.6481L54.3819 15.8873L55.0397 16.1265C55.1117 15.9287 55.0946 15.7115 54.9946 15.5281C54.9106 15.3742 54.7931 15.2887 54.7302 15.2489C54.6063 15.1707 54.4762 15.1363 54.4074 15.1199C54.2468 15.0815 54.0392 15.0578 53.8135 15.0408C53.348 15.0057 52.6573 14.9893 51.7539 14.9893V15.6893ZM54.3819 15.8873L53.7513 15.5833L51.5553 20.1373L52.1859 20.4413L52.8164 20.7453L55.0124 16.1913L54.3819 15.8873ZM52.1859 20.4413L51.5686 20.7714C51.5715 20.7768 51.5744 20.7822 51.5772 20.7876C51.5801 20.7929 51.583 20.7983 51.5859 20.8037C51.5887 20.8091 51.5916 20.8144 51.5945 20.8198C51.5973 20.8251 51.6002 20.8305 51.6031 20.8358C51.6059 20.8412 51.6088 20.8465 51.6116 20.8519C51.6145 20.8572 51.6173 20.8625 51.6202 20.8679C51.623 20.8732 51.6259 20.8785 51.6287 20.8838C51.6316 20.8892 51.6344 20.8945 51.6372 20.8998C51.6401 20.9051 51.6429 20.9104 51.6457 20.9157C51.6486 20.921 51.6514 20.9263 51.6542 20.9315C51.6571 20.9368 51.6599 20.9421 51.6627 20.9474C51.6655 20.9527 51.6683 20.9579 51.6712 20.9632C51.674 20.9685 51.6768 20.9737 51.6796 20.979C51.6824 20.9842 51.6852 20.9895 51.688 20.9947C51.6908 21 51.6936 21.0052 51.6964 21.0104C51.6992 21.0157 51.702 21.0209 51.7048 21.0261C51.7076 21.0313 51.7104 21.0366 51.7132 21.0418C51.716 21.047 51.7187 21.0522 51.7215 21.0574C51.7243 21.0626 51.7271 21.0678 51.7299 21.073C51.7326 21.0782 51.7354 21.0833 51.7382 21.0885C51.741 21.0937 51.7437 21.0989 51.7465 21.104C51.7493 21.1092 51.752 21.1144 51.7548 21.1195C51.7575 21.1247 51.7603 21.1299 51.763 21.135C51.7658 21.1402 51.7685 21.1453 51.7713 21.1504C51.774 21.1556 51.7768 21.1607 51.7795 21.1658C51.7823 21.171 51.785 21.1761 51.7877 21.1812C51.7905 21.1863 51.7932 21.1914 51.7959 21.1965C51.7987 21.2016 51.8014 21.2067 51.8041 21.2118C51.8069 21.2169 51.8096 21.222 51.8123 21.2271C51.815 21.2322 51.8177 21.2373 51.8204 21.2423C51.8232 21.2474 51.8259 21.2525 51.8286 21.2576C51.8313 21.2626 51.834 21.2677 51.8367 21.2727C51.8394 21.2778 51.8421 21.2828 51.8448 21.2879C51.8475 21.2929 51.8502 21.298 51.8529 21.303C51.8556 21.308 51.8583 21.3131 51.8609 21.3181C51.8636 21.3231 51.8663 21.3281 51.869 21.3331C51.8717 21.3381 51.8743 21.3431 51.877 21.3481C51.8797 21.3531 51.8824 21.3581 51.885 21.3631C51.8877 21.3681 51.8904 21.3731 51.893 21.3781C51.8957 21.3831 51.8984 21.388 51.901 21.393C51.9037 21.398 51.9063 21.4029 51.909 21.4079C51.9116 21.4129 51.9143 21.4178 51.9169 21.4228C51.9196 21.4277 51.9222 21.4327 51.9249 21.4376C51.9275 21.4425 51.9301 21.4475 51.9328 21.4524C51.9354 21.4573 51.938 21.4622 51.9407 21.4672C51.9433 21.4721 51.9459 21.477 51.9485 21.4819C51.9512 21.4868 51.9538 21.4917 51.9564 21.4966C51.959 21.5015 51.9616 21.5064 51.9643 21.5113C51.9669 21.5162 51.9695 21.521 51.9721 21.5259C51.9747 21.5308 51.9773 21.5357 51.9799 21.5405C51.9825 21.5454 51.9851 21.5502 51.9877 21.5551C51.9903 21.5599 51.9929 21.5648 51.9955 21.5696C51.9981 21.5745 52.0007 21.5793 52.0032 21.5842C52.0058 21.589 52.0084 21.5938 52.011 21.5986C52.0136 21.6035 52.0161 21.6083 52.0187 21.6131C52.0213 21.6179 52.0239 21.6227 52.0264 21.6275C52.029 21.6323 52.0316 21.6371 52.0341 21.6419C52.0367 21.6467 52.0392 21.6515 52.0418 21.6562C52.0443 21.661 52.0469 21.6658 52.0495 21.6706C52.052 21.6753 52.0545 21.6801 52.0571 21.6849C52.0596 21.6896 52.0622 21.6944 52.0647 21.6991C52.0673 21.7039 52.0698 21.7086 52.0723 21.7134C52.0749 21.7181 52.0774 21.7228 52.0799 21.7276C52.0825 21.7323 52.085 21.737 52.0875 21.7417C52.09 21.7464 52.0925 21.7511 52.0951 21.7559C52.0976 21.7606 52.1001 21.7653 52.1026 21.77C52.1051 21.7747 52.1076 21.7793 52.1101 21.784C52.1126 21.7887 52.1151 21.7934 52.1176 21.7981C52.1201 21.8027 52.1226 21.8074 52.1251 21.8121C52.1276 21.8167 52.1301 21.8214 52.1326 21.8261C52.1351 21.8307 52.1376 21.8354 52.1401 21.84C52.1425 21.8446 52.145 21.8493 52.1475 21.8539C52.15 21.8585 52.1524 21.8632 52.1549 21.8678C52.1574 21.8724 52.1599 21.877 52.1623 21.8816C52.1648 21.8863 52.1673 21.8909 52.1697 21.8955C52.1722 21.9001 52.1746 21.9047 52.1771 21.9092C52.1795 21.9138 52.182 21.9184 52.1844 21.923C52.1869 21.9276 52.1893 21.9322 52.1918 21.9367C52.1942 21.9413 52.1967 21.9459 52.1991 21.9504C52.2015 21.955 52.204 21.9595 52.2064 21.9641C52.2088 21.9686 52.2113 21.9732 52.2137 21.9777C52.2161 21.9822 52.2186 21.9868 52.221 21.9913C52.2234 21.9958 52.2258 22.0004 52.2282 22.0049C52.2306 22.0094 52.2331 22.0139 52.2355 22.0184C52.2379 22.0229 52.2403 22.0274 52.2427 22.0319C52.2451 22.0364 52.2475 22.0409 52.2499 22.0454C52.2523 22.0499 52.2547 22.0543 52.2571 22.0588C52.2595 22.0633 52.2619 22.0678 52.2643 22.0722C52.2666 22.0767 52.269 22.0812 52.2714 22.0856C52.2738 22.0901 52.2762 22.0945 52.2785 22.099C52.2809 22.1034 52.2833 22.1078 52.2857 22.1123C52.288 22.1167 52.2904 22.1211 52.2928 22.1255C52.2951 22.13 52.2975 22.1344 52.2999 22.1388C52.3022 22.1432 52.3046 22.1476 52.3069 22.152C52.3093 22.1564 52.3116 22.1608 52.314 22.1652C52.3163 22.1696 52.3187 22.174 52.321 22.1784C52.3233 22.1827 52.3257 22.1871 52.328 22.1915C52.3304 22.1959 52.3327 22.2002 52.335 22.2046C52.3374 22.2089 52.3397 22.2133 52.342 22.2176C52.3443 22.222 52.3467 22.2263 52.349 22.2307C52.3513 22.235 52.3536 22.2393 52.3559 22.2437C52.3582 22.248 52.3606 22.2523 52.3629 22.2566C52.3652 22.2609 52.3675 22.2653 52.3698 22.2696C52.3721 22.2739 52.3744 22.2782 52.3767 22.2825C52.379 22.2868 52.3813 22.2911 52.3836 22.2953C52.3859 22.2996 52.3881 22.3039 52.3904 22.3082C52.3927 22.3124 52.395 22.3167 52.3973 22.321C52.3996 22.3252 52.4018 22.3295 52.4041 22.3338C52.4064 22.338 52.4087 22.3423 52.4109 22.3465C52.4132 22.3507 52.4155 22.355 52.4177 22.3592C52.42 22.3635 52.4223 22.3677 52.4245 22.3719C52.4268 22.3761 52.429 22.3803 52.4313 22.3845C52.4335 22.3888 52.4358 22.393 52.438 22.3972C52.4403 22.4014 52.4425 22.4056 52.4448 22.4098C52.447 22.4139 52.4492 22.4181 52.4515 22.4223C52.4537 22.4265 52.4559 22.4307 52.4582 22.4348C52.4604 22.439 52.4626 22.4432 52.4648 22.4473C52.4671 22.4515 52.4693 22.4556 52.4715 22.4598C52.4737 22.4639 52.4759 22.4681 52.4782 22.4722C52.4804 22.4764 52.4826 22.4805 52.4848 22.4846C52.487 22.4887 52.4892 22.4929 52.4914 22.497C52.4936 22.5011 52.4958 22.5052 52.498 22.5093C52.5002 22.5134 52.5024 22.5175 52.5046 22.5216C52.5068 22.5257 52.509 22.5298 52.5111 22.5339C52.5133 22.538 52.5155 22.5421 52.5177 22.5461C52.5199 22.5502 52.522 22.5543 52.5242 22.5583C52.5264 22.5624 52.5286 22.5665 52.5307 22.5705C52.5329 22.5746 52.5351 22.5786 52.5372 22.5827C52.5394 22.5867 52.5415 22.5907 52.5437 22.5948C52.5459 22.5988 52.548 22.6028 52.5502 22.6068C52.5523 22.6109 52.5545 22.6149 52.5566 22.6189C52.5587 22.6229 52.5609 22.6269 52.563 22.6309C52.5652 22.6349 52.5673 22.6389 52.5694 22.6429C52.5716 22.6469 52.5737 22.6509 52.5758 22.6549C52.578 22.6588 52.5801 22.6628 52.5822 22.6668C52.5843 22.6708 52.5865 22.6747 52.5886 22.6787C52.5907 22.6826 52.5928 22.6866 52.5949 22.6905C52.597 22.6945 52.5991 22.6984 52.6012 22.7024C52.6033 22.7063 52.6054 22.7102 52.6075 22.7142C52.6096 22.7181 52.6117 22.722 52.6138 22.7259C52.6159 22.7298 52.618 22.7338 52.6201 22.7377C52.6222 22.7416 52.6243 22.7455 52.6264 22.7494C52.6285 22.7533 52.6305 22.7572 52.6326 22.761C52.6347 22.7649 52.6368 22.7688 52.6388 22.7727C52.6409 22.7765 52.643 22.7804 52.645 22.7843C52.6471 22.7881 52.6492 22.792 52.6512 22.7959C52.6533 22.7997 52.6554 22.8036 52.6574 22.8074C52.6595 22.8112 52.6615 22.8151 52.6636 22.8189C52.6656 22.8227 52.6677 22.8266 52.6697 22.8304C52.6718 22.8342 52.6738 22.838 52.6758 22.8418C52.6779 22.8457 52.6799 22.8495 52.6819 22.8533C52.684 22.8571 52.686 22.8609 52.688 22.8647C52.6901 22.8684 52.6921 22.8722 52.6941 22.876C52.6961 22.8798 52.6981 22.8836 52.7002 22.8873C52.7022 22.8911 52.7042 22.8949 52.7062 22.8986C52.7082 22.9024 52.7102 22.9061 52.7122 22.9099C52.7142 22.9136 52.7162 22.9174 52.7182 22.9211C52.7202 22.9248 52.7222 22.9286 52.7242 22.9323C52.7262 22.936 52.7282 22.9398 52.7302 22.9435C52.7322 22.9472 52.7342 22.9509 52.7361 22.9546C52.7381 22.9583 52.7401 22.962 52.7421 22.9657C52.744 22.9694 52.746 22.9731 52.748 22.9768C52.75 22.9805 52.7519 22.9841 52.7539 22.9878C52.7559 22.9915 52.7578 22.9952 52.7598 22.9988C52.7617 23.0025 52.7637 23.0062 52.7657 23.0098C52.7676 23.0135 52.7696 23.0171 52.7715 23.0207C52.7735 23.0244 52.7754 23.028 52.7773 23.0317C52.7793 23.0353 52.7812 23.0389 52.7832 23.0425C52.7851 23.0462 52.787 23.0498 52.789 23.0534C52.7909 23.057 52.7928 23.0606 52.7947 23.0642C52.7967 23.0678 52.7986 23.0714 52.8005 23.075C52.8024 23.0786 52.8044 23.0822 52.8063 23.0858C52.8082 23.0893 52.8101 23.0929 52.812 23.0965C52.8139 23.1 52.8158 23.1036 52.8177 23.1072C52.8196 23.1107 52.8215 23.1143 52.8234 23.1178C52.8253 23.1214 52.8272 23.1249 52.8291 23.1285C52.831 23.132 52.8329 23.1355 52.8348 23.1391C52.8367 23.1426 52.8385 23.1461 52.8404 23.1496C52.8423 23.1531 52.8442 23.1566 52.8461 23.1602C52.8479 23.1637 52.8498 23.1672 52.8517 23.1707C52.8535 23.1741 52.8554 23.1776 52.8573 23.1811C52.8591 23.1846 52.861 23.1881 52.8629 23.1916C52.8647 23.195 52.8666 23.1985 52.8684 23.202C52.8703 23.2054 52.8721 23.2089 52.874 23.2123C52.8758 23.2158 52.8777 23.2192 52.8795 23.2227C52.8813 23.2261 52.8832 23.2296 52.885 23.233C52.8868 23.2364 52.8887 23.2399 52.8905 23.2433C52.8923 23.2467 52.8942 23.2501 52.896 23.2535C52.8978 23.2569 52.8996 23.2604 52.9015 23.2638C52.9033 23.2672 52.9051 23.2705 52.9069 23.2739C52.9087 23.2773 52.9105 23.2807 52.9123 23.2841C52.9141 23.2875 52.9159 23.2908 52.9177 23.2942C52.9196 23.2976 52.9214 23.301 52.9231 23.3043C52.9249 23.3077 52.9267 23.311 52.9285 23.3144C52.9303 23.3177 52.9321 23.3211 52.9339 23.3244C52.9357 23.3277 52.9375 23.3311 52.9392 23.3344C52.941 23.3377 52.9428 23.341 52.9446 23.3444C52.9463 23.3477 52.9481 23.351 52.9499 23.3543C52.9516 23.3576 52.9534 23.3609 52.9552 23.3642C52.9569 23.3675 52.9587 23.3708 52.9605 23.3741C52.9622 23.3774 52.964 23.3806 52.9657 23.3839C52.9675 23.3872 52.9692 23.3904 52.971 23.3937C52.9727 23.397 52.9744 23.4002 52.9762 23.4035C52.9779 23.4067 52.9797 23.41 52.9814 23.4132C52.9831 23.4165 52.9849 23.4197 52.9866 23.4229C52.9883 23.4262 52.99 23.4294 52.9918 23.4326C52.9935 23.4358 52.9952 23.4391 52.9969 23.4423C52.9986 23.4455 53.0004 23.4487 53.0021 23.4519C53.0038 23.4551 53.0055 23.4583 53.0072 23.4615C53.0089 23.4647 53.0106 23.4679 53.0123 23.471C53.014 23.4742 53.0157 23.4774 53.0174 23.4806C53.0191 23.4837 53.0208 23.4869 53.0225 23.49C53.0242 23.4932 53.0259 23.4964 53.0275 23.4995C53.0292 23.5027 53.0309 23.5058 53.0326 23.5089C53.0343 23.5121 53.0359 23.5152 53.0376 23.5183C53.0393 23.5215 53.0409 23.5246 53.0426 23.5277C53.0443 23.5308 53.0459 23.5339 53.0476 23.537C53.0493 23.5401 53.0509 23.5432 53.0526 23.5463C53.0542 23.5494 53.0559 23.5525 53.0575 23.5556C53.0592 23.5587 53.0608 23.5618 53.0625 23.5648C53.0641 23.5679 53.0658 23.571 53.0674 23.5741C53.069 23.5771 53.0707 23.5802 53.0723 23.5832C53.0739 23.5863 53.0756 23.5893 53.0772 23.5924C53.0788 23.5954 53.0804 23.5985 53.0821 23.6015C53.0837 23.6045 53.0853 23.6075 53.0869 23.6106C53.0885 23.6136 53.0902 23.6166 53.0918 23.6196C53.0934 23.6226 53.095 23.6256 53.0966 23.6286C53.0982 23.6316 53.0998 23.6346 53.1014 23.6376C53.103 23.6406 53.1046 23.6436 53.1062 23.6466C53.1078 23.6496 53.1094 23.6525 53.111 23.6555C53.1125 23.6585 53.1141 23.6614 53.1157 23.6644C53.1173 23.6673 53.1189 23.6703 53.1204 23.6732C53.122 23.6762 53.1236 23.6791 53.1252 23.6821C53.1267 23.685 53.1283 23.6879 53.1299 23.6909C53.1314 23.6938 53.133 23.6967 53.1346 23.6996C53.1361 23.7026 53.1377 23.7055 53.1392 23.7084C53.1408 23.7113 53.1423 23.7142 53.1439 23.7171C53.1454 23.72 53.147 23.7229 53.1485 23.7257C53.1501 23.7286 53.1516 23.7315 53.1531 23.7344C53.1547 23.7373 53.1562 23.7401 53.1577 23.743C53.1593 23.7459 53.1608 23.7487 53.1623 23.7516C53.1639 23.7544 53.1654 23.7573 53.1669 23.7601C53.1684 23.7629 53.1699 23.7658 53.1715 23.7686C53.173 23.7715 53.1745 23.7743 53.176 23.7771C53.1775 23.7799 53.179 23.7827 53.1805 23.7855C53.182 23.7884 53.1835 23.7912 53.185 23.794C53.1865 23.7968 53.188 23.7996 53.1895 23.8024C53.191 23.8051 53.1925 23.8079 53.194 23.8107C53.1954 23.8135 53.1969 23.8163 53.1984 23.819C53.1999 23.8218 53.2014 23.8246 53.2028 23.8273C53.2043 23.8301 53.2058 23.8328 53.2073 23.8356C53.2087 23.8383 53.2102 23.8411 53.2117 23.8438C53.2131 23.8465 53.2146 23.8493 53.216 23.852C53.2175 23.8547 53.219 23.8575 53.2204 23.8602C53.2219 23.8629 53.2233 23.8656 53.2248 23.8683C53.2262 23.871 53.2277 23.8737 53.2291 23.8764C53.2305 23.8791 53.232 23.8818 53.2334 23.8845C53.2348 23.8872 53.2363 23.8898 53.2377 23.8925C53.2391 23.8952 53.2406 23.8979 53.242 23.9005C53.2434 23.9032 53.2448 23.9058 53.2463 23.9085C53.2477 23.9111 53.2491 23.9138 53.2505 23.9164C53.2519 23.9191 53.2533 23.9217 53.2547 23.9244C53.2561 23.927 53.2575 23.9296 53.2589 23.9322C53.2604 23.9349 53.2618 23.9375 53.2631 23.9401C53.2645 23.9427 53.2659 23.9453 53.2673 23.9479C53.2687 23.9505 53.2701 23.9531 53.2715 23.9557C53.2729 23.9583 53.2743 23.9609 53.2756 23.9634C53.277 23.966 53.2784 23.9686 53.2798 23.9712C53.2811 23.9737 53.2825 23.9763 53.2839 23.9789C53.2852 23.9814 53.2866 23.984 53.288 23.9865C53.2893 23.9891 53.2907 23.9916 53.2921 23.9941C53.2934 23.9967 53.2948 23.9992 53.2961 24.0017C53.2975 24.0043 53.2988 24.0068 53.3002 24.0093C53.3015 24.0118 53.3029 24.0143 53.3042 24.0168C53.3055 24.0193 53.3069 24.0218 53.3082 24.0243C53.3095 24.0268 53.3109 24.0293 53.3122 24.0318C53.3135 24.0343 53.3149 24.0368 53.3162 24.0392C53.3175 24.0417 53.3188 24.0442 53.3201 24.0467C53.3215 24.0491 53.3228 24.0516 53.3241 24.054C53.3254 24.0565 53.3267 24.0589 53.328 24.0614C53.3293 24.0638 53.3306 24.0663 53.3319 24.0687C53.3332 24.0711 53.3345 24.0735 53.3358 24.076C53.3371 24.0784 53.3384 24.0808 53.3397 24.0832C53.341 24.0856 53.3423 24.088 53.3435 24.0904C53.3448 24.0928 53.3461 24.0952 53.3474 24.0976C53.3487 24.1 53.3499 24.1024 53.3512 24.1048C53.3525 24.1071 53.3538 24.1095 53.355 24.1119C53.3563 24.1143 53.3576 24.1166 53.3588 24.119C53.3601 24.1213 53.3613 24.1237 53.3626 24.126C53.3639 24.1284 53.3651 24.1307 53.3664 24.1331C53.3676 24.1354 53.3689 24.1377 53.3701 24.1401C53.3713 24.1424 53.3726 24.1447 53.3738 24.147C53.3751 24.1493 53.3763 24.1517 53.3775 24.154C53.3788 24.1563 53.38 24.1586 53.3812 24.1609C53.3824 24.1632 53.3837 24.1655 53.3849 24.1677C53.3861 24.17 53.3873 24.1723 53.3885 24.1746C53.3898 24.1768 53.391 24.1791 53.3922 24.1814C53.3934 24.1836 53.3946 24.1859 53.3958 24.1882C53.397 24.1904 53.3982 24.1927 53.3994 24.1949C53.4006 24.1971 53.4018 24.1994 53.403 24.2016C53.4042 24.2038 53.4054 24.2061 53.4066 24.2083C53.4078 24.2105 53.409 24.2127 53.4101 24.2149C53.4113 24.2172 53.4125 24.2194 53.4137 24.2216C53.4149 24.2238 53.416 24.226 53.4172 24.2281C53.4184 24.2303 53.4195 24.2325 53.4207 24.2347C53.4219 24.2369 53.423 24.2391 53.4242 24.2412C53.4253 24.2434 53.4265 24.2456 53.4277 24.2477C53.4288 24.2499 53.43 24.252 53.4311 24.2542C53.4323 24.2563 53.4334 24.2585 53.4346 24.2606C53.4357 24.2627 53.4368 24.2649 53.438 24.267C53.4391 24.2691 53.4402 24.2712 53.4414 24.2734C53.4425 24.2755 53.4436 24.2776 53.4448 24.2797C53.4459 24.2818 53.447 24.2839 53.4481 24.286C53.4493 24.2881 53.4504 24.2902 53.4515 24.2923C53.4526 24.2943 53.4537 24.2964 53.4548 24.2985C53.4559 24.3006 53.457 24.3026 53.4581 24.3047C53.4592 24.3068 53.4603 24.3088 53.4614 24.3109C53.4625 24.3129 53.4636 24.315 53.4647 24.317C53.4658 24.3191 53.4669 24.3211 53.468 24.3231C53.4691 24.3252 53.4702 24.3272 53.4712 24.3292C53.4723 24.3312 53.4734 24.3333 53.4745 24.3353C53.4756 24.3373 53.4766 24.3393 53.4777 24.3413C53.4788 24.3433 53.4798 24.3453 53.4809 24.3473C53.482 24.3493 53.483 24.3512 53.4841 24.3532C53.4851 24.3552 53.4862 24.3572 53.4873 24.3591C53.4883 24.3611 53.4894 24.3631 53.4904 24.365C53.4915 24.367 53.4925 24.3689 53.4935 24.3709C53.4946 24.3728 53.4956 24.3748 53.4967 24.3767C53.4977 24.3787 53.4987 24.3806 53.4998 24.3825C53.5008 24.3844 53.5018 24.3864 53.5028 24.3883C53.5039 24.3902 53.5049 24.3921 53.5059 24.394C53.5069 24.3959 53.5079 24.3978 53.509 24.3997C53.51 24.4016 53.511 24.4035 53.512 24.4054C53.513 24.4073 53.514 24.4092 53.515 24.411C53.516 24.4129 53.517 24.4148 53.518 24.4166C53.519 24.4185 53.52 24.4204 53.521 24.4222C53.522 24.4241 53.523 24.4259 53.5239 24.4277C53.5249 24.4296 53.5259 24.4314 53.5269 24.4333C53.5279 24.4351 53.5288 24.4369 53.5298 24.4387C53.5308 24.4406 53.5318 24.4424 53.5327 24.4442C53.5337 24.446 53.5347 24.4478 53.5356 24.4496C53.5366 24.4514 53.5376 24.4532 53.5385 24.455C53.5395 24.4568 53.5404 24.4586 53.5414 24.4603C53.5423 24.4621 53.5433 24.4639 53.5442 24.4657C53.5452 24.4674 53.5461 24.4692 53.5471 24.471C53.548 24.4727 53.5489 24.4745 53.5499 24.4762C53.5508 24.478 53.5517 24.4797 53.5527 24.4814C53.5536 24.4832 53.5545 24.4849 53.5554 24.4866C53.5564 24.4884 53.5573 24.4901 53.5582 24.4918C53.5591 24.4935 53.56 24.4952 53.5609 24.4969C53.5619 24.4986 53.5628 24.5003 53.5637 24.502C53.5646 24.5037 53.5655 24.5054 53.5664 24.5071C53.5673 24.5088 53.5682 24.5105 53.5691 24.5121C53.57 24.5138 53.5709 24.5155 53.5718 24.5172C53.5726 24.5188 53.5735 24.5205 53.5744 24.5221C53.5753 24.5238 53.5762 24.5254 53.5771 24.5271C53.5779 24.5287 53.5788 24.5303 53.5797 24.532C53.5806 24.5336 53.5814 24.5352 53.5823 24.5369C53.5832 24.5385 53.584 24.5401 53.5849 24.5417C53.5857 24.5433 53.5866 24.5449 53.5875 24.5465C53.5883 24.5481 53.5892 24.5497 53.59 24.5513C53.5909 24.5529 53.5917 24.5545 53.5926 24.5561C53.5934 24.5576 53.5943 24.5592 53.5951 24.5608C53.5959 24.5624 53.5968 24.5639 53.5976 24.5655C53.5984 24.567 53.5993 24.5686 53.6001 24.5701C53.6009 24.5717 53.6017 24.5732 53.6026 24.5748C53.6034 24.5763 53.6042 24.5778 53.605 24.5794C53.6058 24.5809 53.6067 24.5824 53.6075 24.5839C53.6083 24.5854 53.6091 24.587 53.6099 24.5885C53.6107 24.59 53.6115 24.5915 53.6123 24.593C53.6131 24.5945 53.6139 24.5959 53.6147 24.5974C53.6155 24.5989 53.6163 24.6004 53.6171 24.6019C53.6178 24.6033 53.6186 24.6048 53.6194 24.6063C53.6202 24.6077 53.621 24.6092 53.6218 24.6106C53.6225 24.6121 53.6233 24.6135 53.6241 24.615C53.6248 24.6164 53.6256 24.6179 53.6264 24.6193C53.6271 24.6207 53.6279 24.6222 53.6287 24.6236C53.6294 24.625 53.6302 24.6264 53.6309 24.6278C53.6317 24.6292 53.6324 24.6306 53.6332 24.632C53.6339 24.6334 53.6347 24.6348 53.6354 24.6362C53.6362 24.6376 53.6369 24.639 53.6377 24.6404C53.6384 24.6418 53.6391 24.6431 53.6399 24.6445C53.6406 24.6459 53.6413 24.6472 53.642 24.6486C53.6428 24.65 53.6435 24.6513 53.6442 24.6527C53.6449 24.654 53.6457 24.6553 53.6464 24.6567C53.6471 24.658 53.6478 24.6594 53.6485 24.6607C53.6492 24.662 53.6499 24.6633 53.6506 24.6646C53.6513 24.666 53.652 24.6673 53.6527 24.6686C53.6534 24.6699 53.6541 24.6712 53.6548 24.6725C53.6555 24.6738 53.6562 24.6751 53.6569 24.6763C53.6576 24.6776 53.6583 24.6789 53.6589 24.6802C53.6596 24.6815 53.6603 24.6827 53.661 24.684C53.6617 24.6853 53.6623 24.6865 53.663 24.6878C53.6637 24.689 53.6643 24.6903 53.665 24.6915C53.6657 24.6927 53.6663 24.694 53.667 24.6952C53.6676 24.6964 53.6683 24.6977 53.6689 24.6989C53.6696 24.7001 53.6703 24.7013 53.6709 24.7025C53.6715 24.7038 53.6722 24.705 53.6728 24.7062C53.6735 24.7074 53.6741 24.7086 53.6747 24.7097C53.6754 24.7109 53.676 24.7121 53.6766 24.7133C53.6773 24.7145 53.6779 24.7157 53.6785 24.7168C53.6792 24.718 53.6798 24.7192 53.6804 24.7203C53.681 24.7215 53.6816 24.7226 53.6822 24.7238C53.6829 24.7249 53.6835 24.7261 53.6841 24.7272C53.6847 24.7283 53.6853 24.7295 53.6859 24.7306C53.6865 24.7317 53.6871 24.7328 53.6877 24.734C53.6883 24.7351 53.6889 24.7362 53.6895 24.7373C53.6901 24.7384 53.6907 24.7395 53.6912 24.7406C53.6918 24.7417 53.6924 24.7428 53.693 24.7439C53.6936 24.7449 53.6941 24.746 53.6947 24.7471C53.6953 24.7482 53.6959 24.7492 53.6964 24.7503C53.697 24.7514 53.6976 24.7524 53.6981 24.7535C53.6987 24.7545 53.6993 24.7556 53.6998 24.7566C53.7004 24.7577 53.7009 24.7587 53.7015 24.7597C53.702 24.7608 53.7026 24.7618 53.7031 24.7628C53.7037 24.7638 53.7042 24.7648 53.7048 24.7659C53.7053 24.7669 53.7058 24.7679 53.7064 24.7689C53.7069 24.7699 53.7074 24.7709 53.708 24.7719C53.7085 24.7728 53.709 24.7738 53.7095 24.7748C53.7101 24.7758 53.7106 24.7768 53.7111 24.7777C53.7116 24.7787 53.7121 24.7797 53.7127 24.7806C53.7132 24.7816 53.7137 24.7825 53.7142 24.7835C53.7147 24.7844 53.7152 24.7854 53.7157 24.7863C53.7162 24.7872 53.7167 24.7882 53.7172 24.7891C53.7177 24.79 53.7182 24.791 53.7187 24.7919C53.7192 24.7928 53.7196 24.7937 53.7201 24.7946C53.7206 24.7955 53.7211 24.7964 53.7216 24.7973C53.7221 24.7982 53.7225 24.7991 53.723 24.8C53.7235 24.8009 53.7239 24.8017 53.7244 24.8026C53.7249 24.8035 53.7253 24.8044 53.7258 24.8052C53.7263 24.8061 53.7267 24.8069 53.7272 24.8078C53.7276 24.8086 53.7281 24.8095 53.7285 24.8103C53.729 24.8112 53.7294 24.812 53.7299 24.8128C53.7303 24.8137 53.7308 24.8145 53.7312 24.8153C53.7316 24.8161 53.7321 24.817 53.7325 24.8178C53.733 24.8186 53.7334 24.8194 53.7338 24.8202C53.7342 24.821 53.7347 24.8218 53.7351 24.8226C53.7355 24.8234 53.7359 24.8241 53.7363 24.8249C53.7368 24.8257 53.7372 24.8265 53.7376 24.8272C53.738 24.828 53.7384 24.8288 53.7388 24.8295C53.7392 24.8303 53.7396 24.831 53.74 24.8318C53.7404 24.8325 53.7408 24.8333 53.7412 24.834C53.7416 24.8348 53.742 24.8355 53.7424 24.8362C53.7428 24.8369 53.7432 24.8377 53.7435 24.8384C53.7439 24.8391 53.7443 24.8398 53.7447 24.8405C53.7451 24.8412 53.7454 24.8419 53.7458 24.8426C53.7462 24.8433 53.7465 24.844 53.7469 24.8447C53.7473 24.8454 53.7476 24.846 53.748 24.8467C53.7484 24.8474 53.7487 24.8481 53.7491 24.8487C53.7494 24.8494 53.7498 24.85 53.7501 24.8507C53.7505 24.8514 53.7508 24.852 53.7512 24.8526C53.7515 24.8533 53.7519 24.8539 53.7522 24.8546C53.7525 24.8552 53.7529 24.8558 53.7532 24.8564C53.7535 24.8571 53.7539 24.8577 53.7542 24.8583C53.7545 24.8589 53.7548 24.8595 53.7552 24.8601C53.7555 24.8607 53.7558 24.8613 53.7561 24.8619C53.7564 24.8625 53.7567 24.8631 53.757 24.8636C53.7574 24.8642 53.7577 24.8648 53.758 24.8654C53.7583 24.8659 53.7586 24.8665 53.7589 24.867C53.7592 24.8676 53.7595 24.8682 53.7598 24.8687C53.76 24.8692 53.7603 24.8698 53.7606 24.8703C53.7609 24.8709 53.7612 24.8714 53.7615 24.8719C53.7618 24.8724 53.762 24.873 53.7623 24.8735C53.7626 24.874 53.7629 24.8745 53.7631 24.875C53.7634 24.8755 53.7637 24.876 53.7639 24.8765C53.7642 24.877 53.7645 24.8775 53.7647 24.878C53.765 24.8785 53.7652 24.879 53.7655 24.8794C53.7657 24.8799 53.766 24.8804 53.7662 24.8808C53.7665 24.8813 53.7667 24.8818 53.767 24.8822C53.7672 24.8827 53.7675 24.8831 53.7677 24.8835C53.7679 24.884 53.7682 24.8844 53.7684 24.8849C53.7686 24.8853 53.7689 24.8857 53.7691 24.8861C53.7693 24.8866 53.7695 24.887 53.7697 24.8874C53.77 24.8878 53.7702 24.8882 53.7704 24.8886C53.7706 24.889 53.7708 24.8894 53.771 24.8898C53.7712 24.8902 53.7714 24.8906 53.7716 24.8909C53.7719 24.8913 53.7721 24.8917 53.7722 24.8921C53.7724 24.8924 53.7726 24.8928 53.7728 24.8931C53.773 24.8935 53.7732 24.8939 53.7734 24.8942C53.7736 24.8946 53.7738 24.8949 53.7739 24.8952C53.7741 24.8956 53.7743 24.8959 53.7745 24.8962C53.7747 24.8966 53.7748 24.8969 53.775 24.8972C53.7752 24.8975 53.7753 24.8978 53.7755 24.8981C53.7757 24.8984 53.7758 24.8987 53.776 24.899C53.7761 24.8993 53.7763 24.8996 53.7764 24.8999C53.7766 24.9002 53.7767 24.9005 53.7769 24.9007C53.777 24.901 53.7772 24.9013 53.7773 24.9015C53.7775 24.9018 53.7776 24.9021 53.7777 24.9023C53.7779 24.9026 53.778 24.9028 53.7781 24.9031C53.7783 24.9033 53.7784 24.9035 53.7785 24.9038C53.7786 24.904 53.7788 24.9042 53.7789 24.9044C53.779 24.9047 53.7791 24.9049 53.7792 24.9051C53.7793 24.9053 53.7794 24.9055 53.7795 24.9057C53.7797 24.9059 53.7798 24.9061 53.7799 24.9063C53.78 24.9065 53.7801 24.9067 53.7802 24.9068C53.7802 24.907 53.7803 24.9072 53.7804 24.9074C53.7805 24.9075 53.7806 24.9077 53.7807 24.9079C53.7808 24.908 53.7809 24.9082 53.7809 24.9083C53.781 24.9085 53.7811 24.9086 53.7812 24.9087C53.7812 24.9089 53.7813 24.909 53.7814 24.9091C53.7814 24.9093 53.7815 24.9094 53.7816 24.9095C53.7816 24.9096 53.7817 24.9097 53.7817 24.9098C53.7818 24.9099 53.7819 24.91 53.7819 24.9101C53.782 24.9102 53.782 24.9103 53.7821 24.9104C53.7821 24.9105 53.7821 24.9106 53.7822 24.9106C53.7822 24.9107 53.7823 24.9108 53.7823 24.9108C53.7823 24.9109 53.7824 24.911 53.7824 24.911C53.7824 24.9111 53.7824 24.9111 53.7825 24.9112C53.7825 24.9112 53.7825 24.9112 53.7825 24.9113C53.7825 24.9113 53.7825 24.9113 53.7826 24.9113C53.7826 24.9114 53.7826 24.9114 53.7826 24.9114C53.7826 24.9114 53.7826 24.9114 54.3999 24.5813C55.0171 24.2512 55.0171 24.2512 55.0171 24.2512C55.0171 24.2512 55.0171 24.2511 55.0171 24.2511C55.0171 24.2511 55.0171 24.2511 55.0171 24.251C55.0171 24.251 55.017 24.251 55.017 24.2509C55.017 24.2509 55.017 24.2508 55.0169 24.2508C55.0169 24.2507 55.0169 24.2507 55.0168 24.2506C55.0168 24.2506 55.0168 24.2505 55.0167 24.2504C55.0167 24.2503 55.0166 24.2503 55.0166 24.2502C55.0166 24.2501 55.0165 24.25 55.0165 24.2499C55.0164 24.2498 55.0164 24.2497 55.0163 24.2496C55.0162 24.2495 55.0162 24.2494 55.0161 24.2493C55.0161 24.2492 55.016 24.249 55.0159 24.2489C55.0159 24.2488 55.0158 24.2487 55.0157 24.2485C55.0156 24.2484 55.0156 24.2482 55.0155 24.2481C55.0154 24.2479 55.0153 24.2478 55.0152 24.2476C55.0152 24.2475 55.0151 24.2473 55.015 24.2471C55.0149 24.247 55.0148 24.2468 55.0147 24.2466C55.0146 24.2464 55.0145 24.2463 55.0144 24.2461C55.0143 24.2459 55.0142 24.2457 55.0141 24.2455C55.014 24.2453 55.0139 24.2451 55.0138 24.2449C55.0137 24.2447 55.0135 24.2444 55.0134 24.2442C55.0133 24.244 55.0132 24.2438 55.0131 24.2435C55.0129 24.2433 55.0128 24.2431 55.0127 24.2428C55.0125 24.2426 55.0124 24.2423 55.0123 24.2421C55.0121 24.2418 55.012 24.2416 55.0119 24.2413C55.0117 24.2411 55.0116 24.2408 55.0114 24.2405C55.0113 24.2402 55.0111 24.24 55.011 24.2397C55.0108 24.2394 55.0107 24.2391 55.0105 24.2388C55.0104 24.2385 55.0102 24.2382 55.01 24.2379C55.0099 24.2376 55.0097 24.2373 55.0095 24.237C55.0094 24.2367 55.0092 24.2363 55.009 24.236C55.0089 24.2357 55.0087 24.2354 55.0085 24.235C55.0083 24.2347 55.0081 24.2343 55.0079 24.234C55.0078 24.2336 55.0076 24.2333 55.0074 24.2329C55.0072 24.2326 55.007 24.2322 55.0068 24.2318C55.0066 24.2315 55.0064 24.2311 55.0062 24.2307C55.006 24.2303 55.0058 24.23 55.0056 24.2296C55.0054 24.2292 55.0052 24.2288 55.0049 24.2284C55.0047 24.228 55.0045 24.2276 55.0043 24.2272C55.0041 24.2268 55.0039 24.2263 55.0036 24.2259C55.0034 24.2255 55.0032 24.2251 55.0029 24.2246C55.0027 24.2242 55.0025 24.2238 55.0022 24.2233C55.002 24.2229 55.0018 24.2224 55.0015 24.222C55.0013 24.2215 55.001 24.2211 55.0008 24.2206C55.0005 24.2202 55.0003 24.2197 55 24.2192C54.9998 24.2187 54.9995 24.2183 54.9993 24.2178C54.999 24.2173 54.9988 24.2168 54.9985 24.2163C54.9982 24.2158 54.998 24.2153 54.9977 24.2148C54.9974 24.2143 54.9971 24.2138 54.9969 24.2133C54.9966 24.2128 54.9963 24.2122 54.996 24.2117C54.9957 24.2112 54.9955 24.2106 54.9952 24.2101C54.9949 24.2096 54.9946 24.209 54.9943 24.2085C54.994 24.2079 54.9937 24.2074 54.9934 24.2068C54.9931 24.2063 54.9928 24.2057 54.9925 24.2051C54.9922 24.2046 54.9919 24.204 54.9916 24.2034C54.9913 24.2028 54.991 24.2023 54.9907 24.2017C54.9903 24.2011 54.99 24.2005 54.9897 24.1999C54.9894 24.1993 54.9891 24.1987 54.9887 24.1981C54.9884 24.1975 54.9881 24.1968 54.9877 24.1962C54.9874 24.1956 54.9871 24.195 54.9867 24.1943C54.9864 24.1937 54.9861 24.1931 54.9857 24.1924C54.9854 24.1918 54.985 24.1911 54.9847 24.1905C54.9843 24.1898 54.984 24.1892 54.9836 24.1885C54.9833 24.1878 54.9829 24.1872 54.9825 24.1865C54.9822 24.1858 54.9818 24.1851 54.9815 24.1845C54.9811 24.1838 54.9807 24.1831 54.9804 24.1824C54.98 24.1817 54.9796 24.181 54.9792 24.1803C54.9789 24.1796 54.9785 24.1789 54.9781 24.1782C54.9777 24.1774 54.9773 24.1767 54.9769 24.176C54.9765 24.1753 54.9762 24.1745 54.9758 24.1738C54.9754 24.1731 54.975 24.1723 54.9746 24.1716C54.9742 24.1708 54.9738 24.1701 54.9734 24.1693C54.973 24.1686 54.9725 24.1678 54.9721 24.167C54.9717 24.1663 54.9713 24.1655 54.9709 24.1647C54.9705 24.1639 54.9701 24.1631 54.9696 24.1624C54.9692 24.1616 54.9688 24.1608 54.9684 24.16C54.9679 24.1592 54.9675 24.1584 54.9671 24.1576C54.9666 24.1567 54.9662 24.1559 54.9658 24.1551C54.9653 24.1543 54.9649 24.1535 54.9644 24.1526C54.964 24.1518 54.9635 24.151 54.9631 24.1501C54.9626 24.1493 54.9622 24.1484 54.9617 24.1476C54.9613 24.1467 54.9608 24.1459 54.9604 24.145C54.9599 24.1441 54.9594 24.1433 54.959 24.1424C54.9585 24.1415 54.958 24.1406 54.9576 24.1398C54.9571 24.1389 54.9566 24.138 54.9561 24.1371C54.9556 24.1362 54.9552 24.1353 54.9547 24.1344C54.9542 24.1335 54.9537 24.1326 54.9532 24.1317C54.9527 24.1307 54.9522 24.1298 54.9517 24.1289C54.9512 24.128 54.9507 24.127 54.9502 24.1261C54.9497 24.1252 54.9492 24.1242 54.9487 24.1233C54.9482 24.1223 54.9477 24.1214 54.9472 24.1204C54.9467 24.1195 54.9462 24.1185 54.9457 24.1175C54.9451 24.1165 54.9446 24.1156 54.9441 24.1146C54.9436 24.1136 54.943 24.1126 54.9425 24.1116C54.942 24.1107 54.9415 24.1097 54.9409 24.1087C54.9404 24.1077 54.9398 24.1067 54.9393 24.1056C54.9388 24.1046 54.9382 24.1036 54.9377 24.1026C54.9371 24.1016 54.9366 24.1005 54.936 24.0995C54.9355 24.0985 54.9349 24.0974 54.9344 24.0964C54.9338 24.0954 54.9332 24.0943 54.9327 24.0933C54.9321 24.0922 54.9316 24.0911 54.931 24.0901C54.9304 24.089 54.9298 24.088 54.9293 24.0869C54.9287 24.0858 54.9281 24.0847 54.9275 24.0836C54.927 24.0826 54.9264 24.0815 54.9258 24.0804C54.9252 24.0793 54.9246 24.0782 54.924 24.0771C54.9234 24.076 54.9228 24.0749 54.9222 24.0737C54.9217 24.0726 54.9211 24.0715 54.9204 24.0704C54.9198 24.0692 54.9192 24.0681 54.9186 24.067C54.918 24.0658 54.9174 24.0647 54.9168 24.0636C54.9162 24.0624 54.9156 24.0613 54.915 24.0601C54.9143 24.0589 54.9137 24.0578 54.9131 24.0566C54.9125 24.0554 54.9118 24.0543 54.9112 24.0531C54.9106 24.0519 54.9099 24.0507 54.9093 24.0495C54.9087 24.0483 54.908 24.0471 54.9074 24.0459C54.9067 24.0447 54.9061 24.0435 54.9054 24.0423C54.9048 24.0411 54.9042 24.0399 54.9035 24.0387C54.9028 24.0375 54.9022 24.0362 54.9015 24.035C54.9009 24.0338 54.9002 24.0325 54.8995 24.0313C54.8989 24.03 54.8982 24.0288 54.8975 24.0275C54.8969 24.0263 54.8962 24.025 54.8955 24.0238C54.8948 24.0225 54.8942 24.0212 54.8935 24.02C54.8928 24.0187 54.8921 24.0174 54.8914 24.0161C54.8908 24.0148 54.8901 24.0136 54.8894 24.0123C54.8887 24.011 54.888 24.0097 54.8873 24.0084C54.8866 24.0071 54.8859 24.0057 54.8852 24.0044C54.8845 24.0031 54.8838 24.0018 54.8831 24.0005C54.8823 23.9991 54.8816 23.9978 54.8809 23.9965C54.8802 23.9951 54.8795 23.9938 54.8788 23.9924C54.878 23.9911 54.8773 23.9897 54.8766 23.9884C54.8759 23.987 54.8751 23.9857 54.8744 23.9843C54.8737 23.9829 54.8729 23.9815 54.8722 23.9802C54.8715 23.9788 54.8707 23.9774 54.87 23.976C54.8692 23.9746 54.8685 23.9732 54.8677 23.9718C54.867 23.9704 54.8662 23.969 54.8655 23.9676C54.8647 23.9662 54.864 23.9648 54.8632 23.9634C54.8625 23.9619 54.8617 23.9605 54.8609 23.9591C54.8602 23.9577 54.8594 23.9562 54.8586 23.9548C54.8579 23.9533 54.8571 23.9519 54.8563 23.9504C54.8555 23.949 54.8547 23.9475 54.854 23.9461C54.8532 23.9446 54.8524 23.9431 54.8516 23.9416C54.8508 23.9402 54.85 23.9387 54.8492 23.9372C54.8484 23.9357 54.8476 23.9342 54.8468 23.9327C54.846 23.9312 54.8452 23.9297 54.8444 23.9282C54.8436 23.9267 54.8428 23.9252 54.842 23.9237C54.8412 23.9222 54.8404 23.9207 54.8396 23.9191C54.8388 23.9176 54.8379 23.9161 54.8371 23.9145C54.8363 23.913 54.8355 23.9115 54.8346 23.9099C54.8338 23.9084 54.833 23.9068 54.8321 23.9053C54.8313 23.9037 54.8305 23.9021 54.8296 23.9006C54.8288 23.899 54.828 23.8974 54.8271 23.8958C54.8263 23.8943 54.8254 23.8927 54.8246 23.8911C54.8237 23.8895 54.8229 23.8879 54.822 23.8863C54.8212 23.8847 54.8203 23.8831 54.8194 23.8815C54.8186 23.8799 54.8177 23.8783 54.8168 23.8766C54.816 23.875 54.8151 23.8734 54.8142 23.8718C54.8134 23.8701 54.8125 23.8685 54.8116 23.8669C54.8107 23.8652 54.8098 23.8636 54.809 23.8619C54.8081 23.8603 54.8072 23.8586 54.8063 23.8569C54.8054 23.8553 54.8045 23.8536 54.8036 23.8519C54.8027 23.8503 54.8018 23.8486 54.8009 23.8469C54.8 23.8452 54.7991 23.8435 54.7982 23.8418C54.7973 23.8401 54.7964 23.8384 54.7955 23.8367C54.7946 23.835 54.7937 23.8333 54.7927 23.8316C54.7918 23.8299 54.7909 23.8282 54.79 23.8264C54.7891 23.8247 54.7881 23.823 54.7872 23.8212C54.7863 23.8195 54.7853 23.8177 54.7844 23.816C54.7835 23.8143 54.7825 23.8125 54.7816 23.8107C54.7807 23.809 54.7797 23.8072 54.7788 23.8055C54.7778 23.8037 54.7769 23.8019 54.7759 23.8001C54.775 23.7983 54.774 23.7966 54.7731 23.7948C54.7721 23.793 54.7711 23.7912 54.7702 23.7894C54.7692 23.7876 54.7683 23.7858 54.7673 23.784C54.7663 23.7822 54.7653 23.7803 54.7644 23.7785C54.7634 23.7767 54.7624 23.7749 54.7614 23.773C54.7605 23.7712 54.7595 23.7694 54.7585 23.7675C54.7575 23.7657 54.7565 23.7638 54.7555 23.762C54.7545 23.7601 54.7535 23.7583 54.7525 23.7564C54.7516 23.7546 54.7506 23.7527 54.7495 23.7508C54.7485 23.7489 54.7475 23.7471 54.7465 23.7452C54.7455 23.7433 54.7445 23.7414 54.7435 23.7395C54.7425 23.7376 54.7415 23.7357 54.7405 23.7338C54.7394 23.7319 54.7384 23.73 54.7374 23.7281C54.7364 23.7262 54.7353 23.7242 54.7343 23.7223C54.7333 23.7204 54.7322 23.7184 54.7312 23.7165C54.7302 23.7146 54.7291 23.7126 54.7281 23.7107C54.727 23.7087 54.726 23.7068 54.725 23.7048C54.7239 23.7029 54.7229 23.7009 54.7218 23.6989C54.7208 23.697 54.7197 23.695 54.7186 23.693C54.7176 23.691 54.7165 23.689 54.7155 23.6871C54.7144 23.6851 54.7133 23.6831 54.7123 23.6811C54.7112 23.6791 54.7101 23.6771 54.709 23.675C54.708 23.673 54.7069 23.671 54.7058 23.669C54.7047 23.667 54.7036 23.665 54.7025 23.6629C54.7015 23.6609 54.7004 23.6589 54.6993 23.6568C54.6982 23.6548 54.6971 23.6527 54.696 23.6507C54.6949 23.6486 54.6938 23.6466 54.6927 23.6445C54.6916 23.6424 54.6905 23.6404 54.6894 23.6383C54.6883 23.6362 54.6872 23.6341 54.686 23.632C54.6849 23.63 54.6838 23.6279 54.6827 23.6258C54.6816 23.6237 54.6804 23.6216 54.6793 23.6195C54.6782 23.6174 54.6771 23.6153 54.6759 23.6131C54.6748 23.611 54.6737 23.6089 54.6725 23.6068C54.6714 23.6047 54.6702 23.6025 54.6691 23.6004C54.668 23.5982 54.6668 23.5961 54.6657 23.594C54.6645 23.5918 54.6634 23.5897 54.6622 23.5875C54.6611 23.5853 54.6599 23.5832 54.6587 23.581C54.6576 23.5788 54.6564 23.5767 54.6553 23.5745C54.6541 23.5723 54.6529 23.5701 54.6517 23.5679C54.6506 23.5657 54.6494 23.5635 54.6482 23.5613C54.647 23.5591 54.6459 23.5569 54.6447 23.5547C54.6435 23.5525 54.6423 23.5503 54.6411 23.5481C54.6399 23.5459 54.6388 23.5436 54.6376 23.5414C54.6364 23.5392 54.6352 23.5369 54.634 23.5347C54.6328 23.5324 54.6316 23.5302 54.6304 23.5279C54.6292 23.5257 54.6279 23.5234 54.6267 23.5212C54.6255 23.5189 54.6243 23.5166 54.6231 23.5144C54.6219 23.5121 54.6207 23.5098 54.6194 23.5075C54.6182 23.5052 54.617 23.5029 54.6158 23.5006C54.6145 23.4984 54.6133 23.4961 54.6121 23.4937C54.6108 23.4914 54.6096 23.4891 54.6084 23.4868C54.6071 23.4845 54.6059 23.4822 54.6046 23.4799C54.6034 23.4775 54.6022 23.4752 54.6009 23.4729C54.5997 23.4705 54.5984 23.4682 54.5971 23.4658C54.5959 23.4635 54.5946 23.4611 54.5934 23.4588C54.5921 23.4564 54.5908 23.454 54.5896 23.4517C54.5883 23.4493 54.587 23.4469 54.5858 23.4446C54.5845 23.4422 54.5832 23.4398 54.5819 23.4374C54.5807 23.435 54.5794 23.4326 54.5781 23.4302C54.5768 23.4278 54.5755 23.4254 54.5742 23.423C54.573 23.4206 54.5717 23.4182 54.5704 23.4157C54.5691 23.4133 54.5678 23.4109 54.5665 23.4085C54.5652 23.406 54.5639 23.4036 54.5626 23.4012C54.5613 23.3987 54.5599 23.3963 54.5586 23.3938C54.5573 23.3914 54.556 23.3889 54.5547 23.3864C54.5534 23.384 54.5521 23.3815 54.5507 23.379C54.5494 23.3766 54.5481 23.3741 54.5467 23.3716C54.5454 23.3691 54.5441 23.3666 54.5428 23.3641C54.5414 23.3616 54.5401 23.3591 54.5387 23.3566C54.5374 23.3541 54.5361 23.3516 54.5347 23.3491C54.5334 23.3466 54.532 23.344 54.5307 23.3415C54.5293 23.339 54.528 23.3365 54.5266 23.3339C54.5252 23.3314 54.5239 23.3288 54.5225 23.3263C54.5212 23.3237 54.5198 23.3212 54.5184 23.3186C54.5171 23.3161 54.5157 23.3135 54.5143 23.3109C54.5129 23.3084 54.5116 23.3058 54.5102 23.3032C54.5088 23.3006 54.5074 23.2981 54.506 23.2955C54.5047 23.2929 54.5033 23.2903 54.5019 23.2877C54.5005 23.2851 54.4991 23.2825 54.4977 23.2799C54.4963 23.2773 54.4949 23.2746 54.4935 23.272C54.4921 23.2694 54.4907 23.2668 54.4893 23.2641C54.4879 23.2615 54.4865 23.2589 54.4851 23.2562C54.4836 23.2536 54.4822 23.2509 54.4808 23.2483C54.4794 23.2456 54.478 23.243 54.4765 23.2403C54.4751 23.2376 54.4737 23.235 54.4723 23.2323C54.4708 23.2296 54.4694 23.2269 54.468 23.2243C54.4665 23.2216 54.4651 23.2189 54.4636 23.2162C54.4622 23.2135 54.4608 23.2108 54.4593 23.2081C54.4579 23.2054 54.4564 23.2027 54.455 23.2C54.4535 23.1972 54.4521 23.1945 54.4506 23.1918C54.4491 23.1891 54.4477 23.1863 54.4462 23.1836C54.4447 23.1809 54.4433 23.1781 54.4418 23.1754C54.4403 23.1726 54.4389 23.1699 54.4374 23.1671C54.4359 23.1643 54.4344 23.1616 54.433 23.1588C54.4315 23.156 54.43 23.1533 54.4285 23.1505C54.427 23.1477 54.4255 23.1449 54.424 23.1421C54.4225 23.1393 54.4211 23.1366 54.4196 23.1338C54.4181 23.1309 54.4166 23.1281 54.4151 23.1253C54.4136 23.1225 54.412 23.1197 54.4105 23.1169C54.409 23.1141 54.4075 23.1112 54.406 23.1084C54.4045 23.1056 54.403 23.1027 54.4014 23.0999C54.3999 23.097 54.3984 23.0942 54.3969 23.0913C54.3954 23.0885 54.3938 23.0856 54.3923 23.0828C54.3908 23.0799 54.3892 23.077 54.3877 23.0742C54.3862 23.0713 54.3846 23.0684 54.3831 23.0655C54.3815 23.0626 54.38 23.0598 54.3784 23.0569C54.3769 23.054 54.3753 23.0511 54.3738 23.0482C54.3722 23.0452 54.3707 23.0423 54.3691 23.0394C54.3676 23.0365 54.366 23.0336 54.3644 23.0307C54.3629 23.0277 54.3613 23.0248 54.3597 23.0219C54.3581 23.0189 54.3566 23.016 54.355 23.013C54.3534 23.0101 54.3518 23.0071 54.3503 23.0042C54.3487 23.0012 54.3471 22.9982 54.3455 22.9953C54.3439 22.9923 54.3423 22.9893 54.3407 22.9864C54.3391 22.9834 54.3375 22.9804 54.3359 22.9774C54.3343 22.9744 54.3327 22.9714 54.3311 22.9684C54.3295 22.9654 54.3279 22.9624 54.3263 22.9594C54.3247 22.9564 54.3231 22.9534 54.3215 22.9503C54.3199 22.9473 54.3182 22.9443 54.3166 22.9413C54.315 22.9382 54.3134 22.9352 54.3117 22.9322C54.3101 22.9291 54.3085 22.9261 54.3069 22.923C54.3052 22.92 54.3036 22.9169 54.3019 22.9138C54.3003 22.9108 54.2987 22.9077 54.297 22.9046C54.2954 22.9016 54.2937 22.8985 54.2921 22.8954C54.2904 22.8923 54.2888 22.8892 54.2871 22.8861C54.2855 22.883 54.2838 22.8799 54.2822 22.8768C54.2805 22.8737 54.2788 22.8706 54.2772 22.8675C54.2755 22.8644 54.2738 22.8612 54.2722 22.8581C54.2705 22.855 54.2688 22.8519 54.2671 22.8487C54.2655 22.8456 54.2638 22.8424 54.2621 22.8393C54.2604 22.8361 54.2587 22.833 54.257 22.8298C54.2553 22.8267 54.2536 22.8235 54.252 22.8203C54.2503 22.8172 54.2486 22.814 54.2469 22.8108C54.2452 22.8076 54.2435 22.8045 54.2417 22.8013C54.24 22.7981 54.2383 22.7949 54.2366 22.7917C54.2349 22.7885 54.2332 22.7853 54.2315 22.7821C54.2298 22.7788 54.228 22.7756 54.2263 22.7724C54.2246 22.7692 54.2229 22.766 54.2211 22.7627C54.2194 22.7595 54.2177 22.7563 54.2159 22.753C54.2142 22.7498 54.2125 22.7465 54.2107 22.7433C54.209 22.74 54.2073 22.7368 54.2055 22.7335C54.2038 22.7302 54.202 22.727 54.2003 22.7237C54.1985 22.7204 54.1968 22.7171 54.195 22.7138C54.1932 22.7106 54.1915 22.7073 54.1897 22.704C54.188 22.7007 54.1862 22.6974 54.1844 22.6941C54.1827 22.6908 54.1809 22.6875 54.1791 22.6841C54.1773 22.6808 54.1756 22.6775 54.1738 22.6742C54.172 22.6709 54.1702 22.6675 54.1684 22.6642C54.1667 22.6608 54.1649 22.6575 54.1631 22.6542C54.1613 22.6508 54.1595 22.6475 54.1577 22.6441C54.1559 22.6407 54.1541 22.6374 54.1523 22.634C54.1505 22.6306 54.1487 22.6273 54.1469 22.6239C54.1451 22.6205 54.1433 22.6171 54.1415 22.6137C54.1396 22.6103 54.1378 22.6069 54.136 22.6035C54.1342 22.6001 54.1324 22.5967 54.1305 22.5933C54.1287 22.5899 54.1269 22.5865 54.1251 22.5831C54.1232 22.5796 54.1214 22.5762 54.1196 22.5728C54.1177 22.5694 54.1159 22.5659 54.114 22.5625C54.1122 22.559 54.1104 22.5556 54.1085 22.5521C54.1067 22.5487 54.1048 22.5452 54.103 22.5418C54.1011 22.5383 54.0993 22.5348 54.0974 22.5313C54.0955 22.5279 54.0937 22.5244 54.0918 22.5209C54.09 22.5174 54.0881 22.5139 54.0862 22.5104C54.0844 22.5069 54.0825 22.5034 54.0806 22.4999C54.0787 22.4964 54.0769 22.4929 54.075 22.4894C54.0731 22.4859 54.0712 22.4824 54.0693 22.4788C54.0674 22.4753 54.0655 22.4718 54.0637 22.4682C54.0618 22.4647 54.0599 22.4612 54.058 22.4576C54.0561 22.4541 54.0542 22.4505 54.0523 22.447C54.0504 22.4434 54.0485 22.4398 54.0466 22.4363C54.0446 22.4327 54.0427 22.4291 54.0408 22.4255C54.0389 22.422 54.037 22.4184 54.0351 22.4148C54.0331 22.4112 54.0312 22.4076 54.0293 22.404C54.0274 22.4004 54.0254 22.3968 54.0235 22.3932C54.0216 22.3896 54.0196 22.3859 54.0177 22.3823C54.0158 22.3787 54.0138 22.3751 54.0119 22.3714C54.0099 22.3678 54.008 22.3642 54.0061 22.3605C54.0041 22.3569 54.0022 22.3532 54.0002 22.3496C53.9982 22.3459 53.9963 22.3423 53.9943 22.3386C53.9924 22.3349 53.9904 22.3313 53.9884 22.3276C53.9865 22.3239 53.9845 22.3202 53.9825 22.3166C53.9806 22.3129 53.9786 22.3092 53.9766 22.3055C53.9746 22.3018 53.9727 22.2981 53.9707 22.2944C53.9687 22.2907 53.9667 22.287 53.9647 22.2833C53.9627 22.2795 53.9608 22.2758 53.9588 22.2721C53.9568 22.2684 53.9548 22.2646 53.9528 22.2609C53.9508 22.2572 53.9488 22.2534 53.9468 22.2497C53.9448 22.2459 53.9428 22.2422 53.9407 22.2384C53.9387 22.2346 53.9367 22.2309 53.9347 22.2271C53.9327 22.2233 53.9307 22.2196 53.9286 22.2158C53.9266 22.212 53.9246 22.2082 53.9226 22.2044C53.9205 22.2006 53.9185 22.1968 53.9165 22.193C53.9145 22.1892 53.9124 22.1854 53.9104 22.1816C53.9083 22.1778 53.9063 22.174 53.9043 22.1702C53.9022 22.1664 53.9002 22.1625 53.8981 22.1587C53.8961 22.1549 53.894 22.151 53.892 22.1472C53.8899 22.1433 53.8878 22.1395 53.8858 22.1356C53.8837 22.1318 53.8817 22.1279 53.8796 22.1241C53.8775 22.1202 53.8755 22.1163 53.8734 22.1125C53.8713 22.1086 53.8692 22.1047 53.8672 22.1008C53.8651 22.0969 53.863 22.093 53.8609 22.0891C53.8588 22.0853 53.8568 22.0814 53.8547 22.0774C53.8526 22.0735 53.8505 22.0696 53.8484 22.0657C53.8463 22.0618 53.8442 22.0579 53.8421 22.0539C53.84 22.05 53.8379 22.0461 53.8358 22.0421C53.8337 22.0382 53.8316 22.0343 53.8295 22.0303C53.8273 22.0264 53.8252 22.0224 53.8231 22.0185C53.821 22.0145 53.8189 22.0105 53.8168 22.0066C53.8146 22.0026 53.8125 21.9986 53.8104 21.9946C53.8083 21.9907 53.8061 21.9867 53.804 21.9827C53.8019 21.9787 53.7997 21.9747 53.7976 21.9707C53.7954 21.9667 53.7933 21.9627 53.7912 21.9587C53.789 21.9547 53.7869 21.9507 53.7847 21.9466C53.7826 21.9426 53.7804 21.9386 53.7782 21.9346C53.7761 21.9305 53.7739 21.9265 53.7718 21.9224C53.7696 21.9184 53.7674 21.9143 53.7653 21.9103C53.7631 21.9062 53.7609 21.9022 53.7588 21.8981C53.7566 21.8941 53.7544 21.89 53.7522 21.8859C53.7501 21.8818 53.7479 21.8778 53.7457 21.8737C53.7435 21.8696 53.7413 21.8655 53.7391 21.8614C53.7369 21.8573 53.7347 21.8532 53.7325 21.8491C53.7304 21.845 53.7282 21.8409 53.726 21.8368C53.7237 21.8326 53.7215 21.8285 53.7193 21.8244C53.7171 21.8203 53.7149 21.8161 53.7127 21.812C53.7105 21.8079 53.7083 21.8037 53.7061 21.7996C53.7038 21.7954 53.7016 21.7913 53.6994 21.7871C53.6972 21.783 53.6949 21.7788 53.6927 21.7746C53.6905 21.7704 53.6883 21.7663 53.686 21.7621C53.6838 21.7579 53.6815 21.7537 53.6793 21.7495C53.6771 21.7453 53.6748 21.7412 53.6726 21.737C53.6703 21.7328 53.6681 21.7285 53.6658 21.7243C53.6636 21.7201 53.6613 21.7159 53.6591 21.7117C53.6568 21.7075 53.6545 21.7032 53.6523 21.699C53.65 21.6948 53.6477 21.6905 53.6455 21.6863C53.6432 21.682 53.6409 21.6778 53.6387 21.6735C53.6364 21.6693 53.6341 21.665 53.6318 21.6608C53.6296 21.6565 53.6273 21.6522 53.625 21.648C53.6227 21.6437 53.6204 21.6394 53.6181 21.6351C53.6158 21.6308 53.6135 21.6265 53.6112 21.6222C53.6089 21.618 53.6066 21.6137 53.6043 21.6093C53.602 21.605 53.5997 21.6007 53.5974 21.5964C53.5951 21.5921 53.5928 21.5878 53.5905 21.5834C53.5882 21.5791 53.5858 21.5748 53.5835 21.5704C53.5812 21.5661 53.5789 21.5618 53.5766 21.5574C53.5742 21.5531 53.5719 21.5487 53.5696 21.5444C53.5672 21.54 53.5649 21.5356 53.5626 21.5313C53.5602 21.5269 53.5579 21.5225 53.5556 21.5181C53.5532 21.5138 53.5509 21.5094 53.5485 21.505C53.5462 21.5006 53.5438 21.4962 53.5415 21.4918C53.5391 21.4874 53.5368 21.483 53.5344 21.4786C53.532 21.4742 53.5297 21.4698 53.5273 21.4653C53.525 21.4609 53.5226 21.4565 53.5202 21.452C53.5178 21.4476 53.5155 21.4432 53.5131 21.4387C53.5107 21.4343 53.5083 21.4298 53.506 21.4254C53.5036 21.4209 53.5012 21.4165 53.4988 21.412C53.4964 21.4075 53.494 21.4031 53.4916 21.3986C53.4892 21.3941 53.4868 21.3897 53.4844 21.3852C53.482 21.3807 53.4796 21.3762 53.4772 21.3717C53.4748 21.3672 53.4724 21.3627 53.47 21.3582C53.4676 21.3537 53.4652 21.3492 53.4628 21.3447C53.4604 21.3401 53.4579 21.3356 53.4555 21.3311C53.4531 21.3266 53.4507 21.322 53.4483 21.3175C53.4458 21.313 53.4434 21.3084 53.441 21.3039C53.4385 21.2993 53.4361 21.2948 53.4337 21.2902C53.4312 21.2856 53.4288 21.2811 53.4263 21.2765C53.4239 21.2719 53.4214 21.2674 53.419 21.2628C53.4165 21.2582 53.4141 21.2536 53.4116 21.249C53.4092 21.2444 53.4067 21.2398 53.4043 21.2352C53.4018 21.2306 53.3993 21.226 53.3969 21.2214C53.3944 21.2168 53.3919 21.2122 53.3895 21.2076C53.387 21.203 53.3845 21.1983 53.382 21.1937C53.3796 21.1891 53.3771 21.1844 53.3746 21.1798C53.3721 21.1751 53.3696 21.1705 53.3671 21.1658C53.3647 21.1612 53.3622 21.1565 53.3597 21.1519C53.3572 21.1472 53.3547 21.1425 53.3522 21.1379C53.3497 21.1332 53.3472 21.1285 53.3447 21.1238C53.3422 21.1191 53.3397 21.1144 53.3372 21.1097C53.3346 21.105 53.3321 21.1003 53.3296 21.0956C53.3271 21.0909 53.3246 21.0862 53.322 21.0815C53.3195 21.0768 53.317 21.0721 53.3145 21.0673C53.3119 21.0626 53.3094 21.0579 53.3069 21.0531C53.3043 21.0484 53.3018 21.0437 53.2993 21.0389C53.2967 21.0342 53.2942 21.0294 53.2916 21.0246C53.2891 21.0199 53.2866 21.0151 53.284 21.0104C53.2815 21.0056 53.2789 21.0008 53.2763 20.996C53.2738 20.9913 53.2712 20.9865 53.2687 20.9817C53.2661 20.9769 53.2635 20.9721 53.261 20.9673C53.2584 20.9625 53.2558 20.9577 53.2533 20.9529C53.2507 20.9481 53.2481 20.9432 53.2455 20.9384C53.243 20.9336 53.2404 20.9288 53.2378 20.9239C53.2352 20.9191 53.2326 20.9143 53.23 20.9094C53.2274 20.9046 53.2248 20.8997 53.2222 20.8949C53.2197 20.89 53.2171 20.8852 53.2145 20.8803C53.2118 20.8754 53.2092 20.8706 53.2066 20.8657C53.204 20.8608 53.2014 20.8559 53.1988 20.8511C53.1962 20.8462 53.1936 20.8413 53.191 20.8364C53.1883 20.8315 53.1857 20.8266 53.1831 20.8217C53.1805 20.8168 53.1778 20.8119 53.1752 20.8069C53.1726 20.802 53.17 20.7971 53.1673 20.7922C53.1647 20.7872 53.1621 20.7823 53.1594 20.7774C53.1568 20.7724 53.1541 20.7675 53.1515 20.7625C53.1488 20.7576 53.1462 20.7526 53.1435 20.7477C53.1409 20.7427 53.1382 20.7378 53.1356 20.7328C53.1329 20.7278 53.1302 20.7229 53.1276 20.7179C53.1249 20.7129 53.1223 20.7079 53.1196 20.7029C53.1169 20.6979 53.1142 20.6929 53.1116 20.6879C53.1089 20.6829 53.1062 20.6779 53.1035 20.6729C53.1009 20.6679 53.0982 20.6629 53.0955 20.6579C53.0928 20.6528 53.0901 20.6478 53.0874 20.6428C53.0847 20.6377 53.082 20.6327 53.0793 20.6277C53.0766 20.6226 53.0739 20.6176 53.0712 20.6125C53.0685 20.6075 53.0658 20.6024 53.0631 20.5973C53.0604 20.5923 53.0577 20.5872 53.055 20.5821C53.0523 20.5771 53.0496 20.572 53.0468 20.5669C53.0441 20.5618 53.0414 20.5567 53.0387 20.5516C53.036 20.5465 53.0332 20.5414 53.0305 20.5363C53.0278 20.5312 53.025 20.5261 53.0223 20.521C53.0196 20.5159 53.0168 20.5107 53.0141 20.5056C53.0113 20.5005 53.0086 20.4954 53.0058 20.4902C53.0031 20.4851 53.0003 20.4799 52.9976 20.4748C52.9948 20.4696 52.9921 20.4645 52.9893 20.4593C52.9866 20.4542 52.9838 20.449 52.981 20.4438C52.9783 20.4387 52.9755 20.4335 52.9727 20.4283C52.97 20.4231 52.9672 20.4179 52.9644 20.4128C52.9616 20.4076 52.9589 20.4024 52.9561 20.3972C52.9533 20.392 52.9505 20.3868 52.9477 20.3815C52.9449 20.3763 52.9421 20.3711 52.9394 20.3659C52.9366 20.3607 52.9338 20.3554 52.931 20.3502C52.9282 20.345 52.9254 20.3397 52.9226 20.3345C52.9198 20.3293 52.917 20.324 52.9141 20.3188C52.9113 20.3135 52.9085 20.3082 52.9057 20.303C52.9029 20.2977 52.9001 20.2924 52.8973 20.2872C52.8944 20.2819 52.8916 20.2766 52.8888 20.2713C52.886 20.266 52.8831 20.2608 52.8803 20.2555C52.8775 20.2502 52.8746 20.2449 52.8718 20.2396C52.869 20.2342 52.8661 20.2289 52.8633 20.2236C52.8604 20.2183 52.8576 20.213 52.8547 20.2077C52.8519 20.2023 52.849 20.197 52.8462 20.1917C52.8433 20.1863 52.8405 20.181 52.8376 20.1756C52.8347 20.1703 52.8319 20.1649 52.829 20.1596C52.8261 20.1542 52.8233 20.1488 52.8204 20.1435C52.8175 20.1381 52.8147 20.1327 52.8118 20.1273C52.8089 20.122 52.806 20.1166 52.8031 20.1112L52.1859 20.4413ZM54.3999 24.5813H53.6999C53.6999 24.2713 53.8961 24.099 53.9571 24.0522C54.0275 23.9982 54.0866 23.9776 54.0914 23.9758C54.1088 23.9694 54.0929 23.9768 54.0148 23.9898C53.87 24.014 53.6279 24.0392 53.2733 24.0628L53.3199 24.7613L53.3664 25.4597C53.7318 25.4354 54.0298 25.4066 54.2449 25.3708C54.3468 25.3538 54.4659 25.3297 54.5733 25.2903C54.6232 25.272 54.716 25.2345 54.8089 25.1633C54.8924 25.0992 55.0999 24.9093 55.0999 24.5813H54.3999ZM53.3199 24.7613L53.2733 24.0628C52.5534 24.1108 52.0642 24.1333 51.7899 24.1333V24.8333V25.5333C52.1156 25.5333 52.6464 25.5078 53.3664 25.4597L53.3199 24.7613ZM51.7899 24.8333V24.1333C51.4259 24.1333 51.1894 24.1137 51.0547 24.0876C50.985 24.0741 50.9806 24.0658 51.0092 24.0806C51.0293 24.0911 51.1858 24.1753 51.2529 24.3934L50.5839 24.5993L49.9148 24.8052C50.0059 25.1013 50.2307 25.2538 50.3633 25.3227C50.5044 25.3961 50.6567 25.4365 50.788 25.462C51.0554 25.5138 51.3979 25.5333 51.7899 25.5333V24.8333ZM50.5839 24.5993L51.2499 24.3839L50.2779 21.3779L49.6119 21.5933L48.9458 21.8087L49.9178 24.8147L50.5839 24.5993ZM49.6119 21.5933L48.9525 21.3583L47.8365 24.4903L48.4959 24.7253L49.1553 24.9603L50.2713 21.8283L49.6119 21.5933ZM48.4959 24.7253L47.8228 24.533C47.8794 24.3348 48.0069 24.2265 48.0667 24.1841C48.1288 24.14 48.1795 24.1223 48.1904 24.1185C48.2134 24.1106 48.2043 24.1166 48.136 24.125C48.0084 24.1407 47.7921 24.1513 47.4699 24.1513V24.8513V25.5513C47.8076 25.5513 48.0924 25.5409 48.3067 25.5146C48.4094 25.502 48.5316 25.4817 48.6461 25.4423C48.7027 25.4228 48.7892 25.3881 48.8773 25.3256C48.9629 25.2648 49.1063 25.1368 49.1689 24.9176L48.4959 24.7253ZM47.4699 24.8513V24.1513C46.826 24.1513 46.2603 24.1278 45.7707 24.0823L45.7059 24.7793L45.641 25.4763C46.1835 25.5267 46.7938 25.5513 47.4699 25.5513V24.8513ZM45.7059 24.7793L45.7707 24.0823C45.5177 24.0588 45.377 24.0356 45.3172 24.0202C45.2699 24.0081 45.3371 24.0172 45.4259 24.0802C45.4715 24.1126 45.601 24.2137 45.6646 24.4087C45.7413 24.644 45.6737 24.8565 45.5863 24.9876L45.0039 24.5993L44.4214 24.211C44.322 24.3601 44.2512 24.5902 44.3336 24.8427C44.4028 25.0551 44.5467 25.173 44.6156 25.2219C44.7508 25.3179 44.8998 25.3585 44.9695 25.3764C45.1437 25.421 45.378 25.4518 45.641 25.4763L45.7059 24.7793ZM45.0039 24.5993L45.6321 24.908L47.6661 20.768L47.0379 20.4593L46.4096 20.1506L44.3756 24.2906L45.0039 24.5993ZM47.0379 20.4593L47.6695 20.1575C46.9615 18.6756 46.4307 17.563 46.077 16.8195C45.9 16.4477 45.7677 16.1687 45.6796 15.9823C45.6355 15.8888 45.6031 15.8197 45.5819 15.7741C45.5711 15.7509 45.5642 15.7358 45.5604 15.7274C45.5582 15.7225 45.5587 15.7234 45.5603 15.7272C45.5608 15.7283 45.5643 15.7365 45.5686 15.7479C45.5704 15.7528 45.5757 15.7668 45.5816 15.7852C45.5844 15.7941 45.5899 15.8121 45.5953 15.8353C45.5979 15.8461 45.6139 15.9109 45.6139 15.9953H44.9139H44.2139C44.2139 16.0797 44.2299 16.1447 44.2325 16.1557C44.238 16.1791 44.2435 16.1973 44.2464 16.2065C44.2524 16.2255 44.258 16.2402 44.2602 16.246C44.2652 16.2592 44.2697 16.2699 44.2716 16.2742C44.276 16.2846 44.2806 16.2949 44.2839 16.3023C44.2912 16.3184 44.3009 16.3395 44.3122 16.3639C44.3353 16.4135 44.3692 16.4858 44.4136 16.5798C44.5026 16.7684 44.6357 17.0489 44.8128 17.4211C45.167 18.1656 45.6982 19.279 46.4062 20.761L47.0379 20.4593ZM44.9139 15.9953H45.6139C45.6139 16.2963 45.4233 16.4598 45.3735 16.4979C45.3143 16.5433 45.2722 16.5555 45.2898 16.549C45.3174 16.5389 45.4008 16.5158 45.5689 16.4878L45.4539 15.7973L45.3388 15.1068C45.1469 15.1388 44.9603 15.1787 44.8079 15.2346C44.7356 15.2611 44.6259 15.307 44.5217 15.3869C44.427 15.4595 44.2139 15.6583 44.2139 15.9953H44.9139ZM45.4539 15.7973L45.5653 16.4884C45.8938 16.4354 46.2697 16.4073 46.6959 16.4073V15.7073V15.0073C46.21 15.0073 45.758 15.0392 45.3424 15.1062L45.4539 15.7973ZM46.6959 15.7073V16.4073C47.1401 16.4073 47.5574 16.4301 47.9484 16.4748L48.0279 15.7793L48.1074 15.0838C47.6583 15.0325 47.1877 15.0073 46.6959 15.0073V15.7073ZM48.0279 15.7793L47.9681 16.4767C48.1658 16.4937 48.2914 16.5128 48.361 16.5289C48.3968 16.5371 48.3955 16.5396 48.3734 16.5298C48.3614 16.5244 48.3326 16.5107 48.2963 16.4848C48.2612 16.4597 48.2015 16.4108 48.1474 16.3296L48.7299 15.9413L49.3123 15.553C49.1894 15.3687 49.0183 15.2845 48.9445 15.2516C48.852 15.2102 48.7569 15.1835 48.6758 15.1647C48.5114 15.1268 48.31 15.1009 48.0876 15.0819L48.0279 15.7793ZM48.7299 15.9413L48.0646 16.159L49.0186 19.075L49.6839 18.8573L50.3492 18.6396L49.3952 15.7236L48.7299 15.9413ZM49.6839 18.8573L50.3367 19.1099L51.5067 16.0859L50.8539 15.8333L50.201 15.5807L49.031 18.6047L49.6839 18.8573ZM58.9474 24.6713H58.2474C58.2474 24.3066 58.512 24.1348 58.5576 24.1071C58.5969 24.0832 58.6283 24.0705 58.6424 24.0652C58.6578 24.0594 58.6671 24.057 58.6672 24.057C58.6678 24.0568 58.6639 24.0578 58.6542 24.0597C58.6446 24.0615 58.6315 24.0638 58.6141 24.0663C58.579 24.0714 58.5324 24.0767 58.4728 24.0819C58.2281 24.1032 57.8388 24.1153 57.2914 24.1153V24.8153V25.5153C57.848 25.5153 58.2867 25.5034 58.594 25.4767C58.742 25.4638 58.893 25.4449 59.0206 25.4116C59.0788 25.3964 59.1818 25.3661 59.2855 25.303C59.3655 25.2543 59.6474 25.06 59.6474 24.6713H58.9474ZM57.2914 24.8153V24.1153C56.7494 24.1153 56.3618 24.1047 56.1166 24.0859C55.9887 24.076 55.9287 24.0659 55.9132 24.0623C55.8994 24.0592 55.9455 24.0673 56.0109 24.1025C56.0286 24.112 56.3534 24.2803 56.3534 24.6893H55.6534H54.9534C54.9534 25.1193 55.2953 25.3072 55.3471 25.3352C55.4466 25.3887 55.5439 25.4139 55.5984 25.4265C55.7193 25.4544 55.8641 25.4706 56.0092 25.4817C56.31 25.5049 56.7414 25.5153 57.2914 25.5153V24.8153ZM55.6534 24.6893H56.3534V15.8513H55.6534H54.9534V24.6893H55.6534ZM55.6534 15.8513H56.3534C56.3534 16.2603 56.0286 16.4285 56.0109 16.4381C55.9455 16.4733 55.8994 16.4814 55.9132 16.4782C55.9287 16.4747 55.9887 16.4646 56.1166 16.4547C56.3618 16.4359 56.7494 16.4253 57.2914 16.4253V15.7253V15.0253C56.7414 15.0253 56.31 15.0357 56.0092 15.0589C55.8641 15.07 55.7193 15.0862 55.5984 15.1141C55.5439 15.1267 55.4466 15.1519 55.3471 15.2054C55.2953 15.2334 54.9534 15.4213 54.9534 15.8513H55.6534ZM57.2914 15.7253V16.4253C57.84 16.4253 58.2354 16.4344 58.4878 16.4508C58.6187 16.4593 58.6859 16.4684 58.7095 16.473C58.7275 16.4766 58.6892 16.4714 58.6308 16.4448C58.603 16.4321 58.5284 16.3959 58.4514 16.3206C58.3686 16.2395 58.2474 16.0745 58.2474 15.8333H58.9474H59.6474C59.6474 15.5831 59.5219 15.4093 59.4304 15.3198C59.3449 15.2361 59.2573 15.1918 59.2122 15.1712C59.1194 15.1288 59.0293 15.109 58.9783 15.0991C58.8639 15.0767 58.7241 15.0632 58.579 15.0538C58.2794 15.0342 57.8468 15.0253 57.2914 15.0253V15.7253ZM58.9474 15.8333H58.2474V24.6713H58.9474H59.6474V15.8333H58.9474ZM58.9474 14.7713H58.2474C58.2474 14.3584 58.5778 14.1908 58.5925 14.183C58.6572 14.1485 58.7026 14.1407 58.6881 14.144C58.6713 14.1478 58.6098 14.158 58.4803 14.1678C58.2318 14.1867 57.8394 14.1973 57.2914 14.1973V14.8973V15.5973C57.8474 15.5973 58.283 15.5869 58.5865 15.5638C58.733 15.5526 58.8785 15.5365 58.9997 15.5089C59.0542 15.4964 59.1514 15.4715 59.2506 15.4187C59.2997 15.3925 59.6474 15.2052 59.6474 14.7713H58.9474ZM57.2914 14.8973V14.1973C56.7488 14.1973 56.3581 14.1882 56.109 14.1718C55.9797 14.1633 55.914 14.1543 55.8916 14.1499C55.8742 14.1464 55.9133 14.1518 55.9723 14.179C56.0006 14.1921 56.0753 14.2288 56.152 14.3047C56.2349 14.3866 56.3534 14.5509 56.3534 14.7893H55.6534H54.9534C54.9534 15.0367 55.0762 15.2097 55.1676 15.3001C55.2528 15.3844 55.3403 15.4292 55.3857 15.4502C55.4788 15.4932 55.5691 15.5132 55.6199 15.5232C55.734 15.5458 55.8731 15.5593 56.0168 15.5688C56.3137 15.5884 56.742 15.5973 57.2914 15.5973V14.8973ZM55.6534 14.7893H56.3534V12.1973H55.6534H54.9534V14.7893H55.6534ZM55.6534 12.1973H56.3534C56.3534 12.4827 56.1823 12.6511 56.1058 12.7099C56.0652 12.7412 56.0306 12.7593 56.0119 12.7681C55.9923 12.7775 55.9788 12.7821 55.9749 12.7834C55.9722 12.7843 56.016 12.7717 56.1394 12.7581C56.3729 12.7324 56.7512 12.7173 57.2914 12.7173V12.0173V11.3173C56.7396 11.3173 56.2989 11.3322 55.9864 11.3665C55.8368 11.3829 55.6759 11.4078 55.5366 11.4537C55.4707 11.4755 55.3598 11.5175 55.2522 11.6003C55.1416 11.6854 54.9534 11.8819 54.9534 12.1973H55.6534ZM57.2914 12.0173V12.7173C57.84 12.7173 58.2354 12.7263 58.4878 12.7428C58.6187 12.7513 58.6859 12.7604 58.7095 12.765C58.7275 12.7686 58.6892 12.7634 58.6308 12.7368C58.603 12.7241 58.5284 12.6879 58.4514 12.6126C58.3686 12.5315 58.2474 12.3665 58.2474 12.1253H58.9474H59.6474C59.6474 11.8751 59.5219 11.7013 59.4304 11.6118C59.3449 11.5281 59.2573 11.4838 59.2122 11.4632C59.1194 11.4208 59.0293 11.401 58.9783 11.3911C58.8639 11.3687 58.7241 11.3552 58.579 11.3458C58.2794 11.3262 57.8468 11.3173 57.2914 11.3173V12.0173ZM58.9474 12.1253H58.2474V14.7713H58.9474H59.6474V12.1253H58.9474ZM63.3833 24.8873L63.3553 25.5867L63.3693 25.5873H63.3833V24.8873ZM61.5833 18.2813H62.2833V17.5813H61.5833V18.2813ZM60.3593 16.2473L59.6674 16.1409L59.6654 16.1539L59.6639 16.1671L60.3593 16.2473ZM61.5833 15.7793V16.4793H62.2833V15.7793H61.5833ZM64.6253 15.2753H63.9253V15.2878L63.9257 15.3003L64.6253 15.2753ZM64.6433 15.7793L63.9437 15.8043L63.9678 16.4793H64.6433V15.7793ZM64.8953 18.2993V17.5993H64.1953V18.2993H64.8953ZM64.8953 24.6713H64.1953C64.1953 24.4616 64.2942 24.3094 64.3767 24.2269C64.4484 24.1552 64.5141 24.1271 64.525 24.1224C64.5477 24.1127 64.5259 24.125 64.4183 24.1403C64.2172 24.1691 63.8796 24.1873 63.3833 24.1873V24.8873V25.5873C63.8949 25.5873 64.3134 25.5695 64.6163 25.5263C64.7606 25.5056 64.9279 25.4729 65.0765 25.4092C65.1585 25.3741 65.5953 25.1775 65.5953 24.6713H64.8953ZM63.3833 24.8873L63.4113 24.1879C62.816 24.164 62.3914 24.1335 62.1235 24.0986C61.9839 24.0805 61.9194 24.0651 61.903 24.0601C61.89 24.056 61.9369 24.0679 62.001 24.1109C62.0447 24.1401 62.2833 24.3102 62.2833 24.6533H61.5833H60.8833C60.8833 25.0234 61.1406 25.2195 61.2218 25.2739C61.3234 25.3421 61.4266 25.3781 61.4885 25.3973C61.6222 25.4387 61.7826 25.4661 61.943 25.487C62.2751 25.5301 62.7505 25.5625 63.3553 25.5867L63.3833 24.8873ZM61.5833 24.6533H62.2833V18.2813H61.5833H60.8833V24.6533H61.5833ZM61.5833 18.2813V17.5813H60.6653V18.2813V18.9813H61.5833V18.2813ZM60.6653 18.2813V17.5813C60.7398 17.5813 60.8179 17.5983 60.8904 17.634C60.9605 17.6686 61.0078 17.7119 61.036 17.7443C61.0849 17.8006 61.0838 17.8317 61.0676 17.7759C61.0358 17.6664 61.0053 17.4362 61.0053 17.0393H60.3053H59.6053C59.6053 17.4704 59.6347 17.8612 59.7229 18.1657C59.7668 18.3169 59.8406 18.5033 59.9796 18.663C60.1364 18.8433 60.3725 18.9813 60.6653 18.9813V18.2813ZM60.3053 17.0393H61.0053C61.0053 16.8591 61.0205 16.6237 61.0547 16.3275L60.3593 16.2473L59.6639 16.1671C59.6261 16.4949 59.6053 16.7875 59.6053 17.0393H60.3053ZM60.3593 16.2473L61.0511 16.3537C61.0597 16.2982 61.0683 16.2618 61.0746 16.2405C61.0813 16.2177 61.082 16.2238 61.0691 16.2461C61.0566 16.2678 61.0188 16.3263 60.9406 16.3813C60.854 16.4422 60.7445 16.4793 60.6293 16.4793V15.7793V15.0793C60.2249 15.0793 59.975 15.3409 59.8564 15.5465C59.7471 15.736 59.6962 15.9538 59.6674 16.1409L60.3593 16.2473ZM60.6293 15.7793V16.4793H61.5833V15.7793V15.0793H60.6293V15.7793ZM61.5833 15.7793H62.2833V14.1953H61.5833H60.8833V15.7793H61.5833ZM61.5833 14.1953H62.2833C62.2833 14.4254 62.1465 14.5632 62.0846 14.6074C62.0407 14.6388 62.0342 14.6275 62.1234 14.6063C62.2934 14.5658 62.6048 14.5353 63.0953 14.5353V13.8353V13.1353C62.5777 13.1353 62.1332 13.1648 61.7991 13.2443C61.6364 13.2831 61.4408 13.3468 61.2709 13.4682C61.0831 13.6023 60.8833 13.8452 60.8833 14.1953H61.5833ZM63.0953 13.8353V14.5353C63.5949 14.5353 63.9244 14.5597 64.1133 14.5952C64.2142 14.6142 64.2211 14.627 64.1854 14.6068C64.1545 14.5894 63.9253 14.4445 63.9253 14.1233H64.6253H65.3253C65.3253 13.7061 65.0323 13.4772 64.8739 13.3878C64.7107 13.2956 64.5264 13.2484 64.3723 13.2194C64.0512 13.1589 63.6156 13.1353 63.0953 13.1353V13.8353ZM64.6253 14.1233H63.9253V15.2753H64.6253H65.3253V14.1233H64.6253ZM64.6253 15.2753L63.9257 15.3003L63.9437 15.8043L64.6433 15.7793L65.3428 15.7543L65.3248 15.2503L64.6253 15.2753ZM64.6433 15.7793V16.4793H66.1733V15.7793V15.0793H64.6433V15.7793ZM66.1733 15.7793V16.4793C66.072 16.4793 65.9736 16.4515 65.8901 16.4023C65.8116 16.3562 65.7648 16.3024 65.7414 16.2702C65.7015 16.2155 65.7062 16.1922 65.7225 16.2595C65.7533 16.386 65.7793 16.6331 65.7793 17.0393H66.4793H67.1793C67.1793 16.6055 67.1543 16.2226 67.083 15.9291C67.0483 15.7863 66.9893 15.6056 66.8729 15.4458C66.7429 15.2673 66.5082 15.0793 66.1733 15.0793V15.7793ZM66.4793 17.0393H65.7793C65.7793 17.4455 65.7533 17.6926 65.7225 17.8191C65.7062 17.8863 65.7015 17.8631 65.7414 17.8083C65.7648 17.7762 65.8116 17.7224 65.8901 17.6763C65.9736 17.6271 66.072 17.5993 66.1733 17.5993V18.2993V18.9993C66.5082 18.9993 66.7429 18.8113 66.8729 18.6327C66.9893 18.473 67.0483 18.2922 67.083 18.1495C67.1543 17.856 67.1793 17.4731 67.1793 17.0393H66.4793ZM66.1733 18.2993V17.5993H64.8953V18.2993V18.9993H66.1733V18.2993ZM64.8953 18.2993H64.1953V24.6713H64.8953H65.5953V18.2993H64.8953Z" fill="black" mask="url(#path-6-outside-1_2007_745)"/>
</g>
<defs>
<filter id="filter0_dd_2007_745" x="0.307373" y="0.000305176" width="101.759" height="43.9621" filterUnits="userSpaceOnUse" color-interpolation-filters="sRGB">
<feFlood flood-opacity="0" result="BackgroundImageFix"/>
<feColorMatrix in="SourceAlpha" type="matrix" values="0 0 0 0 0 0 0 0 0 0 0 0 0 0 0 0 0 0 127 0" result="hardAlpha"/>
<feOffset dx="0.2" dy="2.5"/>
<feComposite in2="hardAlpha" operator="out"/>
<feColorMatrix type="matrix" values="0 0 0 0 0 0 0 0 0 0 0 0 0 0 0 0 0 0 0.5 0"/>
<feBlend mode="normal" in2="BackgroundImageFix" result="effect1_dropShadow_2007_745"/>
<feColorMatrix in="SourceAlpha" type="matrix" values="0 0 0 0 0 0 0 0 0 0 0 0 0 0 0 0 0 0 127 0" result="hardAlpha"/>
<feOffset dy="0.6"/>
<feComposite in2="hardAlpha" operator="out"/>
<feColorMatrix type="matrix" values="0 0 0 0 0 0 0 0 0 0 0 0 0 0 0 0 0 0 1 0"/>
<feBlend mode="normal" in2="effect1_dropShadow_2007_745" result="effect2_dropShadow_2007_745"/>
<feBlend mode="normal" in="SourceGraphic" in2="effect2_dropShadow_2007_745" result="shape"/>
</filter>
<filter id="filter1_d_2007_745" x="35.7869" y="11.3173" width="31.3925" height="16.27" filterUnits="userSpaceOnUse" color-interpolation-filters="sRGB">
<feFlood flood-opacity="0" result="BackgroundImageFix"/>
<feColorMatrix in="SourceAlpha" type="matrix" values="0 0 0 0 0 0 0 0 0 0 0 0 0 0 0 0 0 0 127 0" result="hardAlpha"/>
<feOffset dy="2"/>
<feComposite in2="hardAlpha" operator="out"/>
<feColorMatrix type="matrix" values="0 0 0 0 0 0 0 0 0 0 0 0 0 0 0 0 0 0 1 0"/>
<feBlend mode="normal" in2="BackgroundImageFix" result="effect1_dropShadow_2007_745"/>
<feBlend mode="normal" in="SourceGraphic" in2="effect1_dropShadow_2007_745" result="shape"/>
</filter>
</defs>
</svg>
