<svg width="57" height="44" viewBox="0 0 57 44" fill="none" xmlns="http://www.w3.org/2000/svg">
<g filter="url(#filter0_d_2007_673)">
<path d="M3.18949 12.8108C3.2574 11.9805 3.95108 11.3412 4.78417 11.3412H54.2797C55.2148 11.3412 55.9506 12.1397 55.8744 13.0717L53.8264 38.11C53.7585 38.9403 53.0648 39.5795 52.2318 39.5795H2.73621C1.80112 39.5795 1.06531 38.7811 1.14154 37.8491L3.18949 12.8108Z" fill="#343B50"/>
<path d="M54.2793 10.8412C55.4298 10.8412 56.3507 11.7622 56.3789 12.8852L56.373 13.1127L54.3252 38.1508C54.236 39.2406 53.3248 40.0795 52.2314 40.0795H2.73633C1.50902 40.0795 0.543504 39.0313 0.643555 37.808L2.69141 12.77C2.7806 11.6802 3.6908 10.8412 4.78418 10.8412H54.2793Z" stroke="black"/>
</g>
<mask id="mask0_2007_673" style="mask-type:alpha" maskUnits="userSpaceOnUse" x="1" y="11" width="55" height="29">
<path d="M3.18949 12.8108C3.2574 11.9805 3.95108 11.3412 4.78417 11.3412H54.2797C55.2148 11.3412 55.9506 12.1397 55.8744 13.0717L53.8264 38.11C53.7585 38.9403 53.0648 39.5795 52.2318 39.5795H2.73621C1.80112 39.5795 1.06531 38.7811 1.14154 37.8491L3.18949 12.8108Z" fill="#343B50"/>
</mask>
<g mask="url(#mask0_2007_673)">
<rect x="-0.832764" y="5.23956" width="61.8369" height="8.21338" fill="#5E5576"/>
<rect x="-0.796875" y="36.7894" width="61.8369" height="8.21338" fill="#272C3D"/>
<path d="M57.7636 18.4055L50.9928 11.0637H57.7636V18.4055Z" fill="#766C92"/>
</g>
<g filter="url(#filter1_d_2007_673)">
<mask id="path-7-outside-1_2007_673" maskUnits="userSpaceOnUse" x="14.9503" y="26.3713" width="27" height="11" fill="black">
<rect fill="white" x="14.9503" y="26.3713" width="27" height="11"/>
<path d="M16.7103 32.9313C16.837 33.0313 17.0537 33.168 17.3603 33.3413C17.6737 33.5147 17.9703 33.6013 18.2503 33.6013C18.537 33.6013 18.6803 33.4913 18.6803 33.2713C18.6803 33.1713 18.6403 33.0847 18.5603 33.0113C18.4803 32.9313 18.3337 32.8413 18.1203 32.7413C17.907 32.6413 17.747 32.5647 17.6403 32.5113C17.5337 32.4513 17.3903 32.358 17.2103 32.2313C17.037 32.098 16.9037 31.9613 16.8103 31.8213C16.5437 31.4413 16.4103 30.958 16.4103 30.3713C16.4103 29.7847 16.627 29.2913 17.0603 28.8913C17.5003 28.4847 18.0737 28.2813 18.7803 28.2813C19.2603 28.2813 19.7037 28.3347 20.1103 28.4413C20.517 28.5413 20.727 28.6747 20.7403 28.8413C20.7403 28.8613 20.7403 28.8813 20.7403 28.9013C20.7403 29.1347 20.667 29.4313 20.5203 29.7913C20.3737 30.1447 20.2703 30.3413 20.2103 30.3813C19.7837 30.1613 19.4003 30.0513 19.0603 30.0513C18.727 30.0513 18.5603 30.1713 18.5603 30.4113C18.5603 30.558 18.6837 30.688 18.9303 30.8013C18.9837 30.828 19.0603 30.8647 19.1603 30.9113C19.2603 30.958 19.3737 31.0147 19.5003 31.0813C19.6337 31.1413 19.7737 31.2213 19.9203 31.3213C20.0737 31.4147 20.237 31.5413 20.4103 31.7013C20.7637 32.0347 20.9403 32.4747 20.9403 33.0213C20.9403 33.7347 20.7437 34.318 20.3503 34.7713C19.957 35.2247 19.3503 35.458 18.5303 35.4713C18.1303 35.4713 17.767 35.438 17.4403 35.3713C17.1203 35.3047 16.8403 35.1747 16.6003 34.9813C16.3603 34.788 16.2403 34.5547 16.2403 34.2813C16.2403 34.008 16.2903 33.738 16.3903 33.4713C16.4903 33.198 16.597 33.018 16.7103 32.9313ZM27.3028 35.2013C27.3028 35.3147 26.9662 35.3713 26.2928 35.3713C25.6195 35.3713 25.2828 35.3147 25.2828 35.2013V32.9013H23.8828V35.2013C23.8828 35.3147 23.5462 35.3713 22.8728 35.3713C22.1995 35.3713 21.8628 35.3147 21.8628 35.2013V28.5713C21.8628 28.4313 22.1995 28.3613 22.8728 28.3613C23.5462 28.3613 23.8828 28.4313 23.8828 28.5713V30.9213H25.2828V28.5913C25.2828 28.498 25.4495 28.4313 25.7828 28.3913C25.9562 28.378 26.1262 28.3713 26.2928 28.3713L26.8028 28.3913C27.1362 28.4313 27.3028 28.498 27.3028 28.5913V35.2013ZM31.3684 35.4713C30.435 35.4713 29.6717 35.1647 29.0784 34.5513C28.4917 33.938 28.1984 33.0447 28.1984 31.8713C28.1984 30.6913 28.495 29.798 29.0884 29.1913C29.6884 28.5847 30.4584 28.2813 31.3984 28.2813C32.345 28.2813 33.1084 28.5813 33.6884 29.1813C34.2684 29.7747 34.5584 30.678 34.5584 31.8913C34.5584 33.098 34.2617 33.998 33.6684 34.5913C33.075 35.178 32.3084 35.4713 31.3684 35.4713ZM31.3784 30.2013C31.0584 30.2013 30.7884 30.348 30.5684 30.6413C30.355 30.9347 30.2484 31.348 30.2484 31.8813C30.2484 32.408 30.3517 32.8147 30.5584 33.1013C30.765 33.3813 31.035 33.5213 31.3684 33.5213C31.7084 33.5213 31.9817 33.378 32.1884 33.0913C32.4017 32.8047 32.5084 32.3947 32.5084 31.8613C32.5084 31.328 32.3984 30.918 32.1784 30.6313C31.965 30.3447 31.6984 30.2013 31.3784 30.2013ZM36.3313 35.3913C35.7246 35.3913 35.4213 35.3247 35.4213 35.1913V28.7113C35.4213 28.4847 35.5246 28.3713 35.7313 28.3713H37.4913C38.4779 28.3713 39.1879 28.5747 39.6213 28.9813C40.0613 29.388 40.2813 29.978 40.2813 30.7513C40.2813 31.3913 40.0746 31.978 39.6613 32.5113C39.4546 32.778 39.1513 32.9913 38.7513 33.1513C38.3513 33.3113 37.8846 33.3913 37.3513 33.3913V35.1813C37.3513 35.2613 37.2246 35.318 36.9713 35.3513C36.7246 35.378 36.5113 35.3913 36.3313 35.3913ZM37.3513 30.1113V31.6913H37.4813C37.7146 31.6913 37.9113 31.618 38.0713 31.4713C38.2313 31.3247 38.3113 31.118 38.3113 30.8513C38.3113 30.5847 38.2546 30.3947 38.1413 30.2813C38.0346 30.168 37.8413 30.1113 37.5613 30.1113H37.3513Z"/>
</mask>
<path d="M16.7103 32.9313C16.837 33.0313 17.0537 33.168 17.3603 33.3413C17.6737 33.5147 17.9703 33.6013 18.2503 33.6013C18.537 33.6013 18.6803 33.4913 18.6803 33.2713C18.6803 33.1713 18.6403 33.0847 18.5603 33.0113C18.4803 32.9313 18.3337 32.8413 18.1203 32.7413C17.907 32.6413 17.747 32.5647 17.6403 32.5113C17.5337 32.4513 17.3903 32.358 17.2103 32.2313C17.037 32.098 16.9037 31.9613 16.8103 31.8213C16.5437 31.4413 16.4103 30.958 16.4103 30.3713C16.4103 29.7847 16.627 29.2913 17.0603 28.8913C17.5003 28.4847 18.0737 28.2813 18.7803 28.2813C19.2603 28.2813 19.7037 28.3347 20.1103 28.4413C20.517 28.5413 20.727 28.6747 20.7403 28.8413C20.7403 28.8613 20.7403 28.8813 20.7403 28.9013C20.7403 29.1347 20.667 29.4313 20.5203 29.7913C20.3737 30.1447 20.2703 30.3413 20.2103 30.3813C19.7837 30.1613 19.4003 30.0513 19.0603 30.0513C18.727 30.0513 18.5603 30.1713 18.5603 30.4113C18.5603 30.558 18.6837 30.688 18.9303 30.8013C18.9837 30.828 19.0603 30.8647 19.1603 30.9113C19.2603 30.958 19.3737 31.0147 19.5003 31.0813C19.6337 31.1413 19.7737 31.2213 19.9203 31.3213C20.0737 31.4147 20.237 31.5413 20.4103 31.7013C20.7637 32.0347 20.9403 32.4747 20.9403 33.0213C20.9403 33.7347 20.7437 34.318 20.3503 34.7713C19.957 35.2247 19.3503 35.458 18.5303 35.4713C18.1303 35.4713 17.767 35.438 17.4403 35.3713C17.1203 35.3047 16.8403 35.1747 16.6003 34.9813C16.3603 34.788 16.2403 34.5547 16.2403 34.2813C16.2403 34.008 16.2903 33.738 16.3903 33.4713C16.4903 33.198 16.597 33.018 16.7103 32.9313ZM27.3028 35.2013C27.3028 35.3147 26.9662 35.3713 26.2928 35.3713C25.6195 35.3713 25.2828 35.3147 25.2828 35.2013V32.9013H23.8828V35.2013C23.8828 35.3147 23.5462 35.3713 22.8728 35.3713C22.1995 35.3713 21.8628 35.3147 21.8628 35.2013V28.5713C21.8628 28.4313 22.1995 28.3613 22.8728 28.3613C23.5462 28.3613 23.8828 28.4313 23.8828 28.5713V30.9213H25.2828V28.5913C25.2828 28.498 25.4495 28.4313 25.7828 28.3913C25.9562 28.378 26.1262 28.3713 26.2928 28.3713L26.8028 28.3913C27.1362 28.4313 27.3028 28.498 27.3028 28.5913V35.2013ZM31.3684 35.4713C30.435 35.4713 29.6717 35.1647 29.0784 34.5513C28.4917 33.938 28.1984 33.0447 28.1984 31.8713C28.1984 30.6913 28.495 29.798 29.0884 29.1913C29.6884 28.5847 30.4584 28.2813 31.3984 28.2813C32.345 28.2813 33.1084 28.5813 33.6884 29.1813C34.2684 29.7747 34.5584 30.678 34.5584 31.8913C34.5584 33.098 34.2617 33.998 33.6684 34.5913C33.075 35.178 32.3084 35.4713 31.3684 35.4713ZM31.3784 30.2013C31.0584 30.2013 30.7884 30.348 30.5684 30.6413C30.355 30.9347 30.2484 31.348 30.2484 31.8813C30.2484 32.408 30.3517 32.8147 30.5584 33.1013C30.765 33.3813 31.035 33.5213 31.3684 33.5213C31.7084 33.5213 31.9817 33.378 32.1884 33.0913C32.4017 32.8047 32.5084 32.3947 32.5084 31.8613C32.5084 31.328 32.3984 30.918 32.1784 30.6313C31.965 30.3447 31.6984 30.2013 31.3784 30.2013ZM36.3313 35.3913C35.7246 35.3913 35.4213 35.3247 35.4213 35.1913V28.7113C35.4213 28.4847 35.5246 28.3713 35.7313 28.3713H37.4913C38.4779 28.3713 39.1879 28.5747 39.6213 28.9813C40.0613 29.388 40.2813 29.978 40.2813 30.7513C40.2813 31.3913 40.0746 31.978 39.6613 32.5113C39.4546 32.778 39.1513 32.9913 38.7513 33.1513C38.3513 33.3113 37.8846 33.3913 37.3513 33.3913V35.1813C37.3513 35.2613 37.2246 35.318 36.9713 35.3513C36.7246 35.378 36.5113 35.3913 36.3313 35.3913ZM37.3513 30.1113V31.6913H37.4813C37.7146 31.6913 37.9113 31.618 38.0713 31.4713C38.2313 31.3247 38.3113 31.118 38.3113 30.8513C38.3113 30.5847 38.2546 30.3947 38.1413 30.2813C38.0346 30.168 37.8413 30.1113 37.5613 30.1113H37.3513Z" fill="#FEFEFE"/>
<path d="M16.7103 32.9313L17.33 32.1465L16.7201 31.665L16.1029 32.137L16.7103 32.9313ZM17.3603 33.3413L16.8682 34.2119L16.8763 34.2164L17.3603 33.3413ZM18.5603 33.0113L17.8532 33.7184L17.8686 33.7338L17.8846 33.7485L18.5603 33.0113ZM18.1203 32.7413L17.6959 33.6468L17.6959 33.6468L18.1203 32.7413ZM17.6403 32.5113L17.1501 33.3829L17.1713 33.3949L17.1931 33.4058L17.6403 32.5113ZM17.2103 32.2313L16.6006 33.024L16.6174 33.0369L16.6348 33.0491L17.2103 32.2313ZM16.8103 31.8213L17.6424 31.2666L17.6357 31.2567L17.6289 31.2469L16.8103 31.8213ZM17.0603 28.8913L17.7386 29.6261L17.7391 29.6257L17.0603 28.8913ZM20.1103 28.4413L19.8566 29.4086L19.8641 29.4106L19.8715 29.4124L20.1103 28.4413ZM20.7403 28.8413H21.7403V28.8014L21.7371 28.7616L20.7403 28.8413ZM20.5203 29.7913L21.4439 30.1747L21.4464 30.1686L20.5203 29.7913ZM20.2103 30.3813L19.752 31.2701L20.2752 31.5399L20.765 31.2134L20.2103 30.3813ZM18.9303 30.8013L19.3775 29.9069L19.3628 29.8995L19.3478 29.8927L18.9303 30.8013ZM19.1603 30.9113L18.7374 31.8175L18.7374 31.8175L19.1603 30.9113ZM19.5003 31.0813L19.0346 31.9663L19.0618 31.9806L19.09 31.9933L19.5003 31.0813ZM19.9203 31.3213L19.357 32.1476L19.3783 32.1621L19.4004 32.1755L19.9203 31.3213ZM20.4103 31.7013L21.0966 30.9739L21.0886 30.9665L20.4103 31.7013ZM20.3503 34.7713L21.1056 35.4267L21.1056 35.4267L20.3503 34.7713ZM18.5303 35.4713V36.4713H18.5384L18.5466 36.4712L18.5303 35.4713ZM17.4403 35.3713L17.2364 36.3503L17.2404 36.3511L17.4403 35.3713ZM16.6003 34.9813L17.2276 34.2026L17.2276 34.2026L16.6003 34.9813ZM16.3903 33.4713L17.3267 33.8225L17.3294 33.8149L16.3903 33.4713ZM16.7103 32.9313L16.0907 33.7162C16.2821 33.8673 16.5565 34.0357 16.8683 34.2119L17.3603 33.3413L17.8524 32.4708C17.5509 32.3003 17.3919 32.1953 17.33 32.1465L16.7103 32.9313ZM17.3603 33.3413L16.8763 34.2164C17.2974 34.4493 17.7602 34.6013 18.2503 34.6013V33.6013V32.6013C18.1805 32.6013 18.0499 32.58 17.8444 32.4663L17.3603 33.3413ZM18.2503 33.6013V34.6013C18.4935 34.6013 18.8593 34.5595 19.1816 34.3121C19.5541 34.0263 19.6803 33.6168 19.6803 33.2713H18.6803H17.6803C17.6803 33.2191 17.6888 33.1265 17.7362 33.0173C17.7862 32.9022 17.8658 32.8009 17.964 32.7255C18.143 32.5881 18.2938 32.6013 18.2503 32.6013V33.6013ZM18.6803 33.2713H19.6803C19.6803 32.8654 19.503 32.5189 19.236 32.2742L18.5603 33.0113L17.8846 33.7485C17.8402 33.7078 17.785 33.6428 17.7424 33.5504C17.6988 33.4561 17.6803 33.359 17.6803 33.2713H18.6803ZM18.5603 33.0113L19.2674 32.3042C19.0569 32.0937 18.7746 31.9436 18.5448 31.8359L18.1203 32.7413L17.6959 33.6468C17.7801 33.6863 17.835 33.7163 17.8673 33.7362C17.8829 33.7457 17.8889 33.7503 17.8878 33.7495C17.8873 33.7491 17.8738 33.739 17.8532 33.7184L18.5603 33.0113ZM18.1203 32.7413L18.5448 31.8359C18.3332 31.7367 18.1825 31.6644 18.0875 31.6169L17.6403 32.5113L17.1931 33.4058C17.3115 33.4649 17.4807 33.5459 17.6959 33.6468L18.1203 32.7413ZM17.6403 32.5113L18.1306 31.6398C18.0676 31.6043 17.9563 31.5335 17.7858 31.4135L17.2103 32.2313L16.6348 33.0491C16.8244 33.1825 16.9997 33.2984 17.1501 33.3829L17.6403 32.5113ZM17.2103 32.2313L17.82 31.4387C17.7088 31.3531 17.66 31.2931 17.6424 31.2666L16.8103 31.8213L15.9783 32.376C16.1473 32.6296 16.3652 32.8429 16.6006 33.024L17.2103 32.2313ZM16.8103 31.8213L17.6289 31.2469C17.5081 31.0748 17.4103 30.8068 17.4103 30.3713H16.4103H15.4103C15.4103 31.1092 15.5792 31.8078 15.9918 32.3958L16.8103 31.8213ZM16.4103 30.3713H17.4103C17.4103 30.0654 17.5091 29.838 17.7386 29.6261L17.0603 28.8913L16.382 28.1565C15.7448 28.7447 15.4103 29.5039 15.4103 30.3713H16.4103ZM17.0603 28.8913L17.7391 29.6257C17.9618 29.4198 18.2772 29.2813 18.7803 29.2813V28.2813V27.2813C17.8701 27.2813 17.0388 27.5495 16.3816 28.157L17.0603 28.8913ZM18.7803 28.2813V29.2813C19.1865 29.2813 19.5435 29.3265 19.8566 29.4086L20.1103 28.4413L20.364 27.4741C19.8638 27.3429 19.3341 27.2813 18.7803 27.2813V28.2813ZM20.1103 28.4413L19.8715 29.4124C20.0312 29.4517 20.0648 29.4783 20.0368 29.4606C20.0183 29.4488 19.956 29.4066 19.8913 29.3197C19.8207 29.2249 19.7569 29.0884 19.7435 28.9211L20.7403 28.8413L21.7371 28.7616C21.695 28.2348 21.3446 27.9218 21.1088 27.7721C20.8708 27.621 20.5961 27.531 20.3491 27.4703L20.1103 28.4413ZM20.7403 28.8413H19.7403C19.7403 28.8414 19.7403 28.8414 19.7403 28.8415C19.7403 28.8415 19.7403 28.8415 19.7403 28.8416C19.7403 28.8416 19.7403 28.8416 19.7403 28.8417C19.7403 28.8417 19.7403 28.8418 19.7403 28.8418C19.7403 28.8418 19.7403 28.8419 19.7403 28.8419C19.7403 28.842 19.7403 28.842 19.7403 28.842C19.7403 28.8421 19.7403 28.8421 19.7403 28.8422C19.7403 28.8422 19.7403 28.8422 19.7403 28.8423C19.7403 28.8423 19.7403 28.8424 19.7403 28.8424C19.7403 28.8424 19.7403 28.8425 19.7403 28.8425C19.7403 28.8425 19.7403 28.8426 19.7403 28.8426C19.7403 28.8427 19.7403 28.8427 19.7403 28.8427C19.7403 28.8428 19.7403 28.8428 19.7403 28.8429C19.7403 28.8429 19.7403 28.8429 19.7403 28.843C19.7403 28.843 19.7403 28.8431 19.7403 28.8431C19.7403 28.8431 19.7403 28.8432 19.7403 28.8432C19.7403 28.8433 19.7403 28.8433 19.7403 28.8433C19.7403 28.8434 19.7403 28.8434 19.7403 28.8434C19.7403 28.8435 19.7403 28.8435 19.7403 28.8436C19.7403 28.8436 19.7403 28.8436 19.7403 28.8437C19.7403 28.8437 19.7403 28.8438 19.7403 28.8438C19.7403 28.8438 19.7403 28.8439 19.7403 28.8439C19.7403 28.844 19.7403 28.844 19.7403 28.844C19.7403 28.8441 19.7403 28.8441 19.7403 28.8441C19.7403 28.8442 19.7403 28.8442 19.7403 28.8443C19.7403 28.8443 19.7403 28.8443 19.7403 28.8444C19.7403 28.8444 19.7403 28.8445 19.7403 28.8445C19.7403 28.8445 19.7403 28.8446 19.7403 28.8446C19.7403 28.8447 19.7403 28.8447 19.7403 28.8447C19.7403 28.8448 19.7403 28.8448 19.7403 28.8449C19.7403 28.8449 19.7403 28.8449 19.7403 28.845C19.7403 28.845 19.7403 28.845 19.7403 28.8451C19.7403 28.8451 19.7403 28.8452 19.7403 28.8452C19.7403 28.8452 19.7403 28.8453 19.7403 28.8453C19.7403 28.8454 19.7403 28.8454 19.7403 28.8454C19.7403 28.8455 19.7403 28.8455 19.7403 28.8456C19.7403 28.8456 19.7403 28.8456 19.7403 28.8457C19.7403 28.8457 19.7403 28.8458 19.7403 28.8458C19.7403 28.8458 19.7403 28.8459 19.7403 28.8459C19.7403 28.8459 19.7403 28.846 19.7403 28.846C19.7403 28.8461 19.7403 28.8461 19.7403 28.8461C19.7403 28.8462 19.7403 28.8462 19.7403 28.8463C19.7403 28.8463 19.7403 28.8463 19.7403 28.8464C19.7403 28.8464 19.7403 28.8465 19.7403 28.8465C19.7403 28.8465 19.7403 28.8466 19.7403 28.8466C19.7403 28.8466 19.7403 28.8467 19.7403 28.8467C19.7403 28.8468 19.7403 28.8468 19.7403 28.8468C19.7403 28.8469 19.7403 28.8469 19.7403 28.847C19.7403 28.847 19.7403 28.847 19.7403 28.8471C19.7403 28.8471 19.7403 28.8472 19.7403 28.8472C19.7403 28.8472 19.7403 28.8473 19.7403 28.8473C19.7403 28.8474 19.7403 28.8474 19.7403 28.8474C19.7403 28.8475 19.7403 28.8475 19.7403 28.8475C19.7403 28.8476 19.7403 28.8476 19.7403 28.8477C19.7403 28.8477 19.7403 28.8477 19.7403 28.8478C19.7403 28.8478 19.7403 28.8479 19.7403 28.8479C19.7403 28.8479 19.7403 28.848 19.7403 28.848C19.7403 28.8481 19.7403 28.8481 19.7403 28.8481C19.7403 28.8482 19.7403 28.8482 19.7403 28.8483C19.7403 28.8483 19.7403 28.8483 19.7403 28.8484C19.7403 28.8484 19.7403 28.8484 19.7403 28.8485C19.7403 28.8485 19.7403 28.8486 19.7403 28.8486C19.7403 28.8486 19.7403 28.8487 19.7403 28.8487C19.7403 28.8488 19.7403 28.8488 19.7403 28.8488C19.7403 28.8489 19.7403 28.8489 19.7403 28.849C19.7403 28.849 19.7403 28.849 19.7403 28.8491C19.7403 28.8491 19.7403 28.8491 19.7403 28.8492C19.7403 28.8492 19.7403 28.8493 19.7403 28.8493C19.7403 28.8493 19.7403 28.8494 19.7403 28.8494C19.7403 28.8495 19.7403 28.8495 19.7403 28.8495C19.7403 28.8496 19.7403 28.8496 19.7403 28.8497C19.7403 28.8497 19.7403 28.8497 19.7403 28.8498C19.7403 28.8498 19.7403 28.8499 19.7403 28.8499C19.7403 28.8499 19.7403 28.85 19.7403 28.85C19.7403 28.85 19.7403 28.8501 19.7403 28.8501C19.7403 28.8502 19.7403 28.8502 19.7403 28.8502C19.7403 28.8503 19.7403 28.8503 19.7403 28.8504C19.7403 28.8504 19.7403 28.8504 19.7403 28.8505C19.7403 28.8505 19.7403 28.8506 19.7403 28.8506C19.7403 28.8506 19.7403 28.8507 19.7403 28.8507C19.7403 28.8508 19.7403 28.8508 19.7403 28.8508C19.7403 28.8509 19.7403 28.8509 19.7403 28.8509C19.7403 28.851 19.7403 28.851 19.7403 28.8511C19.7403 28.8511 19.7403 28.8511 19.7403 28.8512C19.7403 28.8512 19.7403 28.8513 19.7403 28.8513C19.7403 28.8513 19.7403 28.8514 19.7403 28.8514C19.7403 28.8515 19.7403 28.8515 19.7403 28.8515C19.7403 28.8516 19.7403 28.8516 19.7403 28.8516C19.7403 28.8517 19.7403 28.8517 19.7403 28.8518C19.7403 28.8518 19.7403 28.8518 19.7403 28.8519C19.7403 28.8519 19.7403 28.852 19.7403 28.852C19.7403 28.852 19.7403 28.8521 19.7403 28.8521C19.7403 28.8522 19.7403 28.8522 19.7403 28.8522C19.7403 28.8523 19.7403 28.8523 19.7403 28.8524C19.7403 28.8524 19.7403 28.8524 19.7403 28.8525C19.7403 28.8525 19.7403 28.8525 19.7403 28.8526C19.7403 28.8526 19.7403 28.8527 19.7403 28.8527C19.7403 28.8527 19.7403 28.8528 19.7403 28.8528C19.7403 28.8529 19.7403 28.8529 19.7403 28.8529C19.7403 28.853 19.7403 28.853 19.7403 28.8531C19.7403 28.8531 19.7403 28.8531 19.7403 28.8532C19.7403 28.8532 19.7403 28.8533 19.7403 28.8533C19.7403 28.8533 19.7403 28.8534 19.7403 28.8534C19.7403 28.8534 19.7403 28.8535 19.7403 28.8535C19.7403 28.8536 19.7403 28.8536 19.7403 28.8536C19.7403 28.8537 19.7403 28.8537 19.7403 28.8538C19.7403 28.8538 19.7403 28.8538 19.7403 28.8539C19.7403 28.8539 19.7403 28.854 19.7403 28.854C19.7403 28.854 19.7403 28.8541 19.7403 28.8541C19.7403 28.8541 19.7403 28.8542 19.7403 28.8542C19.7403 28.8543 19.7403 28.8543 19.7403 28.8543C19.7403 28.8544 19.7403 28.8544 19.7403 28.8545C19.7403 28.8545 19.7403 28.8545 19.7403 28.8546C19.7403 28.8546 19.7403 28.8547 19.7403 28.8547C19.7403 28.8547 19.7403 28.8548 19.7403 28.8548C19.7403 28.8549 19.7403 28.8549 19.7403 28.8549C19.7403 28.855 19.7403 28.855 19.7403 28.855C19.7403 28.8551 19.7403 28.8551 19.7403 28.8552C19.7403 28.8552 19.7403 28.8552 19.7403 28.8553C19.7403 28.8553 19.7403 28.8554 19.7403 28.8554C19.7403 28.8554 19.7403 28.8555 19.7403 28.8555C19.7403 28.8556 19.7403 28.8556 19.7403 28.8556C19.7403 28.8557 19.7403 28.8557 19.7403 28.8558C19.7403 28.8558 19.7403 28.8558 19.7403 28.8559C19.7403 28.8559 19.7403 28.8559 19.7403 28.856C19.7403 28.856 19.7403 28.8561 19.7403 28.8561C19.7403 28.8561 19.7403 28.8562 19.7403 28.8562C19.7403 28.8563 19.7403 28.8563 19.7403 28.8563C19.7403 28.8564 19.7403 28.8564 19.7403 28.8565C19.7403 28.8565 19.7403 28.8565 19.7403 28.8566C19.7403 28.8566 19.7403 28.8566 19.7403 28.8567C19.7403 28.8567 19.7403 28.8568 19.7403 28.8568C19.7403 28.8568 19.7403 28.8569 19.7403 28.8569C19.7403 28.857 19.7403 28.857 19.7403 28.857C19.7403 28.8571 19.7403 28.8571 19.7403 28.8572C19.7403 28.8572 19.7403 28.8572 19.7403 28.8573C19.7403 28.8573 19.7403 28.8574 19.7403 28.8574C19.7403 28.8574 19.7403 28.8575 19.7403 28.8575C19.7403 28.8575 19.7403 28.8576 19.7403 28.8576C19.7403 28.8577 19.7403 28.8577 19.7403 28.8577C19.7403 28.8578 19.7403 28.8578 19.7403 28.8579C19.7403 28.8579 19.7403 28.8579 19.7403 28.858C19.7403 28.858 19.7403 28.8581 19.7403 28.8581C19.7403 28.8581 19.7403 28.8582 19.7403 28.8582C19.7403 28.8583 19.7403 28.8583 19.7403 28.8583C19.7403 28.8584 19.7403 28.8584 19.7403 28.8584C19.7403 28.8585 19.7403 28.8585 19.7403 28.8586C19.7403 28.8586 19.7403 28.8586 19.7403 28.8587C19.7403 28.8587 19.7403 28.8588 19.7403 28.8588C19.7403 28.8588 19.7403 28.8589 19.7403 28.8589C19.7403 28.859 19.7403 28.859 19.7403 28.859C19.7403 28.8591 19.7403 28.8591 19.7403 28.8591C19.7403 28.8592 19.7403 28.8592 19.7403 28.8593C19.7403 28.8593 19.7403 28.8593 19.7403 28.8594C19.7403 28.8594 19.7403 28.8595 19.7403 28.8595C19.7403 28.8595 19.7403 28.8596 19.7403 28.8596C19.7403 28.8597 19.7403 28.8597 19.7403 28.8597C19.7403 28.8598 19.7403 28.8598 19.7403 28.8599C19.7403 28.8599 19.7403 28.8599 19.7403 28.86C19.7403 28.86 19.7403 28.86 19.7403 28.8601C19.7403 28.8601 19.7403 28.8602 19.7403 28.8602C19.7403 28.8602 19.7403 28.8603 19.7403 28.8603C19.7403 28.8604 19.7403 28.8604 19.7403 28.8604C19.7403 28.8605 19.7403 28.8605 19.7403 28.8606C19.7403 28.8606 19.7403 28.8606 19.7403 28.8607C19.7403 28.8607 19.7403 28.8608 19.7403 28.8608C19.7403 28.8608 19.7403 28.8609 19.7403 28.8609C19.7403 28.8609 19.7403 28.861 19.7403 28.861C19.7403 28.8611 19.7403 28.8611 19.7403 28.8611C19.7403 28.8612 19.7403 28.8612 19.7403 28.8613C19.7403 28.8613 19.7403 28.8613 19.7403 28.8614C19.7403 28.8614 19.7403 28.8615 19.7403 28.8615C19.7403 28.8615 19.7403 28.8616 19.7403 28.8616C19.7403 28.8616 19.7403 28.8617 19.7403 28.8617C19.7403 28.8618 19.7403 28.8618 19.7403 28.8618C19.7403 28.8619 19.7403 28.8619 19.7403 28.862C19.7403 28.862 19.7403 28.862 19.7403 28.8621C19.7403 28.8621 19.7403 28.8622 19.7403 28.8622C19.7403 28.8622 19.7403 28.8623 19.7403 28.8623C19.7403 28.8624 19.7403 28.8624 19.7403 28.8624C19.7403 28.8625 19.7403 28.8625 19.7403 28.8625C19.7403 28.8626 19.7403 28.8626 19.7403 28.8627C19.7403 28.8627 19.7403 28.8627 19.7403 28.8628C19.7403 28.8628 19.7403 28.8629 19.7403 28.8629C19.7403 28.8629 19.7403 28.863 19.7403 28.863C19.7403 28.8631 19.7403 28.8631 19.7403 28.8631C19.7403 28.8632 19.7403 28.8632 19.7403 28.8633C19.7403 28.8633 19.7403 28.8633 19.7403 28.8634C19.7403 28.8634 19.7403 28.8634 19.7403 28.8635C19.7403 28.8635 19.7403 28.8636 19.7403 28.8636C19.7403 28.8636 19.7403 28.8637 19.7403 28.8637C19.7403 28.8638 19.7403 28.8638 19.7403 28.8638C19.7403 28.8639 19.7403 28.8639 19.7403 28.864C19.7403 28.864 19.7403 28.864 19.7403 28.8641C19.7403 28.8641 19.7403 28.8641 19.7403 28.8642C19.7403 28.8642 19.7403 28.8643 19.7403 28.8643C19.7403 28.8643 19.7403 28.8644 19.7403 28.8644C19.7403 28.8645 19.7403 28.8645 19.7403 28.8645C19.7403 28.8646 19.7403 28.8646 19.7403 28.8647C19.7403 28.8647 19.7403 28.8647 19.7403 28.8648C19.7403 28.8648 19.7403 28.8649 19.7403 28.8649C19.7403 28.8649 19.7403 28.865 19.7403 28.865C19.7403 28.865 19.7403 28.8651 19.7403 28.8651C19.7403 28.8652 19.7403 28.8652 19.7403 28.8652C19.7403 28.8653 19.7403 28.8653 19.7403 28.8654C19.7403 28.8654 19.7403 28.8654 19.7403 28.8655C19.7403 28.8655 19.7403 28.8656 19.7403 28.8656C19.7403 28.8656 19.7403 28.8657 19.7403 28.8657C19.7403 28.8658 19.7403 28.8658 19.7403 28.8658C19.7403 28.8659 19.7403 28.8659 19.7403 28.8659C19.7403 28.866 19.7403 28.866 19.7403 28.8661C19.7403 28.8661 19.7403 28.8661 19.7403 28.8662C19.7403 28.8662 19.7403 28.8663 19.7403 28.8663C19.7403 28.8663 19.7403 28.8664 19.7403 28.8664C19.7403 28.8665 19.7403 28.8665 19.7403 28.8665C19.7403 28.8666 19.7403 28.8666 19.7403 28.8667C19.7403 28.8667 19.7403 28.8667 19.7403 28.8668C19.7403 28.8668 19.7403 28.8668 19.7403 28.8669C19.7403 28.8669 19.7403 28.867 19.7403 28.867C19.7403 28.867 19.7403 28.8671 19.7403 28.8671C19.7403 28.8672 19.7403 28.8672 19.7403 28.8672C19.7403 28.8673 19.7403 28.8673 19.7403 28.8674C19.7403 28.8674 19.7403 28.8674 19.7403 28.8675C19.7403 28.8675 19.7403 28.8675 19.7403 28.8676C19.7403 28.8676 19.7403 28.8677 19.7403 28.8677C19.7403 28.8677 19.7403 28.8678 19.7403 28.8678C19.7403 28.8679 19.7403 28.8679 19.7403 28.8679C19.7403 28.868 19.7403 28.868 19.7403 28.8681C19.7403 28.8681 19.7403 28.8681 19.7403 28.8682C19.7403 28.8682 19.7403 28.8683 19.7403 28.8683C19.7403 28.8683 19.7403 28.8684 19.7403 28.8684C19.7403 28.8684 19.7403 28.8685 19.7403 28.8685C19.7403 28.8686 19.7403 28.8686 19.7403 28.8686C19.7403 28.8687 19.7403 28.8687 19.7403 28.8688C19.7403 28.8688 19.7403 28.8688 19.7403 28.8689C19.7403 28.8689 19.7403 28.869 19.7403 28.869C19.7403 28.869 19.7403 28.8691 19.7403 28.8691C19.7403 28.8692 19.7403 28.8692 19.7403 28.8692C19.7403 28.8693 19.7403 28.8693 19.7403 28.8693C19.7403 28.8694 19.7403 28.8694 19.7403 28.8695C19.7403 28.8695 19.7403 28.8695 19.7403 28.8696C19.7403 28.8696 19.7403 28.8697 19.7403 28.8697C19.7403 28.8697 19.7403 28.8698 19.7403 28.8698C19.7403 28.8699 19.7403 28.8699 19.7403 28.8699C19.7403 28.87 19.7403 28.87 19.7403 28.87C19.7403 28.8701 19.7403 28.8701 19.7403 28.8702C19.7403 28.8702 19.7403 28.8702 19.7403 28.8703C19.7403 28.8703 19.7403 28.8704 19.7403 28.8704C19.7403 28.8704 19.7403 28.8705 19.7403 28.8705C19.7403 28.8706 19.7403 28.8706 19.7403 28.8706C19.7403 28.8707 19.7403 28.8707 19.7403 28.8708C19.7403 28.8708 19.7403 28.8708 19.7403 28.8709C19.7403 28.8709 19.7403 28.8709 19.7403 28.871C19.7403 28.871 19.7403 28.8711 19.7403 28.8711C19.7403 28.8711 19.7403 28.8712 19.7403 28.8712C19.7403 28.8713 19.7403 28.8713 19.7403 28.8713C19.7403 28.8714 19.7403 28.8714 19.7403 28.8715C19.7403 28.8715 19.7403 28.8715 19.7403 28.8716C19.7403 28.8716 19.7403 28.8717 19.7403 28.8717C19.7403 28.8717 19.7403 28.8718 19.7403 28.8718C19.7403 28.8718 19.7403 28.8719 19.7403 28.8719C19.7403 28.872 19.7403 28.872 19.7403 28.872C19.7403 28.8721 19.7403 28.8721 19.7403 28.8722C19.7403 28.8722 19.7403 28.8722 19.7403 28.8723C19.7403 28.8723 19.7403 28.8724 19.7403 28.8724C19.7403 28.8724 19.7403 28.8725 19.7403 28.8725C19.7403 28.8725 19.7403 28.8726 19.7403 28.8726C19.7403 28.8727 19.7403 28.8727 19.7403 28.8727C19.7403 28.8728 19.7403 28.8728 19.7403 28.8729C19.7403 28.8729 19.7403 28.8729 19.7403 28.873C19.7403 28.873 19.7403 28.8731 19.7403 28.8731C19.7403 28.8731 19.7403 28.8732 19.7403 28.8732C19.7403 28.8733 19.7403 28.8733 19.7403 28.8733C19.7403 28.8734 19.7403 28.8734 19.7403 28.8734C19.7403 28.8735 19.7403 28.8735 19.7403 28.8736C19.7403 28.8736 19.7403 28.8736 19.7403 28.8737C19.7403 28.8737 19.7403 28.8738 19.7403 28.8738C19.7403 28.8738 19.7403 28.8739 19.7403 28.8739C19.7403 28.874 19.7403 28.874 19.7403 28.874C19.7403 28.8741 19.7403 28.8741 19.7403 28.8742C19.7403 28.8742 19.7403 28.8742 19.7403 28.8743C19.7403 28.8743 19.7403 28.8743 19.7403 28.8744C19.7403 28.8744 19.7403 28.8745 19.7403 28.8745C19.7403 28.8745 19.7403 28.8746 19.7403 28.8746C19.7403 28.8747 19.7403 28.8747 19.7403 28.8747C19.7403 28.8748 19.7403 28.8748 19.7403 28.8749C19.7403 28.8749 19.7403 28.8749 19.7403 28.875C19.7403 28.875 19.7403 28.875 19.7403 28.8751C19.7403 28.8751 19.7403 28.8752 19.7403 28.8752C19.7403 28.8752 19.7403 28.8753 19.7403 28.8753C19.7403 28.8754 19.7403 28.8754 19.7403 28.8754C19.7403 28.8755 19.7403 28.8755 19.7403 28.8756C19.7403 28.8756 19.7403 28.8756 19.7403 28.8757C19.7403 28.8757 19.7403 28.8758 19.7403 28.8758C19.7403 28.8758 19.7403 28.8759 19.7403 28.8759C19.7403 28.8759 19.7403 28.876 19.7403 28.876C19.7403 28.8761 19.7403 28.8761 19.7403 28.8761C19.7403 28.8762 19.7403 28.8762 19.7403 28.8763C19.7403 28.8763 19.7403 28.8763 19.7403 28.8764C19.7403 28.8764 19.7403 28.8765 19.7403 28.8765C19.7403 28.8765 19.7403 28.8766 19.7403 28.8766C19.7403 28.8767 19.7403 28.8767 19.7403 28.8767C19.7403 28.8768 19.7403 28.8768 19.7403 28.8768C19.7403 28.8769 19.7403 28.8769 19.7403 28.877C19.7403 28.877 19.7403 28.877 19.7403 28.8771C19.7403 28.8771 19.7403 28.8772 19.7403 28.8772C19.7403 28.8772 19.7403 28.8773 19.7403 28.8773C19.7403 28.8774 19.7403 28.8774 19.7403 28.8774C19.7403 28.8775 19.7403 28.8775 19.7403 28.8775C19.7403 28.8776 19.7403 28.8776 19.7403 28.8777C19.7403 28.8777 19.7403 28.8777 19.7403 28.8778C19.7403 28.8778 19.7403 28.8779 19.7403 28.8779C19.7403 28.8779 19.7403 28.878 19.7403 28.878C19.7403 28.8781 19.7403 28.8781 19.7403 28.8781C19.7403 28.8782 19.7403 28.8782 19.7403 28.8783C19.7403 28.8783 19.7403 28.8783 19.7403 28.8784C19.7403 28.8784 19.7403 28.8784 19.7403 28.8785C19.7403 28.8785 19.7403 28.8786 19.7403 28.8786C19.7403 28.8786 19.7403 28.8787 19.7403 28.8787C19.7403 28.8788 19.7403 28.8788 19.7403 28.8788C19.7403 28.8789 19.7403 28.8789 19.7403 28.879C19.7403 28.879 19.7403 28.879 19.7403 28.8791C19.7403 28.8791 19.7403 28.8792 19.7403 28.8792C19.7403 28.8792 19.7403 28.8793 19.7403 28.8793C19.7403 28.8793 19.7403 28.8794 19.7403 28.8794C19.7403 28.8795 19.7403 28.8795 19.7403 28.8795C19.7403 28.8796 19.7403 28.8796 19.7403 28.8797C19.7403 28.8797 19.7403 28.8797 19.7403 28.8798C19.7403 28.8798 19.7403 28.8799 19.7403 28.8799C19.7403 28.8799 19.7403 28.88 19.7403 28.88C19.7403 28.88 19.7403 28.8801 19.7403 28.8801C19.7403 28.8802 19.7403 28.8802 19.7403 28.8802C19.7403 28.8803 19.7403 28.8803 19.7403 28.8804C19.7403 28.8804 19.7403 28.8804 19.7403 28.8805C19.7403 28.8805 19.7403 28.8806 19.7403 28.8806C19.7403 28.8806 19.7403 28.8807 19.7403 28.8807C19.7403 28.8808 19.7403 28.8808 19.7403 28.8808C19.7403 28.8809 19.7403 28.8809 19.7403 28.8809C19.7403 28.881 19.7403 28.881 19.7403 28.8811C19.7403 28.8811 19.7403 28.8811 19.7403 28.8812C19.7403 28.8812 19.7403 28.8813 19.7403 28.8813C19.7403 28.8813 19.7403 28.8814 19.7403 28.8814C19.7403 28.8815 19.7403 28.8815 19.7403 28.8815C19.7403 28.8816 19.7403 28.8816 19.7403 28.8817C19.7403 28.8817 19.7403 28.8817 19.7403 28.8818C19.7403 28.8818 19.7403 28.8818 19.7403 28.8819C19.7403 28.8819 19.7403 28.882 19.7403 28.882C19.7403 28.882 19.7403 28.8821 19.7403 28.8821C19.7403 28.8822 19.7403 28.8822 19.7403 28.8822C19.7403 28.8823 19.7403 28.8823 19.7403 28.8824C19.7403 28.8824 19.7403 28.8824 19.7403 28.8825C19.7403 28.8825 19.7403 28.8825 19.7403 28.8826C19.7403 28.8826 19.7403 28.8827 19.7403 28.8827C19.7403 28.8827 19.7403 28.8828 19.7403 28.8828C19.7403 28.8829 19.7403 28.8829 19.7403 28.8829C19.7403 28.883 19.7403 28.883 19.7403 28.8831C19.7403 28.8831 19.7403 28.8831 19.7403 28.8832C19.7403 28.8832 19.7403 28.8833 19.7403 28.8833C19.7403 28.8833 19.7403 28.8834 19.7403 28.8834C19.7403 28.8834 19.7403 28.8835 19.7403 28.8835C19.7403 28.8836 19.7403 28.8836 19.7403 28.8836C19.7403 28.8837 19.7403 28.8837 19.7403 28.8838C19.7403 28.8838 19.7403 28.8838 19.7403 28.8839C19.7403 28.8839 19.7403 28.884 19.7403 28.884C19.7403 28.884 19.7403 28.8841 19.7403 28.8841C19.7403 28.8842 19.7403 28.8842 19.7403 28.8842C19.7403 28.8843 19.7403 28.8843 19.7403 28.8843C19.7403 28.8844 19.7403 28.8844 19.7403 28.8845C19.7403 28.8845 19.7403 28.8845 19.7403 28.8846C19.7403 28.8846 19.7403 28.8847 19.7403 28.8847C19.7403 28.8847 19.7403 28.8848 19.7403 28.8848C19.7403 28.8849 19.7403 28.8849 19.7403 28.8849C19.7403 28.885 19.7403 28.885 19.7403 28.885C19.7403 28.8851 19.7403 28.8851 19.7403 28.8852C19.7403 28.8852 19.7403 28.8852 19.7403 28.8853C19.7403 28.8853 19.7403 28.8854 19.7403 28.8854C19.7403 28.8854 19.7403 28.8855 19.7403 28.8855C19.7403 28.8856 19.7403 28.8856 19.7403 28.8856C19.7403 28.8857 19.7403 28.8857 19.7403 28.8858C19.7403 28.8858 19.7403 28.8858 19.7403 28.8859C19.7403 28.8859 19.7403 28.8859 19.7403 28.886C19.7403 28.886 19.7403 28.8861 19.7403 28.8861C19.7403 28.8861 19.7403 28.8862 19.7403 28.8862C19.7403 28.8863 19.7403 28.8863 19.7403 28.8863C19.7403 28.8864 19.7403 28.8864 19.7403 28.8865C19.7403 28.8865 19.7403 28.8865 19.7403 28.8866C19.7403 28.8866 19.7403 28.8867 19.7403 28.8867C19.7403 28.8867 19.7403 28.8868 19.7403 28.8868C19.7403 28.8868 19.7403 28.8869 19.7403 28.8869C19.7403 28.887 19.7403 28.887 19.7403 28.887C19.7403 28.8871 19.7403 28.8871 19.7403 28.8872C19.7403 28.8872 19.7403 28.8872 19.7403 28.8873C19.7403 28.8873 19.7403 28.8874 19.7403 28.8874C19.7403 28.8874 19.7403 28.8875 19.7403 28.8875C19.7403 28.8875 19.7403 28.8876 19.7403 28.8876C19.7403 28.8877 19.7403 28.8877 19.7403 28.8877C19.7403 28.8878 19.7403 28.8878 19.7403 28.8879C19.7403 28.8879 19.7403 28.8879 19.7403 28.888C19.7403 28.888 19.7403 28.8881 19.7403 28.8881C19.7403 28.8881 19.7403 28.8882 19.7403 28.8882C19.7403 28.8883 19.7403 28.8883 19.7403 28.8883C19.7403 28.8884 19.7403 28.8884 19.7403 28.8884C19.7403 28.8885 19.7403 28.8885 19.7403 28.8886C19.7403 28.8886 19.7403 28.8886 19.7403 28.8887C19.7403 28.8887 19.7403 28.8888 19.7403 28.8888C19.7403 28.8888 19.7403 28.8889 19.7403 28.8889C19.7403 28.889 19.7403 28.889 19.7403 28.889C19.7403 28.8891 19.7403 28.8891 19.7403 28.8892C19.7403 28.8892 19.7403 28.8892 19.7403 28.8893C19.7403 28.8893 19.7403 28.8893 19.7403 28.8894C19.7403 28.8894 19.7403 28.8895 19.7403 28.8895C19.7403 28.8895 19.7403 28.8896 19.7403 28.8896C19.7403 28.8897 19.7403 28.8897 19.7403 28.8897C19.7403 28.8898 19.7403 28.8898 19.7403 28.8899C19.7403 28.8899 19.7403 28.8899 19.7403 28.89C19.7403 28.89 19.7403 28.89 19.7403 28.8901C19.7403 28.8901 19.7403 28.8902 19.7403 28.8902C19.7403 28.8902 19.7403 28.8903 19.7403 28.8903C19.7403 28.8904 19.7403 28.8904 19.7403 28.8904C19.7403 28.8905 19.7403 28.8905 19.7403 28.8906C19.7403 28.8906 19.7403 28.8906 19.7403 28.8907C19.7403 28.8907 19.7403 28.8908 19.7403 28.8908C19.7403 28.8908 19.7403 28.8909 19.7403 28.8909C19.7403 28.8909 19.7403 28.891 19.7403 28.891C19.7403 28.8911 19.7403 28.8911 19.7403 28.8911C19.7403 28.8912 19.7403 28.8912 19.7403 28.8913C19.7403 28.8913 19.7403 28.8913 19.7403 28.8914C19.7403 28.8914 19.7403 28.8915 19.7403 28.8915C19.7403 28.8915 19.7403 28.8916 19.7403 28.8916C19.7403 28.8917 19.7403 28.8917 19.7403 28.8917C19.7403 28.8918 19.7403 28.8918 19.7403 28.8918C19.7403 28.8919 19.7403 28.8919 19.7403 28.892C19.7403 28.892 19.7403 28.892 19.7403 28.8921C19.7403 28.8921 19.7403 28.8922 19.7403 28.8922C19.7403 28.8922 19.7403 28.8923 19.7403 28.8923C19.7403 28.8924 19.7403 28.8924 19.7403 28.8924C19.7403 28.8925 19.7403 28.8925 19.7403 28.8925C19.7403 28.8926 19.7403 28.8926 19.7403 28.8927C19.7403 28.8927 19.7403 28.8927 19.7403 28.8928C19.7403 28.8928 19.7403 28.8929 19.7403 28.8929C19.7403 28.8929 19.7403 28.893 19.7403 28.893C19.7403 28.8931 19.7403 28.8931 19.7403 28.8931C19.7403 28.8932 19.7403 28.8932 19.7403 28.8933C19.7403 28.8933 19.7403 28.8933 19.7403 28.8934C19.7403 28.8934 19.7403 28.8934 19.7403 28.8935C19.7403 28.8935 19.7403 28.8936 19.7403 28.8936C19.7403 28.8936 19.7403 28.8937 19.7403 28.8937C19.7403 28.8938 19.7403 28.8938 19.7403 28.8938C19.7403 28.8939 19.7403 28.8939 19.7403 28.894C19.7403 28.894 19.7403 28.894 19.7403 28.8941C19.7403 28.8941 19.7403 28.8942 19.7403 28.8942C19.7403 28.8942 19.7403 28.8943 19.7403 28.8943C19.7403 28.8943 19.7403 28.8944 19.7403 28.8944C19.7403 28.8945 19.7403 28.8945 19.7403 28.8945C19.7403 28.8946 19.7403 28.8946 19.7403 28.8947C19.7403 28.8947 19.7403 28.8947 19.7403 28.8948C19.7403 28.8948 19.7403 28.8949 19.7403 28.8949C19.7403 28.8949 19.7403 28.895 19.7403 28.895C19.7403 28.895 19.7403 28.8951 19.7403 28.8951C19.7403 28.8952 19.7403 28.8952 19.7403 28.8952C19.7403 28.8953 19.7403 28.8953 19.7403 28.8954C19.7403 28.8954 19.7403 28.8954 19.7403 28.8955C19.7403 28.8955 19.7403 28.8956 19.7403 28.8956C19.7403 28.8956 19.7403 28.8957 19.7403 28.8957C19.7403 28.8958 19.7403 28.8958 19.7403 28.8958C19.7403 28.8959 19.7403 28.8959 19.7403 28.8959C19.7403 28.896 19.7403 28.896 19.7403 28.8961C19.7403 28.8961 19.7403 28.8961 19.7403 28.8962C19.7403 28.8962 19.7403 28.8963 19.7403 28.8963C19.7403 28.8963 19.7403 28.8964 19.7403 28.8964C19.7403 28.8965 19.7403 28.8965 19.7403 28.8965C19.7403 28.8966 19.7403 28.8966 19.7403 28.8967C19.7403 28.8967 19.7403 28.8967 19.7403 28.8968C19.7403 28.8968 19.7403 28.8968 19.7403 28.8969C19.7403 28.8969 19.7403 28.897 19.7403 28.897C19.7403 28.897 19.7403 28.8971 19.7403 28.8971C19.7403 28.8972 19.7403 28.8972 19.7403 28.8972C19.7403 28.8973 19.7403 28.8973 19.7403 28.8974C19.7403 28.8974 19.7403 28.8974 19.7403 28.8975C19.7403 28.8975 19.7403 28.8975 19.7403 28.8976C19.7403 28.8976 19.7403 28.8977 19.7403 28.8977C19.7403 28.8977 19.7403 28.8978 19.7403 28.8978C19.7403 28.8979 19.7403 28.8979 19.7403 28.8979C19.7403 28.898 19.7403 28.898 19.7403 28.8981C19.7403 28.8981 19.7403 28.8981 19.7403 28.8982C19.7403 28.8982 19.7403 28.8983 19.7403 28.8983C19.7403 28.8983 19.7403 28.8984 19.7403 28.8984C19.7403 28.8984 19.7403 28.8985 19.7403 28.8985C19.7403 28.8986 19.7403 28.8986 19.7403 28.8986C19.7403 28.8987 19.7403 28.8987 19.7403 28.8988C19.7403 28.8988 19.7403 28.8988 19.7403 28.8989C19.7403 28.8989 19.7403 28.899 19.7403 28.899C19.7403 28.899 19.7403 28.8991 19.7403 28.8991C19.7403 28.8992 19.7403 28.8992 19.7403 28.8992C19.7403 28.8993 19.7403 28.8993 19.7403 28.8993C19.7403 28.8994 19.7403 28.8994 19.7403 28.8995C19.7403 28.8995 19.7403 28.8995 19.7403 28.8996C19.7403 28.8996 19.7403 28.8997 19.7403 28.8997C19.7403 28.8997 19.7403 28.8998 19.7403 28.8998C19.7403 28.8999 19.7403 28.8999 19.7403 28.8999C19.7403 28.9 19.7403 28.9 19.7403 28.9C19.7403 28.9001 19.7403 28.9001 19.7403 28.9002C19.7403 28.9002 19.7403 28.9002 19.7403 28.9003C19.7403 28.9003 19.7403 28.9004 19.7403 28.9004C19.7403 28.9004 19.7403 28.9005 19.7403 28.9005C19.7403 28.9006 19.7403 28.9006 19.7403 28.9006C19.7403 28.9007 19.7403 28.9007 19.7403 28.9008C19.7403 28.9008 19.7403 28.9008 19.7403 28.9009C19.7403 28.9009 19.7403 28.9009 19.7403 28.901C19.7403 28.901 19.7403 28.9011 19.7403 28.9011C19.7403 28.9011 19.7403 28.9012 19.7403 28.9012C19.7403 28.9013 19.7403 28.9013 19.7403 28.9013H20.7403H21.7403C21.7403 28.9013 21.7403 28.9013 21.7403 28.9012C21.7403 28.9012 21.7403 28.9011 21.7403 28.9011C21.7403 28.9011 21.7403 28.901 21.7403 28.901C21.7403 28.9009 21.7403 28.9009 21.7403 28.9009C21.7403 28.9008 21.7403 28.9008 21.7403 28.9008C21.7403 28.9007 21.7403 28.9007 21.7403 28.9006C21.7403 28.9006 21.7403 28.9006 21.7403 28.9005C21.7403 28.9005 21.7403 28.9004 21.7403 28.9004C21.7403 28.9004 21.7403 28.9003 21.7403 28.9003C21.7403 28.9002 21.7403 28.9002 21.7403 28.9002C21.7403 28.9001 21.7403 28.9001 21.7403 28.9C21.7403 28.9 21.7403 28.9 21.7403 28.8999C21.7403 28.8999 21.7403 28.8999 21.7403 28.8998C21.7403 28.8998 21.7403 28.8997 21.7403 28.8997C21.7403 28.8997 21.7403 28.8996 21.7403 28.8996C21.7403 28.8995 21.7403 28.8995 21.7403 28.8995C21.7403 28.8994 21.7403 28.8994 21.7403 28.8993C21.7403 28.8993 21.7403 28.8993 21.7403 28.8992C21.7403 28.8992 21.7403 28.8992 21.7403 28.8991C21.7403 28.8991 21.7403 28.899 21.7403 28.899C21.7403 28.899 21.7403 28.8989 21.7403 28.8989C21.7403 28.8988 21.7403 28.8988 21.7403 28.8988C21.7403 28.8987 21.7403 28.8987 21.7403 28.8986C21.7403 28.8986 21.7403 28.8986 21.7403 28.8985C21.7403 28.8985 21.7403 28.8984 21.7403 28.8984C21.7403 28.8984 21.7403 28.8983 21.7403 28.8983C21.7403 28.8983 21.7403 28.8982 21.7403 28.8982C21.7403 28.8981 21.7403 28.8981 21.7403 28.8981C21.7403 28.898 21.7403 28.898 21.7403 28.8979C21.7403 28.8979 21.7403 28.8979 21.7403 28.8978C21.7403 28.8978 21.7403 28.8977 21.7403 28.8977C21.7403 28.8977 21.7403 28.8976 21.7403 28.8976C21.7403 28.8975 21.7403 28.8975 21.7403 28.8975C21.7403 28.8974 21.7403 28.8974 21.7403 28.8974C21.7403 28.8973 21.7403 28.8973 21.7403 28.8972C21.7403 28.8972 21.7403 28.8972 21.7403 28.8971C21.7403 28.8971 21.7403 28.897 21.7403 28.897C21.7403 28.897 21.7403 28.8969 21.7403 28.8969C21.7403 28.8968 21.7403 28.8968 21.7403 28.8968C21.7403 28.8967 21.7403 28.8967 21.7403 28.8967C21.7403 28.8966 21.7403 28.8966 21.7403 28.8965C21.7403 28.8965 21.7403 28.8965 21.7403 28.8964C21.7403 28.8964 21.7403 28.8963 21.7403 28.8963C21.7403 28.8963 21.7403 28.8962 21.7403 28.8962C21.7403 28.8961 21.7403 28.8961 21.7403 28.8961C21.7403 28.896 21.7403 28.896 21.7403 28.8959C21.7403 28.8959 21.7403 28.8959 21.7403 28.8958C21.7403 28.8958 21.7403 28.8958 21.7403 28.8957C21.7403 28.8957 21.7403 28.8956 21.7403 28.8956C21.7403 28.8956 21.7403 28.8955 21.7403 28.8955C21.7403 28.8954 21.7403 28.8954 21.7403 28.8954C21.7403 28.8953 21.7403 28.8953 21.7403 28.8952C21.7403 28.8952 21.7403 28.8952 21.7403 28.8951C21.7403 28.8951 21.7403 28.895 21.7403 28.895C21.7403 28.895 21.7403 28.8949 21.7403 28.8949C21.7403 28.8949 21.7403 28.8948 21.7403 28.8948C21.7403 28.8947 21.7403 28.8947 21.7403 28.8947C21.7403 28.8946 21.7403 28.8946 21.7403 28.8945C21.7403 28.8945 21.7403 28.8945 21.7403 28.8944C21.7403 28.8944 21.7403 28.8943 21.7403 28.8943C21.7403 28.8943 21.7403 28.8942 21.7403 28.8942C21.7403 28.8942 21.7403 28.8941 21.7403 28.8941C21.7403 28.894 21.7403 28.894 21.7403 28.894C21.7403 28.8939 21.7403 28.8939 21.7403 28.8938C21.7403 28.8938 21.7403 28.8938 21.7403 28.8937C21.7403 28.8937 21.7403 28.8936 21.7403 28.8936C21.7403 28.8936 21.7403 28.8935 21.7403 28.8935C21.7403 28.8934 21.7403 28.8934 21.7403 28.8934C21.7403 28.8933 21.7403 28.8933 21.7403 28.8933C21.7403 28.8932 21.7403 28.8932 21.7403 28.8931C21.7403 28.8931 21.7403 28.8931 21.7403 28.893C21.7403 28.893 21.7403 28.8929 21.7403 28.8929C21.7403 28.8929 21.7403 28.8928 21.7403 28.8928C21.7403 28.8927 21.7403 28.8927 21.7403 28.8927C21.7403 28.8926 21.7403 28.8926 21.7403 28.8925C21.7403 28.8925 21.7403 28.8925 21.7403 28.8924C21.7403 28.8924 21.7403 28.8924 21.7403 28.8923C21.7403 28.8923 21.7403 28.8922 21.7403 28.8922C21.7403 28.8922 21.7403 28.8921 21.7403 28.8921C21.7403 28.892 21.7403 28.892 21.7403 28.892C21.7403 28.8919 21.7403 28.8919 21.7403 28.8918C21.7403 28.8918 21.7403 28.8918 21.7403 28.8917C21.7403 28.8917 21.7403 28.8917 21.7403 28.8916C21.7403 28.8916 21.7403 28.8915 21.7403 28.8915C21.7403 28.8915 21.7403 28.8914 21.7403 28.8914C21.7403 28.8913 21.7403 28.8913 21.7403 28.8913C21.7403 28.8912 21.7403 28.8912 21.7403 28.8911C21.7403 28.8911 21.7403 28.8911 21.7403 28.891C21.7403 28.891 21.7403 28.8909 21.7403 28.8909C21.7403 28.8909 21.7403 28.8908 21.7403 28.8908C21.7403 28.8908 21.7403 28.8907 21.7403 28.8907C21.7403 28.8906 21.7403 28.8906 21.7403 28.8906C21.7403 28.8905 21.7403 28.8905 21.7403 28.8904C21.7403 28.8904 21.7403 28.8904 21.7403 28.8903C21.7403 28.8903 21.7403 28.8902 21.7403 28.8902C21.7403 28.8902 21.7403 28.8901 21.7403 28.8901C21.7403 28.89 21.7403 28.89 21.7403 28.89C21.7403 28.8899 21.7403 28.8899 21.7403 28.8899C21.7403 28.8898 21.7403 28.8898 21.7403 28.8897C21.7403 28.8897 21.7403 28.8897 21.7403 28.8896C21.7403 28.8896 21.7403 28.8895 21.7403 28.8895C21.7403 28.8895 21.7403 28.8894 21.7403 28.8894C21.7403 28.8893 21.7403 28.8893 21.7403 28.8893C21.7403 28.8892 21.7403 28.8892 21.7403 28.8892C21.7403 28.8891 21.7403 28.8891 21.7403 28.889C21.7403 28.889 21.7403 28.889 21.7403 28.8889C21.7403 28.8889 21.7403 28.8888 21.7403 28.8888C21.7403 28.8888 21.7403 28.8887 21.7403 28.8887C21.7403 28.8886 21.7403 28.8886 21.7403 28.8886C21.7403 28.8885 21.7403 28.8885 21.7403 28.8884C21.7403 28.8884 21.7403 28.8884 21.7403 28.8883C21.7403 28.8883 21.7403 28.8883 21.7403 28.8882C21.7403 28.8882 21.7403 28.8881 21.7403 28.8881C21.7403 28.8881 21.7403 28.888 21.7403 28.888C21.7403 28.8879 21.7403 28.8879 21.7403 28.8879C21.7403 28.8878 21.7403 28.8878 21.7403 28.8877C21.7403 28.8877 21.7403 28.8877 21.7403 28.8876C21.7403 28.8876 21.7403 28.8875 21.7403 28.8875C21.7403 28.8875 21.7403 28.8874 21.7403 28.8874C21.7403 28.8874 21.7403 28.8873 21.7403 28.8873C21.7403 28.8872 21.7403 28.8872 21.7403 28.8872C21.7403 28.8871 21.7403 28.8871 21.7403 28.887C21.7403 28.887 21.7403 28.887 21.7403 28.8869C21.7403 28.8869 21.7403 28.8868 21.7403 28.8868C21.7403 28.8868 21.7403 28.8867 21.7403 28.8867C21.7403 28.8867 21.7403 28.8866 21.7403 28.8866C21.7403 28.8865 21.7403 28.8865 21.7403 28.8865C21.7403 28.8864 21.7403 28.8864 21.7403 28.8863C21.7403 28.8863 21.7403 28.8863 21.7403 28.8862C21.7403 28.8862 21.7403 28.8861 21.7403 28.8861C21.7403 28.8861 21.7403 28.886 21.7403 28.886C21.7403 28.8859 21.7403 28.8859 21.7403 28.8859C21.7403 28.8858 21.7403 28.8858 21.7403 28.8858C21.7403 28.8857 21.7403 28.8857 21.7403 28.8856C21.7403 28.8856 21.7403 28.8856 21.7403 28.8855C21.7403 28.8855 21.7403 28.8854 21.7403 28.8854C21.7403 28.8854 21.7403 28.8853 21.7403 28.8853C21.7403 28.8852 21.7403 28.8852 21.7403 28.8852C21.7403 28.8851 21.7403 28.8851 21.7403 28.885C21.7403 28.885 21.7403 28.885 21.7403 28.8849C21.7403 28.8849 21.7403 28.8849 21.7403 28.8848C21.7403 28.8848 21.7403 28.8847 21.7403 28.8847C21.7403 28.8847 21.7403 28.8846 21.7403 28.8846C21.7403 28.8845 21.7403 28.8845 21.7403 28.8845C21.7403 28.8844 21.7403 28.8844 21.7403 28.8843C21.7403 28.8843 21.7403 28.8843 21.7403 28.8842C21.7403 28.8842 21.7403 28.8842 21.7403 28.8841C21.7403 28.8841 21.7403 28.884 21.7403 28.884C21.7403 28.884 21.7403 28.8839 21.7403 28.8839C21.7403 28.8838 21.7403 28.8838 21.7403 28.8838C21.7403 28.8837 21.7403 28.8837 21.7403 28.8836C21.7403 28.8836 21.7403 28.8836 21.7403 28.8835C21.7403 28.8835 21.7403 28.8834 21.7403 28.8834C21.7403 28.8834 21.7403 28.8833 21.7403 28.8833C21.7403 28.8833 21.7403 28.8832 21.7403 28.8832C21.7403 28.8831 21.7403 28.8831 21.7403 28.8831C21.7403 28.883 21.7403 28.883 21.7403 28.8829C21.7403 28.8829 21.7403 28.8829 21.7403 28.8828C21.7403 28.8828 21.7403 28.8827 21.7403 28.8827C21.7403 28.8827 21.7403 28.8826 21.7403 28.8826C21.7403 28.8825 21.7403 28.8825 21.7403 28.8825C21.7403 28.8824 21.7403 28.8824 21.7403 28.8824C21.7403 28.8823 21.7403 28.8823 21.7403 28.8822C21.7403 28.8822 21.7403 28.8822 21.7403 28.8821C21.7403 28.8821 21.7403 28.882 21.7403 28.882C21.7403 28.882 21.7403 28.8819 21.7403 28.8819C21.7403 28.8818 21.7403 28.8818 21.7403 28.8818C21.7403 28.8817 21.7403 28.8817 21.7403 28.8817C21.7403 28.8816 21.7403 28.8816 21.7403 28.8815C21.7403 28.8815 21.7403 28.8815 21.7403 28.8814C21.7403 28.8814 21.7403 28.8813 21.7403 28.8813C21.7403 28.8813 21.7403 28.8812 21.7403 28.8812C21.7403 28.8811 21.7403 28.8811 21.7403 28.8811C21.7403 28.881 21.7403 28.881 21.7403 28.8809C21.7403 28.8809 21.7403 28.8809 21.7403 28.8808C21.7403 28.8808 21.7403 28.8808 21.7403 28.8807C21.7403 28.8807 21.7403 28.8806 21.7403 28.8806C21.7403 28.8806 21.7403 28.8805 21.7403 28.8805C21.7403 28.8804 21.7403 28.8804 21.7403 28.8804C21.7403 28.8803 21.7403 28.8803 21.7403 28.8802C21.7403 28.8802 21.7403 28.8802 21.7403 28.8801C21.7403 28.8801 21.7403 28.88 21.7403 28.88C21.7403 28.88 21.7403 28.8799 21.7403 28.8799C21.7403 28.8799 21.7403 28.8798 21.7403 28.8798C21.7403 28.8797 21.7403 28.8797 21.7403 28.8797C21.7403 28.8796 21.7403 28.8796 21.7403 28.8795C21.7403 28.8795 21.7403 28.8795 21.7403 28.8794C21.7403 28.8794 21.7403 28.8793 21.7403 28.8793C21.7403 28.8793 21.7403 28.8792 21.7403 28.8792C21.7403 28.8792 21.7403 28.8791 21.7403 28.8791C21.7403 28.879 21.7403 28.879 21.7403 28.879C21.7403 28.8789 21.7403 28.8789 21.7403 28.8788C21.7403 28.8788 21.7403 28.8788 21.7403 28.8787C21.7403 28.8787 21.7403 28.8786 21.7403 28.8786C21.7403 28.8786 21.7403 28.8785 21.7403 28.8785C21.7403 28.8784 21.7403 28.8784 21.7403 28.8784C21.7403 28.8783 21.7403 28.8783 21.7403 28.8783C21.7403 28.8782 21.7403 28.8782 21.7403 28.8781C21.7403 28.8781 21.7403 28.8781 21.7403 28.878C21.7403 28.878 21.7403 28.8779 21.7403 28.8779C21.7403 28.8779 21.7403 28.8778 21.7403 28.8778C21.7403 28.8777 21.7403 28.8777 21.7403 28.8777C21.7403 28.8776 21.7403 28.8776 21.7403 28.8775C21.7403 28.8775 21.7403 28.8775 21.7403 28.8774C21.7403 28.8774 21.7403 28.8774 21.7403 28.8773C21.7403 28.8773 21.7403 28.8772 21.7403 28.8772C21.7403 28.8772 21.7403 28.8771 21.7403 28.8771C21.7403 28.877 21.7403 28.877 21.7403 28.877C21.7403 28.8769 21.7403 28.8769 21.7403 28.8768C21.7403 28.8768 21.7403 28.8768 21.7403 28.8767C21.7403 28.8767 21.7403 28.8767 21.7403 28.8766C21.7403 28.8766 21.7403 28.8765 21.7403 28.8765C21.7403 28.8765 21.7403 28.8764 21.7403 28.8764C21.7403 28.8763 21.7403 28.8763 21.7403 28.8763C21.7403 28.8762 21.7403 28.8762 21.7403 28.8761C21.7403 28.8761 21.7403 28.8761 21.7403 28.876C21.7403 28.876 21.7403 28.8759 21.7403 28.8759C21.7403 28.8759 21.7403 28.8758 21.7403 28.8758C21.7403 28.8758 21.7403 28.8757 21.7403 28.8757C21.7403 28.8756 21.7403 28.8756 21.7403 28.8756C21.7403 28.8755 21.7403 28.8755 21.7403 28.8754C21.7403 28.8754 21.7403 28.8754 21.7403 28.8753C21.7403 28.8753 21.7403 28.8752 21.7403 28.8752C21.7403 28.8752 21.7403 28.8751 21.7403 28.8751C21.7403 28.875 21.7403 28.875 21.7403 28.875C21.7403 28.8749 21.7403 28.8749 21.7403 28.8749C21.7403 28.8748 21.7403 28.8748 21.7403 28.8747C21.7403 28.8747 21.7403 28.8747 21.7403 28.8746C21.7403 28.8746 21.7403 28.8745 21.7403 28.8745C21.7403 28.8745 21.7403 28.8744 21.7403 28.8744C21.7403 28.8743 21.7403 28.8743 21.7403 28.8743C21.7403 28.8742 21.7403 28.8742 21.7403 28.8742C21.7403 28.8741 21.7403 28.8741 21.7403 28.874C21.7403 28.874 21.7403 28.874 21.7403 28.8739C21.7403 28.8739 21.7403 28.8738 21.7403 28.8738C21.7403 28.8738 21.7403 28.8737 21.7403 28.8737C21.7403 28.8736 21.7403 28.8736 21.7403 28.8736C21.7403 28.8735 21.7403 28.8735 21.7403 28.8734C21.7403 28.8734 21.7403 28.8734 21.7403 28.8733C21.7403 28.8733 21.7403 28.8733 21.7403 28.8732C21.7403 28.8732 21.7403 28.8731 21.7403 28.8731C21.7403 28.8731 21.7403 28.873 21.7403 28.873C21.7403 28.8729 21.7403 28.8729 21.7403 28.8729C21.7403 28.8728 21.7403 28.8728 21.7403 28.8727C21.7403 28.8727 21.7403 28.8727 21.7403 28.8726C21.7403 28.8726 21.7403 28.8725 21.7403 28.8725C21.7403 28.8725 21.7403 28.8724 21.7403 28.8724C21.7403 28.8724 21.7403 28.8723 21.7403 28.8723C21.7403 28.8722 21.7403 28.8722 21.7403 28.8722C21.7403 28.8721 21.7403 28.8721 21.7403 28.872C21.7403 28.872 21.7403 28.872 21.7403 28.8719C21.7403 28.8719 21.7403 28.8718 21.7403 28.8718C21.7403 28.8718 21.7403 28.8717 21.7403 28.8717C21.7403 28.8717 21.7403 28.8716 21.7403 28.8716C21.7403 28.8715 21.7403 28.8715 21.7403 28.8715C21.7403 28.8714 21.7403 28.8714 21.7403 28.8713C21.7403 28.8713 21.7403 28.8713 21.7403 28.8712C21.7403 28.8712 21.7403 28.8711 21.7403 28.8711C21.7403 28.8711 21.7403 28.871 21.7403 28.871C21.7403 28.8709 21.7403 28.8709 21.7403 28.8709C21.7403 28.8708 21.7403 28.8708 21.7403 28.8708C21.7403 28.8707 21.7403 28.8707 21.7403 28.8706C21.7403 28.8706 21.7403 28.8706 21.7403 28.8705C21.7403 28.8705 21.7403 28.8704 21.7403 28.8704C21.7403 28.8704 21.7403 28.8703 21.7403 28.8703C21.7403 28.8702 21.7403 28.8702 21.7403 28.8702C21.7403 28.8701 21.7403 28.8701 21.7403 28.87C21.7403 28.87 21.7403 28.87 21.7403 28.8699C21.7403 28.8699 21.7403 28.8699 21.7403 28.8698C21.7403 28.8698 21.7403 28.8697 21.7403 28.8697C21.7403 28.8697 21.7403 28.8696 21.7403 28.8696C21.7403 28.8695 21.7403 28.8695 21.7403 28.8695C21.7403 28.8694 21.7403 28.8694 21.7403 28.8693C21.7403 28.8693 21.7403 28.8693 21.7403 28.8692C21.7403 28.8692 21.7403 28.8692 21.7403 28.8691C21.7403 28.8691 21.7403 28.869 21.7403 28.869C21.7403 28.869 21.7403 28.8689 21.7403 28.8689C21.7403 28.8688 21.7403 28.8688 21.7403 28.8688C21.7403 28.8687 21.7403 28.8687 21.7403 28.8686C21.7403 28.8686 21.7403 28.8686 21.7403 28.8685C21.7403 28.8685 21.7403 28.8684 21.7403 28.8684C21.7403 28.8684 21.7403 28.8683 21.7403 28.8683C21.7403 28.8683 21.7403 28.8682 21.7403 28.8682C21.7403 28.8681 21.7403 28.8681 21.7403 28.8681C21.7403 28.868 21.7403 28.868 21.7403 28.8679C21.7403 28.8679 21.7403 28.8679 21.7403 28.8678C21.7403 28.8678 21.7403 28.8677 21.7403 28.8677C21.7403 28.8677 21.7403 28.8676 21.7403 28.8676C21.7403 28.8675 21.7403 28.8675 21.7403 28.8675C21.7403 28.8674 21.7403 28.8674 21.7403 28.8674C21.7403 28.8673 21.7403 28.8673 21.7403 28.8672C21.7403 28.8672 21.7403 28.8672 21.7403 28.8671C21.7403 28.8671 21.7403 28.867 21.7403 28.867C21.7403 28.867 21.7403 28.8669 21.7403 28.8669C21.7403 28.8668 21.7403 28.8668 21.7403 28.8668C21.7403 28.8667 21.7403 28.8667 21.7403 28.8667C21.7403 28.8666 21.7403 28.8666 21.7403 28.8665C21.7403 28.8665 21.7403 28.8665 21.7403 28.8664C21.7403 28.8664 21.7403 28.8663 21.7403 28.8663C21.7403 28.8663 21.7403 28.8662 21.7403 28.8662C21.7403 28.8661 21.7403 28.8661 21.7403 28.8661C21.7403 28.866 21.7403 28.866 21.7403 28.8659C21.7403 28.8659 21.7403 28.8659 21.7403 28.8658C21.7403 28.8658 21.7403 28.8658 21.7403 28.8657C21.7403 28.8657 21.7403 28.8656 21.7403 28.8656C21.7403 28.8656 21.7403 28.8655 21.7403 28.8655C21.7403 28.8654 21.7403 28.8654 21.7403 28.8654C21.7403 28.8653 21.7403 28.8653 21.7403 28.8652C21.7403 28.8652 21.7403 28.8652 21.7403 28.8651C21.7403 28.8651 21.7403 28.865 21.7403 28.865C21.7403 28.865 21.7403 28.8649 21.7403 28.8649C21.7403 28.8649 21.7403 28.8648 21.7403 28.8648C21.7403 28.8647 21.7403 28.8647 21.7403 28.8647C21.7403 28.8646 21.7403 28.8646 21.7403 28.8645C21.7403 28.8645 21.7403 28.8645 21.7403 28.8644C21.7403 28.8644 21.7403 28.8643 21.7403 28.8643C21.7403 28.8643 21.7403 28.8642 21.7403 28.8642C21.7403 28.8641 21.7403 28.8641 21.7403 28.8641C21.7403 28.864 21.7403 28.864 21.7403 28.864C21.7403 28.8639 21.7403 28.8639 21.7403 28.8638C21.7403 28.8638 21.7403 28.8638 21.7403 28.8637C21.7403 28.8637 21.7403 28.8636 21.7403 28.8636C21.7403 28.8636 21.7403 28.8635 21.7403 28.8635C21.7403 28.8634 21.7403 28.8634 21.7403 28.8634C21.7403 28.8633 21.7403 28.8633 21.7403 28.8633C21.7403 28.8632 21.7403 28.8632 21.7403 28.8631C21.7403 28.8631 21.7403 28.8631 21.7403 28.863C21.7403 28.863 21.7403 28.8629 21.7403 28.8629C21.7403 28.8629 21.7403 28.8628 21.7403 28.8628C21.7403 28.8627 21.7403 28.8627 21.7403 28.8627C21.7403 28.8626 21.7403 28.8626 21.7403 28.8625C21.7403 28.8625 21.7403 28.8625 21.7403 28.8624C21.7403 28.8624 21.7403 28.8624 21.7403 28.8623C21.7403 28.8623 21.7403 28.8622 21.7403 28.8622C21.7403 28.8622 21.7403 28.8621 21.7403 28.8621C21.7403 28.862 21.7403 28.862 21.7403 28.862C21.7403 28.8619 21.7403 28.8619 21.7403 28.8618C21.7403 28.8618 21.7403 28.8618 21.7403 28.8617C21.7403 28.8617 21.7403 28.8616 21.7403 28.8616C21.7403 28.8616 21.7403 28.8615 21.7403 28.8615C21.7403 28.8615 21.7403 28.8614 21.7403 28.8614C21.7403 28.8613 21.7403 28.8613 21.7403 28.8613C21.7403 28.8612 21.7403 28.8612 21.7403 28.8611C21.7403 28.8611 21.7403 28.8611 21.7403 28.861C21.7403 28.861 21.7403 28.8609 21.7403 28.8609C21.7403 28.8609 21.7403 28.8608 21.7403 28.8608C21.7403 28.8608 21.7403 28.8607 21.7403 28.8607C21.7403 28.8606 21.7403 28.8606 21.7403 28.8606C21.7403 28.8605 21.7403 28.8605 21.7403 28.8604C21.7403 28.8604 21.7403 28.8604 21.7403 28.8603C21.7403 28.8603 21.7403 28.8602 21.7403 28.8602C21.7403 28.8602 21.7403 28.8601 21.7403 28.8601C21.7403 28.86 21.7403 28.86 21.7403 28.86C21.7403 28.8599 21.7403 28.8599 21.7403 28.8599C21.7403 28.8598 21.7403 28.8598 21.7403 28.8597C21.7403 28.8597 21.7403 28.8597 21.7403 28.8596C21.7403 28.8596 21.7403 28.8595 21.7403 28.8595C21.7403 28.8595 21.7403 28.8594 21.7403 28.8594C21.7403 28.8593 21.7403 28.8593 21.7403 28.8593C21.7403 28.8592 21.7403 28.8592 21.7403 28.8591C21.7403 28.8591 21.7403 28.8591 21.7403 28.859C21.7403 28.859 21.7403 28.859 21.7403 28.8589C21.7403 28.8589 21.7403 28.8588 21.7403 28.8588C21.7403 28.8588 21.7403 28.8587 21.7403 28.8587C21.7403 28.8586 21.7403 28.8586 21.7403 28.8586C21.7403 28.8585 21.7403 28.8585 21.7403 28.8584C21.7403 28.8584 21.7403 28.8584 21.7403 28.8583C21.7403 28.8583 21.7403 28.8583 21.7403 28.8582C21.7403 28.8582 21.7403 28.8581 21.7403 28.8581C21.7403 28.8581 21.7403 28.858 21.7403 28.858C21.7403 28.8579 21.7403 28.8579 21.7403 28.8579C21.7403 28.8578 21.7403 28.8578 21.7403 28.8577C21.7403 28.8577 21.7403 28.8577 21.7403 28.8576C21.7403 28.8576 21.7403 28.8575 21.7403 28.8575C21.7403 28.8575 21.7403 28.8574 21.7403 28.8574C21.7403 28.8574 21.7403 28.8573 21.7403 28.8573C21.7403 28.8572 21.7403 28.8572 21.7403 28.8572C21.7403 28.8571 21.7403 28.8571 21.7403 28.857C21.7403 28.857 21.7403 28.857 21.7403 28.8569C21.7403 28.8569 21.7403 28.8568 21.7403 28.8568C21.7403 28.8568 21.7403 28.8567 21.7403 28.8567C21.7403 28.8566 21.7403 28.8566 21.7403 28.8566C21.7403 28.8565 21.7403 28.8565 21.7403 28.8565C21.7403 28.8564 21.7403 28.8564 21.7403 28.8563C21.7403 28.8563 21.7403 28.8563 21.7403 28.8562C21.7403 28.8562 21.7403 28.8561 21.7403 28.8561C21.7403 28.8561 21.7403 28.856 21.7403 28.856C21.7403 28.8559 21.7403 28.8559 21.7403 28.8559C21.7403 28.8558 21.7403 28.8558 21.7403 28.8558C21.7403 28.8557 21.7403 28.8557 21.7403 28.8556C21.7403 28.8556 21.7403 28.8556 21.7403 28.8555C21.7403 28.8555 21.7403 28.8554 21.7403 28.8554C21.7403 28.8554 21.7403 28.8553 21.7403 28.8553C21.7403 28.8552 21.7403 28.8552 21.7403 28.8552C21.7403 28.8551 21.7403 28.8551 21.7403 28.855C21.7403 28.855 21.7403 28.855 21.7403 28.8549C21.7403 28.8549 21.7403 28.8549 21.7403 28.8548C21.7403 28.8548 21.7403 28.8547 21.7403 28.8547C21.7403 28.8547 21.7403 28.8546 21.7403 28.8546C21.7403 28.8545 21.7403 28.8545 21.7403 28.8545C21.7403 28.8544 21.7403 28.8544 21.7403 28.8543C21.7403 28.8543 21.7403 28.8543 21.7403 28.8542C21.7403 28.8542 21.7403 28.8541 21.7403 28.8541C21.7403 28.8541 21.7403 28.854 21.7403 28.854C21.7403 28.854 21.7403 28.8539 21.7403 28.8539C21.7403 28.8538 21.7403 28.8538 21.7403 28.8538C21.7403 28.8537 21.7403 28.8537 21.7403 28.8536C21.7403 28.8536 21.7403 28.8536 21.7403 28.8535C21.7403 28.8535 21.7403 28.8534 21.7403 28.8534C21.7403 28.8534 21.7403 28.8533 21.7403 28.8533C21.7403 28.8533 21.7403 28.8532 21.7403 28.8532C21.7403 28.8531 21.7403 28.8531 21.7403 28.8531C21.7403 28.853 21.7403 28.853 21.7403 28.8529C21.7403 28.8529 21.7403 28.8529 21.7403 28.8528C21.7403 28.8528 21.7403 28.8527 21.7403 28.8527C21.7403 28.8527 21.7403 28.8526 21.7403 28.8526C21.7403 28.8525 21.7403 28.8525 21.7403 28.8525C21.7403 28.8524 21.7403 28.8524 21.7403 28.8524C21.7403 28.8523 21.7403 28.8523 21.7403 28.8522C21.7403 28.8522 21.7403 28.8522 21.7403 28.8521C21.7403 28.8521 21.7403 28.852 21.7403 28.852C21.7403 28.852 21.7403 28.8519 21.7403 28.8519C21.7403 28.8518 21.7403 28.8518 21.7403 28.8518C21.7403 28.8517 21.7403 28.8517 21.7403 28.8516C21.7403 28.8516 21.7403 28.8516 21.7403 28.8515C21.7403 28.8515 21.7403 28.8515 21.7403 28.8514C21.7403 28.8514 21.7403 28.8513 21.7403 28.8513C21.7403 28.8513 21.7403 28.8512 21.7403 28.8512C21.7403 28.8511 21.7403 28.8511 21.7403 28.8511C21.7403 28.851 21.7403 28.851 21.7403 28.8509C21.7403 28.8509 21.7403 28.8509 21.7403 28.8508C21.7403 28.8508 21.7403 28.8508 21.7403 28.8507C21.7403 28.8507 21.7403 28.8506 21.7403 28.8506C21.7403 28.8506 21.7403 28.8505 21.7403 28.8505C21.7403 28.8504 21.7403 28.8504 21.7403 28.8504C21.7403 28.8503 21.7403 28.8503 21.7403 28.8502C21.7403 28.8502 21.7403 28.8502 21.7403 28.8501C21.7403 28.8501 21.7403 28.85 21.7403 28.85C21.7403 28.85 21.7403 28.8499 21.7403 28.8499C21.7403 28.8499 21.7403 28.8498 21.7403 28.8498C21.7403 28.8497 21.7403 28.8497 21.7403 28.8497C21.7403 28.8496 21.7403 28.8496 21.7403 28.8495C21.7403 28.8495 21.7403 28.8495 21.7403 28.8494C21.7403 28.8494 21.7403 28.8493 21.7403 28.8493C21.7403 28.8493 21.7403 28.8492 21.7403 28.8492C21.7403 28.8491 21.7403 28.8491 21.7403 28.8491C21.7403 28.849 21.7403 28.849 21.7403 28.849C21.7403 28.8489 21.7403 28.8489 21.7403 28.8488C21.7403 28.8488 21.7403 28.8488 21.7403 28.8487C21.7403 28.8487 21.7403 28.8486 21.7403 28.8486C21.7403 28.8486 21.7403 28.8485 21.7403 28.8485C21.7403 28.8484 21.7403 28.8484 21.7403 28.8484C21.7403 28.8483 21.7403 28.8483 21.7403 28.8483C21.7403 28.8482 21.7403 28.8482 21.7403 28.8481C21.7403 28.8481 21.7403 28.8481 21.7403 28.848C21.7403 28.848 21.7403 28.8479 21.7403 28.8479C21.7403 28.8479 21.7403 28.8478 21.7403 28.8478C21.7403 28.8477 21.7403 28.8477 21.7403 28.8477C21.7403 28.8476 21.7403 28.8476 21.7403 28.8475C21.7403 28.8475 21.7403 28.8475 21.7403 28.8474C21.7403 28.8474 21.7403 28.8474 21.7403 28.8473C21.7403 28.8473 21.7403 28.8472 21.7403 28.8472C21.7403 28.8472 21.7403 28.8471 21.7403 28.8471C21.7403 28.847 21.7403 28.847 21.7403 28.847C21.7403 28.8469 21.7403 28.8469 21.7403 28.8468C21.7403 28.8468 21.7403 28.8468 21.7403 28.8467C21.7403 28.8467 21.7403 28.8466 21.7403 28.8466C21.7403 28.8466 21.7403 28.8465 21.7403 28.8465C21.7403 28.8465 21.7403 28.8464 21.7403 28.8464C21.7403 28.8463 21.7403 28.8463 21.7403 28.8463C21.7403 28.8462 21.7403 28.8462 21.7403 28.8461C21.7403 28.8461 21.7403 28.8461 21.7403 28.846C21.7403 28.846 21.7403 28.8459 21.7403 28.8459C21.7403 28.8459 21.7403 28.8458 21.7403 28.8458C21.7403 28.8458 21.7403 28.8457 21.7403 28.8457C21.7403 28.8456 21.7403 28.8456 21.7403 28.8456C21.7403 28.8455 21.7403 28.8455 21.7403 28.8454C21.7403 28.8454 21.7403 28.8454 21.7403 28.8453C21.7403 28.8453 21.7403 28.8452 21.7403 28.8452C21.7403 28.8452 21.7403 28.8451 21.7403 28.8451C21.7403 28.845 21.7403 28.845 21.7403 28.845C21.7403 28.8449 21.7403 28.8449 21.7403 28.8449C21.7403 28.8448 21.7403 28.8448 21.7403 28.8447C21.7403 28.8447 21.7403 28.8447 21.7403 28.8446C21.7403 28.8446 21.7403 28.8445 21.7403 28.8445C21.7403 28.8445 21.7403 28.8444 21.7403 28.8444C21.7403 28.8443 21.7403 28.8443 21.7403 28.8443C21.7403 28.8442 21.7403 28.8442 21.7403 28.8441C21.7403 28.8441 21.7403 28.8441 21.7403 28.844C21.7403 28.844 21.7403 28.844 21.7403 28.8439C21.7403 28.8439 21.7403 28.8438 21.7403 28.8438C21.7403 28.8438 21.7403 28.8437 21.7403 28.8437C21.7403 28.8436 21.7403 28.8436 21.7403 28.8436C21.7403 28.8435 21.7403 28.8435 21.7403 28.8434C21.7403 28.8434 21.7403 28.8434 21.7403 28.8433C21.7403 28.8433 21.7403 28.8433 21.7403 28.8432C21.7403 28.8432 21.7403 28.8431 21.7403 28.8431C21.7403 28.8431 21.7403 28.843 21.7403 28.843C21.7403 28.8429 21.7403 28.8429 21.7403 28.8429C21.7403 28.8428 21.7403 28.8428 21.7403 28.8427C21.7403 28.8427 21.7403 28.8427 21.7403 28.8426C21.7403 28.8426 21.7403 28.8425 21.7403 28.8425C21.7403 28.8425 21.7403 28.8424 21.7403 28.8424C21.7403 28.8424 21.7403 28.8423 21.7403 28.8423C21.7403 28.8422 21.7403 28.8422 21.7403 28.8422C21.7403 28.8421 21.7403 28.8421 21.7403 28.842C21.7403 28.842 21.7403 28.842 21.7403 28.8419C21.7403 28.8419 21.7403 28.8418 21.7403 28.8418C21.7403 28.8418 21.7403 28.8417 21.7403 28.8417C21.7403 28.8416 21.7403 28.8416 21.7403 28.8416C21.7403 28.8415 21.7403 28.8415 21.7403 28.8415C21.7403 28.8414 21.7403 28.8414 21.7403 28.8413H20.7403ZM20.7403 28.9013H19.7403C19.7403 28.9472 19.7203 29.1047 19.5942 29.414L20.5203 29.7913L21.4464 30.1686C21.6137 29.758 21.7403 29.3222 21.7403 28.9013H20.7403ZM20.5203 29.7913L19.5967 29.408C19.5632 29.4886 19.5337 29.5567 19.5081 29.6132C19.4821 29.6703 19.462 29.7112 19.4476 29.7387C19.4315 29.7693 19.4293 29.7701 19.4404 29.754C19.4463 29.7454 19.4627 29.7223 19.4896 29.6922C19.5036 29.6766 19.5232 29.6559 19.5487 29.6327C19.5738 29.6099 19.6094 29.5801 19.6556 29.5493L20.2103 30.3813L20.765 31.2134C20.9452 31.0933 21.0512 30.9411 21.0865 30.89C21.1384 30.8147 21.1824 30.7368 21.2181 30.669C21.2902 30.5317 21.366 30.3625 21.4439 30.1747L20.5203 29.7913ZM20.2103 30.3813L20.6686 29.4925C20.155 29.2277 19.6117 29.0513 19.0603 29.0513V30.0513V31.0513C19.1889 31.0513 19.4123 31.095 19.752 31.2701L20.2103 30.3813ZM19.0603 30.0513V29.0513C18.8037 29.0513 18.4311 29.0921 18.101 29.3298C17.7102 29.6112 17.5603 30.0316 17.5603 30.4113H18.5603H19.5603C19.5603 30.4665 19.5506 30.5626 19.499 30.674C19.445 30.7907 19.3624 30.8861 19.2696 30.9529C19.1062 31.0705 18.9836 31.0513 19.0603 31.0513V30.0513ZM18.5603 30.4113H17.5603C17.5603 31.2023 18.2216 31.5762 18.5128 31.71L18.9303 30.8013L19.3478 29.8927C19.2866 29.8645 19.3192 29.8683 19.3783 29.9306C19.4516 30.0079 19.5603 30.1743 19.5603 30.4113H18.5603ZM18.9303 30.8013L18.4831 31.6958C18.5486 31.7285 18.6349 31.7697 18.7374 31.8175L19.1603 30.9113L19.5832 30.0052C19.4858 29.9597 19.4187 29.9275 19.3775 29.9069L18.9303 30.8013ZM19.1603 30.9113L18.7374 31.8175C18.8195 31.8558 18.9181 31.905 19.0346 31.9663L19.5003 31.0813L19.9661 30.1964C19.8292 30.1244 19.7012 30.0602 19.5832 30.0052L19.1603 30.9113ZM19.5003 31.0813L19.09 31.9933C19.16 32.0248 19.2488 32.0738 19.357 32.1476L19.9203 31.3213L20.4837 30.4951C20.2985 30.3688 20.1073 30.2579 19.9107 30.1694L19.5003 31.0813ZM19.9203 31.3213L19.4004 32.1755C19.4827 32.2256 19.5932 32.308 19.732 32.4361L20.4103 31.7013L21.0886 30.9665C20.8808 30.7747 20.6646 30.6037 20.4403 30.4671L19.9203 31.3213ZM20.4103 31.7013L19.7241 32.4287C19.8511 32.5485 19.9403 32.712 19.9403 33.0213H20.9403H21.9403C21.9403 32.2374 21.6762 31.5208 21.0965 30.9739L20.4103 31.7013ZM20.9403 33.0213H19.9403C19.9403 33.5416 19.8018 33.8776 19.595 34.116L20.3503 34.7713L21.1056 35.4267C21.6855 34.7584 21.9403 33.9277 21.9403 33.0213H20.9403ZM20.3503 34.7713L19.595 34.116C19.4488 34.2845 19.1584 34.461 18.5141 34.4715L18.5303 35.4713L18.5466 36.4712C19.5422 36.455 20.4652 36.1648 21.1056 35.4267L20.3503 34.7713ZM18.5303 35.4713V34.4713C18.1846 34.4713 17.8896 34.4424 17.6403 34.3915L17.4403 35.3713L17.2404 36.3511C17.6443 36.4336 18.076 36.4713 18.5303 36.4713V35.4713ZM17.4403 35.3713L17.6443 34.3924C17.4696 34.356 17.3369 34.2906 17.2276 34.2026L16.6003 34.9813L15.973 35.7601C16.3437 36.0587 16.771 36.2534 17.2364 36.3503L17.4403 35.3713ZM16.6003 34.9813L17.2276 34.2026C17.1977 34.1784 17.2055 34.1766 17.2196 34.204C17.2263 34.217 17.2321 34.2323 17.2359 34.2484C17.2397 34.2642 17.2403 34.2759 17.2403 34.2813H16.2403H15.2403C15.2403 34.8984 15.5313 35.4043 15.973 35.7601L16.6003 34.9813ZM16.2403 34.2813H17.2403C17.2403 34.1329 17.267 33.9816 17.3266 33.8225L16.3903 33.4713L15.454 33.1202C15.3137 33.4944 15.2403 33.8831 15.2403 34.2813H16.2403ZM16.3903 33.4713L17.3294 33.8149C17.347 33.7668 17.3629 33.7285 17.3765 33.6986C17.3902 33.6686 17.4002 33.6503 17.4056 33.6411C17.4112 33.6317 17.4093 33.6365 17.3979 33.6502C17.3868 33.6637 17.361 33.6926 17.3178 33.7257L16.7103 32.9313L16.1029 32.137C15.7475 32.4087 15.5612 32.8272 15.4512 33.1278L16.3903 33.4713ZM25.2828 32.9013H26.2828V31.9013H25.2828V32.9013ZM23.8828 32.9013V31.9013H22.8828V32.9013H23.8828ZM23.8828 30.9213H22.8828V31.9213H23.8828V30.9213ZM25.2828 30.9213V31.9213H26.2828V30.9213H25.2828ZM25.7828 28.3913L25.7061 27.3943L25.6849 27.3959L25.6637 27.3985L25.7828 28.3913ZM26.2928 28.3713L26.332 27.3721L26.3124 27.3713H26.2928V28.3713ZM26.8028 28.3913L26.922 27.3985L26.8821 27.3937L26.842 27.3921L26.8028 28.3913ZM27.3028 35.2013H26.3028C26.3028 34.9439 26.4058 34.7341 26.5246 34.5941C26.6302 34.4697 26.74 34.4078 26.7889 34.3831C26.8815 34.3363 26.9359 34.334 26.8843 34.3427C26.801 34.3567 26.6164 34.3713 26.2928 34.3713V35.3713V36.3713C26.6426 36.3713 26.963 36.3576 27.2163 36.315C27.3331 36.2953 27.5137 36.2576 27.6904 36.1684C27.8313 36.0972 28.3028 35.8149 28.3028 35.2013H27.3028ZM26.2928 35.3713V34.3713C25.9692 34.3713 25.7846 34.3567 25.7013 34.3427C25.6498 34.334 25.7041 34.3363 25.7967 34.3831C25.8457 34.4078 25.9554 34.4697 26.061 34.5941C26.1799 34.7341 26.2828 34.9439 26.2828 35.2013H25.2828H24.2828C24.2828 35.8149 24.7543 36.0972 24.8952 36.1684C25.072 36.2576 25.2525 36.2953 25.3693 36.315C25.6227 36.3576 25.9431 36.3713 26.2928 36.3713V35.3713ZM25.2828 35.2013H26.2828V32.9013H25.2828H24.2828V35.2013H25.2828ZM25.2828 32.9013V31.9013H23.8828V32.9013V33.9013H25.2828V32.9013ZM23.8828 32.9013H22.8828V35.2013H23.8828H24.8828V32.9013H23.8828ZM23.8828 35.2013H22.8828C22.8828 34.9439 22.9858 34.7341 23.1046 34.5941C23.2102 34.4697 23.32 34.4078 23.3689 34.3831C23.4615 34.3363 23.5159 34.334 23.4643 34.3427C23.381 34.3567 23.1964 34.3713 22.8728 34.3713V35.3713V36.3713C23.2226 36.3713 23.543 36.3576 23.7963 36.315C23.9131 36.2953 24.0937 36.2576 24.2704 36.1684C24.4113 36.0972 24.8828 35.8149 24.8828 35.2013H23.8828ZM22.8728 35.3713V34.3713C22.5492 34.3713 22.3646 34.3567 22.2813 34.3427C22.2298 34.334 22.2841 34.3363 22.3767 34.3831C22.4257 34.4078 22.5354 34.4697 22.641 34.5941C22.7599 34.7341 22.8628 34.9439 22.8628 35.2013H21.8628H20.8628C20.8628 35.8149 21.3343 36.0972 21.4752 36.1684C21.652 36.2576 21.8325 36.2953 21.9493 36.315C22.2027 36.3576 22.5231 36.3713 22.8728 36.3713V35.3713ZM21.8628 35.2013H22.8628V28.5713H21.8628H20.8628V35.2013H21.8628ZM21.8628 28.5713H22.8628C22.8628 28.7688 22.7993 28.9479 22.7028 29.0884C22.6141 29.2176 22.5138 29.2914 22.4552 29.3279C22.3497 29.3937 22.2783 29.4013 22.3189 29.3929C22.3836 29.3794 22.5527 29.3613 22.8728 29.3613V28.3613V27.3613C22.5196 27.3613 22.1837 27.3782 21.9117 27.4348C21.784 27.4613 21.5863 27.5127 21.3967 27.631C21.1957 27.7564 20.8628 28.0584 20.8628 28.5713H21.8628ZM22.8728 28.3613V29.3613C23.1929 29.3613 23.362 29.3794 23.4267 29.3929C23.4673 29.4013 23.3959 29.3937 23.2904 29.3279C23.2318 29.2914 23.1316 29.2176 23.0428 29.0884C22.9463 28.9479 22.8828 28.7688 22.8828 28.5713H23.8828H24.8828C24.8828 28.0584 24.5499 27.7564 24.3489 27.631C24.1593 27.5127 23.9617 27.4613 23.8339 27.4348C23.562 27.3782 23.226 27.3613 22.8728 27.3613V28.3613ZM23.8828 28.5713H22.8828V30.9213H23.8828H24.8828V28.5713H23.8828ZM23.8828 30.9213V31.9213H25.2828V30.9213V29.9213H23.8828V30.9213ZM25.2828 30.9213H26.2828V28.5913H25.2828H24.2828V30.9213H25.2828ZM25.2828 28.5913H26.2828C26.2828 28.9024 26.1324 29.127 26.0066 29.2477C25.8978 29.3521 25.7979 29.3923 25.7792 29.3998C25.7395 29.4157 25.7607 29.4012 25.902 29.3842L25.7828 28.3913L25.6637 27.3985C25.4716 27.4215 25.2428 27.4603 25.0364 27.5429C24.9344 27.5837 24.772 27.6605 24.6215 27.805C24.4541 27.9657 24.2828 28.2336 24.2828 28.5913H25.2828ZM25.7828 28.3913L25.8595 29.3884C26.0084 29.3769 26.1528 29.3713 26.2928 29.3713V28.3713V27.3713C26.0995 27.3713 25.9039 27.3791 25.7061 27.3943L25.7828 28.3913ZM26.2928 28.3713L26.2536 29.3706L26.7636 29.3906L26.8028 28.3913L26.842 27.3921L26.332 27.3721L26.2928 28.3713ZM26.8028 28.3913L26.6837 29.3842C26.825 29.4012 26.8461 29.4157 26.8064 29.3998C26.7877 29.3923 26.6878 29.3521 26.579 29.2477C26.4532 29.127 26.3028 28.9024 26.3028 28.5913H27.3028H28.3028C28.3028 28.2336 28.1316 27.9657 27.9641 27.805C27.8137 27.6605 27.6513 27.5837 27.5492 27.5429C27.3428 27.4603 27.114 27.4215 26.922 27.3985L26.8028 28.3913ZM27.3028 28.5913H26.3028V35.2013H27.3028H28.3028V28.5913H27.3028ZM29.0784 34.5513L28.3557 35.2426L28.3596 35.2466L29.0784 34.5513ZM29.0884 29.1913L28.3774 28.4881L28.3734 28.4921L29.0884 29.1913ZM33.6884 29.1813L32.9694 29.8764L32.9733 29.8804L33.6884 29.1813ZM33.6684 34.5913L34.3715 35.3024L34.3755 35.2984L33.6684 34.5913ZM30.5684 30.6413L29.7684 30.0413L29.764 30.0472L29.7596 30.0532L30.5684 30.6413ZM30.5584 33.1013L29.7471 33.6862L29.7538 33.6952L30.5584 33.1013ZM32.1884 33.0913L31.3861 32.4943L31.3816 32.5004L31.3772 32.5065L32.1884 33.0913ZM32.1784 30.6313L31.3761 31.2283L31.3805 31.2343L31.3851 31.2402L32.1784 30.6313ZM31.3684 35.4713V34.4713C30.6779 34.4713 30.1833 34.2553 29.7971 33.856L29.0784 34.5513L28.3596 35.2466C29.16 36.074 30.1922 36.4713 31.3684 36.4713V35.4713ZM29.0784 34.5513L29.801 33.8601C29.4511 33.4943 29.1984 32.8869 29.1984 31.8713H28.1984H27.1984C27.1984 33.2024 27.5323 34.3817 28.3557 35.2426L29.0784 34.5513ZM28.1984 31.8713H29.1984C29.1984 30.8492 29.4542 30.2475 29.8033 29.8905L29.0884 29.1913L28.3734 28.4921C27.5359 29.3485 27.1984 30.5335 27.1984 31.8713H28.1984ZM29.0884 29.1913L29.7994 29.8945C30.1915 29.498 30.6956 29.2813 31.3984 29.2813V28.2813V27.2813C30.2211 27.2813 29.1852 27.6713 28.3774 28.4881L29.0884 29.1913ZM31.3984 28.2813V29.2813C32.1138 29.2813 32.6038 29.4982 32.9694 29.8764L33.6884 29.1813L34.4074 28.4863C33.6129 27.6645 32.5762 27.2813 31.3984 27.2813V28.2813ZM33.6884 29.1813L32.9733 29.8804C33.301 30.2157 33.5584 30.8191 33.5584 31.8913H34.5584H35.5584C35.5584 30.5369 35.2357 29.3337 34.4035 28.4823L33.6884 29.1813ZM34.5584 31.8913H33.5584C33.5584 32.9495 33.2981 33.5474 32.9613 33.8842L33.6684 34.5913L34.3755 35.2984C35.2253 34.4486 35.5584 33.2465 35.5584 31.8913H34.5584ZM33.6684 34.5913L32.9653 33.8802C32.5834 34.2578 32.0814 34.4713 31.3684 34.4713V35.4713V36.4713C32.5353 36.4713 33.5666 36.0982 34.3715 35.3024L33.6684 34.5913ZM31.3784 30.2013V29.2013C30.6947 29.2013 30.1458 29.5381 29.7684 30.0413L30.5684 30.6413L31.3684 31.2413C31.3886 31.2144 31.4033 31.1997 31.4109 31.1929C31.4181 31.1864 31.419 31.1869 31.4132 31.1901C31.407 31.1934 31.3984 31.197 31.389 31.1993C31.3798 31.2016 31.3754 31.2013 31.3784 31.2013V30.2013ZM30.5684 30.6413L29.7596 30.0532C29.3759 30.5808 29.2484 31.2316 29.2484 31.8813H30.2484H31.2484C31.2484 31.4645 31.3342 31.2885 31.3771 31.2295L30.5684 30.6413ZM30.2484 31.8813H29.2484C29.2484 32.5203 29.3709 33.1642 29.7472 33.6861L30.5584 33.1013L31.3695 32.5165C31.3325 32.4652 31.2484 32.2957 31.2484 31.8813H30.2484ZM30.5584 33.1013L29.7538 33.6952C30.1392 34.2174 30.7015 34.5213 31.3684 34.5213V33.5213V32.5213C31.3554 32.5213 31.3522 32.52 31.3563 32.521C31.3582 32.5214 31.3612 32.5222 31.3649 32.5236C31.3687 32.525 31.3725 32.5267 31.3762 32.5286C31.3841 32.5327 31.3876 32.5359 31.3863 32.5348C31.3848 32.5334 31.3764 32.5258 31.3629 32.5075L30.5584 33.1013ZM31.3684 33.5213V34.5213C32.0444 34.5213 32.6137 34.2114 32.9995 33.6761L32.1884 33.0913L31.3772 32.5065C31.3636 32.5254 31.3551 32.5333 31.3536 32.5346C31.3528 32.5354 31.3534 32.5348 31.3553 32.5334C31.3573 32.532 31.3603 32.5302 31.364 32.5282C31.3677 32.5263 31.3715 32.5246 31.3752 32.5232C31.3788 32.5219 31.3817 32.5211 31.3833 32.5207C31.3869 32.5199 31.3828 32.5213 31.3684 32.5213V33.5213ZM32.1884 33.0913L32.9906 33.6883C33.3817 33.1628 33.5084 32.509 33.5084 31.8613H32.5084H31.5084C31.5084 32.2804 31.4217 32.4466 31.3861 32.4943L32.1884 33.0913ZM32.5084 31.8613H33.5084C33.5084 31.2083 33.3762 30.5496 32.9717 30.0225L32.1784 30.6313L31.3851 31.2402C31.4206 31.2864 31.5084 31.4477 31.5084 31.8613H32.5084ZM32.1784 30.6313L32.9806 30.0343C32.6039 29.5281 32.0546 29.2013 31.3784 29.2013V30.2013V31.2013C31.3832 31.2013 31.3799 31.2018 31.371 31.1996C31.3619 31.1974 31.3526 31.1938 31.3449 31.1897C31.3375 31.1857 31.3363 31.1838 31.3411 31.188C31.3462 31.1926 31.3585 31.2046 31.3761 31.2283L32.1784 30.6313ZM39.6213 28.9813L38.9369 29.7105L38.9425 29.7157L39.6213 28.9813ZM39.6613 32.5113L40.4517 33.1239L40.4517 33.1239L39.6613 32.5113ZM38.7513 33.1513L38.3799 32.2229L38.3799 32.2229L38.7513 33.1513ZM37.3513 33.3913V32.3913H36.3513V33.3913H37.3513ZM36.9713 35.3513L37.0787 36.3455L37.0902 36.3443L37.1017 36.3428L36.9713 35.3513ZM37.3513 30.1113V29.1113H36.3513V30.1113H37.3513ZM37.3513 31.6913H36.3513V32.6913H37.3513V31.6913ZM38.0713 31.4713L38.747 32.2085L38.747 32.2085L38.0713 31.4713ZM38.1413 30.2813L37.4131 30.9667L37.4234 30.9777L37.4341 30.9884L38.1413 30.2813ZM36.3313 35.3913V34.3913C36.0455 34.3913 35.9061 34.374 35.8634 34.3646C35.8346 34.3583 35.9165 34.3701 36.0286 34.444C36.091 34.4851 36.1892 34.5629 36.2739 34.6932C36.365 34.8334 36.4213 35.0058 36.4213 35.1913H35.4213H34.4213C34.4213 35.676 34.7212 35.9776 34.9277 36.1137C35.1156 36.2376 35.3112 36.291 35.4341 36.318C35.6948 36.3753 36.0103 36.3913 36.3313 36.3913V35.3913ZM35.4213 35.1913H36.4213V28.7113H35.4213H34.4213V35.1913H35.4213ZM35.4213 28.7113H36.4213C36.4213 28.7305 36.4189 28.9314 36.2377 29.1301C36.0406 29.3463 35.8071 29.3713 35.7313 29.3713V28.3713V27.3713C35.4488 27.3713 35.0603 27.453 34.7598 27.7826C34.4753 28.0946 34.4213 28.4656 34.4213 28.7113H35.4213ZM35.7313 28.3713V29.3713H37.4913V28.3713V27.3713H35.7313V28.3713ZM37.4913 28.3713V29.3713C38.3812 29.3713 38.7786 29.5619 38.9369 29.7105L39.6213 28.9813L40.3056 28.2521C39.5973 27.5875 38.5746 27.3713 37.4913 27.3713V28.3713ZM39.6213 28.9813L38.9425 29.7157C39.1222 29.8818 39.2813 30.1711 39.2813 30.7513H40.2813H41.2813C41.2813 29.7849 41.0003 28.8942 40.3 28.247L39.6213 28.9813ZM40.2813 30.7513H39.2813C39.2813 31.157 39.1562 31.5305 38.8708 31.8988L39.6613 32.5113L40.4517 33.1239C40.993 32.4255 41.2813 31.6257 41.2813 30.7513H40.2813ZM39.6613 32.5113L38.8708 31.8988C38.7995 31.9908 38.6595 32.111 38.3799 32.2229L38.7513 33.1513L39.1226 34.0798C39.643 33.8717 40.1097 33.5652 40.4517 33.1239L39.6613 32.5113ZM38.7513 33.1513L38.3799 32.2229C38.1224 32.3258 37.7866 32.3913 37.3513 32.3913V33.3913V34.3913C37.9825 34.3913 38.5801 34.2968 39.1226 34.0798L38.7513 33.1513ZM37.3513 33.3913H36.3513V35.1813H37.3513H38.3513V33.3913H37.3513ZM37.3513 35.1813H36.3513C36.3513 34.9082 36.4687 34.6925 36.5941 34.5572C36.7032 34.4394 36.8113 34.3874 36.8479 34.371C36.9181 34.3396 36.9377 34.3471 36.8408 34.3599L36.9713 35.3513L37.1017 36.3428C37.2581 36.3222 37.4677 36.2848 37.6646 36.1967C37.8059 36.1334 38.3513 35.8518 38.3513 35.1813H37.3513ZM36.9713 35.3513L36.8638 34.3571C36.6405 34.3813 36.4648 34.3913 36.3313 34.3913V35.3913V36.3913C36.5577 36.3913 36.8087 36.3747 37.0787 36.3455L36.9713 35.3513ZM37.3513 30.1113H36.3513V31.6913H37.3513H38.3513V30.1113H37.3513ZM37.3513 31.6913V32.6913H37.4813V31.6913V30.6913H37.3513V31.6913ZM37.4813 31.6913V32.6913C37.9443 32.6913 38.388 32.5376 38.747 32.2085L38.0713 31.4713L37.3955 30.7342C37.4071 30.7235 37.428 30.7092 37.4544 30.6994C37.4796 30.69 37.4919 30.6913 37.4813 30.6913V31.6913ZM38.0713 31.4713L38.747 32.2085C39.1595 31.8303 39.3113 31.3293 39.3113 30.8513H38.3113H37.3113C37.3113 30.8857 37.3061 30.8779 37.3187 30.8453C37.325 30.8289 37.3348 30.8091 37.349 30.7882C37.3633 30.7672 37.3793 30.749 37.3955 30.7342L38.0713 31.4713ZM38.3113 30.8513H39.3113C39.3113 30.486 39.241 29.9669 38.8484 29.5742L38.1413 30.2813L37.4341 30.9884C37.3487 30.903 37.3185 30.8216 37.3105 30.7946C37.3035 30.7712 37.3113 30.7837 37.3113 30.8513H38.3113ZM38.1413 30.2813L38.8695 29.596C38.4693 29.1708 37.9139 29.1113 37.5613 29.1113V30.1113V31.1113C37.6402 31.1113 37.6575 31.1201 37.635 31.1135C37.6101 31.1062 37.5125 31.0724 37.4131 30.9667L38.1413 30.2813ZM37.5613 30.1113V29.1113H37.3513V30.1113V31.1113H37.5613V30.1113Z" fill="black" mask="url(#path-7-outside-1_2007_673)"/>
</g>
<g filter="url(#filter2_d_2007_673)">
<mask id="path-9-outside-2_2007_673" maskUnits="userSpaceOnUse" x="15.2687" y="-0.174275" width="28.6876" height="25.5662" fill="black">
<rect fill="white" x="15.2687" y="-0.174275" width="28.6876" height="25.5662"/>
<path d="M37.9282 1.22048C38.5262 1.09884 39.1093 1.48531 39.2311 2.08332L40.4006 7.82678C40.6281 8.94394 40.2703 10.0437 39.5381 10.8099L41.1042 18.5007C41.2695 19.3124 40.7454 20.1045 39.9337 20.2698L21.7224 23.9782C20.9107 24.1435 20.1186 23.6195 19.9533 22.8077L16.7474 7.06438C16.5821 6.25261 17.1062 5.46054 17.918 5.29524L37.9282 1.22048Z"/>
</mask>
<path d="M37.9282 1.22048C38.5262 1.09884 39.1093 1.48531 39.2311 2.08332L40.4006 7.82678C40.6281 8.94394 40.2703 10.0437 39.5381 10.8099L41.1042 18.5007C41.2695 19.3124 40.7454 20.1045 39.9337 20.2698L21.7224 23.9782C20.9107 24.1435 20.1186 23.6195 19.9533 22.8077L16.7474 7.06438C16.5821 6.25261 17.1062 5.46054 17.918 5.29524L37.9282 1.22048Z" fill="black"/>
<path d="M37.9282 1.22048L37.7687 0.436528L37.7686 0.436564L37.9282 1.22048ZM39.2311 2.08332L38.4471 2.24296L39.2311 2.08332ZM40.4006 7.82678L41.1845 7.66715L40.4006 7.82678ZM39.5381 10.8099L38.9598 10.2571L38.6707 10.5595L38.7542 10.9695L39.5381 10.8099ZM41.1042 18.5007L41.8881 18.341L41.8881 18.341L41.1042 18.5007ZM19.9533 22.8077L19.1694 22.9673L19.1694 22.9673L19.9533 22.8077ZM16.7474 7.06438L15.9635 7.22401L16.7474 7.06438ZM37.9282 1.22048L38.0876 2.00442C38.2521 1.97097 38.4134 2.07716 38.4471 2.24296L39.2311 2.08332L40.015 1.92369C39.8052 0.893466 38.8003 0.226708 37.7687 0.436528L37.9282 1.22048ZM39.2311 2.08332L38.4471 2.24296L39.6167 7.98641L40.4006 7.82678L41.1845 7.66715L40.015 1.92369L39.2311 2.08332ZM40.4006 7.82678L39.6167 7.98641C39.7896 8.8357 39.5189 9.67212 38.9598 10.2571L39.5381 10.8099L40.1164 11.3626C41.0218 10.4154 41.4666 9.05218 41.1845 7.66715L40.4006 7.82678ZM39.5381 10.8099L38.7542 10.9695L40.3203 18.6603L41.1042 18.5007L41.8881 18.341L40.322 10.6502L39.5381 10.8099ZM41.1042 18.5007L40.3203 18.6603C40.3974 19.0391 40.1529 19.4087 39.774 19.4859L39.9337 20.2698L40.0933 21.0537C41.338 20.8002 42.1416 19.5857 41.8881 18.341L41.1042 18.5007ZM39.9337 20.2698L39.774 19.4859L21.5628 23.1943L21.7224 23.9782L21.8821 24.7621L40.0933 21.0537L39.9337 20.2698ZM21.7224 23.9782L21.5628 23.1943C21.184 23.2714 20.8144 23.0269 20.7372 22.6481L19.9533 22.8077L19.1694 22.9673C19.4229 24.212 20.6374 25.0156 21.8821 24.7621L21.7224 23.9782ZM19.9533 22.8077L20.7372 22.6481L17.5313 6.90475L16.7474 7.06438L15.9635 7.22401L19.1694 22.9673L19.9533 22.8077ZM16.7474 7.06438L17.5313 6.90475C17.4542 6.52592 17.6988 6.15629 18.0776 6.07915L17.918 5.29524L17.7583 4.51132C16.5136 4.76479 15.7101 5.9793 15.9635 7.22401L16.7474 7.06438ZM17.918 5.29524L18.0776 6.07915L38.0878 2.00439L37.9282 1.22048L37.7686 0.436564L17.7583 4.51132L17.918 5.29524Z" fill="black" mask="url(#path-9-outside-2_2007_673)"/>
</g>
<path d="M17.7694 12.0829L38.9205 7.77586L41.1045 18.5006C41.2698 19.3124 40.7457 20.1044 39.9339 20.2697L21.7225 23.9782C20.9107 24.1435 20.1186 23.6194 19.9533 22.8077L17.7694 12.0829Z" fill="#5A9ED5"/>
<rect x="20.7755" y="12.5332" width="18.3582" height="8.04541" transform="rotate(-11.51 20.7755 12.5332)" fill="#00B0E5"/>
<rect x="28.5859" y="11.1127" width="1.0741" height="7.87891" transform="rotate(-11.51 28.5859 11.1127)" fill="#0050BC"/>
<rect x="37.0608" y="9.3869" width="1.0741" height="11.1562" transform="rotate(-11.51 37.0608 9.3869)" fill="#0050BC"/>
<rect x="35.5161" y="9.70142" width="1.0741" height="11.1562" transform="rotate(-11.51 35.5161 9.70142)" fill="#0050BC"/>
<path d="M39.3027 20.3983L32.6866 21.7456L30.4604 10.8137L37.0766 9.46638L39.3027 20.3983ZM32.1125 11.3652C31.8961 11.4093 31.7559 11.6201 31.7999 11.8365L32.9026 17.2517C32.9467 17.4682 33.1584 17.6082 33.3748 17.5642L37.437 16.737C37.6534 16.6929 37.7935 16.4812 37.7494 16.2647L36.6467 10.8495C36.6026 10.6331 36.3911 10.494 36.1747 10.538L32.1125 11.3652Z" fill="#0A87FC"/>
<path d="M41.1045 18.5011C41.2528 19.2304 40.8439 19.9421 40.1707 20.1991L38.0063 9.57057L30.4524 11.1088L32.6212 21.7594L24.1572 23.4829C23.3456 23.6482 22.5536 23.1239 22.3881 22.3124L20.2202 11.6666L38.9367 7.85532L41.1045 18.5011ZM22.0027 12.8294C21.7863 12.8735 21.6462 13.0852 21.6903 13.3017L22.9904 19.6863C23.0345 19.9027 23.2462 20.0428 23.4626 19.9987L30.5936 18.5466C30.81 18.5025 30.9501 18.2908 30.9061 18.0744L29.606 11.6898C29.5619 11.4733 29.3502 11.3333 29.1337 11.3773L22.0027 12.8294Z" fill="#B9EFFC"/>
<path opacity="0.2" d="M34.3701 5.97177C36.3286 5.57296 38.2486 6.88033 38.6581 8.89166C39.0676 10.9029 38.297 12.7583 35.8534 13.2559C34.3987 13.552 33.3015 13.1729 32.5655 12.3936C32.1927 13.3985 31.3319 14.1765 29.8774 14.4728C28.3712 14.7795 27.2483 14.3623 26.5126 13.5265C26.1621 14.5831 25.2934 15.4062 23.7876 15.7129C21.3441 16.2105 19.9092 14.8042 19.4996 12.793C19.09 10.7817 20.3458 8.82759 22.3043 8.42878C23.5978 8.16548 24.8738 8.64672 25.7095 9.58306C26.1124 8.39411 27.1004 7.45214 28.3942 7.18868C29.6495 6.93321 30.8881 7.37921 31.724 8.26164C32.1482 7.12236 33.1147 6.22754 34.3701 5.97177Z" fill="#1941A7"/>
<path d="M27.0297 9.912C27.4675 12.062 26.6121 14.0515 23.9294 14.5978C21.2468 15.144 19.6815 13.6475 19.2437 11.4975C18.8059 9.34745 20.1939 7.24957 22.3439 6.81174C24.494 6.37392 26.5919 7.76196 27.0297 9.912Z" fill="#9B0B53"/>
<path d="M33.715 8.55061C34.1528 10.7007 33.2974 12.6901 30.6147 13.2364C27.9321 13.7826 26.3668 12.2862 25.929 10.1361C25.4912 7.98606 26.8792 5.88818 29.0292 5.45036C31.1793 5.01253 33.2772 6.40057 33.715 8.55061Z" fill="#9B0B53"/>
<path d="M40.2764 7.21449C40.7142 9.36454 39.8588 11.354 37.1761 11.9002C34.4935 12.4465 32.9282 10.95 32.4904 8.79999C32.0526 6.64994 33.4406 4.55206 35.5906 4.11424C37.7407 3.67641 39.8386 5.06445 40.2764 7.21449Z" fill="#9B0B53"/>
<path d="M17.8805 12.6284L39.0316 8.32133L37.8986 2.7573C37.7333 1.94553 36.9412 1.42147 36.1295 1.58677L17.918 5.29524C17.1062 5.46055 16.5822 6.25262 16.7475 7.06438L17.8805 12.6284Z" fill="#9B0B53"/>
<path d="M25.7642 3.69745L32.4495 2.33608L33.8271 9.1009C34.203 10.947 33.0112 12.7483 31.1651 13.1243V13.1243C29.319 13.5002 27.5176 12.3084 27.1417 10.4623L25.7642 3.69745Z" fill="#D7FAFF"/>
<path d="M32.4496 2.33612L37.928 1.22054C38.5261 1.09874 39.1096 1.48486 39.2314 2.08296L40.4011 7.82686C40.77 9.63872 39.6003 11.4066 37.7885 11.7756V11.7756C35.9766 12.1445 34.2087 10.9748 33.8398 9.16296L32.4496 2.33612Z" fill="#E45340"/>
<path d="M18.8828 5.09875L25.7642 3.69748L27.1218 10.3643C27.5087 12.2645 26.282 14.1187 24.3817 14.5056V14.5056C22.4815 14.8926 20.6274 13.6658 20.2404 11.7656L18.8828 5.09875Z" fill="#E45340"/>
<defs>
<filter id="filter0_d_2007_673" x="0.135986" y="10.3412" width="56.7439" height="32.7383" filterUnits="userSpaceOnUse" color-interpolation-filters="sRGB">
<feFlood flood-opacity="0" result="BackgroundImageFix"/>
<feColorMatrix in="SourceAlpha" type="matrix" values="0 0 0 0 0 0 0 0 0 0 0 0 0 0 0 0 0 0 127 0" result="hardAlpha"/>
<feOffset dy="2.5"/>
<feComposite in2="hardAlpha" operator="out"/>
<feColorMatrix type="matrix" values="0 0 0 0 0 0 0 0 0 0 0 0 0 0 0 0 0 0 0.5 0"/>
<feBlend mode="normal" in2="BackgroundImageFix" result="effect1_dropShadow_2007_673"/>
<feBlend mode="normal" in="SourceGraphic" in2="effect1_dropShadow_2007_673" result="shape"/>
</filter>
<filter id="filter1_d_2007_673" x="15.2404" y="27.2813" width="26.0409" height="9.79" filterUnits="userSpaceOnUse" color-interpolation-filters="sRGB">
<feFlood flood-opacity="0" result="BackgroundImageFix"/>
<feColorMatrix in="SourceAlpha" type="matrix" values="0 0 0 0 0 0 0 0 0 0 0 0 0 0 0 0 0 0 127 0" result="hardAlpha"/>
<feOffset dy="0.6"/>
<feComposite in2="hardAlpha" operator="out"/>
<feColorMatrix type="matrix" values="0 0 0 0 0 0 0 0 0 0 0 0 0 0 0 0 0 0 1 0"/>
<feBlend mode="normal" in2="BackgroundImageFix" result="effect1_dropShadow_2007_673"/>
<feBlend mode="normal" in="SourceGraphic" in2="effect1_dropShadow_2007_673" result="shape"/>
</filter>
<filter id="filter2_d_2007_673" x="15.4169" y="0.397949" width="26.5179" height="25.4109" filterUnits="userSpaceOnUse" color-interpolation-filters="sRGB">
<feFlood flood-opacity="0" result="BackgroundImageFix"/>
<feColorMatrix in="SourceAlpha" type="matrix" values="0 0 0 0 0 0 0 0 0 0 0 0 0 0 0 0 0 0 127 0" result="hardAlpha"/>
<feOffset dx="-0.5" dy="1"/>
<feComposite in2="hardAlpha" operator="out"/>
<feColorMatrix type="matrix" values="0 0 0 0 0 0 0 0 0 0 0 0 0 0 0 0 0 0 1 0"/>
<feBlend mode="normal" in2="BackgroundImageFix" result="effect1_dropShadow_2007_673"/>
<feBlend mode="normal" in="SourceGraphic" in2="effect1_dropShadow_2007_673" result="shape"/>
</filter>
</defs>
</svg>
