<svg width="189" height="92" viewBox="0 0 189 92" fill="none" xmlns="http://www.w3.org/2000/svg">
<g filter="url(#filter0_dd_2006_1208)">
<path d="M6.92958 32.9355C7.07071 31.3908 8.36605 30.2084 9.91713 30.2084H175.363C177.128 30.2084 178.511 31.7241 178.351 33.4814L173.72 84.1589C173.579 85.7035 172.284 86.8859 170.733 86.8859H5.28663C3.52198 86.8859 2.13849 85.3703 2.29906 83.6129L6.92958 32.9355Z" fill="#EFC609"/>
<path d="M175.363 29.4086C177.528 29.4087 179.241 31.21 179.161 33.3461L179.147 33.5541L174.517 84.2319C174.338 86.1883 172.697 87.686 170.732 87.686H5.28711C3.05202 87.686 1.29878 85.7663 1.50195 83.5405L6.13281 32.8627L6.1543 32.6811C6.41474 30.8143 8.01361 29.4087 9.91699 29.4086H175.363Z" stroke="black" stroke-width="1.6"/>
</g>
<g filter="url(#filter1_d_2006_1208)">
<mask id="path-3-outside-1_2006_1208" maskUnits="userSpaceOnUse" x="63.8248" y="46.9537" width="55" height="20" fill="black">
<rect fill="white" x="63.8248" y="46.9537" width="55" height="20"/>
<path d="M67.1128 65.0017C65.6568 65.0017 64.9288 64.8417 64.9288 64.5217V48.9697C64.9288 48.4257 65.1768 48.1537 65.6728 48.1537H69.8968C72.2648 48.1537 73.9688 48.6417 75.0088 49.6177C76.0648 50.5937 76.5928 52.0097 76.5928 53.8657C76.5928 55.4017 76.0968 56.8097 75.1048 58.0897C74.6088 58.7297 73.8808 59.2417 72.9208 59.6257C71.9608 60.0097 70.8408 60.2017 69.5608 60.2017V64.4977C69.5608 64.6897 69.2568 64.8257 68.6488 64.9057C68.0568 64.9697 67.5448 65.0017 67.1128 65.0017ZM69.5608 52.3297V56.1217H69.8728C70.4328 56.1217 70.9048 55.9457 71.2888 55.5937C71.6728 55.2417 71.8648 54.7457 71.8648 54.1057C71.8648 53.4657 71.7288 53.0097 71.4568 52.7377C71.2008 52.4657 70.7368 52.3297 70.0648 52.3297H69.5608ZM78.2323 63.5377V48.6097C78.2323 48.2737 79.0403 48.1057 80.6563 48.1057C82.2883 48.1057 83.1043 48.2737 83.1043 48.6097V60.3697H86.8003C87.0883 60.3697 87.2883 60.7457 87.4003 61.4977C87.4483 61.8657 87.4723 62.2417 87.4723 62.6257C87.4723 63.0097 87.4483 63.4017 87.4003 63.8017C87.2723 64.5697 87.0643 64.9537 86.7763 64.9537H79.3843C79.0323 64.9537 78.7523 64.8097 78.5443 64.5217C78.3363 64.2337 78.2323 63.9057 78.2323 63.5377ZM99.942 65.0017C98.55 65.0017 97.798 64.7777 97.686 64.3297L96.894 61.2337H93.078L92.382 64.2097C92.286 64.7057 91.518 64.9537 90.078 64.9537C89.31 64.9537 88.742 64.9137 88.374 64.8337C88.006 64.7377 87.822 64.6657 87.822 64.6177L92.07 48.3697C92.07 48.2417 93.166 48.1777 95.358 48.1777C97.55 48.1777 98.646 48.2417 98.646 48.3697L102.798 64.6417C102.798 64.7537 102.43 64.8417 101.694 64.9057C100.958 64.9697 100.374 65.0017 99.942 65.0017ZM93.678 58.1857H96.198L95.118 53.2177H94.974L93.678 58.1857ZM111.54 48.9457C111.748 48.3857 112.772 48.1057 114.612 48.1057C115.076 48.1057 115.62 48.1377 116.244 48.2017C116.884 48.2657 117.18 48.3457 117.132 48.4417L112.14 58.4737V64.3297C112.14 64.6017 111.7 64.7937 110.82 64.9057C110.372 64.9697 109.932 65.0017 109.5 65.0017C109.068 65.0017 108.636 64.9777 108.204 64.9297C107.324 64.8177 106.884 64.6177 106.884 64.3297V58.6177L101.724 48.4897C101.66 48.3937 101.988 48.3057 102.708 48.2257C103.428 48.1297 104.036 48.0817 104.532 48.0817C106.5 48.0817 107.58 48.3697 107.772 48.9457L109.524 53.8417L111.54 48.9457Z"/>
</mask>
<path d="M67.1128 65.0017C65.6568 65.0017 64.9288 64.8417 64.9288 64.5217V48.9697C64.9288 48.4257 65.1768 48.1537 65.6728 48.1537H69.8968C72.2648 48.1537 73.9688 48.6417 75.0088 49.6177C76.0648 50.5937 76.5928 52.0097 76.5928 53.8657C76.5928 55.4017 76.0968 56.8097 75.1048 58.0897C74.6088 58.7297 73.8808 59.2417 72.9208 59.6257C71.9608 60.0097 70.8408 60.2017 69.5608 60.2017V64.4977C69.5608 64.6897 69.2568 64.8257 68.6488 64.9057C68.0568 64.9697 67.5448 65.0017 67.1128 65.0017ZM69.5608 52.3297V56.1217H69.8728C70.4328 56.1217 70.9048 55.9457 71.2888 55.5937C71.6728 55.2417 71.8648 54.7457 71.8648 54.1057C71.8648 53.4657 71.7288 53.0097 71.4568 52.7377C71.2008 52.4657 70.7368 52.3297 70.0648 52.3297H69.5608ZM78.2323 63.5377V48.6097C78.2323 48.2737 79.0403 48.1057 80.6563 48.1057C82.2883 48.1057 83.1043 48.2737 83.1043 48.6097V60.3697H86.8003C87.0883 60.3697 87.2883 60.7457 87.4003 61.4977C87.4483 61.8657 87.4723 62.2417 87.4723 62.6257C87.4723 63.0097 87.4483 63.4017 87.4003 63.8017C87.2723 64.5697 87.0643 64.9537 86.7763 64.9537H79.3843C79.0323 64.9537 78.7523 64.8097 78.5443 64.5217C78.3363 64.2337 78.2323 63.9057 78.2323 63.5377ZM99.942 65.0017C98.55 65.0017 97.798 64.7777 97.686 64.3297L96.894 61.2337H93.078L92.382 64.2097C92.286 64.7057 91.518 64.9537 90.078 64.9537C89.31 64.9537 88.742 64.9137 88.374 64.8337C88.006 64.7377 87.822 64.6657 87.822 64.6177L92.07 48.3697C92.07 48.2417 93.166 48.1777 95.358 48.1777C97.55 48.1777 98.646 48.2417 98.646 48.3697L102.798 64.6417C102.798 64.7537 102.43 64.8417 101.694 64.9057C100.958 64.9697 100.374 65.0017 99.942 65.0017ZM93.678 58.1857H96.198L95.118 53.2177H94.974L93.678 58.1857ZM111.54 48.9457C111.748 48.3857 112.772 48.1057 114.612 48.1057C115.076 48.1057 115.62 48.1377 116.244 48.2017C116.884 48.2657 117.18 48.3457 117.132 48.4417L112.14 58.4737V64.3297C112.14 64.6017 111.7 64.7937 110.82 64.9057C110.372 64.9697 109.932 65.0017 109.5 65.0017C109.068 65.0017 108.636 64.9777 108.204 64.9297C107.324 64.8177 106.884 64.6177 106.884 64.3297V58.6177L101.724 48.4897C101.66 48.3937 101.988 48.3057 102.708 48.2257C103.428 48.1297 104.036 48.0817 104.532 48.0817C106.5 48.0817 107.58 48.3697 107.772 48.9457L109.524 53.8417L111.54 48.9457Z" fill="white"/>
<path d="M75.0088 49.6177L74.3245 50.3469L74.3301 50.352L75.0088 49.6177ZM75.1048 58.0897L75.8952 58.7022L75.8952 58.7022L75.1048 58.0897ZM72.9208 59.6257L72.5494 58.6972L72.5494 58.6972L72.9208 59.6257ZM69.5608 60.2017V59.2017H68.5608V60.2017H69.5608ZM68.6488 64.9057L68.7563 65.8999L68.7678 65.8986L68.7793 65.8971L68.6488 64.9057ZM69.5608 52.3297V51.3297H68.5608V52.3297H69.5608ZM69.5608 56.1217H68.5608V57.1217H69.5608V56.1217ZM71.2888 55.5937L71.9646 56.3308L71.9646 56.3308L71.2888 55.5937ZM71.4568 52.7377L70.7286 53.423L70.739 53.4341L70.7497 53.4448L71.4568 52.7377ZM67.1128 65.0017V64.0017C66.4024 64.0017 65.9445 63.961 65.6895 63.905C65.5545 63.8753 65.5568 63.8579 65.6158 63.8968C65.6934 63.948 65.9288 64.1504 65.9288 64.5217H64.9288H63.9288C63.9288 65.053 64.2553 65.3954 64.5149 65.5665C64.7559 65.7254 65.0311 65.808 65.2602 65.8584C65.7332 65.9623 66.3672 66.0017 67.1128 66.0017V65.0017ZM64.9288 64.5217H65.9288V48.9697H64.9288H63.9288V64.5217H64.9288ZM64.9288 48.9697H65.9288C65.9288 48.8301 65.9626 48.9121 65.8538 49.0314C65.7991 49.0914 65.7372 49.1269 65.6907 49.1439C65.6499 49.1588 65.6376 49.1537 65.6728 49.1537V48.1537V47.1537C65.2457 47.1537 64.7487 47.2751 64.3759 47.6839C64.019 48.0753 63.9288 48.5652 63.9288 48.9697H64.9288ZM65.6728 48.1537V49.1537H69.8968V48.1537V47.1537H65.6728V48.1537ZM69.8968 48.1537V49.1537C72.1681 49.1537 73.5595 49.6289 74.3245 50.3469L75.0088 49.6177L75.6931 48.8885C74.3782 47.6545 72.3615 47.1537 69.8968 47.1537V48.1537ZM75.0088 49.6177L74.3301 50.352C75.1258 51.0875 75.5928 52.2028 75.5928 53.8657H76.5928H77.5928C77.5928 51.8166 77.0039 50.0999 75.6876 48.8833L75.0088 49.6177ZM76.5928 53.8657H75.5928C75.5928 55.1673 75.1785 56.3622 74.3144 57.4771L75.1048 58.0897L75.8952 58.7022C77.0152 57.2572 77.5928 55.636 77.5928 53.8657H76.5928ZM75.1048 58.0897L74.3144 57.4771C73.9538 57.9425 73.3891 58.3613 72.5494 58.6972L72.9208 59.6257L73.2922 60.5542C74.3725 60.122 75.2639 59.5169 75.8952 58.7022L75.1048 58.0897ZM72.9208 59.6257L72.5494 58.6972C71.732 59.0242 70.7429 59.2017 69.5608 59.2017V60.2017V61.2017C70.9388 61.2017 72.1897 60.9952 73.2922 60.5542L72.9208 59.6257ZM69.5608 60.2017H68.5608V64.4977H69.5608H70.5608V60.2017H69.5608ZM69.5608 64.4977H68.5608C68.5608 64.2525 68.6672 64.0628 68.7704 63.9514C68.8166 63.9015 68.8583 63.8708 68.883 63.8546C68.9079 63.8382 68.9236 63.8312 68.9245 63.8309C68.9257 63.8303 68.9181 63.8338 68.8989 63.8399C68.88 63.846 68.8533 63.8536 68.8174 63.8621C68.7446 63.8793 68.6464 63.8974 68.5184 63.9142L68.6488 64.9057L68.7793 65.8971C69.113 65.8532 69.4556 65.7843 69.7412 65.6565C69.9712 65.5536 70.5608 65.2242 70.5608 64.4977H69.5608ZM68.6488 64.9057L68.5413 63.9115C67.9728 63.9729 67.4984 64.0017 67.1128 64.0017V65.0017V66.0017C67.5913 66.0017 68.1409 65.9664 68.7563 65.8999L68.6488 64.9057ZM69.5608 52.3297H68.5608V56.1217H69.5608H70.5608V52.3297H69.5608ZM69.5608 56.1217V57.1217H69.8728V56.1217V55.1217H69.5608V56.1217ZM69.8728 56.1217V57.1217C70.6625 57.1217 71.3816 56.8652 71.9646 56.3308L71.2888 55.5937L70.6131 54.8565C70.4281 55.0261 70.2031 55.1217 69.8728 55.1217V56.1217ZM71.2888 55.5937L71.9646 56.3308C72.6011 55.7473 72.8648 54.957 72.8648 54.1057H71.8648H70.8648C70.8648 54.5344 70.7446 54.736 70.6131 54.8565L71.2888 55.5937ZM71.8648 54.1057H72.8648C72.8648 53.367 72.7152 52.5819 72.1639 52.0306L71.4568 52.7377L70.7497 53.4448C70.7436 53.4387 70.7729 53.4634 70.8045 53.5695C70.8372 53.6791 70.8648 53.8514 70.8648 54.1057H71.8648ZM71.4568 52.7377L72.185 52.0523C71.6355 51.4685 70.8095 51.3297 70.0648 51.3297V52.3297V53.3297C70.3397 53.3297 70.5227 53.3582 70.6356 53.3913C70.746 53.4237 70.7534 53.4494 70.7286 53.423L71.4568 52.7377ZM70.0648 52.3297V51.3297H69.5608V52.3297V53.3297H70.0648V52.3297ZM83.1043 60.3697H82.1043V61.3697H83.1043V60.3697ZM87.4003 61.4977L88.3919 61.3683L88.3908 61.3593L88.3894 61.3504L87.4003 61.4977ZM87.4003 63.8017L88.3867 63.9661L88.3905 63.9435L88.3932 63.9208L87.4003 63.8017ZM78.5443 64.5217L79.355 63.9362L79.355 63.9362L78.5443 64.5217ZM78.2323 63.5377H79.2323V48.6097H78.2323H77.2323V63.5377H78.2323ZM78.2323 48.6097H79.2323C79.2323 49.0036 78.971 49.2015 78.9131 49.2376C78.8665 49.2667 78.8835 49.2437 79.0419 49.2107C79.3423 49.1483 79.8649 49.1057 80.6563 49.1057V48.1057V47.1057C79.8318 47.1057 79.1423 47.1471 78.6348 47.2526C78.3892 47.3037 78.1031 47.3857 77.8546 47.5407C77.5947 47.7028 77.2323 48.0477 77.2323 48.6097H78.2323ZM80.6563 48.1057V49.1057C81.456 49.1057 81.9853 49.1483 82.2907 49.2111C82.4517 49.2443 82.4709 49.2678 82.4258 49.24C82.3709 49.2061 82.1043 49.0084 82.1043 48.6097H83.1043H84.1043C84.1043 48.0429 83.7357 47.6983 83.4768 47.5384C83.2278 47.3846 82.941 47.3031 82.694 47.2522C82.1833 47.1471 81.4887 47.1057 80.6563 47.1057V48.1057ZM83.1043 48.6097H82.1043V60.3697H83.1043H84.1043V48.6097H83.1043ZM83.1043 60.3697V61.3697H86.8003V60.3697V59.3697H83.1043V60.3697ZM86.8003 60.3697V61.3697C86.6357 61.3697 86.4904 61.3101 86.3895 61.2323C86.3033 61.1659 86.2763 61.1079 86.2835 61.1213C86.2891 61.1319 86.3098 61.176 86.336 61.2708C86.3615 61.363 86.3876 61.486 86.4112 61.645L87.4003 61.4977L88.3894 61.3504C88.3277 60.9357 88.2292 60.5204 88.0492 60.1821C87.8679 59.8412 87.4761 59.3697 86.8003 59.3697V60.3697ZM87.4003 61.4977L86.4087 61.627C86.4509 61.9507 86.4723 62.2834 86.4723 62.6257H87.4723H88.4723C88.4723 62.1999 88.4457 61.7807 88.3919 61.3683L87.4003 61.4977ZM87.4723 62.6257H86.4723C86.4723 62.968 86.4509 63.3201 86.4075 63.6825L87.4003 63.8017L88.3932 63.9208C88.4457 63.4832 88.4723 63.0514 88.4723 62.6257H87.4723ZM87.4003 63.8017L86.4139 63.6373C86.3866 63.801 86.3576 63.9289 86.3293 64.0257C86.3004 64.1249 86.2774 64.174 86.269 64.1894C86.259 64.208 86.283 64.1545 86.3652 64.091C86.4618 64.0161 86.6066 63.9537 86.7763 63.9537V64.9537V65.9537C87.4564 65.9537 87.8477 65.4742 88.0276 65.142C88.2103 64.8047 88.3164 64.3878 88.3867 63.9661L87.4003 63.8017ZM86.7763 64.9537V63.9537H79.3843V64.9537V65.9537H86.7763V64.9537ZM79.3843 64.9537V63.9537C79.3647 63.9537 79.3562 63.9517 79.356 63.9517C79.3558 63.9516 79.3571 63.9519 79.3594 63.9528C79.3618 63.9536 79.3647 63.9548 79.3677 63.9564C79.3743 63.9598 79.3775 63.9626 79.3767 63.9619C79.3755 63.9609 79.3677 63.9538 79.355 63.9362L78.5443 64.5217L77.7337 65.1072C78.1276 65.6526 78.7077 65.9537 79.3843 65.9537V64.9537ZM78.5443 64.5217L79.355 63.9362C79.2747 63.825 79.2323 63.7035 79.2323 63.5377H78.2323H77.2323C77.2323 64.1078 77.3979 64.6423 77.7337 65.1072L78.5443 64.5217ZM97.686 64.3297L98.6562 64.0871L98.6548 64.0818L97.686 64.3297ZM96.894 61.2337L97.8628 60.9858L97.6704 60.2337H96.894V61.2337ZM93.078 61.2337V60.2337H92.2849L92.1043 61.0059L93.078 61.2337ZM92.382 64.2097L91.4083 63.9819L91.4039 64.0007L91.4002 64.0197L92.382 64.2097ZM88.374 64.8337L88.1216 65.8013L88.1415 65.8065L88.1616 65.8109L88.374 64.8337ZM87.822 64.6177L86.8545 64.3647L86.822 64.4891V64.6177H87.822ZM92.07 48.3697L93.0375 48.6226L93.07 48.4982V48.3697H92.07ZM98.646 48.3697H97.646V48.4952L97.6771 48.6169L98.646 48.3697ZM102.798 64.6417H103.798V64.5161L103.767 64.3944L102.798 64.6417ZM101.694 64.9057L101.607 63.9094L101.694 64.9057ZM93.678 58.1857L92.7104 57.9333L92.3837 59.1857H93.678V58.1857ZM96.198 58.1857V59.1857H97.4388L97.1752 57.9732L96.198 58.1857ZM95.118 53.2177L96.0952 53.0052L95.924 52.2177H95.118V53.2177ZM94.974 53.2177V52.2177H94.2014L94.0064 52.9653L94.974 53.2177ZM99.942 65.0017V64.0017C99.2803 64.0017 98.8577 63.9462 98.6195 63.8753C98.3396 63.7919 98.5791 63.7788 98.6562 64.0871L97.686 64.3297L96.7159 64.5722C96.905 65.3285 97.5764 65.6514 98.0485 65.7921C98.5624 65.9451 99.2117 66.0017 99.942 66.0017V65.0017ZM97.686 64.3297L98.6548 64.0818L97.8628 60.9858L96.894 61.2337L95.9252 61.4815L96.7172 64.5775L97.686 64.3297ZM96.894 61.2337V60.2337H93.078V61.2337V62.2337H96.894V61.2337ZM93.078 61.2337L92.1043 61.0059L91.4083 63.9819L92.382 64.2097L93.3557 64.4374L94.0517 61.4614L93.078 61.2337ZM92.382 64.2097L91.4002 64.0197C91.4566 63.7285 91.6851 63.7326 91.4267 63.8161C91.1909 63.8922 90.7619 63.9537 90.078 63.9537V64.9537V65.9537C90.8341 65.9537 91.5091 65.8911 92.0413 65.7193C92.551 65.5547 93.2115 65.1868 93.3638 64.3997L92.382 64.2097ZM90.078 64.9537V63.9537C89.3238 63.9537 88.8448 63.9127 88.5864 63.8565L88.374 64.8337L88.1616 65.8109C88.6393 65.9147 89.2962 65.9537 90.078 65.9537V64.9537ZM88.374 64.8337L88.6264 63.8661C88.4525 63.8207 88.3603 63.7905 88.3244 63.7764C88.3002 63.767 88.3403 63.7798 88.4028 63.8206C88.4328 63.8401 88.5112 63.8936 88.5919 63.9883C88.6687 64.0785 88.822 64.2951 88.822 64.6177H87.822H86.822C86.822 64.9523 86.9811 65.1816 87.0694 65.2853C87.1616 65.3935 87.2573 65.4612 87.3102 65.4958C87.4187 65.5665 87.5278 65.6124 87.5956 65.6389C87.7437 65.6969 87.9275 65.7507 88.1216 65.8013L88.374 64.8337ZM87.822 64.6177L88.7895 64.8706L93.0375 48.6226L92.07 48.3697L91.1025 48.1167L86.8545 64.3647L87.822 64.6177ZM92.07 48.3697H93.07C93.07 48.7553 92.8555 48.999 92.7418 49.0987C92.6314 49.1953 92.5294 49.2382 92.4998 49.2503C92.4331 49.2776 92.4 49.2791 92.4481 49.2707C92.5265 49.2569 92.6854 49.2394 92.9503 49.224C93.4681 49.1937 94.2664 49.1777 95.358 49.1777V48.1777V47.1777C94.2577 47.1777 93.4119 47.1936 92.8337 47.2274C92.5507 47.2439 92.2985 47.2664 92.103 47.3007C92.014 47.3163 91.8781 47.3438 91.743 47.399C91.6792 47.4251 91.5514 47.4825 91.424 47.5942C91.2931 47.7088 91.07 47.9681 91.07 48.3697H92.07ZM95.358 48.1777V49.1777C96.4497 49.1777 97.2479 49.1937 97.7657 49.224C98.0307 49.2394 98.1895 49.2569 98.268 49.2707C98.316 49.2791 98.2829 49.2776 98.2163 49.2503C98.1867 49.2382 98.0846 49.1953 97.9743 49.0987C97.8605 48.999 97.646 48.7553 97.646 48.3697H98.646H99.646C99.646 47.9681 99.423 47.7088 99.2921 47.5942C99.1646 47.4825 99.0369 47.4251 98.973 47.399C98.8379 47.3438 98.702 47.3163 98.6131 47.3007C98.4175 47.2664 98.1654 47.2439 97.8823 47.2274C97.3041 47.1936 96.4584 47.1777 95.358 47.1777V48.1777ZM98.646 48.3697L97.6771 48.6169L101.829 64.8889L102.798 64.6417L103.767 64.3944L99.615 48.1224L98.646 48.3697ZM102.798 64.6417H101.798C101.798 64.3585 101.92 64.1481 102.026 64.0271C102.121 63.917 102.216 63.8618 102.252 63.8425C102.321 63.8047 102.353 63.8039 102.289 63.8191C102.18 63.8454 101.963 63.8785 101.607 63.9094L101.694 64.9057L101.781 65.9019C102.161 65.8689 102.497 65.826 102.755 65.7643C102.875 65.7354 103.045 65.6876 103.207 65.5998C103.296 65.5509 103.798 65.27 103.798 64.6417H102.798ZM101.694 64.9057L101.607 63.9094C100.883 63.9724 100.332 64.0017 99.942 64.0017V65.0017V66.0017C100.416 66.0017 101.033 65.9669 101.781 65.9019L101.694 64.9057ZM93.678 58.1857V59.1857H96.198V58.1857V57.1857H93.678V58.1857ZM96.198 58.1857L97.1752 57.9732L96.0952 53.0052L95.118 53.2177L94.1408 53.4301L95.2208 58.3981L96.198 58.1857ZM95.118 53.2177V52.2177H94.974V53.2177V54.2177H95.118V53.2177ZM94.974 53.2177L94.0064 52.9653L92.7104 57.9333L93.678 58.1857L94.6456 58.4381L95.9416 53.4701L94.974 53.2177ZM111.54 48.9457L112.464 49.3264L112.471 49.3103L112.477 49.2939L111.54 48.9457ZM116.244 48.2017L116.142 49.1965L116.144 49.1967L116.244 48.2017ZM117.132 48.4417L116.237 47.9945L116.236 47.9962L117.132 48.4417ZM112.14 58.4737L111.244 58.0282L111.14 58.2386V58.4737H112.14ZM110.82 64.9057L110.693 63.9137L110.686 63.9146L110.678 63.9157L110.82 64.9057ZM108.204 64.9297L108.077 65.9217L108.085 65.9227L108.093 65.9236L108.204 64.9297ZM106.884 58.6177H107.884V58.3776L107.775 58.1637L106.884 58.6177ZM101.724 48.4897L102.615 48.0357L102.588 47.9836L102.556 47.935L101.724 48.4897ZM102.708 48.2257L102.818 49.2196L102.829 49.2183L102.84 49.2169L102.708 48.2257ZM107.772 48.9457L106.823 49.2619L106.826 49.2723L106.83 49.2826L107.772 48.9457ZM109.524 53.8417L108.582 54.1786L109.458 56.6269L110.448 54.2224L109.524 53.8417ZM111.54 48.9457L112.477 49.2939C112.405 49.4877 112.292 49.3993 112.727 49.2803C113.113 49.1748 113.726 49.1057 114.612 49.1057V48.1057V47.1057C113.657 47.1057 112.838 47.1765 112.2 47.3511C111.611 47.512 110.882 47.8436 110.602 48.5975L111.54 48.9457ZM114.612 48.1057V49.1057C115.032 49.1057 115.541 49.1348 116.142 49.1965L116.244 48.2017L116.346 47.2069C115.699 47.1405 115.119 47.1057 114.612 47.1057V48.1057ZM116.244 48.2017L116.144 49.1967C116.455 49.2278 116.621 49.2577 116.685 49.275C116.736 49.289 116.645 49.2736 116.524 49.1882C116.461 49.1434 116.305 49.02 116.209 48.7882C116.094 48.5093 116.125 48.2185 116.237 47.9945L117.132 48.4417L118.026 48.8889C118.15 48.6408 118.182 48.3266 118.058 48.0247C117.953 47.7698 117.776 47.624 117.682 47.5572C117.499 47.4277 117.303 47.3703 117.207 47.3443C116.975 47.2816 116.672 47.2395 116.343 47.2066L116.244 48.2017ZM117.132 48.4417L116.236 47.9962L111.244 58.0282L112.14 58.4737L113.035 58.9192L118.027 48.8872L117.132 48.4417ZM112.14 58.4737H111.14V64.3297H112.14H113.14V58.4737H112.14ZM112.14 64.3297H111.14C111.14 64.0974 111.243 63.9235 111.332 63.8306C111.403 63.7553 111.453 63.7424 111.41 63.7611C111.374 63.7767 111.3 63.8029 111.173 63.8322C111.048 63.8608 110.89 63.8887 110.693 63.9137L110.82 64.9057L110.946 65.8977C111.415 65.838 111.858 65.7478 112.21 65.5942C112.498 65.4684 113.14 65.1084 113.14 64.3297H112.14ZM110.82 64.9057L110.678 63.9157C110.275 63.9733 109.882 64.0017 109.5 64.0017V65.0017V66.0017C109.981 66.0017 110.468 65.966 110.961 65.8956L110.82 64.9057ZM109.5 65.0017V64.0017C109.105 64.0017 108.71 63.9797 108.314 63.9358L108.204 64.9297L108.093 65.9236C108.562 65.9756 109.031 66.0017 109.5 66.0017V65.0017ZM108.204 64.9297L108.33 63.9377C108.135 63.9129 107.978 63.8849 107.856 63.856C107.731 63.8264 107.66 63.8001 107.627 63.7853C107.589 63.7676 107.639 63.7823 107.709 63.8595C107.795 63.9546 107.884 64.1194 107.884 64.3297H106.884H105.884C105.884 65.0889 106.484 65.4627 106.8 65.606C107.158 65.7687 107.606 65.8617 108.077 65.9217L108.204 64.9297ZM106.884 64.3297H107.884V58.6177H106.884H105.884V64.3297H106.884ZM106.884 58.6177L107.775 58.1637L102.615 48.0357L101.724 48.4897L100.833 48.9436L105.993 59.0716L106.884 58.6177ZM101.724 48.4897L102.556 47.935C102.693 48.1406 102.78 48.4584 102.658 48.7942C102.561 49.0627 102.379 49.199 102.321 49.2396C102.202 49.3225 102.115 49.3353 102.181 49.3175C102.267 49.2944 102.465 49.2588 102.818 49.2196L102.708 48.2257L102.597 47.2318C102.23 47.2726 101.904 47.321 101.663 47.3858C101.565 47.4121 101.362 47.4699 101.177 47.5988C101.086 47.6623 100.883 47.8219 100.778 48.1139C100.648 48.4731 100.738 48.8147 100.892 49.0444L101.724 48.4897ZM102.708 48.2257L102.84 49.2169C103.534 49.1243 104.095 49.0817 104.532 49.0817V48.0817V47.0817C103.976 47.0817 103.321 47.135 102.575 47.2344L102.708 48.2257ZM104.532 48.0817V49.0817C105.484 49.0817 106.144 49.1531 106.56 49.2639C107.039 49.3917 106.898 49.486 106.823 49.2619L107.772 48.9457L108.72 48.6294C108.454 47.8293 107.676 47.4916 107.075 47.3314C106.411 47.1542 105.547 47.0817 104.532 47.0817V48.0817ZM107.772 48.9457L106.83 49.2826L108.582 54.1786L109.524 53.8417L110.465 53.5048L108.713 48.6088L107.772 48.9457ZM109.524 53.8417L110.448 54.2224L112.464 49.3264L111.54 48.9457L110.615 48.5649L108.599 53.4609L109.524 53.8417Z" fill="black" mask="url(#path-3-outside-1_2006_1208)"/>
</g>
<mask id="mask0_2006_1208" style="mask-type:alpha" maskUnits="userSpaceOnUse" x="2" y="30" width="177" height="57">
<path d="M6.92958 32.9359C7.07071 31.3913 8.36605 30.2089 9.91713 30.2089H175.363C177.128 30.2089 178.511 31.7246 178.351 33.4819L173.72 84.1594C173.579 85.704 172.284 86.8864 170.733 86.8864H5.28663C3.52198 86.8864 2.13849 85.3708 2.29906 83.6134L6.92958 32.9359Z" fill="#EFC609"/>
</mask>
<g mask="url(#mask0_2006_1208)">
<rect x="2" y="28.0131" width="179.228" height="6.05811" fill="#FBEF44"/>
<rect x="-0.578613" y="82.3725" width="179.228" height="6.05811" fill="#A6552D"/>
<path d="M180.877 40.6089L171.428 29.0131H180.877V40.6089Z" fill="#FFFEA3"/>
</g>
<defs>
<filter id="filter0_dd_2006_1208" x="0.686279" y="15.4085" width="180.277" height="76.0774" filterUnits="userSpaceOnUse" color-interpolation-filters="sRGB">
<feFlood flood-opacity="0" result="BackgroundImageFix"/>
<feColorMatrix in="SourceAlpha" type="matrix" values="0 0 0 0 0 0 0 0 0 0 0 0 0 0 0 0 0 0 127 0" result="hardAlpha"/>
<feOffset dy="3"/>
<feComposite in2="hardAlpha" operator="out"/>
<feColorMatrix type="matrix" values="0 0 0 0 0 0 0 0 0 0 0 0 0 0 0 0 0 0 0.5 0"/>
<feBlend mode="normal" in2="BackgroundImageFix" result="effect1_dropShadow_2006_1208"/>
<feColorMatrix in="SourceAlpha" type="matrix" values="0 0 0 0 0 0 0 0 0 0 0 0 0 0 0 0 0 0 127 0" result="hardAlpha"/>
<feOffset dx="1" dy="-13.2"/>
<feComposite in2="hardAlpha" operator="out"/>
<feColorMatrix type="matrix" values="0 0 0 0 0 0 0 0 0 0 0 0 0 0 0 0 0 0 1 0"/>
<feBlend mode="normal" in2="effect1_dropShadow_2006_1208" result="effect2_dropShadow_2006_1208"/>
<feBlend mode="normal" in="SourceGraphic" in2="effect2_dropShadow_2006_1208" result="shape"/>
</filter>
<filter id="filter1_d_2006_1208" x="63.9288" y="47.0817" width="54.2079" height="20.92" filterUnits="userSpaceOnUse" color-interpolation-filters="sRGB">
<feFlood flood-opacity="0" result="BackgroundImageFix"/>
<feColorMatrix in="SourceAlpha" type="matrix" values="0 0 0 0 0 0 0 0 0 0 0 0 0 0 0 0 0 0 127 0" result="hardAlpha"/>
<feOffset dy="2"/>
<feComposite in2="hardAlpha" operator="out"/>
<feColorMatrix type="matrix" values="0 0 0 0 0 0 0 0 0 0 0 0 0 0 0 0 0 0 1 0"/>
<feBlend mode="normal" in2="BackgroundImageFix" result="effect1_dropShadow_2006_1208"/>
<feBlend mode="normal" in="SourceGraphic" in2="effect1_dropShadow_2006_1208" result="shape"/>
</filter>
</defs>
</svg>
