<svg width="70" height="23" viewBox="0 0 70 23" fill="none" xmlns="http://www.w3.org/2000/svg">
<path d="M14.4433 2.92455C14.4828 2.40302 14.9175 2 15.4405 2H68.9215C69.5035 2 69.9625 2.49509 69.9186 3.07545L68.5567 21.0754C68.5172 21.597 68.0825 22 67.5595 22H14.0785C13.4965 22 13.0375 21.5049 13.0814 20.9246L14.4433 2.92455Z" fill="black"/>
<path d="M38.4106 6.47125C38.6006 6.47125 38.6956 6.88625 38.6956 7.71625C38.6956 7.97625 38.6706 8.28625 38.6206 8.64625C38.5806 8.99625 38.5006 9.17125 38.3806 9.17125H35.4556L35.4406 10.2663H35.9356C37.0056 10.2663 37.8006 10.5763 38.3206 11.1963C38.8506 11.8163 39.1156 12.6363 39.1156 13.6563C39.1156 14.6763 38.7556 15.5113 38.0356 16.1613C37.3156 16.8013 36.3906 17.1213 35.2606 17.1213C34.1306 17.1213 33.3056 16.9613 32.7856 16.6413C32.7056 16.5113 32.6656 16.3113 32.6656 16.0413C32.6656 15.7613 32.7056 15.3713 32.7856 14.8713C32.8656 14.3613 32.9756 14.1063 33.1156 14.1063C33.1256 14.1063 33.1556 14.1263 33.2056 14.1663C33.9156 14.4563 34.4556 14.6013 34.8256 14.6013C35.2056 14.6013 35.5156 14.5013 35.7556 14.3013C36.0056 14.0913 36.1306 13.8263 36.1306 13.5063C36.1306 12.7063 35.7006 12.3063 34.8406 12.3063L33.5506 12.3213C33.4506 12.3413 33.3506 12.3013 33.2506 12.2013C33.1506 12.0913 33.1006 11.9513 33.1006 11.7813V7.08625C33.1006 6.67625 33.2506 6.47125 33.5506 6.47125H38.4106ZM41.5518 14.3613C42.3018 14.5113 42.8668 14.5863 43.2468 14.5863C43.6268 14.5863 43.9668 14.4663 44.2668 14.2263C44.5768 13.9863 44.7568 13.6113 44.8068 13.1013C44.3068 13.2413 43.9068 13.3113 43.6068 13.3113C42.5568 13.3113 41.7468 13.0213 41.1768 12.4413C40.6068 11.8513 40.3218 11.0213 40.3218 9.95125C40.3218 8.87125 40.6468 7.99625 41.2968 7.32625C41.9568 6.65625 42.8568 6.32125 43.9968 6.32125C45.1368 6.32125 46.0318 6.72125 46.6818 7.52125C47.3418 8.32125 47.6718 9.50125 47.6718 11.0613C47.6718 13.0113 47.3218 14.5113 46.6218 15.5613C45.9318 16.6013 44.9018 17.1213 43.5318 17.1213C41.8318 17.1213 40.9818 16.8363 40.9818 16.2663C40.9818 15.9663 41.0418 15.5763 41.1618 15.0963C41.2818 14.6063 41.4118 14.3613 41.5518 14.3613ZM43.9668 9.02125C43.6468 9.02125 43.3968 9.12625 43.2168 9.33625C43.0468 9.53625 42.9618 9.79625 42.9618 10.1163C42.9618 10.4363 43.0618 10.6963 43.2618 10.8963C43.4718 11.0863 43.7368 11.1813 44.0568 11.1813C44.3768 11.1813 44.6368 11.1113 44.8368 10.9713C44.8368 10.2813 44.7718 9.78625 44.6418 9.48625C44.5118 9.17625 44.2868 9.02125 43.9668 9.02125ZM54.4582 9.35125C54.0582 9.13125 53.5932 9.02125 53.0632 9.02125C52.1332 9.02125 51.6032 9.62125 51.4732 10.8213C51.9932 10.6713 52.5482 10.5963 53.1382 10.5963C54.1482 10.5963 54.8882 10.8613 55.3582 11.3913C55.8382 11.9113 56.0782 12.6263 56.0782 13.5363C56.0782 14.6363 55.7382 15.5113 55.0582 16.1613C54.3782 16.8013 53.4582 17.1213 52.2982 17.1213C51.1382 17.1213 50.2282 16.7013 49.5682 15.8613C48.9082 15.0113 48.5782 13.8063 48.5782 12.2463C48.5782 10.4263 48.9882 8.98625 49.8082 7.92625C50.6382 6.85625 51.7132 6.32125 53.0332 6.32125C54.5332 6.32125 55.2832 6.62625 55.2832 7.23625C55.2832 7.67625 55.1432 8.14625 54.8632 8.64625C54.7632 8.86625 54.6282 9.10125 54.4582 9.35125ZM53.4832 13.5513C53.4832 13.2413 53.3882 12.9913 53.1982 12.8013C53.0082 12.6013 52.7182 12.5013 52.3282 12.5013C51.9482 12.5013 51.6582 12.5713 51.4582 12.7113C51.4482 12.8413 51.4432 12.9863 51.4432 13.1463C51.4432 13.3063 51.4582 13.5063 51.4882 13.7463C51.5282 13.9763 51.6282 14.2063 51.7882 14.4363C51.9582 14.6563 52.1782 14.7663 52.4482 14.7663C53.1382 14.7663 53.4832 14.3613 53.4832 13.5513Z" fill="white"/>
<g filter="url(#filter0_d_2007_1147)">
<circle cx="11" cy="11" r="10.65" fill="#F3B800" stroke="black" stroke-width="0.7"/>
<path d="M7.51877 2.47744C10.3402 1.30317 13.5015 2.36947 14.5793 4.85928C15.3369 6.60933 14.8622 8.59589 13.5344 10.0302C15.3412 10.2139 16.9347 11.2327 17.6389 12.8593C18.7167 15.3491 17.303 18.3198 14.4817 19.494C11.6603 20.6683 8.49905 19.6019 7.42111 17.1122C6.66342 15.362 7.13786 13.3747 8.46603 11.9403C6.65931 11.7566 5.06574 10.7387 4.36154 9.11221C3.28369 6.62239 4.69736 3.65174 7.51877 2.47744Z" fill="#F9E15C"/>
<circle cx="11" cy="11" r="7" fill="#5B0F2A"/>
<rect x="8" y="14.5" width="6" height="2" rx="0.2" fill="#F3B721"/>
<path d="M11 5.5C14.0376 5.5 17 8.23858 17 11C17 13.7614 16 15.5 11 15.5C6 15.5 5 13.7614 5 11C5 8.23858 7.96243 5.5 11 5.5ZM11.0869 12.8506C11.0484 12.7839 10.9516 12.7839 10.9131 12.8506L10.2207 14.0498C10.1822 14.1165 10.2306 14.2002 10.3076 14.2002H11.6924C11.7694 14.2002 11.8178 14.1165 11.7793 14.0498L11.0869 12.8506ZM8.25 10.5C7.2835 10.5 6.5 11.2835 6.5 12.25C6.5 13.2165 7.2835 14 8.25 14C9.2165 14 10 13.2165 10 12.25C10 11.2835 9.2165 10.5 8.25 10.5ZM13.75 10.5C12.7835 10.5 12 11.2835 12 12.25C12 13.2165 12.7835 14 13.75 14C14.7165 14 15.5 13.2165 15.5 12.25C15.5 11.2835 14.7165 10.5 13.75 10.5Z" fill="#F3B721"/>
<ellipse cx="8.42532" cy="8.0092" rx="2" ry="1.31413" transform="rotate(-33.4483 8.42532 8.0092)" fill="white"/>
</g>
<defs>
<filter id="filter0_d_2007_1147" x="0" y="0" width="22" height="23" filterUnits="userSpaceOnUse" color-interpolation-filters="sRGB">
<feFlood flood-opacity="0" result="BackgroundImageFix"/>
<feColorMatrix in="SourceAlpha" type="matrix" values="0 0 0 0 0 0 0 0 0 0 0 0 0 0 0 0 0 0 127 0" result="hardAlpha"/>
<feOffset dy="1"/>
<feComposite in2="hardAlpha" operator="out"/>
<feColorMatrix type="matrix" values="0 0 0 0 0 0 0 0 0 0 0 0 0 0 0 0 0 0 0.5 0"/>
<feBlend mode="normal" in2="BackgroundImageFix" result="effect1_dropShadow_2007_1147"/>
<feBlend mode="normal" in="SourceGraphic" in2="effect1_dropShadow_2007_1147" result="shape"/>
</filter>
</defs>
</svg>
