<svg width="22" height="23" viewBox="0 0 22 23" fill="none" xmlns="http://www.w3.org/2000/svg">
<g filter="url(#filter0_d_2012_619)">
<circle cx="11" cy="11" r="10.65" fill="#F3B800" stroke="black" stroke-width="0.7"/>
<path d="M7.51877 2.47744C10.3402 1.30317 13.5015 2.36947 14.5793 4.85928C15.3369 6.60933 14.8622 8.59589 13.5344 10.0302C15.3412 10.2139 16.9347 11.2327 17.6389 12.8593C18.7167 15.3491 17.303 18.3198 14.4817 19.494C11.6603 20.6683 8.49905 19.6019 7.42111 17.1122C6.66342 15.362 7.13786 13.3747 8.46603 11.9403C6.65931 11.7566 5.06574 10.7387 4.36154 9.11221C3.28369 6.62239 4.69736 3.65174 7.51877 2.47744Z" fill="#F9E15C"/>
<circle cx="11" cy="11" r="7" fill="#5B0F2A"/>
<rect x="8" y="14.5" width="6" height="2" rx="0.2" fill="#F3B721"/>
<path d="M11 5.5C14.0376 5.5 17 8.23858 17 11C17 13.7614 16 15.5 11 15.5C6 15.5 5 13.7614 5 11C5 8.23858 7.96243 5.5 11 5.5ZM11.0869 12.8506C11.0484 12.7839 10.9516 12.7839 10.9131 12.8506L10.2207 14.0498C10.1822 14.1165 10.2306 14.2002 10.3076 14.2002H11.6924C11.7694 14.2002 11.8178 14.1165 11.7793 14.0498L11.0869 12.8506ZM8.25 10.5C7.2835 10.5 6.5 11.2835 6.5 12.25C6.5 13.2165 7.2835 14 8.25 14C9.2165 14 10 13.2165 10 12.25C10 11.2835 9.2165 10.5 8.25 10.5ZM13.75 10.5C12.7835 10.5 12 11.2835 12 12.25C12 13.2165 12.7835 14 13.75 14C14.7165 14 15.5 13.2165 15.5 12.25C15.5 11.2835 14.7165 10.5 13.75 10.5Z" fill="#F3B721"/>
<ellipse cx="8.42532" cy="8.0092" rx="2" ry="1.31413" transform="rotate(-33.4483 8.42532 8.0092)" fill="white"/>
</g>
<defs>
<filter id="filter0_d_2012_619" x="0" y="0" width="22" height="23" filterUnits="userSpaceOnUse" color-interpolation-filters="sRGB">
<feFlood flood-opacity="0" result="BackgroundImageFix"/>
<feColorMatrix in="SourceAlpha" type="matrix" values="0 0 0 0 0 0 0 0 0 0 0 0 0 0 0 0 0 0 127 0" result="hardAlpha"/>
<feOffset dy="1"/>
<feComposite in2="hardAlpha" operator="out"/>
<feColorMatrix type="matrix" values="0 0 0 0 0 0 0 0 0 0 0 0 0 0 0 0 0 0 0.5 0"/>
<feBlend mode="normal" in2="BackgroundImageFix" result="effect1_dropShadow_2012_619"/>
<feBlend mode="normal" in="SourceGraphic" in2="effect1_dropShadow_2012_619" result="shape"/>
</filter>
</defs>
</svg>
