<svg width="475" height="114" viewBox="0 0 475 114" fill="none" xmlns="http://www.w3.org/2000/svg">
<path d="M0.868164 104.359V0.460938L375.198 0.462957L124.836 73.9934V68.956L0.868164 104.359Z" fill="#A90E0A"/>
<path d="M177.753 62.1657L447.329 0.462957L474.847 0.462957L471.303 10.2964L177.753 62.1657Z" fill="#A90E0A"/>
<path d="M23 107.654L0.869342 110.541L0.868164 113.016L23 107.654Z" fill="#A90E0A"/>
<g filter="url(#filter0_d_2029_602)">
<mask id="path-2-outside-1_2029_602" maskUnits="userSpaceOnUse" x="56.6577" y="12.2044" width="142.238" height="40.0506" fill="black">
<rect fill="white" x="56.6577" y="12.2044" width="142.238" height="40.0506"/>
<path d="M60.4293 40.6968L68.8497 16.3095C69.0836 15.6321 69.4378 15.1129 69.9123 14.7518C70.4248 14.3652 70.9673 14.1871 71.5398 14.2176L78.7106 14.5995C83.2622 14.8419 86.3374 16.1095 87.9362 18.4023C89.5637 20.6966 89.5729 24.1741 87.9636 28.8348C84.5206 38.8064 78.3048 43.5529 69.3162 43.0742L61.9736 42.6831C60.5137 42.6053 59.9989 41.9432 60.4293 40.6968ZM75.1854 22.2764L70.9892 34.4294C70.7928 34.9984 70.7094 35.3665 70.7391 35.5337C70.7782 35.6737 71.0125 35.7552 71.4419 35.7781C73.0163 35.8619 74.3961 35.3697 75.5812 34.3014C76.795 33.2347 77.8462 31.4142 78.7351 28.84C79.6332 26.2387 79.7886 24.5222 79.2011 23.6907C78.6423 22.8607 77.4469 22.3969 75.6148 22.2993L75.1854 22.2764ZM104.403 27.4751C104.947 27.5041 104.892 28.467 104.237 30.3638C104.04 30.9328 103.735 31.6064 103.32 32.3846C102.944 33.1372 102.584 33.5044 102.24 33.4861L96.7871 33.1956L95.3837 37.2602L103.285 37.681C103.771 37.7069 103.895 38.3205 103.655 39.522C103.563 40.0414 103.414 40.5991 103.208 41.1953C103.012 41.7643 102.668 42.5049 102.179 43.4171C101.689 44.3292 101.243 44.7746 100.843 44.7533L86.1574 43.9711C85.0696 43.9132 84.6708 43.4642 84.9608 42.6242L93.9847 16.4892C94.2279 15.7847 94.6787 15.45 95.3371 15.485L110.709 16.3038C111.31 16.3358 111.195 17.5576 110.362 19.9692C109.539 22.3538 108.826 23.53 108.225 23.498L100.282 23.0749L98.8642 27.1801L104.403 27.4751ZM129.867 17.3241C130.354 17.35 130.181 18.5688 129.348 20.9804C128.525 23.365 127.87 24.5443 127.383 24.5184L119.525 24.0998L117.925 28.7334L123.164 29.0124C123.651 29.0383 123.529 30.1081 122.799 32.2216C122.079 34.3081 121.49 35.3391 121.032 35.3148L115.75 35.0335L112.368 44.829C112.237 45.2084 111.609 45.4233 110.484 45.4737C109.378 45.5528 108.467 45.5733 107.751 45.5351L105.761 45.3464C104.415 45.1091 103.807 44.8008 103.938 44.4214L113.228 17.5142C113.378 17.0806 113.562 16.8007 113.781 16.6743C114.028 16.5495 114.338 16.497 114.71 16.5168L129.867 17.3241ZM142.398 29.4987C142.942 29.5277 142.886 30.4905 142.231 32.3873C142.035 32.9564 141.729 33.63 141.315 34.4082C140.938 35.1608 140.578 35.5279 140.235 35.5096L134.782 35.2192L133.378 39.2837L141.279 39.7045C141.766 39.7305 141.889 40.3441 141.649 41.5455C141.557 42.065 141.408 42.6227 141.202 43.2189C141.006 43.7879 140.663 44.5285 140.173 45.4406C139.683 46.3528 139.238 46.7982 138.837 46.7768L124.152 45.9947C123.064 45.9368 122.665 45.4878 122.955 44.6478L131.979 18.5128C132.222 17.8083 132.673 17.4736 133.332 17.5086L148.704 18.3274C149.305 18.3594 149.189 19.5812 148.356 21.9928C147.533 24.3773 146.821 25.5536 146.22 25.5216L138.276 25.0985L136.859 29.2037L142.398 29.4987ZM162.132 48.1003C159.642 47.9677 158.427 47.5167 158.489 46.7473L158.882 41.4285L152.055 41.0649L149.069 46.0386C148.607 46.8695 147.088 47.2163 144.512 47.0791C143.138 47.0059 142.145 46.884 141.534 46.7135C140.931 46.5158 140.644 46.3764 140.672 46.2951L157.773 19.1829C157.848 18.9662 159.847 18.9622 163.768 19.1711C167.69 19.38 169.614 19.5928 169.539 19.8096L167.452 47.7628C167.387 47.9525 166.677 48.0664 165.323 48.1047C163.968 48.1429 162.905 48.1415 162.132 48.1003ZM154.911 35.9601L159.419 36.2003L160.392 27.6838L160.134 27.67L154.911 35.9601ZM180.457 48.3312C180.27 48.8732 178.759 49.0687 175.925 48.9177C173.091 48.7668 171.768 48.4204 171.955 47.8784L179 27.4744L173.847 27.2C173.361 27.1741 173.232 26.5326 173.462 25.2754C173.582 24.6747 173.75 24.0627 173.965 23.4395C174.18 22.8163 174.434 22.2089 174.725 21.6173C175.356 20.3815 175.915 19.7766 176.402 19.8025L195.08 20.7973C195.567 20.8233 195.695 21.4648 195.465 22.7219C195.345 23.3226 195.178 23.9346 194.962 24.5578C194.747 25.1811 194.494 25.7885 194.202 26.38C193.571 27.6158 193.013 28.2207 192.526 28.1948L187.502 27.9272L180.457 48.3312Z"/>
</mask>
<path d="M60.4293 40.6968L68.8497 16.3095C69.0836 15.6321 69.4378 15.1129 69.9123 14.7518C70.4248 14.3652 70.9673 14.1871 71.5398 14.2176L78.7106 14.5995C83.2622 14.8419 86.3374 16.1095 87.9362 18.4023C89.5637 20.6966 89.5729 24.1741 87.9636 28.8348C84.5206 38.8064 78.3048 43.5529 69.3162 43.0742L61.9736 42.6831C60.5137 42.6053 59.9989 41.9432 60.4293 40.6968ZM75.1854 22.2764L70.9892 34.4294C70.7928 34.9984 70.7094 35.3665 70.7391 35.5337C70.7782 35.6737 71.0125 35.7552 71.4419 35.7781C73.0163 35.8619 74.3961 35.3697 75.5812 34.3014C76.795 33.2347 77.8462 31.4142 78.7351 28.84C79.6332 26.2387 79.7886 24.5222 79.2011 23.6907C78.6423 22.8607 77.4469 22.3969 75.6148 22.2993L75.1854 22.2764ZM104.403 27.4751C104.947 27.5041 104.892 28.467 104.237 30.3638C104.04 30.9328 103.735 31.6064 103.32 32.3846C102.944 33.1372 102.584 33.5044 102.24 33.4861L96.7871 33.1956L95.3837 37.2602L103.285 37.681C103.771 37.7069 103.895 38.3205 103.655 39.522C103.563 40.0414 103.414 40.5991 103.208 41.1953C103.012 41.7643 102.668 42.5049 102.179 43.4171C101.689 44.3292 101.243 44.7746 100.843 44.7533L86.1574 43.9711C85.0696 43.9132 84.6708 43.4642 84.9608 42.6242L93.9847 16.4892C94.2279 15.7847 94.6787 15.45 95.3371 15.485L110.709 16.3038C111.31 16.3358 111.195 17.5576 110.362 19.9692C109.539 22.3538 108.826 23.53 108.225 23.498L100.282 23.0749L98.8642 27.1801L104.403 27.4751ZM129.867 17.3241C130.354 17.35 130.181 18.5688 129.348 20.9804C128.525 23.365 127.87 24.5443 127.383 24.5184L119.525 24.0998L117.925 28.7334L123.164 29.0124C123.651 29.0383 123.529 30.1081 122.799 32.2216C122.079 34.3081 121.49 35.3391 121.032 35.3148L115.75 35.0335L112.368 44.829C112.237 45.2084 111.609 45.4233 110.484 45.4737C109.378 45.5528 108.467 45.5733 107.751 45.5351L105.761 45.3464C104.415 45.1091 103.807 44.8008 103.938 44.4214L113.228 17.5142C113.378 17.0806 113.562 16.8007 113.781 16.6743C114.028 16.5495 114.338 16.497 114.71 16.5168L129.867 17.3241ZM142.398 29.4987C142.942 29.5277 142.886 30.4905 142.231 32.3873C142.035 32.9564 141.729 33.63 141.315 34.4082C140.938 35.1608 140.578 35.5279 140.235 35.5096L134.782 35.2192L133.378 39.2837L141.279 39.7045C141.766 39.7305 141.889 40.3441 141.649 41.5455C141.557 42.065 141.408 42.6227 141.202 43.2189C141.006 43.7879 140.663 44.5285 140.173 45.4406C139.683 46.3528 139.238 46.7982 138.837 46.7768L124.152 45.9947C123.064 45.9368 122.665 45.4878 122.955 44.6478L131.979 18.5128C132.222 17.8083 132.673 17.4736 133.332 17.5086L148.704 18.3274C149.305 18.3594 149.189 19.5812 148.356 21.9928C147.533 24.3773 146.821 25.5536 146.22 25.5216L138.276 25.0985L136.859 29.2037L142.398 29.4987ZM162.132 48.1003C159.642 47.9677 158.427 47.5167 158.489 46.7473L158.882 41.4285L152.055 41.0649L149.069 46.0386C148.607 46.8695 147.088 47.2163 144.512 47.0791C143.138 47.0059 142.145 46.884 141.534 46.7135C140.931 46.5158 140.644 46.3764 140.672 46.2951L157.773 19.1829C157.848 18.9662 159.847 18.9622 163.768 19.1711C167.69 19.38 169.614 19.5928 169.539 19.8096L167.452 47.7628C167.387 47.9525 166.677 48.0664 165.323 48.1047C163.968 48.1429 162.905 48.1415 162.132 48.1003ZM154.911 35.9601L159.419 36.2003L160.392 27.6838L160.134 27.67L154.911 35.9601ZM180.457 48.3312C180.27 48.8732 178.759 49.0687 175.925 48.9177C173.091 48.7668 171.768 48.4204 171.955 47.8784L179 27.4744L173.847 27.2C173.361 27.1741 173.232 26.5326 173.462 25.2754C173.582 24.6747 173.75 24.0627 173.965 23.4395C174.18 22.8163 174.434 22.2089 174.725 21.6173C175.356 20.3815 175.915 19.7766 176.402 19.8025L195.08 20.7973C195.567 20.8233 195.695 21.4648 195.465 22.7219C195.345 23.3226 195.178 23.9346 194.962 24.5578C194.747 25.1811 194.494 25.7885 194.202 26.38C193.571 27.6158 193.013 28.2207 192.526 28.1948L187.502 27.9272L180.457 48.3312Z" fill="#FF8519"/>
<path d="M69.9123 14.7518L69.0469 13.697L69.039 13.703L69.9123 14.7518ZM87.9362 18.4023L86.4467 19.4254L86.4515 19.4322L87.9362 18.4023ZM75.1854 22.2764L75.7076 20.764L74.1098 20.6789L73.5877 22.1913L75.1854 22.2764ZM70.7391 35.5337L69.0765 36.1339L69.086 36.1873L69.1004 36.2388L70.7391 35.5337ZM75.5812 34.3014L74.5783 33.3586L74.5672 33.3683L74.5563 33.3782L75.5812 34.3014ZM79.2011 23.6907L77.7021 24.6999L77.7086 24.7095L77.7152 24.7189L79.2011 23.6907ZM60.4293 40.6968L62.027 40.7819L70.4474 16.3946L68.8497 16.3095L67.252 16.2244L58.8316 40.6117L60.4293 40.6968ZM68.8497 16.3095L70.4474 16.3946C70.6012 15.9492 70.7592 15.8207 70.7855 15.8007L69.9123 14.7518L69.039 13.703C68.1164 14.405 67.566 15.315 67.252 16.2244L68.8497 16.3095ZM69.9123 14.7518L70.7777 15.8066C70.8465 15.7547 70.8806 15.7432 70.8893 15.7403C70.8984 15.7373 70.9356 15.7256 71.0176 15.73L71.5398 14.2176L72.062 12.7052C71.0301 12.6503 69.9809 12.9923 69.0469 13.697L69.9123 14.7518ZM71.5398 14.2176L71.0176 15.73L78.1884 16.1119L78.7106 14.5995L79.2328 13.0871L72.062 12.7052L71.5398 14.2176ZM78.7106 14.5995L78.1884 16.1119C82.4871 16.3409 85.1191 17.5216 86.4467 19.4254L87.9362 18.4023L89.4258 17.3792C87.5557 14.6975 84.0372 13.343 79.2328 13.0871L78.7106 14.5995ZM87.9362 18.4023L86.4515 19.4322C87.7789 21.3034 87.9028 24.2985 86.3659 28.7497L87.9636 28.8348L89.5614 28.9199C91.2429 24.0497 91.3486 20.0898 89.421 17.3724L87.9362 18.4023ZM87.9636 28.8348L86.3659 28.7497C84.7064 33.5559 82.4707 36.8204 79.8431 38.827C77.2727 40.7897 74.0143 41.7842 69.8384 41.5618L69.3162 43.0742L68.794 44.5866C73.6068 44.8429 77.9506 43.7034 81.596 40.9198C85.1841 38.1798 87.7778 34.0853 89.5614 28.9199L87.9636 28.8348ZM69.3162 43.0742L69.8384 41.5618L62.4958 41.1707L61.9736 42.6831L61.4514 44.1955L68.794 44.5866L69.3162 43.0742ZM61.9736 42.6831L62.4958 41.1707C61.9738 41.1429 61.9202 41.0231 61.9505 41.0621C61.9667 41.083 61.9644 41.099 61.9634 41.0776C61.9621 41.0473 61.9664 40.9576 62.027 40.7819L60.4293 40.6968L58.8316 40.6117C58.5212 41.5106 58.4675 42.4647 59.0347 43.1943C59.5798 43.8954 60.5136 44.1455 61.4514 44.1955L61.9736 42.6831ZM75.1854 22.2764L73.5877 22.1913L69.3915 34.3443L70.9892 34.4294L72.587 34.5145L76.7831 22.3615L75.1854 22.2764ZM70.9892 34.4294L69.3915 34.3443C69.2832 34.658 69.1929 34.9534 69.1337 35.2147C69.0843 35.4327 69.0157 35.7919 69.0765 36.1339L70.7391 35.5337L72.4017 34.9334C72.4121 34.9916 72.414 35.0376 72.4142 35.064C72.4143 35.0914 72.4127 35.1089 72.4123 35.1135C72.4116 35.1206 72.4131 35.1024 72.425 35.0498C72.4492 34.943 72.4988 34.7698 72.587 34.5145L70.9892 34.4294ZM70.7391 35.5337L69.1004 36.2388C69.2596 36.8089 69.7437 37.0404 70.0134 37.1342C70.3098 37.2373 70.6365 37.2754 70.9197 37.2904L71.4419 35.7781L71.9641 34.2657C71.8179 34.2579 71.8127 34.2437 71.8749 34.2654C71.9105 34.2778 71.9983 34.3122 72.0947 34.3903C72.1949 34.4716 72.3172 34.6112 72.3778 34.8285L70.7391 35.5337ZM71.4419 35.7781L70.9197 37.2904C72.9553 37.3989 74.928 36.7373 76.6061 35.2246L75.5812 34.3014L74.5563 33.3782C73.8642 34.0021 73.0773 34.325 71.9641 34.2657L71.4419 35.7781ZM75.5812 34.3014L76.5841 35.2442C78.2327 33.7953 79.4182 31.5739 80.3328 28.9251L78.7351 28.84L77.1373 28.7549C76.2743 31.2544 75.3573 32.674 74.5783 33.3586L75.5812 34.3014ZM78.7351 28.84L80.3328 28.9251C80.8049 27.5578 81.1086 26.3491 81.2007 25.3315C81.2912 24.3313 81.1906 23.3752 80.6871 22.6624L79.2011 23.6907L77.7152 24.7189C77.7992 24.8378 77.9146 25.1556 77.8497 25.8719C77.7865 26.5707 77.5634 27.5208 77.1373 28.7549L78.7351 28.84ZM79.2011 23.6907L80.7002 22.6814C79.8513 21.4207 78.1618 20.8947 76.137 20.7869L75.6148 22.2993L75.0926 23.8117C76.7319 23.899 77.4333 24.3006 77.7021 24.6999L79.2011 23.6907ZM75.6148 22.2993L76.137 20.7869L75.7076 20.764L75.1854 22.2764L74.6632 23.7888L75.0926 23.8117L75.6148 22.2993ZM103.32 32.3846L101.835 32.0438L101.823 32.065L101.813 32.0865L103.32 32.3846ZM96.7871 33.1956L97.3093 31.6832L95.7116 31.5981L95.1894 33.1105L96.7871 33.1956ZM95.3837 37.2602L93.786 37.1751L93.2638 38.6875L94.8615 38.7726L95.3837 37.2602ZM103.655 39.522L102.001 39.642L101.998 39.6579L101.995 39.6738L103.655 39.522ZM102.179 43.4171L100.696 43.0704L100.696 43.0704L102.179 43.4171ZM100.282 23.0749L100.804 21.5625L99.2061 21.4774L98.6839 22.9898L100.282 23.0749ZM98.8642 27.1801L97.2664 27.095L96.7442 28.6074L98.342 28.6925L98.8642 27.1801ZM104.403 27.4751L103.881 28.9875C103.445 28.9643 103.213 28.7288 103.13 28.5609C103.071 28.4403 103.099 28.3884 103.091 28.5331C103.075 28.8125 102.955 29.3644 102.639 30.2787L104.237 30.3638L105.835 30.4488C106.174 29.4663 106.409 28.5884 106.448 27.905C106.468 27.5681 106.449 27.1515 106.268 26.783C106.063 26.3671 105.634 26.0005 104.926 25.9627L104.403 27.4751ZM104.237 30.3638L102.639 30.2787C102.481 30.735 102.221 31.319 101.835 32.0438L103.32 32.3846L104.806 32.7254C105.249 31.8938 105.599 31.1305 105.835 30.4488L104.237 30.3638ZM103.32 32.3846L101.813 32.0865C101.743 32.2256 101.687 32.3203 101.648 32.3795C101.607 32.4421 101.602 32.4393 101.64 32.4002C101.677 32.3619 101.8 32.2452 102.013 32.1397C102.249 32.0227 102.515 31.9605 102.763 31.9737L102.24 33.4861L101.718 34.9985C102.657 35.0484 103.444 34.51 103.896 34.0487C104.31 33.6271 104.606 33.1267 104.828 32.6827L103.32 32.3846ZM102.24 33.4861L102.763 31.9737L97.3093 31.6832L96.7871 33.1956L96.2649 34.708L101.718 34.9985L102.24 33.4861ZM96.7871 33.1956L95.1894 33.1105L93.786 37.1751L95.3837 37.2602L96.9815 37.3453L98.3849 33.2807L96.7871 33.1956ZM95.3837 37.2602L94.8615 38.7726L102.762 39.1933L103.285 37.681L103.807 36.1686L95.9059 35.7478L95.3837 37.2602ZM103.285 37.681L102.762 39.1933C102.509 39.1799 102.311 39.0813 102.192 38.9558C102.09 38.849 102.079 38.7608 102.084 38.7859C102.088 38.8068 102.098 38.8818 102.088 39.0365C102.079 39.1872 102.052 39.3865 102.001 39.642L103.655 39.522L105.308 39.4019C105.44 38.7418 105.51 38.0811 105.4 37.5354C105.288 36.9797 104.899 36.2268 103.807 36.1686L103.285 37.681ZM103.655 39.522L101.995 39.6738C101.919 40.1042 101.793 40.582 101.61 41.1102L103.208 41.1953L104.806 41.2804C105.035 40.6163 105.207 39.9785 105.314 39.3701L103.655 39.522ZM103.208 41.1953L101.61 41.1102C101.457 41.5532 101.165 42.197 100.696 43.0704L102.179 43.4171L103.661 43.7637C104.172 42.8128 104.566 41.9754 104.806 41.2804L103.208 41.1953ZM102.179 43.4171L100.696 43.0704C100.598 43.2522 100.516 43.3858 100.451 43.4797C100.384 43.577 100.353 43.6065 100.365 43.5951C100.374 43.5858 100.469 43.4911 100.654 43.3984C100.863 43.2937 101.117 43.2277 101.365 43.2409L100.843 44.7533L100.32 46.2656C101.304 46.318 102.123 45.7419 102.59 45.2754C103.035 44.8297 103.382 44.2841 103.661 43.7637L102.179 43.4171ZM100.843 44.7533L101.365 43.2409L86.6796 42.4587L86.1574 43.9711L85.6352 45.4835L100.32 46.2656L100.843 44.7533ZM86.1574 43.9711L86.6796 42.4587C86.5111 42.4498 86.4256 42.4281 86.3939 42.4173C86.3654 42.4076 86.4063 42.4157 86.457 42.4728C86.4822 42.5011 86.5048 42.5361 86.5216 42.5767C86.5384 42.6172 86.5463 42.6557 86.549 42.6876C86.5543 42.7502 86.5384 42.7677 86.5585 42.7093L84.9608 42.6242L83.3631 42.5391C83.1063 43.2828 83.0858 44.099 83.6278 44.7091C84.1242 45.2678 84.9151 45.4452 85.6352 45.4835L86.1574 43.9711ZM84.9608 42.6242L86.5585 42.7093L95.5824 16.5743L93.9847 16.4892L92.3869 16.4041L83.3631 42.5391L84.9608 42.6242ZM93.9847 16.4892L95.5824 16.5743C95.6382 16.4127 95.6245 16.5762 95.3559 16.7756C95.2179 16.8781 95.0743 16.9416 94.957 16.9733C94.8502 17.0022 94.7969 16.9965 94.8149 16.9974L95.3371 15.485L95.8593 13.9727C95.2296 13.9391 94.4192 14.0762 93.6545 14.644C92.9351 15.1782 92.5744 15.8613 92.3869 16.4041L93.9847 16.4892ZM95.3371 15.485L94.8149 16.9974L110.187 17.8162L110.709 16.3038L111.232 14.7914L95.8593 13.9727L95.3371 15.485ZM110.709 16.3038L110.187 17.8162C109.669 17.7886 109.467 17.4776 109.42 17.3552C109.388 17.2722 109.42 17.2827 109.398 17.5086C109.357 17.9414 109.171 18.7073 108.764 19.8841L110.362 19.9692L111.96 20.0543C112.386 18.8196 112.674 17.7687 112.748 16.9797C112.785 16.5947 112.785 16.143 112.632 15.7465C112.463 15.3107 112.05 14.835 111.232 14.7914L110.709 16.3038ZM110.362 19.9692L108.764 19.8841C108.363 21.0471 108.028 21.7931 107.777 22.206C107.647 22.4215 107.611 22.4246 107.702 22.3459C107.835 22.2298 108.237 21.9584 108.748 21.9856L108.225 23.498L107.703 25.0104C108.514 25.0536 109.231 24.6472 109.692 24.245C110.111 23.8802 110.418 23.4463 110.643 23.0737C111.105 22.3103 111.538 21.2759 111.96 20.0543L110.362 19.9692ZM108.225 23.498L108.748 21.9856L100.804 21.5625L100.282 23.0749L99.7594 24.5873L107.703 25.0104L108.225 23.498ZM100.282 23.0749L98.6839 22.9898L97.2664 27.095L98.8642 27.1801L100.462 27.2652L101.879 23.16L100.282 23.0749ZM98.8642 27.1801L98.342 28.6925L103.881 28.9875L104.403 27.4751L104.926 25.9627L99.3864 25.6677L98.8642 27.1801ZM119.525 24.0998L120.048 22.5875L118.45 22.5024L117.928 24.0148L119.525 24.0998ZM117.925 28.7334L116.328 28.6483L115.806 30.1607L117.403 30.2458L117.925 28.7334ZM115.75 35.0335L116.272 33.5211L114.675 33.436L114.152 34.9484L115.75 35.0335ZM110.484 45.4737L110.836 43.9607L110.812 43.9618L110.787 43.9636L110.484 45.4737ZM107.751 45.5351L107.162 47.0425L107.195 47.0457L107.229 47.0475L107.751 45.5351ZM105.761 45.3464L105.049 46.8372L105.109 46.8478L105.172 46.8538L105.761 45.3464ZM113.781 16.6743L113.277 15.3942L113.217 15.4244L113.159 15.458L113.781 16.6743ZM129.867 17.3241L129.345 18.8365C128.636 18.7987 128.478 18.3071 128.463 18.2453C128.446 18.1778 128.47 18.2124 128.435 18.4578C128.369 18.9208 128.159 19.7123 127.75 20.8953L129.348 20.9804L130.946 21.0655C131.37 19.837 131.663 18.8132 131.77 18.0575C131.821 17.6935 131.85 17.2678 131.754 16.8891C131.66 16.5162 131.342 15.8625 130.389 15.8117L129.867 17.3241ZM129.348 20.9804L127.75 20.8953C127.347 22.0646 127.017 22.838 126.77 23.2829C126.639 23.5188 126.594 23.5458 126.659 23.4798C126.722 23.416 127.205 22.9687 127.905 23.006L127.383 24.5184L126.861 26.0307C127.805 26.081 128.552 25.496 128.9 25.1438C129.251 24.7895 129.513 24.3775 129.709 24.0237C130.117 23.2893 130.526 22.2808 130.946 21.0655L129.348 20.9804ZM127.383 24.5184L127.905 23.006L120.048 22.5875L119.525 24.0998L119.003 25.6122L126.861 26.0307L127.383 24.5184ZM119.525 24.0998L117.928 24.0148L116.328 28.6483L117.925 28.7334L119.523 28.8185L121.123 24.1849L119.525 24.0998ZM117.925 28.7334L117.403 30.2458L122.642 30.5248L123.164 29.0124L123.686 27.5L118.448 27.221L117.925 28.7334ZM123.164 29.0124L122.642 30.5248C122.036 30.4926 121.834 30.1093 121.792 29.984C121.759 29.8863 121.788 29.8769 121.766 30.0731C121.724 30.4424 121.557 31.1062 121.202 32.1365L122.799 32.2216L124.397 32.3067C124.771 31.2236 125.031 30.2957 125.11 29.5953C125.149 29.2566 125.162 28.8428 125.038 28.4712C124.905 28.0719 124.535 27.5453 123.686 27.5L123.164 29.0124ZM122.799 32.2216L121.202 32.1365C120.85 33.1548 120.565 33.808 120.359 34.1688C120.249 34.3614 120.227 34.3523 120.32 34.2629C120.43 34.157 120.904 33.7678 121.554 33.8024L121.032 35.3148L120.51 36.8271C121.388 36.8739 122.108 36.365 122.479 36.0074C122.834 35.6663 123.091 35.2736 123.275 34.9508C123.658 34.2805 124.028 33.375 124.397 32.3067L122.799 32.2216ZM121.032 35.3148L121.554 33.8024L116.272 33.5211L115.75 35.0335L115.228 36.5458L120.51 36.8271L121.032 35.3148ZM115.75 35.0335L114.152 34.9484L110.77 44.7439L112.368 44.829L113.966 44.9141L117.348 35.1186L115.75 35.0335ZM112.368 44.829L110.77 44.7439C110.867 44.4631 111.065 44.2198 111.277 44.0539C111.371 43.9807 111.451 43.9348 111.502 43.9089C111.553 43.8832 111.583 43.8726 111.587 43.8715C111.588 43.8711 111.529 43.8903 111.388 43.9116C111.252 43.9322 111.07 43.9502 110.836 43.9607L110.484 45.4737L110.132 46.9867C110.754 46.9588 111.413 46.8823 112.011 46.6779C112.605 46.4746 113.605 45.9587 113.966 44.9141L112.368 44.829ZM110.484 45.4737L110.787 43.9636C109.723 44.0396 108.892 44.0557 108.274 44.0228L107.751 45.5351L107.229 47.0475C108.042 47.0908 109.033 47.0659 110.18 46.9839L110.484 45.4737ZM107.751 45.5351L108.341 44.0277L106.351 43.839L105.761 45.3464L105.172 46.8538L107.162 47.0425L107.751 45.5351ZM105.761 45.3464L106.474 43.8555C105.84 43.7439 105.514 43.6356 105.383 43.5691C105.316 43.5353 105.389 43.5558 105.469 43.6718C105.568 43.8145 105.674 44.1067 105.536 44.5065L103.938 44.4214L102.34 44.3363C101.918 45.5579 102.864 46.1308 103.208 46.3052C103.685 46.547 104.336 46.7115 105.049 46.8372L105.761 45.3464ZM103.938 44.4214L105.536 44.5065L114.826 17.5992L113.228 17.5142L111.631 17.4291L102.34 44.3363L103.938 44.4214ZM113.228 17.5142L114.826 17.5992C114.873 17.4641 114.897 17.4373 114.872 17.4763C114.847 17.5131 114.709 17.7136 114.402 17.8906L113.781 16.6743L113.159 15.458C112.634 15.7614 112.294 16.165 112.086 16.4817C111.876 16.8007 111.734 17.1306 111.631 17.4291L113.228 17.5142ZM113.781 16.6743L114.285 17.9545C114.171 18.0116 114.094 18.0267 114.079 18.0292C114.067 18.0313 114.1 18.0245 114.188 18.0292L114.71 16.5168L115.232 15.0044C114.687 14.9754 113.99 15.0343 113.277 15.3942L113.781 16.6743ZM114.71 16.5168L114.188 18.0292L129.345 18.8365L129.867 17.3241L130.389 15.8117L115.232 15.0044L114.71 16.5168ZM141.315 34.4082L139.829 34.0673L139.818 34.0886L139.807 34.11L141.315 34.4082ZM134.782 35.2192L135.304 33.7068L133.706 33.6217L133.184 35.1341L134.782 35.2192ZM133.378 39.2837L131.78 39.1987L131.258 40.711L132.856 40.7961L133.378 39.2837ZM141.649 41.5455L139.995 41.6656L139.992 41.6815L139.989 41.6974L141.649 41.5455ZM140.173 45.4406L138.69 45.094L138.69 45.094L140.173 45.4406ZM138.276 25.0985L138.798 23.5861L137.2 23.501L136.678 25.0134L138.276 25.0985ZM136.859 29.2037L135.261 29.1186L134.739 30.631L136.336 30.7161L136.859 29.2037ZM142.398 29.4987L141.876 31.0111C141.439 30.9878 141.207 30.7524 141.125 30.5845C141.065 30.4639 141.094 30.412 141.085 30.5566C141.069 30.8361 140.949 31.388 140.633 32.3022L142.231 32.3873L143.829 32.4724C144.168 31.4899 144.403 30.612 144.443 29.9285C144.462 29.5917 144.443 29.1751 144.262 28.8066C144.057 28.3907 143.628 28.0241 142.92 27.9863L142.398 29.4987ZM142.231 32.3873L140.633 32.3022C140.476 32.7586 140.215 33.3426 139.829 34.0673L141.315 34.4082L142.801 34.749C143.244 33.9174 143.594 33.1541 143.829 32.4724L142.231 32.3873ZM141.315 34.4082L139.807 34.11C139.737 34.2492 139.682 34.3439 139.643 34.4031C139.602 34.4657 139.596 34.4629 139.634 34.4238C139.672 34.3855 139.794 34.2688 140.007 34.1633C140.243 34.0463 140.509 33.9841 140.757 33.9973L140.235 35.5096L139.713 37.022C140.651 37.072 141.438 36.5336 141.891 36.0722C142.304 35.6506 142.601 35.1503 142.823 34.7063L141.315 34.4082ZM140.235 35.5096L140.757 33.9973L135.304 33.7068L134.782 35.2192L134.259 36.7316L139.713 37.022L140.235 35.5096ZM134.782 35.2192L133.184 35.1341L131.78 39.1987L133.378 39.2837L134.976 39.3688L136.379 35.3043L134.782 35.2192ZM133.378 39.2837L132.856 40.7961L140.757 41.2169L141.279 39.7045L141.801 38.1922L133.9 37.7714L133.378 39.2837ZM141.279 39.7045L140.757 41.2169C140.503 41.2034 140.306 41.1048 140.186 40.9794C140.084 40.8726 140.074 40.7844 140.079 40.8094C140.083 40.8303 140.093 40.9054 140.083 41.06C140.073 41.2108 140.046 41.4101 139.995 41.6656L141.649 41.5455L143.303 41.4255C143.435 40.7654 143.504 40.1046 143.394 39.559C143.283 39.0032 142.894 38.2503 141.801 38.1922L141.279 39.7045ZM141.649 41.5455L139.989 41.6974C139.913 42.1278 139.787 42.6056 139.605 43.1338L141.202 43.2189L142.8 43.304C143.03 42.6398 143.201 42.0021 143.309 41.3937L141.649 41.5455ZM141.202 43.2189L139.605 43.1338C139.452 43.5768 139.159 44.2206 138.69 45.094L140.173 45.4406L141.656 45.7873C142.166 44.8364 142.56 43.999 142.8 43.304L141.202 43.2189ZM140.173 45.4406L138.69 45.094C138.593 45.2757 138.511 45.4094 138.446 45.5033C138.379 45.6006 138.348 45.63 138.359 45.6186C138.369 45.6093 138.464 45.5146 138.649 45.422C138.858 45.3173 139.111 45.2512 139.359 45.2645L138.837 46.7768L138.315 48.2892C139.298 48.3416 140.118 47.7654 140.584 47.299C141.03 46.8533 141.376 46.3077 141.656 45.7873L140.173 45.4406ZM138.837 46.7768L139.359 45.2645L124.674 44.4823L124.152 45.9947L123.63 47.5071L138.315 48.2892L138.837 46.7768ZM124.152 45.9947L124.674 44.4823C124.506 44.4733 124.42 44.4517 124.388 44.4409C124.36 44.4312 124.401 44.4393 124.451 44.4964C124.477 44.5247 124.499 44.5597 124.516 44.6003C124.533 44.6408 124.541 44.6793 124.543 44.7112C124.549 44.7738 124.533 44.7913 124.553 44.7329L122.955 44.6478L121.357 44.5627C121.101 45.3064 121.08 46.1225 121.622 46.7326C122.119 47.2913 122.91 47.4687 123.63 47.5071L124.152 45.9947ZM122.955 44.6478L124.553 44.7329L133.577 18.5979L131.979 18.5128L130.381 18.4277L121.357 44.5627L122.955 44.6478ZM131.979 18.5128L133.577 18.5979C133.633 18.4362 133.619 18.5997 133.35 18.7992C133.212 18.9017 133.069 18.9652 132.951 18.9969C132.845 19.0258 132.791 19.0201 132.809 19.021L133.332 17.5086L133.854 15.9962C133.224 15.9627 132.414 16.0998 131.649 16.6676C130.929 17.2017 130.569 17.8849 130.381 18.4277L131.979 18.5128ZM133.332 17.5086L132.809 19.021L148.182 19.8397L148.704 18.3274L149.226 16.815L133.854 15.9962L133.332 17.5086ZM148.704 18.3274L148.182 19.8397C147.663 19.8121 147.462 19.5012 147.414 19.3788C147.382 19.2957 147.414 19.3062 147.393 19.5322C147.352 19.965 147.165 20.7308 146.759 21.9077L148.356 21.9928L149.954 22.0779C150.381 20.8432 150.668 19.7923 150.743 19.0032C150.779 18.6183 150.779 18.1666 150.626 17.7701C150.457 17.3343 150.045 16.8586 149.226 16.815L148.704 18.3274ZM148.356 21.9928L146.759 21.9077C146.357 23.0707 146.022 23.8167 145.772 24.2296C145.641 24.4451 145.606 24.4482 145.696 24.3695C145.83 24.2534 146.232 23.982 146.742 24.0092L146.22 25.5216L145.698 27.034C146.508 27.0772 147.225 26.6708 147.687 26.2686C148.105 25.9038 148.412 25.4699 148.638 25.0972C149.1 24.3339 149.532 23.2995 149.954 22.0779L148.356 21.9928ZM146.22 25.5216L146.742 24.0092L138.798 23.5861L138.276 25.0985L137.754 26.6109L145.698 27.034L146.22 25.5216ZM138.276 25.0985L136.678 25.0134L135.261 29.1186L136.859 29.2037L138.456 29.2888L139.874 25.1836L138.276 25.0985ZM136.859 29.2037L136.336 30.7161L141.876 31.0111L142.398 29.4987L142.92 27.9863L137.381 27.6913L136.859 29.2037ZM158.489 46.7473L160.165 46.463L160.166 46.4549L158.489 46.7473ZM158.882 41.4285L160.559 41.1362L160.645 39.9822L159.404 39.9162L158.882 41.4285ZM152.055 41.0649L152.577 39.5525L151.31 39.485L150.618 40.6377L152.055 41.0649ZM149.069 46.0386L147.632 45.6114L147.616 45.6394L147.6 45.6677L149.069 46.0386ZM141.534 46.7135L140.625 48.1554L140.654 48.165L140.684 48.1733L141.534 46.7135ZM140.672 46.2951L139.259 45.8302L139.142 46.0156L139.075 46.21L140.672 46.2951ZM157.773 19.1829L159.187 19.6478L159.304 19.4625L159.371 19.268L157.773 19.1829ZM169.539 19.8096L167.941 19.7245L167.876 19.9144L167.862 20.101L169.539 19.8096ZM167.452 47.7628L169.05 47.8479L169.116 47.658L169.129 47.4713L167.452 47.7628ZM165.323 48.1047L165.705 46.5906L165.323 48.1047ZM154.911 35.9601L153.496 35.496L152.32 37.3624L154.388 37.4725L154.911 35.9601ZM159.419 36.2003L158.897 37.7126L160.879 37.8182L161.091 35.9621L159.419 36.2003ZM160.392 27.6838L162.064 27.4456L162.202 26.2399L160.914 26.1714L160.392 27.6838ZM160.134 27.67L160.656 26.1576L159.422 26.0919L158.72 27.2059L160.134 27.67ZM162.132 48.1003L162.654 46.5879C161.464 46.5245 160.718 46.3891 160.31 46.2374C159.841 46.0634 160.2 46.0313 160.165 46.463L158.489 46.7473L156.812 47.0315C156.716 48.2326 157.651 48.8107 158.397 49.0877C159.203 49.387 160.31 49.5435 161.61 49.6127L162.132 48.1003ZM158.489 46.7473L160.166 46.4549L160.559 41.1362L158.882 41.4285L157.205 41.7209L156.811 47.0396L158.489 46.7473ZM158.882 41.4285L159.404 39.9162L152.577 39.5525L152.055 41.0649L151.533 42.5773L158.36 42.9409L158.882 41.4285ZM152.055 41.0649L150.618 40.6377L147.632 45.6114L149.069 46.0386L150.506 46.4659L153.492 41.4922L152.055 41.0649ZM149.069 46.0386L147.6 45.6677C147.817 45.2767 148.127 45.3338 147.59 45.4565C147.092 45.5702 146.265 45.6322 145.034 45.5667L144.512 47.0791L143.99 48.5915C145.336 48.6632 146.556 48.6204 147.578 48.3872C148.559 48.1632 149.86 47.6314 150.539 46.4096L149.069 46.0386ZM144.512 47.0791L145.034 45.5667C143.682 45.4947 142.832 45.3789 142.383 45.2537L141.534 46.7135L140.684 48.1733C141.458 48.3892 142.594 48.5171 143.99 48.5915L144.512 47.0791ZM141.534 46.7135L142.442 45.2716C142.156 45.1776 142 45.115 141.935 45.0833C141.894 45.0632 141.945 45.0826 142.02 45.1467C142.056 45.1773 142.153 45.2634 142.231 45.4123C142.306 45.554 142.438 45.8934 142.27 46.3802L140.672 46.2951L139.075 46.21C138.899 46.7171 139.034 47.0786 139.122 47.2442C139.213 47.4171 139.332 47.529 139.4 47.5873C139.54 47.7065 139.696 47.7884 139.798 47.838C140.02 47.9458 140.309 48.0518 140.625 48.1554L141.534 46.7135ZM140.672 46.2951L142.086 46.76L159.187 19.6478L157.773 19.1829L156.36 18.7181L139.259 45.8302L140.672 46.2951ZM157.773 19.1829L159.371 19.268C159.17 19.8498 158.702 20.1988 158.47 20.3385C158.245 20.474 158.063 20.5291 158.013 20.5438C157.9 20.5771 157.857 20.5748 157.952 20.5646C158.112 20.5476 158.415 20.5331 158.9 20.5322C159.85 20.5303 161.292 20.5794 163.246 20.6835L163.768 19.1711L164.291 17.6587C162.323 17.5539 160.805 17.5005 159.757 17.5026C159.242 17.5036 158.787 17.5178 158.429 17.5559C158.265 17.5734 158.023 17.6053 157.771 17.6795C157.651 17.7146 157.414 17.7918 157.15 17.951C156.879 18.1146 156.386 18.489 156.176 19.0978L157.773 19.1829ZM163.768 19.1711L163.246 20.6835C165.2 20.7875 166.623 20.891 167.538 20.9922C168.005 21.0439 168.287 21.0895 168.43 21.1227C168.515 21.1424 168.472 21.1402 168.385 21.0962C168.347 21.0768 168.209 21.0047 168.084 20.8506C167.955 20.6916 167.74 20.3062 167.941 19.7245L169.539 19.8096L171.137 19.8947C171.347 19.2858 171.125 18.8733 170.975 18.6874C170.828 18.5062 170.652 18.4071 170.561 18.3607C170.368 18.2628 170.157 18.2067 170.01 18.1727C169.691 18.0985 169.262 18.0373 168.767 17.9825C167.758 17.8709 166.258 17.7635 164.291 17.6587L163.768 19.1711ZM169.539 19.8096L167.862 20.101L165.775 48.0542L167.452 47.7628L169.129 47.4713L171.216 19.5181L169.539 19.8096ZM167.452 47.7628L165.855 47.6777C166.002 47.252 166.305 46.9466 166.533 46.7748C166.74 46.6187 166.917 46.5455 166.978 46.5214C167.099 46.4741 167.135 46.4792 167.007 46.4998C166.78 46.5363 166.362 46.572 165.705 46.5906L165.323 48.1047L164.941 49.6187C165.638 49.5991 166.252 49.5587 166.734 49.4812C166.961 49.4448 167.272 49.3834 167.586 49.2603C167.766 49.19 168.72 48.8032 169.05 47.8479L167.452 47.7628ZM165.323 48.1047L165.705 46.5906C164.37 46.6283 163.36 46.6255 162.654 46.5879L162.132 48.1003L161.61 49.6127C162.45 49.6574 163.567 49.6575 164.941 49.6187L165.323 48.1047ZM154.911 35.9601L154.388 37.4725L158.897 37.7126L159.419 36.2003L159.941 34.6879L155.433 34.4477L154.911 35.9601ZM159.419 36.2003L161.091 35.9621L162.064 27.4456L160.392 27.6838L158.72 27.9219L157.747 36.4384L159.419 36.2003ZM160.392 27.6838L160.914 26.1714L160.656 26.1576L160.134 27.67L159.612 29.1824L159.87 29.1961L160.392 27.6838ZM160.134 27.67L158.72 27.2059L153.496 35.496L154.911 35.9601L156.325 36.4242L161.548 28.1341L160.134 27.67ZM179 27.4744L180.598 27.5595L181.12 26.0471L179.522 25.962L179 27.4744ZM173.462 25.2754L171.809 25.3954L171.806 25.4071L171.804 25.4188L173.462 25.2754ZM174.725 21.6173L173.224 21.3057L173.219 21.3172L173.213 21.3287L174.725 21.6173ZM195.465 22.7219L197.119 22.6019L197.121 22.5902L197.123 22.5785L195.465 22.7219ZM194.202 26.38L195.703 26.6917L195.709 26.6802L195.715 26.6687L194.202 26.38ZM187.502 27.9272L188.024 26.4149L186.426 26.3298L185.904 27.8421L187.502 27.9272ZM180.457 48.3312L178.859 48.2461C179.069 47.6375 179.606 47.3702 179.687 47.3352C179.754 47.3059 179.685 47.3454 179.379 47.385C178.796 47.4605 177.839 47.4794 176.447 47.4053L175.925 48.9177L175.403 50.4301C176.846 50.5069 178.061 50.5036 178.988 50.3836C179.437 50.3255 179.958 50.2239 180.45 50.0102C180.955 49.7909 181.751 49.296 182.055 48.4163L180.457 48.3312ZM175.925 48.9177L176.447 47.4053C175.056 47.3312 174.147 47.2129 173.635 47.0791C173.367 47.0089 173.327 46.9637 173.373 46.9989C173.426 47.041 173.763 47.3548 173.553 47.9635L171.955 47.8784L170.357 47.7933C170.054 48.673 170.485 49.2333 170.823 49.4975C171.152 49.7549 171.586 49.9073 171.979 50.0103C172.791 50.2229 173.961 50.3533 175.403 50.4301L175.925 48.9177ZM171.955 47.8784L173.553 47.9635L180.598 27.5595L179 27.4744L177.402 27.3893L170.357 47.7933L171.955 47.8784ZM179 27.4744L179.522 25.962L174.37 25.6876L173.847 27.2L173.325 28.7124L178.478 28.9868L179 27.4744ZM173.847 27.2L174.37 25.6876C174.641 25.7021 174.839 25.8109 174.952 25.9331C175.046 26.0356 175.052 26.1145 175.044 26.0753C175.037 26.0415 175.027 25.9523 175.036 25.7834C175.045 25.6184 175.071 25.4036 175.12 25.132L173.462 25.2754L171.804 25.4188C171.679 26.1036 171.618 26.7751 171.728 27.3235C171.836 27.8611 172.207 28.6528 173.325 28.7124L173.847 27.2ZM173.462 25.2754L175.116 25.1554C175.222 24.6253 175.37 24.0819 175.563 23.5246L173.965 23.4395L172.367 23.3544C172.129 24.0436 171.943 24.7241 171.809 25.3954L173.462 25.2754ZM173.965 23.4395L175.563 23.5246C175.755 22.9673 175.981 22.428 176.238 21.906L174.725 21.6173L173.213 21.3287C172.887 21.9898 172.605 22.6653 172.367 23.3544L173.965 23.4395ZM174.725 21.6173L176.226 21.929C176.363 21.662 176.483 21.4523 176.587 21.2923C176.693 21.1286 176.763 21.0436 176.793 21.0118C176.827 20.9748 176.767 21.0503 176.607 21.1392C176.415 21.2452 176.151 21.3294 175.879 21.3149L176.402 19.8025L176.924 18.2901C175.806 18.2306 174.911 18.9549 174.443 19.4618C173.965 19.979 173.568 20.6325 173.224 21.3057L174.725 21.6173ZM176.402 19.8025L175.879 21.3149L194.558 22.3097L195.08 20.7973L195.602 19.285L176.924 18.2901L176.402 19.8025ZM195.08 20.7973L194.558 22.3097C194.286 22.2953 194.088 22.1865 193.976 22.0643C193.881 21.9618 193.875 21.8828 193.883 21.9221C193.89 21.9558 193.9 22.0451 193.891 22.214C193.882 22.379 193.857 22.5937 193.807 22.8653L195.465 22.7219L197.123 22.5785C197.248 21.8937 197.309 21.2223 197.199 20.6738C197.092 20.1363 196.72 19.3445 195.602 19.285L195.08 20.7973ZM195.465 22.7219L193.811 22.842C193.706 23.372 193.557 23.9154 193.365 24.4727L194.962 24.5578L196.56 24.6429C196.798 23.9538 196.985 23.2732 197.119 22.6019L195.465 22.7219ZM194.962 24.5578L193.365 24.4727C193.172 25.0301 192.947 25.5694 192.689 26.0914L194.202 26.38L195.715 26.6687C196.041 26.0076 196.322 25.3321 196.56 24.6429L194.962 24.5578ZM194.202 26.38L192.701 26.0684C192.565 26.3354 192.444 26.545 192.341 26.705C192.235 26.8688 192.164 26.9537 192.135 26.9855C192.101 27.0225 192.16 26.9471 192.321 26.8581C192.512 26.7521 192.777 26.668 193.048 26.6824L192.526 28.1948L192.004 29.7072C193.122 29.7668 194.017 29.0424 194.485 28.5356C194.963 28.0184 195.359 27.3649 195.703 26.6917L194.202 26.38ZM192.526 28.1948L193.048 26.6824L188.024 26.4149L187.502 27.9272L186.98 29.4396L192.004 29.7072L192.526 28.1948ZM187.502 27.9272L185.904 27.8421L178.859 48.2461L180.457 48.3312L182.055 48.4163L189.1 28.0123L187.502 27.9272Z" fill="black" mask="url(#path-2-outside-1_2029_602)"/>
</g>
<defs>
<filter id="filter0_d_2029_602" x="57.6016" y="12.6995" width="139.655" height="41.7823" filterUnits="userSpaceOnUse" color-interpolation-filters="sRGB">
<feFlood flood-opacity="0" result="BackgroundImageFix"/>
<feColorMatrix in="SourceAlpha" type="matrix" values="0 0 0 0 0 0 0 0 0 0 0 0 0 0 0 0 0 0 127 0" result="hardAlpha"/>
<feOffset dx="-1" dy="4"/>
<feComposite in2="hardAlpha" operator="out"/>
<feColorMatrix type="matrix" values="0 0 0 0 0 0 0 0 0 0 0 0 0 0 0 0 0 0 1 0"/>
<feBlend mode="normal" in2="BackgroundImageFix" result="effect1_dropShadow_2029_602"/>
<feBlend mode="normal" in="SourceGraphic" in2="effect1_dropShadow_2029_602" result="shape"/>
</filter>
</defs>
</svg>
