<svg width="80" height="80" viewBox="0 0 80 80" fill="none" xmlns="http://www.w3.org/2000/svg">
<g opacity="0.5" filter="url(#filter0_f_2034_19055)">
<path fill-rule="evenodd" clip-rule="evenodd" d="M30.2194 13.4115C31.5438 9.42817 35.3907 6.54712 39.9299 6.54712C44.4267 6.54712 48.2441 9.37459 49.6027 13.3002C59.6186 16.3401 67.5114 24.0541 70.5782 33.815C74.6993 35.0893 77.6847 38.8391 77.6847 43.2668C77.6847 47.7965 74.5599 51.6169 70.2911 52.8028C67.0514 62.1164 59.3789 69.4447 49.7139 72.4162C48.3074 76.2572 44.5335 79.007 40.0989 79.007C35.6665 79.007 31.8942 76.2599 30.486 72.4219C20.8593 69.4685 13.2068 62.1935 9.93785 52.9385C5.39304 51.9372 2 47.9873 2 43.267C2 38.6465 5.25122 34.7641 9.65142 33.663C12.7147 24.0908 20.426 16.509 30.2194 13.4115Z" fill="black"/>
</g>
<path fill-rule="evenodd" clip-rule="evenodd" d="M30.2194 8.40444C31.5438 4.42109 35.3907 1.54004 39.9299 1.54004C44.4267 1.54004 48.2441 4.36752 49.6027 8.29309C59.6186 11.333 67.5114 19.047 70.5782 28.8079C74.6993 30.0822 77.6847 33.8321 77.6847 38.2597C77.6847 42.7895 74.5599 46.6099 70.2911 47.7957C67.0514 57.1093 59.3789 64.4376 49.7139 67.4091C48.3074 71.2501 44.5335 74 40.0989 74C35.6665 74 31.8942 71.2529 30.486 67.4148C20.8593 64.4614 13.2068 57.1864 9.93785 47.9314C5.39304 46.9301 2 42.9802 2 38.26C2 33.6395 5.25122 29.757 9.65142 28.6559C12.7147 19.0837 20.426 11.5019 30.2194 8.40444Z" fill="#03D302"/>
<path fill-rule="evenodd" clip-rule="evenodd" d="M29.02 7.21303C30.7525 3.00941 34.9824 0.0379028 39.9299 0.0379028C44.8283 0.0379028 49.0231 2.95072 50.7873 7.08787C60.6993 10.3407 68.5264 17.9865 71.819 27.6447C76.1593 29.3215 79.2301 33.4403 79.2301 38.2597C79.2301 43.1975 76.0066 47.4001 71.4959 48.9941C68.0452 58.1934 60.4405 65.4481 50.8848 68.6162C49.0808 72.6658 44.9324 75.5021 40.0989 75.5021C35.2679 75.5021 31.1213 72.6688 29.3158 68.6225C19.8151 65.479 12.2405 58.2966 8.75536 49.1788C3.94958 47.7468 0.454468 43.4017 0.454468 38.26C0.454468 33.234 3.794 28.9695 8.43204 27.4425C11.7222 18.0012 19.3543 10.5104 29.02 7.21303ZM30.2194 8.40443C31.5438 4.42109 35.3907 1.54003 39.9299 1.54003C44.4267 1.54003 48.2441 4.36751 49.6027 8.29308C59.6186 11.333 67.5114 19.047 70.5782 28.8079C74.6992 30.0822 77.6846 33.8321 77.6846 38.2597C77.6846 42.7894 74.5599 46.6099 70.2911 47.7957C67.0513 57.1093 59.3789 64.4376 49.7138 67.4091C48.3073 71.2501 44.5335 74 40.0989 74C35.6664 74 31.8941 71.2529 30.486 67.4148C20.8592 64.4614 13.2068 57.1864 9.93781 47.9314C5.393 46.9301 1.99996 42.9802 1.99996 38.26C1.99996 33.6395 5.25118 29.757 9.65138 28.6559C12.7147 19.0837 20.426 11.5019 30.2194 8.40443Z" fill="black"/>
<mask id="mask0_2034_19055" style="mask-type:alpha" maskUnits="userSpaceOnUse" x="2" y="1" width="76" height="73">
<path d="M49.7911 8.35108C59.4991 11.3625 67.1857 18.773 70.3699 28.1711C74.7592 29.2795 77.9997 33.1568 77.9997 37.7698C77.9997 42.3574 74.7946 46.2175 70.442 47.3499C67.2945 56.8752 59.5322 64.3905 49.7135 67.4092C48.307 71.2502 44.5331 74 40.0985 74C35.6661 74 31.8938 71.2529 30.4856 67.4149C20.6112 64.3855 12.8139 56.8092 9.6939 47.2132C5.58672 45.931 2.61426 42.1877 2.61426 37.7698C2.61426 33.3259 5.62158 29.5648 9.76605 28.3041C12.9245 18.837 20.6454 11.3674 30.4078 8.34542C31.7505 4.3927 35.5818 1.5401 40.0985 1.5401C44.6174 1.5401 48.4502 4.39542 49.7911 8.35108Z" fill="#03D302"/>
</mask>
<g mask="url(#mask0_2034_19055)">
<path d="M21.3438 49.5671L9.98438 56.4146L18.1575 75.367H60.6305L74.4691 50.916L58.8621 45.427L21.3438 49.5671Z" fill="#029802"/>
</g>
<g filter="url(#filter1_di_2034_19055)">
<path d="M61.8634 37.4323C61.8634 49.2062 52.0432 58.7509 39.9294 58.7509C27.8156 58.7509 17.9955 49.2062 17.9955 37.4323C17.9955 25.6584 27.8156 16.1138 39.9294 16.1138C52.0432 16.1138 61.8634 25.6584 61.8634 37.4323Z" fill="#034502"/>
</g>
<path d="M38.0832 7.36985C36.1752 8.50937 34.019 8.46907 33.2671 7.27984C32.5153 6.09061 33.4526 4.20279 35.3606 3.06328C37.2687 1.92376 39.4249 1.96406 40.1767 3.15329C40.9286 4.34251 39.9913 6.23033 38.0832 7.36985Z" fill="white"/>
<path opacity="0.9" d="M8.99249 35.3796C7.21202 36.6999 5.06253 36.8705 4.19149 35.7608C3.32045 34.651 4.05769 32.6812 5.83817 31.361C7.61865 30.0408 9.76813 29.8701 10.6392 30.9799C11.5102 32.0896 10.773 34.0594 8.99249 35.3796Z" fill="white"/>
<path d="M28.5182 31.5558C26.8401 32.558 24.9505 32.5333 24.2977 31.5007C23.6449 30.4681 24.4761 28.8186 26.1542 27.8164C27.8323 26.8142 29.7218 26.8389 30.3746 27.8715C31.0274 28.9041 30.1963 30.5536 28.5182 31.5558Z" fill="white"/>
<mask id="path-10-outside-1_2034_19055" maskUnits="userSpaceOnUse" x="16.6754" y="14.2387" width="46.3708" height="46.6406" fill="black">
<rect fill="white" x="16.6754" y="14.2387" width="46.3708" height="46.6406"/>
<path fill-rule="evenodd" clip-rule="evenodd" d="M36.7455 21.9934L43.1667 21.8507C43.5567 21.842 43.8785 22.1538 43.8823 22.5438L43.9874 33.4572L55.0024 33.0048C55.3873 32.989 55.7126 33.2872 55.7304 33.672L56.0263 40.1037C56.0445 40.4998 55.7304 40.832 55.3339 40.8359L54.2921 40.8461L52.0607 44.1543C50.9518 45.7983 48.6812 44.3053 49.808 42.6348L50.8274 41.1234L44.0662 41.6376L44.1716 52.5728C44.1754 52.9667 43.8536 53.2861 43.4597 53.2794L35.6421 53.1462C35.25 53.1396 34.9399 52.8122 34.9545 52.4203L35.331 42.3019L25.5378 43.0467C25.15 43.0762 24.8126 42.784 24.7863 42.396L24.2843 34.9857C24.2576 34.5927 24.5604 34.2552 24.9539 34.239L35.6473 33.7998L36.0616 22.6672C36.0754 22.297 36.3752 22.0017 36.7455 21.9934Z"/>
</mask>
<path fill-rule="evenodd" clip-rule="evenodd" d="M36.7455 21.9934L43.1667 21.8507C43.5567 21.842 43.8785 22.1538 43.8823 22.5438L43.9874 33.4572L55.0024 33.0048C55.3873 32.989 55.7126 33.2872 55.7304 33.672L56.0263 40.1037C56.0445 40.4998 55.7304 40.832 55.3339 40.8359L54.2921 40.8461L52.0607 44.1543C50.9518 45.7983 48.6812 44.3053 49.808 42.6348L50.8274 41.1234L44.0662 41.6376L44.1716 52.5728C44.1754 52.9667 43.8536 53.2861 43.4597 53.2794L35.6421 53.1462C35.25 53.1396 34.9399 52.8122 34.9545 52.4203L35.331 42.3019L25.5378 43.0467C25.15 43.0762 24.8126 42.784 24.7863 42.396L24.2843 34.9857C24.2576 34.5927 24.5604 34.2552 24.9539 34.239L35.6473 33.7998L36.0616 22.6672C36.0754 22.297 36.3752 22.0017 36.7455 21.9934Z" fill="#03D302"/>
<path d="M43.1667 21.8507L43.1379 20.551L43.1379 20.551L43.1667 21.8507ZM36.7455 21.9934L36.7744 23.2931L36.7744 23.2931L36.7455 21.9934ZM43.8823 22.5438L45.1822 22.5313L45.1822 22.5313L43.8823 22.5438ZM43.9874 33.4572L42.6875 33.4697C42.6909 33.8216 42.8367 34.157 43.0918 34.3995C43.3468 34.6419 43.6892 34.7706 44.0408 34.7561L43.9874 33.4572ZM55.0024 33.0048L55.0557 34.3037L55.0557 34.3037L55.0024 33.0048ZM55.7304 33.672L57.029 33.6123L57.029 33.6123L55.7304 33.672ZM56.0263 40.1037L54.7277 40.1635L54.7277 40.1635L56.0263 40.1037ZM55.3339 40.8359L55.3467 42.1358L55.3467 42.1358L55.3339 40.8359ZM54.2921 40.8461L54.2793 39.5462C53.8517 39.5504 53.4535 39.7646 53.2143 40.1191L54.2921 40.8461ZM50.8274 41.1234L51.9052 41.8504C52.1839 41.4371 52.2018 40.9009 51.9513 40.47C51.7007 40.0391 51.2259 39.7894 50.7288 39.8272L50.8274 41.1234ZM44.0662 41.6376L43.9677 40.3414C43.2851 40.3933 42.7597 40.9656 42.7663 41.6501L44.0662 41.6376ZM44.1716 52.5728L42.8717 52.5853L42.8717 52.5853L44.1716 52.5728ZM43.4597 53.2794L43.4376 54.5792L43.4376 54.5792L43.4597 53.2794ZM35.6421 53.1462L35.6199 54.446L35.6199 54.446L35.6421 53.1462ZM34.9545 52.4203L33.6554 52.372L33.6554 52.372L34.9545 52.4203ZM35.331 42.3019L36.6301 42.3503C36.6438 41.9802 36.4991 41.6218 36.2322 41.3651C35.9654 41.1083 35.6017 40.9776 35.2324 41.0057L35.331 42.3019ZM25.5378 43.0467L25.4392 41.7504L25.4392 41.7504L25.5378 43.0467ZM24.7863 42.396L23.4892 42.4839L23.4892 42.4839L24.7863 42.396ZM24.2843 34.9857L25.5813 34.8978L25.5813 34.8978L24.2843 34.9857ZM24.9539 34.239L25.0073 35.5379L25.0073 35.5379L24.9539 34.239ZM35.6473 33.7998L35.7007 35.0987C36.3787 35.0708 36.9212 34.5262 36.9464 33.8481L35.6473 33.7998ZM36.0616 22.6672L34.7625 22.6189L34.7625 22.6189L36.0616 22.6672ZM43.1667 21.8507L43.1379 20.551L36.7167 20.6937L36.7455 21.9934L36.7744 23.2931L43.1956 23.1504L43.1667 21.8507ZM43.8823 22.5438L45.1822 22.5313C45.1715 21.4169 44.252 20.5263 43.1379 20.551L43.1667 21.8507L43.1956 23.1504C42.8614 23.1578 42.5855 22.8906 42.5823 22.5563L43.8823 22.5438ZM43.9874 33.4572L45.2874 33.4447L45.1822 22.5313L43.8823 22.5438L42.5823 22.5563L42.6875 33.4697L43.9874 33.4572ZM55.0024 33.0048L54.949 31.7059L43.9341 32.1583L43.9874 33.4572L44.0408 34.7561L55.0557 34.3037L55.0024 33.0048ZM55.7304 33.672L57.029 33.6123C56.9784 32.5127 56.0488 31.6607 54.949 31.7059L55.0024 33.0048L55.0557 34.3037C54.7258 34.3173 54.4469 34.0617 54.4317 33.7318L55.7304 33.672ZM56.0263 40.1037L57.3249 40.044L57.029 33.6123L55.7304 33.672L54.4317 33.7318L54.7277 40.1635L56.0263 40.1037ZM55.3339 40.8359L55.3467 42.1358C56.4795 42.1247 57.377 41.1757 57.3249 40.044L56.0263 40.1037L54.7277 40.1635C54.712 39.824 54.9813 39.5393 55.3211 39.5359L55.3339 40.8359ZM54.2921 40.8461L54.3048 42.146L55.3467 42.1358L55.3339 40.8359L55.3211 39.5359L54.2793 39.5462L54.2921 40.8461ZM52.0607 44.1543L53.1384 44.8812L55.3698 41.573L54.2921 40.8461L53.2143 40.1191L50.983 43.4273L52.0607 44.1543ZM49.808 42.6348L48.7302 41.9078C48.2766 42.5804 48.1051 43.339 48.2553 44.0698C48.4015 44.7815 48.8313 45.3571 49.3754 45.7195C49.919 46.0815 50.6121 46.2547 51.3195 46.1235C52.0466 45.9887 52.6859 45.5521 53.1384 44.8812L52.0607 44.1543L50.983 43.4273C50.9281 43.5086 50.885 43.5431 50.8667 43.5556C50.849 43.5677 50.8423 43.5677 50.8454 43.5671C50.8504 43.5662 50.8383 43.5699 50.8166 43.5555C50.7953 43.5413 50.7993 43.5331 50.8021 43.5465C50.8035 43.5532 50.8005 43.5489 50.8053 43.5273C50.8102 43.5047 50.8272 43.4486 50.8857 43.3617L49.808 42.6348ZM50.8274 41.1234L49.7497 40.3965L48.7302 41.9078L49.808 42.6348L50.8857 43.3617L51.9052 41.8504L50.8274 41.1234ZM44.0662 41.6376L44.1648 42.9339L50.926 42.4197L50.8274 41.1234L50.7288 39.8272L43.9677 40.3414L44.0662 41.6376ZM44.1716 52.5728L45.4715 52.5603L45.3662 41.6251L44.0662 41.6376L42.7663 41.6501L42.8717 52.5853L44.1716 52.5728ZM43.4597 53.2794L43.4376 54.5792C44.5629 54.5984 45.4824 53.6857 45.4715 52.5603L44.1716 52.5728L42.8717 52.5853C42.8684 52.2477 43.1443 51.9739 43.4819 51.9796L43.4597 53.2794ZM35.6421 53.1462L35.6199 54.446L43.4376 54.5792L43.4597 53.2794L43.4819 51.9796L35.6642 51.8464L35.6421 53.1462ZM34.9545 52.4203L33.6554 52.372C33.6137 53.4915 34.4997 54.427 35.6199 54.446L35.6421 53.1462L35.6642 51.8464C36.0003 51.8522 36.2661 52.1328 36.2536 52.4686L34.9545 52.4203ZM35.331 42.3019L34.0319 42.2536L33.6554 52.372L34.9545 52.4203L36.2536 52.4686L36.6301 42.3503L35.331 42.3019ZM25.5378 43.0467L25.6363 44.3429L35.4296 43.5982L35.331 42.3019L35.2324 41.0057L25.4392 41.7504L25.5378 43.0467ZM24.7863 42.396L23.4892 42.4839C23.5643 43.5924 24.5285 44.4272 25.6363 44.3429L25.5378 43.0467L25.4392 41.7504C25.7715 41.7251 26.0608 41.9756 26.0833 42.3081L24.7863 42.396ZM24.2843 34.9857L22.9872 35.0736L23.4892 42.4839L24.7863 42.396L26.0833 42.3081L25.5813 34.8978L24.2843 34.9857ZM24.9539 34.239L24.9006 32.9401C23.7761 32.9863 22.9112 33.9508 22.9872 35.0736L24.2843 34.9857L25.5813 34.8978C25.6041 35.2347 25.3446 35.524 25.0073 35.5379L24.9539 34.239ZM35.6473 33.7998L35.594 32.5009L24.9006 32.9401L24.9539 34.239L25.0073 35.5379L35.7007 35.0987L35.6473 33.7998ZM36.0616 22.6672L34.7625 22.6189L34.3482 33.7514L35.6473 33.7998L36.9464 33.8481L37.3607 22.7156L36.0616 22.6672ZM36.7455 21.9934L36.7167 20.6937C35.6585 20.7173 34.8018 21.5612 34.7625 22.6189L36.0616 22.6672L37.3607 22.7156C37.3489 23.0329 37.0919 23.286 36.7744 23.2931L36.7455 21.9934Z" fill="black" mask="url(#path-10-outside-1_2034_19055)"/>
<defs>
<filter id="filter0_f_2034_19055" x="1.4" y="5.94712" width="76.8847" height="73.6599" filterUnits="userSpaceOnUse" color-interpolation-filters="sRGB">
<feFlood flood-opacity="0" result="BackgroundImageFix"/>
<feBlend mode="normal" in="SourceGraphic" in2="BackgroundImageFix" result="shape"/>
<feGaussianBlur stdDeviation="0.3" result="effect1_foregroundBlur_2034_19055"/>
</filter>
<filter id="filter1_di_2034_19055" x="17.9955" y="16.1138" width="43.8679" height="44.1371" filterUnits="userSpaceOnUse" color-interpolation-filters="sRGB">
<feFlood flood-opacity="0" result="BackgroundImageFix"/>
<feColorMatrix in="SourceAlpha" type="matrix" values="0 0 0 0 0 0 0 0 0 0 0 0 0 0 0 0 0 0 127 0" result="hardAlpha"/>
<feOffset dy="1.5"/>
<feComposite in2="hardAlpha" operator="out"/>
<feColorMatrix type="matrix" values="0 0 0 0 0.164706 0 0 0 0 1 0 0 0 0 0.141176 0 0 0 1 0"/>
<feBlend mode="normal" in2="BackgroundImageFix" result="effect1_dropShadow_2034_19055"/>
<feBlend mode="normal" in="SourceGraphic" in2="effect1_dropShadow_2034_19055" result="shape"/>
<feColorMatrix in="SourceAlpha" type="matrix" values="0 0 0 0 0 0 0 0 0 0 0 0 0 0 0 0 0 0 127 0" result="hardAlpha"/>
<feOffset dy="1"/>
<feGaussianBlur stdDeviation="0.4"/>
<feComposite in2="hardAlpha" operator="arithmetic" k2="-1" k3="1"/>
<feColorMatrix type="matrix" values="0 0 0 0 0 0 0 0 0 0 0 0 0 0 0 0 0 0 0.7 0"/>
<feBlend mode="normal" in2="shape" result="effect2_innerShadow_2034_19055"/>
</filter>
</defs>
</svg>
