<svg width="62" height="64" viewBox="0 0 62 64" fill="none" xmlns="http://www.w3.org/2000/svg">
<g opacity="0.5" filter="url(#filter0_f_2034_19093)">
<path fill-rule="evenodd" clip-rule="evenodd" d="M23.911 10.9151C24.9394 7.73297 27.9263 5.4314 31.4508 5.4314C34.9423 5.4314 37.9063 7.69017 38.9612 10.8262C46.7381 13.2547 52.8665 19.4171 55.2477 27.2148C58.4475 28.2327 60.7655 31.2284 60.7655 34.7655C60.7655 38.3841 58.3393 41.4361 55.0248 42.3834C52.5093 49.8238 46.552 55.6781 39.0476 58.052C37.9554 61.1204 35.0252 63.3171 31.582 63.3171C28.1404 63.3171 25.2114 61.1226 24.118 58.0565C16.6433 55.6971 10.7015 49.8853 8.16336 42.4919C4.63454 41.692 2 38.5365 2 34.7657C2 31.0745 4.52442 27.973 7.94096 27.0933C10.3195 19.4464 16.3069 13.3896 23.911 10.9151Z" fill="black"/>
</g>
<path fill-rule="evenodd" clip-rule="evenodd" d="M23.911 6.91513C24.9394 3.73297 27.9263 1.4314 31.4508 1.4314C34.9423 1.4314 37.9063 3.69017 38.9612 6.82618C46.7381 9.25469 52.8665 15.4171 55.2477 23.2148C58.4475 24.2327 60.7655 27.2284 60.7655 30.7655C60.7655 34.3841 58.3393 37.4361 55.0248 38.3834C52.5093 45.8238 46.552 51.6781 39.0476 54.052C37.9554 57.1204 35.0252 59.3171 31.582 59.3171C28.1404 59.3171 25.2114 57.1226 24.118 54.0565C16.6433 51.6971 10.7015 45.8853 8.16336 38.4919C4.63454 37.692 2 34.5365 2 30.7657C2 27.0745 4.52442 23.973 7.94096 23.0933C10.3195 15.4464 16.3069 9.3896 23.911 6.91513Z" fill="#03D302"/>
<path fill-rule="evenodd" clip-rule="evenodd" d="M22.9798 5.96335C24.325 2.60522 27.6093 0.231384 31.4508 0.231384C35.2542 0.231384 38.5113 2.55833 39.8811 5.86336C47.5773 8.46196 53.6546 14.5699 56.2112 22.2855C59.5812 23.6251 61.9656 26.9154 61.9656 30.7654C61.9656 34.7101 59.4627 38.0674 55.9603 39.3408C53.281 46.6898 47.3763 52.4853 39.9568 55.0162C38.5561 58.2513 35.335 60.5171 31.582 60.5171C27.831 60.5171 24.6114 58.2537 23.2095 55.0213C15.8326 52.51 9.95135 46.7723 7.24529 39.4884C3.51383 38.3444 0.800049 34.8732 0.800049 30.7657C0.800049 26.7506 3.39303 23.3439 6.99426 22.124C9.54889 14.5817 15.4749 8.59749 22.9798 5.96335ZM23.9111 6.91512C24.9394 3.73296 27.9263 1.43138 31.4508 1.43138C34.9424 1.43138 37.9064 3.69016 38.9613 6.82616C46.7382 9.25468 52.8665 15.4171 55.2477 23.2147C58.4476 24.2327 60.7656 27.2284 60.7656 30.7654C60.7656 34.3841 58.3393 37.4361 55.0249 38.3834C52.5093 45.8237 46.552 51.6781 39.0476 54.052C37.9555 57.1204 35.0253 59.3171 31.582 59.3171C28.1405 59.3171 25.2115 57.1226 24.1181 54.0565C16.6434 51.6971 10.7016 45.8853 8.16341 38.4919C4.63458 37.692 2.00005 34.5365 2.00005 30.7657C2.00005 27.0745 4.52446 23.973 7.94101 23.0933C10.3195 15.4464 16.307 9.38959 23.9111 6.91512Z" fill="black"/>
<mask id="mask0_2034_19093" style="mask-type:alpha" maskUnits="userSpaceOnUse" x="2" y="1" width="60" height="59">
<path d="M39.1076 6.87252C46.6454 9.27827 52.6137 15.1982 55.0861 22.7061C58.4941 23.5915 61.0103 26.689 61.0103 30.3741C61.0103 34.039 58.5216 37.1227 55.142 38.0274C52.6982 45.6367 46.6711 51.6405 39.0474 54.052C37.9552 57.1205 35.0251 59.3172 31.5818 59.3172C28.1402 59.3172 25.2112 57.1226 24.1178 54.0566C16.4508 51.6365 10.3966 45.584 7.97405 37.9181C4.78503 36.8938 2.47705 33.9035 2.47705 30.3741C2.47705 26.8241 4.81209 23.8194 8.03007 22.8123C10.4825 15.2494 16.4774 9.28216 24.0574 6.86799C25.1 3.7103 28.0748 1.43146 31.5818 1.43146C35.0905 1.43146 38.0664 3.71248 39.1076 6.87252Z" fill="#03D302"/>
</mask>
<g mask="url(#mask0_2034_19093)">
<path d="M17.0196 39.7986L8.19958 45.2688L14.5456 60.4093H47.5238L58.2689 40.8762L46.1508 36.4912L17.0196 39.7986Z" fill="#029802"/>
</g>
<g filter="url(#filter1_di_2034_19093)">
<path d="M48.4813 30.1045C48.4813 39.5103 40.8564 47.1352 31.4506 47.1352C22.0448 47.1352 14.4199 39.5103 14.4199 30.1045C14.4199 20.6987 22.0448 13.0739 31.4506 13.0739C40.8564 13.0739 48.4813 20.6987 48.4813 30.1045Z" fill="#034502"/>
</g>
<path d="M30.0169 6.08866C28.5354 6.99898 26.8612 6.96678 26.2775 6.01675C25.6937 5.06672 26.4215 3.5586 27.903 2.64828C29.3845 1.73796 31.0587 1.77015 31.6424 2.72019C32.2262 3.67022 31.4984 5.17833 30.0169 6.08866Z" fill="white"/>
<path opacity="0.9" d="M7.42942 28.4647C6.04696 29.5194 4.37799 29.6557 3.70167 28.7692C3.02535 27.8826 3.59778 26.309 4.98024 25.2543C6.3627 24.1996 8.03167 24.0633 8.70799 24.9499C9.38431 25.8364 8.81188 27.41 7.42942 28.4647Z" fill="white"/>
<g filter="url(#filter2_d_2034_19093)">
<path d="M40.3886 22.9629L32.4378 16.4872C32.0958 16.2087 31.6126 16.1861 31.2478 16.4314L22.6914 22.1862C22.3867 22.3912 22.4011 22.8447 22.7184 23.0318L26.2759 25.1301C26.4332 25.2229 26.6282 25.2228 26.7849 25.13L31.612 22.2685C31.7831 22.1671 31.9983 22.177 32.16 22.2938L36.4746 25.4116C36.6259 25.5209 36.8252 25.5372 36.9917 25.4538L40.2987 23.7974C40.6226 23.6352 40.6703 23.1923 40.3886 22.9629Z" fill="#03D302"/>
<path d="M40.3886 22.9629L32.4378 16.4872C32.0958 16.2087 31.6126 16.1861 31.2478 16.4314L22.6914 22.1862C22.3867 22.3912 22.4011 22.8447 22.7184 23.0318L26.2759 25.1301C26.4332 25.2229 26.6282 25.2228 26.7849 25.13L31.612 22.2685C31.7831 22.1671 31.9983 22.177 32.16 22.2938L36.4746 25.4116C36.6259 25.5209 36.8252 25.5372 36.9917 25.4538L40.2987 23.7974C40.6226 23.6352 40.6703 23.1923 40.3886 22.9629Z" stroke="black" stroke-width="0.5" stroke-linejoin="round"/>
</g>
<g filter="url(#filter3_d_2034_19093)">
<path d="M40.3886 39.3598L32.4378 32.8841C32.0958 32.6056 31.6126 32.5829 31.2478 32.8283L22.6914 38.5831C22.3867 38.788 22.4011 39.2415 22.7184 39.4287L26.2759 41.527C26.4332 41.6197 26.6282 41.6197 26.7849 41.5268L31.612 38.6653C31.7831 38.5639 31.9983 38.5739 32.16 38.6907L36.4746 41.8084C36.6259 41.9178 36.8252 41.9341 36.9917 41.8507L40.2987 40.1942C40.6226 40.032 40.6703 39.5892 40.3886 39.3598Z" fill="#03D302"/>
<path d="M40.3886 39.3598L32.4378 32.8841C32.0958 32.6056 31.6126 32.5829 31.2478 32.8283L22.6914 38.5831C22.3867 38.788 22.4011 39.2415 22.7184 39.4287L26.2759 41.527C26.4332 41.6197 26.6282 41.6197 26.7849 41.5268L31.612 38.6653C31.7831 38.5639 31.9983 38.5739 32.16 38.6907L36.4746 41.8084C36.6259 41.9178 36.8252 41.9341 36.9917 41.8507L40.2987 40.1942C40.6226 40.032 40.6703 39.5892 40.3886 39.3598Z" stroke="black" stroke-width="0.5" stroke-linejoin="round"/>
</g>
<g filter="url(#filter4_d_2034_19093)">
<path d="M40.3886 30.805L32.4378 24.3293C32.0958 24.0507 31.6126 24.0281 31.2478 24.2735L22.6914 30.0282C22.3867 30.2332 22.4011 30.6867 22.7184 30.8739L26.2759 32.9722C26.4332 33.0649 26.6282 33.0649 26.7849 32.972L31.612 30.1105C31.7831 30.0091 31.9983 30.0191 32.16 30.1359L36.4746 33.2536C36.6259 33.363 36.8252 33.3792 36.9917 33.2959L40.2987 31.6394C40.6226 31.4772 40.6703 31.0344 40.3886 30.805Z" fill="#03D302"/>
<path d="M40.3886 30.805L32.4378 24.3293C32.0958 24.0507 31.6126 24.0281 31.2478 24.2735L22.6914 30.0282C22.3867 30.2332 22.4011 30.6867 22.7184 30.8739L26.2759 32.9722C26.4332 33.0649 26.6282 33.0649 26.7849 32.972L31.612 30.1105C31.7831 30.0091 31.9983 30.0191 32.16 30.1359L36.4746 33.2536C36.6259 33.363 36.8252 33.3792 36.9917 33.2959L40.2987 31.6394C40.6226 31.4772 40.6703 31.0344 40.3886 30.805Z" stroke="black" stroke-width="0.5" stroke-linejoin="round"/>
</g>
<path d="M28.6279 22.7852C27.638 23.3934 26.5234 23.3785 26.1383 22.7518C25.7532 22.1251 26.2435 21.1239 27.2334 20.5157C28.2233 19.9074 29.3379 19.9224 29.723 20.5491C30.1081 21.1758 29.6178 22.1769 28.6279 22.7852Z" fill="white"/>
<defs>
<filter id="filter0_f_2034_19093" x="1.4" y="4.8314" width="59.9655" height="59.0857" filterUnits="userSpaceOnUse" color-interpolation-filters="sRGB">
<feFlood flood-opacity="0" result="BackgroundImageFix"/>
<feBlend mode="normal" in="SourceGraphic" in2="BackgroundImageFix" result="shape"/>
<feGaussianBlur stdDeviation="0.3" result="effect1_foregroundBlur_2034_19093"/>
</filter>
<filter id="filter1_di_2034_19093" x="14.4199" y="13.0739" width="34.0613" height="35.5613" filterUnits="userSpaceOnUse" color-interpolation-filters="sRGB">
<feFlood flood-opacity="0" result="BackgroundImageFix"/>
<feColorMatrix in="SourceAlpha" type="matrix" values="0 0 0 0 0 0 0 0 0 0 0 0 0 0 0 0 0 0 127 0" result="hardAlpha"/>
<feOffset dy="1.5"/>
<feComposite in2="hardAlpha" operator="out"/>
<feColorMatrix type="matrix" values="0 0 0 0 0.164706 0 0 0 0 1 0 0 0 0 0.141176 0 0 0 1 0"/>
<feBlend mode="normal" in2="BackgroundImageFix" result="effect1_dropShadow_2034_19093"/>
<feBlend mode="normal" in="SourceGraphic" in2="effect1_dropShadow_2034_19093" result="shape"/>
<feColorMatrix in="SourceAlpha" type="matrix" values="0 0 0 0 0 0 0 0 0 0 0 0 0 0 0 0 0 0 127 0" result="hardAlpha"/>
<feOffset dy="1"/>
<feGaussianBlur stdDeviation="0.4"/>
<feComposite in2="hardAlpha" operator="arithmetic" k2="-1" k3="1"/>
<feColorMatrix type="matrix" values="0 0 0 0 0 0 0 0 0 0 0 0 0 0 0 0 0 0 0.7 0"/>
<feBlend mode="normal" in2="shape" result="effect2_innerShadow_2034_19093"/>
</filter>
<filter id="filter2_d_2034_19093" x="22.2214" y="16.0118" width="18.6023" height="10.7449" filterUnits="userSpaceOnUse" color-interpolation-filters="sRGB">
<feFlood flood-opacity="0" result="BackgroundImageFix"/>
<feColorMatrix in="SourceAlpha" type="matrix" values="0 0 0 0 0 0 0 0 0 0 0 0 0 0 0 0 0 0 127 0" result="hardAlpha"/>
<feOffset dy="1"/>
<feComposite in2="hardAlpha" operator="out"/>
<feColorMatrix type="matrix" values="0 0 0 0 0 0 0 0 0 0 0 0 0 0 0 0 0 0 1 0"/>
<feBlend mode="normal" in2="BackgroundImageFix" result="effect1_dropShadow_2034_19093"/>
<feBlend mode="normal" in="SourceGraphic" in2="effect1_dropShadow_2034_19093" result="shape"/>
</filter>
<filter id="filter3_d_2034_19093" x="22.2214" y="32.4086" width="18.6023" height="10.7449" filterUnits="userSpaceOnUse" color-interpolation-filters="sRGB">
<feFlood flood-opacity="0" result="BackgroundImageFix"/>
<feColorMatrix in="SourceAlpha" type="matrix" values="0 0 0 0 0 0 0 0 0 0 0 0 0 0 0 0 0 0 127 0" result="hardAlpha"/>
<feOffset dy="1"/>
<feComposite in2="hardAlpha" operator="out"/>
<feColorMatrix type="matrix" values="0 0 0 0 0 0 0 0 0 0 0 0 0 0 0 0 0 0 1 0"/>
<feBlend mode="normal" in2="BackgroundImageFix" result="effect1_dropShadow_2034_19093"/>
<feBlend mode="normal" in="SourceGraphic" in2="effect1_dropShadow_2034_19093" result="shape"/>
</filter>
<filter id="filter4_d_2034_19093" x="22.2214" y="23.8538" width="18.6023" height="10.7449" filterUnits="userSpaceOnUse" color-interpolation-filters="sRGB">
<feFlood flood-opacity="0" result="BackgroundImageFix"/>
<feColorMatrix in="SourceAlpha" type="matrix" values="0 0 0 0 0 0 0 0 0 0 0 0 0 0 0 0 0 0 127 0" result="hardAlpha"/>
<feOffset dy="1"/>
<feComposite in2="hardAlpha" operator="out"/>
<feColorMatrix type="matrix" values="0 0 0 0 0 0 0 0 0 0 0 0 0 0 0 0 0 0 1 0"/>
<feBlend mode="normal" in2="BackgroundImageFix" result="effect1_dropShadow_2034_19093"/>
<feBlend mode="normal" in="SourceGraphic" in2="effect1_dropShadow_2034_19093" result="shape"/>
</filter>
</defs>
</svg>
