<svg width="474" height="113" viewBox="0 0 474 113" fill="none" xmlns="http://www.w3.org/2000/svg">
<path d="M0 103.898V0L374.33 0.00201976L123.968 73.5324V68.4951L0 103.898Z" fill="#094CF2"/>
<path d="M176.885 61.7048L446.461 0.00201976L473.979 0.00201971L470.434 9.83544L176.885 61.7048Z" fill="#094CF2"/>
<path d="M22.1318 107.193L0.00117791 110.08L0 112.555L22.1318 107.193Z" fill="#094CF2"/>
<g filter="url(#filter0_d_2028_1388)">
<mask id="path-2-outside-1_2028_1388" maskUnits="userSpaceOnUse" x="55.6143" y="15.3902" width="186.24" height="44.5814" fill="black">
<rect fill="white" x="55.6143" y="15.3902" width="186.24" height="44.5814"/>
<path d="M64.8496 28.0123C64.8794 27.8721 65.5217 27.7137 66.7765 27.537C68.0659 27.3308 69.1114 27.2067 69.9129 27.1647C73.0906 26.9982 74.6646 27.3177 74.6348 28.1234L74.3941 46.4364L81.806 27.7476C82.1506 26.9254 84.0119 26.4258 87.39 26.2488C88.2202 26.2052 89.2531 26.2066 90.4889 26.2527C91.7247 26.2989 92.3276 26.392 92.2978 26.5322L78.7789 54.7745C78.569 55.2292 77.6619 55.5678 76.0576 55.7906C73.5706 56.1704 71.3401 56.3428 69.366 56.3076C67.4264 56.2429 66.4411 56.0173 66.4101 55.6307L64.8496 28.0123ZM91.8557 48.0168L95.0384 33.0433L91.9896 33.2031C91.5029 33.2286 91.2875 32.6437 91.3434 31.4485C91.3827 30.8642 91.4679 30.2635 91.599 29.6467C91.7302 29.0298 91.9012 28.4247 92.1123 27.8313C92.569 26.6151 93.0406 25.9942 93.5273 25.9687L107.955 25.2125C108.442 25.187 108.643 25.7727 108.559 26.9694C108.548 27.5522 108.477 28.1521 108.346 28.769C108.215 29.3859 108.03 29.9917 107.79 30.5866C107.362 31.8013 106.904 32.4214 106.418 32.4469L103.541 32.5977L100.358 47.5712L103.364 47.4137C103.851 47.3882 104.066 47.973 104.01 49.1682C103.999 49.7511 103.929 50.351 103.797 50.9678C103.666 51.5847 103.481 52.1906 103.241 52.7854C102.785 54.0017 102.313 54.6225 101.826 54.648L87.355 55.4064C86.8684 55.4319 86.6673 54.8463 86.7518 53.6496C86.7625 53.0668 86.8334 52.4669 86.9645 51.85C87.0956 51.2331 87.281 50.6273 87.5207 50.0324C87.9487 48.8177 88.4061 48.1976 88.8928 48.1721L91.8557 48.0168ZM123.225 24.038C125.314 23.9285 127.084 24.1269 128.533 24.6332C130.017 25.11 130.655 25.8391 130.446 26.8205C130.238 27.8019 129.592 29.0419 128.509 30.5405C127.461 32.0096 126.679 32.7576 126.164 32.7846C126.021 32.7921 125.864 32.731 125.693 32.6013C125.557 32.4421 125.164 32.2963 124.512 32.1641C123.896 32.0023 123.344 31.9342 122.857 31.9597C121.197 32.0467 119.729 32.6921 118.454 33.8957C117.208 35.0979 116.331 36.8907 115.825 39.2741C115.324 41.6295 115.467 43.355 116.253 44.4506C117.068 45.5448 118.277 46.0498 119.88 45.9658C120.539 45.9313 121.286 45.8089 122.124 45.5987C122.996 45.3589 123.639 45.0617 124.054 44.7072C124.123 44.6482 124.244 44.6141 124.416 44.6051C124.587 44.5961 124.834 44.9021 125.155 45.523C125.51 46.1144 125.778 46.9183 125.958 47.9348C126.145 48.9232 126.178 49.6979 126.059 50.2587C125.826 51.3522 124.783 52.2665 122.928 53.0014C121.073 53.7364 118.972 54.1654 116.625 54.2884C112.846 54.4864 110.017 53.3453 108.138 50.8651C106.259 48.3849 105.823 44.7754 106.83 40.0366C107.844 35.2698 109.885 31.4611 112.953 28.6107C116.051 25.7588 119.475 24.2345 123.225 24.038ZM140.455 51.9581C140.336 52.5189 138.86 52.8736 136.026 53.0221C133.191 53.1706 131.834 52.9645 131.953 52.4037L136.441 31.2894L131.288 31.5594C130.802 31.5849 130.595 30.958 130.669 29.6787C130.714 29.0663 130.805 28.4376 130.942 27.7927C131.079 27.1478 131.256 26.5146 131.473 25.8932C131.948 24.5929 132.429 23.93 132.915 23.9045L151.595 22.9255C152.081 22.9 152.288 23.5269 152.214 24.8063C152.169 25.4187 152.078 26.0473 151.941 26.6922C151.803 27.3372 151.626 27.9703 151.409 28.5917C150.935 29.8921 150.454 30.555 149.968 30.5805L144.943 30.8438L140.455 51.9581ZM160.317 51.9986C156.31 52.2086 153.306 51.0905 151.306 48.6444C149.336 46.1967 148.875 42.5053 149.924 37.5702C150.979 32.6071 153.051 28.783 156.141 26.0978C159.26 23.4111 162.838 21.962 166.874 21.7504C170.939 21.5374 173.949 22.6274 175.903 25.0205C177.863 27.3856 178.301 31.1197 177.216 36.2231C176.137 41.2983 174.059 45.1505 170.981 47.7796C167.908 50.3807 164.354 51.787 160.317 51.9986ZM165.072 29.8305C163.698 29.9025 162.407 30.5802 161.2 31.8635C160.022 33.1452 159.194 34.9077 158.718 37.1509C158.247 39.3661 158.327 41.0533 158.958 42.2125C159.595 43.3437 160.629 43.8718 162.061 43.7968C163.521 43.7203 164.823 43.0559 165.966 41.8037C167.139 40.5499 167.963 38.8014 168.44 36.5582C168.917 34.315 168.811 32.6153 168.123 31.4591C167.463 30.3013 166.446 29.7585 165.072 29.8305ZM184.591 49.7282C184.496 50.1769 183.089 50.4724 180.369 50.615C177.621 50.759 176.291 50.6207 176.381 50.2001L182.21 22.7768C182.418 21.7954 183.052 21.2769 184.111 21.2214L192.313 20.7915C199.842 20.397 202.996 23.0738 201.774 28.8221C201.404 30.5605 200.724 32.1628 199.733 33.6289C198.748 35.0669 197.536 36.2395 196.098 37.1467L199.631 45.6959C199.259 46.3808 198.351 47.1909 196.906 48.1262C194.933 49.4219 193.387 50.0991 192.271 50.1576C191.154 50.2161 190.408 49.867 190.031 49.1104L187.952 40.1108L186.621 40.1805L184.591 49.7282ZM189.142 28.3195L187.801 34.6285L188.016 34.6173C190.735 34.4748 192.331 33.2959 192.801 31.0807C193.016 30.0713 192.902 29.3425 192.459 28.8943C192.051 28.4166 191.246 28.2092 190.044 28.2722L189.142 28.3195ZM221.211 20.6496C221.792 19.6487 223.729 19.062 227.021 18.8894C227.851 18.8459 228.812 18.851 229.905 18.9046C231.026 18.9568 231.526 19.0692 231.404 19.242L218.736 37.2913L216.554 47.554C216.453 48.0307 215.594 48.4084 213.978 48.6872C213.153 48.8414 212.353 48.9387 211.58 48.9792C210.807 49.0198 210.043 49.0182 209.288 48.9746C207.756 48.8608 207.043 48.5516 207.15 48.0469L209.278 38.0365L203.818 20.7709C203.74 20.6086 204.359 20.4237 205.677 20.2159C207.001 19.9802 208.107 19.8391 208.994 19.7925C212.516 19.608 214.341 20.0115 214.47 21.0029L215.781 29.4189L221.211 20.6496ZM234.183 38.9772C234.148 39.1455 233.099 39.2836 231.038 39.3916C229.005 39.4981 228.004 39.4813 228.034 39.3411L231.583 18.6503C231.63 18.426 232.957 18.2456 235.562 18.1091C238.195 17.971 239.491 18.0002 239.45 18.1965L234.183 38.9772ZM226.562 41.8722C226.603 41.6759 227.941 41.5087 230.575 41.3707C233.237 41.2312 234.551 41.2455 234.515 41.4138L233.227 47.4705C233.168 47.7509 231.807 47.9608 229.144 48.1003C226.511 48.2384 225.212 48.2233 225.248 48.055L226.562 41.8722Z"/>
</mask>
<path d="M64.8496 28.0123C64.8794 27.8721 65.5217 27.7137 66.7765 27.537C68.0659 27.3308 69.1114 27.2067 69.9129 27.1647C73.0906 26.9982 74.6646 27.3177 74.6348 28.1234L74.3941 46.4364L81.806 27.7476C82.1506 26.9254 84.0119 26.4258 87.39 26.2488C88.2202 26.2052 89.2531 26.2066 90.4889 26.2527C91.7247 26.2989 92.3276 26.392 92.2978 26.5322L78.7789 54.7745C78.569 55.2292 77.6619 55.5678 76.0576 55.7906C73.5706 56.1704 71.3401 56.3428 69.366 56.3076C67.4264 56.2429 66.4411 56.0173 66.4101 55.6307L64.8496 28.0123ZM91.8557 48.0168L95.0384 33.0433L91.9896 33.2031C91.5029 33.2286 91.2875 32.6437 91.3434 31.4485C91.3827 30.8642 91.4679 30.2635 91.599 29.6467C91.7302 29.0298 91.9012 28.4247 92.1123 27.8313C92.569 26.6151 93.0406 25.9942 93.5273 25.9687L107.955 25.2125C108.442 25.187 108.643 25.7727 108.559 26.9694C108.548 27.5522 108.477 28.1521 108.346 28.769C108.215 29.3859 108.03 29.9917 107.79 30.5866C107.362 31.8013 106.904 32.4214 106.418 32.4469L103.541 32.5977L100.358 47.5712L103.364 47.4137C103.851 47.3882 104.066 47.973 104.01 49.1682C103.999 49.7511 103.929 50.351 103.797 50.9678C103.666 51.5847 103.481 52.1906 103.241 52.7854C102.785 54.0017 102.313 54.6225 101.826 54.648L87.355 55.4064C86.8684 55.4319 86.6673 54.8463 86.7518 53.6496C86.7625 53.0668 86.8334 52.4669 86.9645 51.85C87.0956 51.2331 87.281 50.6273 87.5207 50.0324C87.9487 48.8177 88.4061 48.1976 88.8928 48.1721L91.8557 48.0168ZM123.225 24.038C125.314 23.9285 127.084 24.1269 128.533 24.6332C130.017 25.11 130.655 25.8391 130.446 26.8205C130.238 27.8019 129.592 29.0419 128.509 30.5405C127.461 32.0096 126.679 32.7576 126.164 32.7846C126.021 32.7921 125.864 32.731 125.693 32.6013C125.557 32.4421 125.164 32.2963 124.512 32.1641C123.896 32.0023 123.344 31.9342 122.857 31.9597C121.197 32.0467 119.729 32.6921 118.454 33.8957C117.208 35.0979 116.331 36.8907 115.825 39.2741C115.324 41.6295 115.467 43.355 116.253 44.4506C117.068 45.5448 118.277 46.0498 119.88 45.9658C120.539 45.9313 121.286 45.8089 122.124 45.5987C122.996 45.3589 123.639 45.0617 124.054 44.7072C124.123 44.6482 124.244 44.6141 124.416 44.6051C124.587 44.5961 124.834 44.9021 125.155 45.523C125.51 46.1144 125.778 46.9183 125.958 47.9348C126.145 48.9232 126.178 49.6979 126.059 50.2587C125.826 51.3522 124.783 52.2665 122.928 53.0014C121.073 53.7364 118.972 54.1654 116.625 54.2884C112.846 54.4864 110.017 53.3453 108.138 50.8651C106.259 48.3849 105.823 44.7754 106.83 40.0366C107.844 35.2698 109.885 31.4611 112.953 28.6107C116.051 25.7588 119.475 24.2345 123.225 24.038ZM140.455 51.9581C140.336 52.5189 138.86 52.8736 136.026 53.0221C133.191 53.1706 131.834 52.9645 131.953 52.4037L136.441 31.2894L131.288 31.5594C130.802 31.5849 130.595 30.958 130.669 29.6787C130.714 29.0663 130.805 28.4376 130.942 27.7927C131.079 27.1478 131.256 26.5146 131.473 25.8932C131.948 24.5929 132.429 23.93 132.915 23.9045L151.595 22.9255C152.081 22.9 152.288 23.5269 152.214 24.8063C152.169 25.4187 152.078 26.0473 151.941 26.6922C151.803 27.3372 151.626 27.9703 151.409 28.5917C150.935 29.8921 150.454 30.555 149.968 30.5805L144.943 30.8438L140.455 51.9581ZM160.317 51.9986C156.31 52.2086 153.306 51.0905 151.306 48.6444C149.336 46.1967 148.875 42.5053 149.924 37.5702C150.979 32.6071 153.051 28.783 156.141 26.0978C159.26 23.4111 162.838 21.962 166.874 21.7504C170.939 21.5374 173.949 22.6274 175.903 25.0205C177.863 27.3856 178.301 31.1197 177.216 36.2231C176.137 41.2983 174.059 45.1505 170.981 47.7796C167.908 50.3807 164.354 51.787 160.317 51.9986ZM165.072 29.8305C163.698 29.9025 162.407 30.5802 161.2 31.8635C160.022 33.1452 159.194 34.9077 158.718 37.1509C158.247 39.3661 158.327 41.0533 158.958 42.2125C159.595 43.3437 160.629 43.8718 162.061 43.7968C163.521 43.7203 164.823 43.0559 165.966 41.8037C167.139 40.5499 167.963 38.8014 168.44 36.5582C168.917 34.315 168.811 32.6153 168.123 31.4591C167.463 30.3013 166.446 29.7585 165.072 29.8305ZM184.591 49.7282C184.496 50.1769 183.089 50.4724 180.369 50.615C177.621 50.759 176.291 50.6207 176.381 50.2001L182.21 22.7768C182.418 21.7954 183.052 21.2769 184.111 21.2214L192.313 20.7915C199.842 20.397 202.996 23.0738 201.774 28.8221C201.404 30.5605 200.724 32.1628 199.733 33.6289C198.748 35.0669 197.536 36.2395 196.098 37.1467L199.631 45.6959C199.259 46.3808 198.351 47.1909 196.906 48.1262C194.933 49.4219 193.387 50.0991 192.271 50.1576C191.154 50.2161 190.408 49.867 190.031 49.1104L187.952 40.1108L186.621 40.1805L184.591 49.7282ZM189.142 28.3195L187.801 34.6285L188.016 34.6173C190.735 34.4748 192.331 33.2959 192.801 31.0807C193.016 30.0713 192.902 29.3425 192.459 28.8943C192.051 28.4166 191.246 28.2092 190.044 28.2722L189.142 28.3195ZM221.211 20.6496C221.792 19.6487 223.729 19.062 227.021 18.8894C227.851 18.8459 228.812 18.851 229.905 18.9046C231.026 18.9568 231.526 19.0692 231.404 19.242L218.736 37.2913L216.554 47.554C216.453 48.0307 215.594 48.4084 213.978 48.6872C213.153 48.8414 212.353 48.9387 211.58 48.9792C210.807 49.0198 210.043 49.0182 209.288 48.9746C207.756 48.8608 207.043 48.5516 207.15 48.0469L209.278 38.0365L203.818 20.7709C203.74 20.6086 204.359 20.4237 205.677 20.2159C207.001 19.9802 208.107 19.8391 208.994 19.7925C212.516 19.608 214.341 20.0115 214.47 21.0029L215.781 29.4189L221.211 20.6496ZM234.183 38.9772C234.148 39.1455 233.099 39.2836 231.038 39.3916C229.005 39.4981 228.004 39.4813 228.034 39.3411L231.583 18.6503C231.63 18.426 232.957 18.2456 235.562 18.1091C238.195 17.971 239.491 18.0002 239.45 18.1965L234.183 38.9772ZM226.562 41.8722C226.603 41.6759 227.941 41.5087 230.575 41.3707C233.237 41.2312 234.551 41.2455 234.515 41.4138L233.227 47.4705C233.168 47.7509 231.807 47.9608 229.144 48.1003C226.511 48.2384 225.212 48.2233 225.248 48.055L226.562 41.8722Z" fill="#FFFEC4"/>
<path d="M64.8496 28.0123L63.2518 28.0961L63.2088 28.2983L63.2197 28.491L64.8496 28.0123ZM66.7765 27.537L66.5933 29.0876L66.6098 29.0852L66.6264 29.0826L66.7765 27.537ZM74.6348 28.1234L73.0038 28.4718L73.0031 28.4888L73.0029 28.5058L74.6348 28.1234ZM74.3941 46.4364L72.7621 46.8188L75.9053 46.6374L74.3941 46.4364ZM81.806 27.7476L80.3087 27.5125L80.3016 27.5295L80.2948 27.5466L81.806 27.7476ZM90.4889 26.2527L90.0129 27.8189L90.013 27.8189L90.4889 26.2527ZM92.2978 26.5322L93.7555 26.8556L93.852 26.6541L93.8957 26.4485L92.2978 26.5322ZM78.7789 54.7745L77.3212 54.4512L77.3152 54.4636L77.3094 54.4762L78.7789 54.7745ZM76.0576 55.7906L76.2442 54.2395L76.2322 54.2412L76.2202 54.243L76.0576 55.7906ZM69.366 56.3076L68.8961 57.874L68.9082 57.8744L68.9203 57.8746L69.366 56.3076ZM66.4101 55.6307L64.7802 56.1094L64.7811 56.1253L64.7824 56.1412L66.4101 55.6307ZM64.8496 28.0123L66.4474 27.9286C66.3214 28.5211 65.9084 28.91 65.7165 29.0619C65.5246 29.2137 65.3651 29.2851 65.3283 29.3014C65.2427 29.3394 65.2287 29.3343 65.3554 29.303C65.581 29.2474 65.9806 29.1738 66.5933 29.0876L66.7765 27.537L66.9597 25.9865C66.3175 26.0769 65.7686 26.1709 65.3519 26.2737C65.1574 26.3216 64.8988 26.3934 64.6453 26.5061C64.5245 26.5598 64.3 26.6679 64.0624 26.8559C63.8247 27.044 63.3852 27.4685 63.2518 28.0961L64.8496 28.0123ZM66.7765 27.537L66.6264 29.0826C67.8853 28.8813 68.8632 28.7673 69.5803 28.7297L69.9129 27.1647L70.2456 25.5996C69.3596 25.6461 68.2465 25.7804 66.9266 25.9914L66.7765 27.537ZM69.9129 27.1647L69.5803 28.7297C71.1295 28.6485 72.1615 28.6953 72.7664 28.8181C72.91 28.8472 73.013 28.8775 73.0836 28.9041C73.1554 28.9311 73.1789 28.9487 73.1748 28.9457C73.1604 28.9352 72.9919 28.7945 73.0038 28.4718L74.6348 28.1234L76.2659 27.775C76.2927 27.0495 75.9385 26.5667 75.538 26.2748C75.1557 25.9963 74.6689 25.8387 74.1869 25.7408C73.2179 25.5441 71.874 25.5143 70.2456 25.5996L69.9129 27.1647ZM74.6348 28.1234L73.0029 28.5058L72.7621 46.8188L74.3941 46.4364L76.026 46.054L76.2668 27.741L74.6348 28.1234ZM74.3941 46.4364L75.9053 46.6374L83.3172 27.9486L81.806 27.7476L80.2948 27.5466L72.8829 46.2354L74.3941 46.4364ZM81.806 27.7476L83.3033 27.9826C83.1584 28.3284 82.9114 28.4756 82.9296 28.4646C82.9621 28.4452 83.1259 28.3616 83.5004 28.2611C84.2417 28.0621 85.4058 27.9003 87.0573 27.8138L87.39 26.2488L87.7226 24.6837C85.9961 24.7742 84.5405 24.9508 83.4205 25.2514C82.8643 25.4007 82.287 25.6072 81.768 25.9182C81.2348 26.2377 80.6259 26.7557 80.3087 27.5125L81.806 27.7476ZM87.39 26.2488L87.0573 27.8138C87.8212 27.7738 88.8027 27.7737 90.0129 27.8189L90.4889 26.2527L90.9649 24.6865C89.7035 24.6394 88.6191 24.6367 87.7226 24.6837L87.39 26.2488ZM90.4889 26.2527L90.013 27.8189C90.617 27.8415 91.0063 27.874 91.2219 27.9073C91.3423 27.9259 91.3304 27.9335 91.2627 27.9059C91.2343 27.8943 91.1024 27.8405 90.9706 27.7086C90.8408 27.5787 90.571 27.2229 90.7 26.616L92.2978 26.5322L93.8957 26.4485C94.0321 25.8065 93.7501 25.4171 93.5881 25.2551C93.4242 25.0911 93.2404 25.0066 93.1404 24.9659C92.9294 24.88 92.6951 24.8351 92.5141 24.8071C92.1267 24.7473 91.5966 24.7101 90.9649 24.6865L90.4889 26.2527ZM92.2978 26.5322L90.8402 26.2089L77.3212 54.4512L78.7789 54.7745L80.2365 55.0979L93.7555 26.8556L92.2978 26.5322ZM78.7789 54.7745L77.3094 54.4762C77.4548 54.1614 77.6733 53.9801 77.7603 53.9183C77.836 53.8645 77.8433 53.8766 77.7188 53.9232C77.4662 54.0175 76.9969 54.135 76.2442 54.2395L76.0576 55.7906L75.871 57.3416C76.7226 57.2234 77.509 57.0602 78.1635 56.8159C78.6957 56.6171 79.7566 56.1379 80.2483 55.0729L78.7789 54.7745ZM76.0576 55.7906L76.2202 54.243C73.8091 54.6113 71.6757 54.7738 69.8116 54.7406L69.366 56.3076L68.9203 57.8746C71.0044 57.9118 73.3322 57.7296 75.895 57.3381L76.0576 55.7906ZM69.366 56.3076L69.8358 54.7412C68.8965 54.7099 68.2764 54.641 67.9154 54.5583C67.7304 54.5159 67.6876 54.486 67.713 54.5014C67.7135 54.5016 68.001 54.6629 68.0378 55.1202L66.4101 55.6307L64.7824 56.1412C64.8346 56.7917 65.257 57.1262 65.5115 57.2795C65.7911 57.4479 66.1216 57.5509 66.4293 57.6214C67.0536 57.7644 67.8959 57.8406 68.8961 57.874L69.366 56.3076ZM66.4101 55.6307L68.04 55.152L66.4795 27.5336L64.8496 28.0123L63.2197 28.491L64.7802 56.1094L66.4101 55.6307ZM91.8557 48.0168L91.523 49.5818L93.1208 49.4981L93.4535 47.933L91.8557 48.0168ZM95.0384 33.0433L96.6362 32.9596L96.9689 31.3945L95.3711 31.4783L95.0384 33.0433ZM91.3434 31.4485L89.7146 31.7527L89.7136 31.7677L89.7129 31.7826L91.3434 31.4485ZM92.1123 27.8313L90.5887 27.6625L90.583 27.6777L90.5776 27.6929L92.1123 27.8313ZM108.559 26.9694L106.93 27.2686L106.928 27.3067L106.927 27.3445L108.559 26.9694ZM107.79 30.5866L106.283 30.376L106.267 30.4145L106.253 30.4532L107.79 30.5866ZM103.541 32.5977L103.873 31.0327L102.276 31.1164L101.943 32.6814L103.541 32.5977ZM100.358 47.5712L98.7602 47.6549L98.4276 49.22L100.025 49.1362L100.358 47.5712ZM104.01 49.1682L102.38 49.5024L102.379 49.5229L102.378 49.5433L104.01 49.1682ZM103.241 52.7854L101.734 52.5749L101.725 52.5957L101.718 52.6166L103.241 52.7854ZM86.7518 53.6496L88.3803 53.3504L88.383 53.3122L88.3837 53.2745L86.7518 53.6496ZM87.5207 50.0324L89.028 50.243L89.0435 50.2045L89.0572 50.1658L87.5207 50.0324ZM91.8557 48.0168L93.4535 47.933L96.6362 32.9596L95.0384 33.0433L93.4406 33.127L90.2579 48.1005L91.8557 48.0168ZM95.0384 33.0433L95.3711 31.4783L92.3222 31.638L91.9896 33.2031L91.6569 34.7681L94.7057 34.6083L95.0384 33.0433ZM91.9896 33.2031L92.3222 31.638C92.5651 31.6253 92.7645 31.6973 92.8943 31.8007C93.0056 31.8894 93.0287 31.9704 93.0204 31.9477C93.0132 31.9283 92.9925 31.8575 92.9791 31.7079C92.966 31.5619 92.9621 31.3669 92.9739 31.1144L91.3434 31.4485L89.7129 31.7826C89.682 32.4431 89.7136 33.0976 89.9057 33.6194C90.1023 34.1533 90.5945 34.8238 91.6569 34.7681L91.9896 33.2031ZM91.3434 31.4485L92.9722 31.1443C93.0064 30.6353 93.0809 30.1085 93.1968 29.5629L91.599 29.6467L90.0012 29.7304C89.8549 30.4186 89.759 31.093 89.7146 31.7527L91.3434 31.4485ZM91.599 29.6467L93.1968 29.5629C93.3128 29.0174 93.4632 28.4865 93.647 27.9697L92.1123 27.8313L90.5776 27.6929C90.3393 28.3628 90.1475 29.0422 90.0012 29.7304L91.599 29.6467ZM92.1123 27.8313L93.6359 28.0001C93.7324 27.7432 93.8202 27.5433 93.8963 27.3927C93.9743 27.2382 94.026 27.1637 94.0416 27.1431C94.0599 27.119 94.0015 27.2043 93.8495 27.3068C93.6724 27.4262 93.4375 27.521 93.1946 27.5337L93.5273 25.9687L93.86 24.4037C92.7975 24.4593 92.006 25.1971 91.5755 25.7639C91.1547 26.3178 90.841 26.9904 90.5887 27.6625L92.1123 27.8313ZM93.5273 25.9687L93.1946 27.5337L107.623 26.7776L107.955 25.2125L108.288 23.6475L93.86 24.4037L93.5273 25.9687ZM107.955 25.2125L107.623 26.7776C107.379 26.7904 107.174 26.7179 107.039 26.6078C106.923 26.5133 106.899 26.4255 106.905 26.4446C106.911 26.4604 106.93 26.5284 106.939 26.677C106.949 26.8218 106.948 27.0162 106.93 27.2686L108.559 26.9694L110.187 26.6702C110.234 26.0092 110.219 25.3493 110.037 24.8206C109.85 24.2745 109.361 23.5913 108.288 23.6475L107.955 25.2125ZM108.559 26.9694L106.927 27.3445C106.918 27.829 106.859 28.3312 106.748 28.8527L108.346 28.769L109.944 28.6852C110.095 27.973 110.178 27.2754 110.191 26.5943L108.559 26.9694ZM108.346 28.769L106.748 28.8527C106.637 29.3742 106.482 29.8815 106.283 30.376L107.79 30.5866L109.297 30.7972C109.577 30.102 109.792 29.3975 109.944 28.6852L108.346 28.769ZM107.79 30.5866L106.253 30.4532C106.163 30.7094 106.08 30.9081 106.008 31.0571C105.935 31.2102 105.886 31.2817 105.874 31.2984C105.859 31.3186 105.921 31.2263 106.081 31.1173C106.266 30.9904 106.507 30.8947 106.75 30.8819L106.418 32.4469L106.085 34.012C107.158 33.9557 107.951 33.2053 108.378 32.627C108.791 32.0672 109.09 31.3908 109.326 30.7199L107.79 30.5866ZM106.418 32.4469L106.75 30.8819L103.873 31.0327L103.541 32.5977L103.208 34.1627L106.085 34.012L106.418 32.4469ZM103.541 32.5977L101.943 32.6814L98.7602 47.6549L100.358 47.5712L101.956 47.4875L105.139 32.514L103.541 32.5977ZM100.358 47.5712L100.025 49.1362L103.031 48.9787L103.364 47.4137L103.697 45.8486L100.691 46.0062L100.358 47.5712ZM103.364 47.4137L103.031 48.9787C102.788 48.9914 102.589 48.9194 102.459 48.8161C102.348 48.7273 102.325 48.6463 102.333 48.669C102.34 48.6885 102.361 48.7592 102.374 48.9088C102.387 49.0548 102.391 49.2499 102.38 49.5024L104.01 49.1682L105.641 48.8341C105.671 48.1736 105.64 47.5191 105.448 46.9973C105.251 46.4635 104.759 45.7929 103.697 45.8486L103.364 47.4137ZM104.01 49.1682L102.378 49.5433C102.369 50.0279 102.31 50.5301 102.2 51.0516L103.797 50.9678L105.395 50.8841C105.547 50.1718 105.629 49.4743 105.642 48.7931L104.01 49.1682ZM103.797 50.9678L102.2 51.0516C102.089 51.5731 101.933 52.0803 101.734 52.5749L103.241 52.7854L104.749 52.996C105.029 52.3009 105.244 51.5964 105.395 50.8841L103.797 50.9678ZM103.241 52.7854L101.718 52.6166C101.621 52.8736 101.533 53.0734 101.457 53.2241C101.379 53.3785 101.328 53.453 101.312 53.4736C101.294 53.4977 101.352 53.4125 101.504 53.3099C101.681 53.1905 101.916 53.0957 102.159 53.083L101.826 54.648L101.494 56.2131C102.556 56.1574 103.347 55.4196 103.778 54.8529C104.199 54.299 104.512 53.6263 104.765 52.9542L103.241 52.7854ZM101.826 54.648L102.159 53.083L87.6877 53.8414L87.355 55.4064L87.0224 56.9715L101.494 56.2131L101.826 54.648ZM87.355 55.4064L87.6877 53.8414C87.9314 53.8286 88.1362 53.901 88.2714 54.0112C88.3875 54.1057 88.4116 54.1935 88.4051 54.1744C88.3996 54.1586 88.3809 54.0906 88.3711 53.9419C88.3617 53.7971 88.3624 53.6028 88.3803 53.3504L86.7518 53.6496L85.1234 53.9488C85.0767 54.6098 85.0919 55.2697 85.2734 55.7984C85.4609 56.3445 85.9492 57.0277 87.0224 56.9715L87.355 55.4064ZM86.7518 53.6496L88.3837 53.2745C88.3925 52.79 88.4515 52.2878 88.5623 51.7663L86.9645 51.85L85.3667 51.9338C85.2153 52.646 85.1324 53.3436 85.12 54.0247L86.7518 53.6496ZM86.9645 51.85L88.5623 51.7663C88.6731 51.2448 88.8288 50.7375 89.028 50.243L87.5207 50.0324L86.0133 49.8218C85.7332 50.517 85.5181 51.2215 85.3667 51.9338L86.9645 51.85ZM87.5207 50.0324L89.0572 50.1658C89.1475 49.9096 89.2302 49.7109 89.3022 49.5618C89.376 49.4088 89.4244 49.3373 89.4368 49.3206C89.4517 49.3004 89.3892 49.3927 89.2299 49.5016C89.0444 49.6286 88.8038 49.7243 88.5601 49.7371L88.8928 48.1721L89.2254 46.607C88.1522 46.6633 87.3592 47.4136 86.9327 47.992C86.5198 48.5518 86.2206 49.2282 85.9842 49.8991L87.5207 50.0324ZM88.8928 48.1721L88.5601 49.7371L91.523 49.5818L91.8557 48.0168L92.1883 46.4517L89.2254 46.607L88.8928 48.1721ZM128.533 24.6332L127.653 26.1252L127.668 26.1304L127.683 26.1352L128.533 24.6332ZM128.509 30.5405L127.244 29.8936L127.237 29.9043L128.509 30.5405ZM125.693 32.6013L124.328 33.7672L124.402 33.8539L124.494 33.9235L125.693 32.6013ZM124.512 32.1641L123.729 33.6857L123.765 33.6952L123.802 33.7027L124.512 32.1641ZM118.454 33.8957L117.473 32.926L117.464 32.9346L117.455 32.9433L118.454 33.8957ZM116.253 44.4506L114.833 45.5462L114.838 45.5538L114.844 45.5613L116.253 44.4506ZM122.124 45.5987L122.133 47.1114L122.154 47.1061L122.175 47.1004L122.124 45.5987ZM124.054 44.7072L123.16 43.6598L124.054 44.7072ZM125.155 45.523L123.653 46.4855L123.669 46.5165L123.687 46.5462L125.155 45.523ZM125.958 47.9348L124.346 48.567L124.347 48.5735L124.349 48.5801L125.958 47.9348ZM122.928 53.0014L123.189 54.4328L122.928 53.0014ZM108.138 50.8651L106.734 51.9828L106.734 51.9828L108.138 50.8651ZM112.953 28.6107L111.994 27.6211L111.986 27.6281L112.953 28.6107ZM123.225 24.038L122.892 25.603C124.832 25.5014 126.406 25.6895 127.653 26.1252L128.533 24.6332L129.414 23.1413C127.762 22.5642 125.797 22.3556 123.557 22.473L123.225 24.038ZM128.533 24.6332L127.683 26.1352C128.317 26.3391 128.63 26.5559 128.768 26.7129C128.875 26.8362 128.852 26.8862 128.849 26.9042L130.446 26.8205L132.044 26.7368C132.478 24.6945 130.996 23.6492 129.384 23.1312L128.533 24.6332ZM130.446 26.8205L128.849 26.9042C128.718 27.5193 128.26 28.4885 127.244 29.8936L128.509 30.5405L129.774 31.1874C130.924 29.5953 131.758 28.0845 132.044 26.7368L130.446 26.8205ZM128.509 30.5405L127.237 29.9043C126.746 30.5919 126.384 31.0152 126.144 31.2444C126.026 31.357 125.988 31.3749 126.022 31.3545C126.06 31.3318 126.238 31.2331 126.496 31.2196L126.164 32.7846L125.831 34.3496C126.827 34.2974 127.662 33.6088 128.129 33.1623C128.671 32.6435 129.224 31.9582 129.782 31.1767L128.509 30.5405ZM126.164 32.7846L126.496 31.2196C126.689 31.2095 126.812 31.2487 126.86 31.2676C126.91 31.2868 126.92 31.2997 126.893 31.2791L125.693 32.6013L124.494 33.9235C124.747 34.1158 125.191 34.3832 125.831 34.3496L126.164 32.7846ZM125.693 32.6013L127.058 31.4355C126.804 31.1372 126.443 30.9789 126.198 30.8884C125.917 30.7842 125.584 30.6988 125.223 30.6255L124.512 32.1641L123.802 33.7027C124.092 33.7616 124.282 33.8152 124.394 33.8568C124.449 33.8771 124.467 33.8879 124.461 33.8848C124.461 33.8845 124.399 33.8506 124.328 33.7672L125.693 32.6013ZM124.512 32.1641L125.296 30.6425C124.591 30.4577 123.884 30.3583 123.19 30.3947L122.857 31.9597L122.525 33.5247C122.803 33.5101 123.2 33.547 123.729 33.6857L124.512 32.1641ZM122.857 31.9597L123.19 30.3947C121.103 30.5041 119.149 31.3435 117.473 32.926L118.454 33.8957L119.435 34.8654C120.309 34.0406 121.291 33.5894 122.525 33.5247L122.857 31.9597ZM118.454 33.8957L117.455 32.9433C115.767 34.571 114.77 36.8053 114.227 39.3578L115.825 39.2741L117.423 39.1903C117.893 36.976 118.648 35.6248 119.453 34.8481L118.454 33.8957ZM115.825 39.2741L114.227 39.3578C113.687 41.8965 113.77 44.0645 114.833 45.5462L116.253 44.4506L117.673 43.3551C117.164 42.6455 116.961 41.3625 117.423 39.1903L115.825 39.2741ZM116.253 44.4506L114.844 45.5613C115.896 46.9734 117.499 47.6382 119.547 47.5308L119.88 45.9658L120.213 44.4008C119.055 44.4615 118.24 44.1161 117.662 43.3399L116.253 44.4506ZM119.88 45.9658L119.547 47.5308C120.342 47.4892 121.208 47.3438 122.133 47.1114L122.124 45.5987L122.114 44.0859C121.365 44.274 120.735 44.3734 120.213 44.4008L119.88 45.9658ZM122.124 45.5987L122.175 47.1004C123.149 46.8325 124.157 46.4311 124.949 45.7547L124.054 44.7072L123.16 43.6598C123.16 43.6598 123.141 43.6754 123.096 43.7033C123.051 43.7312 122.984 43.7681 122.89 43.8112C122.7 43.899 122.433 43.9978 122.072 44.097L122.124 45.5987ZM124.054 44.7072L124.949 45.7547C124.648 46.0118 124.37 46.1048 124.261 46.1354C124.197 46.1534 124.15 46.1617 124.124 46.1655C124.098 46.1694 124.083 46.1701 124.083 46.1702L124.416 44.6051L124.748 43.0401C124.585 43.0486 124.371 43.0719 124.132 43.1394C123.903 43.204 123.53 43.3436 123.16 43.6598L124.054 44.7072ZM124.416 44.6051L124.083 46.1702C123.852 46.1822 123.684 46.1385 123.585 46.1022C123.485 46.0655 123.42 46.0234 123.388 46.0006C123.328 45.9581 123.315 45.9331 123.345 45.9701C123.369 46.0008 123.409 46.0567 123.465 46.1469C123.519 46.2355 123.582 46.3474 123.653 46.4855L125.155 45.523L126.656 44.5605C126.484 44.2263 126.303 43.9207 126.114 43.6855C126.02 43.5696 125.894 43.431 125.729 43.3142C125.593 43.2178 125.265 43.013 124.748 43.0401L124.416 44.6051ZM125.155 45.523L123.687 46.5462C123.949 46.9821 124.181 47.6376 124.346 48.567L125.958 47.9348L127.571 47.3026C127.375 46.199 127.071 45.2466 126.622 44.4998L125.155 45.523ZM125.958 47.9348L124.349 48.5801C124.527 49.525 124.516 50.0819 124.461 50.3424L126.059 50.2587L127.657 50.1749C127.84 49.3138 127.763 48.3215 127.568 47.2895L125.958 47.9348ZM126.059 50.2587L124.461 50.3424C124.441 50.4383 124.397 50.5507 124.185 50.7364C123.932 50.9576 123.464 51.254 122.667 51.5701L122.928 53.0014L123.189 54.4328C125.227 53.6256 127.208 52.2857 127.657 50.1749L126.059 50.2587ZM122.928 53.0014L122.667 51.5701C121.055 52.2086 119.161 52.6079 116.958 52.7234L116.625 54.2884L116.292 55.8534C118.784 55.7229 121.092 55.2641 123.189 54.4328L122.928 53.0014ZM116.625 54.2884L116.958 52.7234C113.603 52.8991 111.175 51.9029 109.542 49.7475L108.138 50.8651L106.734 51.9828C108.859 54.7878 112.089 56.0737 116.292 55.8534L116.625 54.2884ZM108.138 50.8651L109.542 49.7475C107.933 47.6239 107.475 44.4366 108.428 39.9529L106.83 40.0366L105.233 40.1203C104.171 45.1142 104.585 49.1459 106.734 51.9828L108.138 50.8651ZM106.83 40.0366L108.428 39.9529C109.385 35.4514 111.265 32.0606 113.921 29.5933L112.953 28.6107L111.986 27.6281C108.505 30.8617 106.302 35.0882 105.233 40.1203L106.83 40.0366ZM112.953 28.6107L113.913 29.6002C116.638 27.0913 119.592 25.776 122.892 25.603L123.225 24.038L123.557 22.473C119.357 22.6931 115.463 24.4263 111.994 27.6212L112.953 28.6107ZM136.441 31.2894L138.039 31.2057L138.372 29.6406L136.774 29.7244L136.441 31.2894ZM130.669 29.6787L129.041 29.9731L129.04 29.985L129.039 29.9969L130.669 29.6787ZM131.473 25.8932L129.944 25.7406L129.94 25.7527L129.935 25.7648L131.473 25.8932ZM152.214 24.8063L153.842 24.5119L153.843 24.4999L153.844 24.488L152.214 24.8063ZM151.409 28.5917L152.939 28.7444L152.943 28.7323L152.948 28.7202L151.409 28.5917ZM144.943 30.8438L145.276 29.2788L143.678 29.3625L143.346 30.9275L144.943 30.8438ZM140.455 51.9581L138.858 52.0418C138.992 51.412 139.492 51.0884 139.568 51.045C139.631 51.0087 139.568 51.0553 139.268 51.1272C138.698 51.2642 137.75 51.3841 136.358 51.4571L136.026 53.0221L135.693 54.5871C137.135 54.5115 138.343 54.3798 139.249 54.1622C139.688 54.0567 140.193 53.9003 140.655 53.6351C141.13 53.3628 141.86 52.7846 142.053 51.8744L140.455 51.9581ZM136.026 53.0221L136.358 51.4571C134.967 51.53 134.049 51.5079 133.524 51.4283C133.249 51.3865 133.204 51.3455 133.253 51.376C133.312 51.4123 133.685 51.6901 133.551 52.3199L131.953 52.4037L130.355 52.4874C130.162 53.3977 130.66 53.9115 131.028 54.1396C131.387 54.3618 131.836 54.4682 132.239 54.5295C133.072 54.656 134.25 54.6627 135.693 54.5871L136.026 53.0221ZM131.953 52.4037L133.551 52.3199L138.039 31.2057L136.441 31.2894L134.843 31.3731L130.355 52.4874L131.953 52.4037ZM136.441 31.2894L136.774 29.7244L131.621 29.9944L131.288 31.5594L130.956 33.1245L136.108 32.8544L136.441 31.2894ZM131.288 31.5594L131.621 29.9944C131.892 29.9802 132.102 30.0679 132.229 30.178C132.336 30.2704 132.351 30.3486 132.339 30.3102C132.328 30.2772 132.307 30.1892 132.295 30.0196C132.283 29.854 132.283 29.6369 132.299 29.3604L130.669 29.6787L129.039 29.9969C128.999 30.6938 129.021 31.3706 129.198 31.9066C129.371 32.4318 129.837 33.1831 130.956 33.1245L131.288 31.5594ZM130.669 29.6787L132.297 29.3843C132.337 28.8439 132.418 28.2857 132.54 27.709L130.942 27.7927L129.345 27.8765C129.193 28.5896 129.091 29.2887 129.041 29.9731L130.669 29.6787ZM130.942 27.7927L132.54 27.709C132.663 27.1323 132.82 26.5701 133.012 26.0217L131.473 25.8932L129.935 25.7648C129.693 26.4592 129.496 27.1633 129.345 27.8765L130.942 27.7927ZM131.473 25.8932L133.003 26.0459C133.106 25.765 133.2 25.5429 133.283 25.3723C133.368 25.1976 133.427 25.1054 133.453 25.0705C133.482 25.0299 133.432 25.1115 133.284 25.2173C133.107 25.3433 132.854 25.4553 132.583 25.4695L132.915 23.9045L133.248 22.3394C132.13 22.398 131.33 23.2156 130.927 23.7711C130.516 24.3379 130.202 25.0322 129.944 25.7406L131.473 25.8932ZM132.915 23.9045L132.583 25.4695L151.262 24.4906L151.595 22.9255L151.927 21.3605L133.248 22.3394L132.915 23.9045ZM151.595 22.9255L151.262 24.4906C150.991 24.5048 150.781 24.4171 150.654 24.307C150.547 24.2146 150.531 24.1364 150.544 24.1748C150.555 24.2077 150.576 24.2957 150.588 24.4653C150.6 24.631 150.6 24.8481 150.584 25.1245L152.214 24.8063L153.844 24.488C153.884 23.7911 153.862 23.1144 153.685 22.5784C153.512 22.0531 153.046 21.3019 151.927 21.3605L151.595 22.9255ZM152.214 24.8063L150.586 25.1007C150.546 25.6411 150.465 26.1993 150.343 26.776L151.941 26.6922L153.538 26.6085C153.69 25.8954 153.792 25.1962 153.842 24.5119L152.214 24.8063ZM151.941 26.6922L150.343 26.776C150.22 27.3527 150.063 27.9149 149.871 28.4632L151.409 28.5917L152.948 28.7202C153.19 28.0257 153.387 27.3216 153.538 26.6085L151.941 26.6922ZM151.409 28.5917L149.88 28.4391C149.777 28.72 149.683 28.9421 149.6 29.1127C149.515 29.2874 149.456 29.3796 149.43 29.4145C149.401 29.4551 149.451 29.3734 149.599 29.2677C149.776 29.1416 150.029 29.0297 150.3 29.0155L149.968 30.5805L149.635 32.1455C150.753 32.0869 151.553 31.2693 151.956 30.7139C152.367 30.1471 152.68 29.4527 152.939 28.7444L151.409 28.5917ZM149.968 30.5805L150.3 29.0155L145.276 29.2788L144.943 30.8438L144.611 32.4088L149.635 32.1455L149.968 30.5805ZM144.943 30.8438L143.346 30.9275L138.858 52.0418L140.455 51.9581L142.053 51.8744L146.541 30.7601L144.943 30.8438ZM151.306 48.6444L149.922 49.7867L149.927 49.7927L151.306 48.6444ZM156.141 26.0978L155.239 25.0568L155.232 25.0633L156.141 26.0978ZM175.903 25.0205L174.523 26.1685L174.528 26.1744L175.903 25.0205ZM170.981 47.7796L171.868 48.8337L171.875 48.8271L170.981 47.7796ZM161.2 31.8635L160.122 30.9914L160.113 31.001L160.104 31.0107L161.2 31.8635ZM158.958 42.2125L157.467 43.1957L157.471 43.2025L157.475 43.2093L158.958 42.2125ZM165.966 41.8037L164.883 40.9365L164.874 40.9464L164.865 40.9564L165.966 41.8037ZM168.123 31.4591L166.642 32.4606L166.647 32.4695L166.653 32.4783L168.123 31.4591ZM160.317 51.9986L160.65 50.4335C157.03 50.6232 154.426 49.6245 152.686 47.496L151.306 48.6444L149.927 49.7927C152.186 52.5565 155.589 53.794 159.985 53.5636L160.317 51.9986ZM151.306 48.6444L152.691 47.5021C151.016 45.4219 150.525 42.1747 151.521 37.4865L149.924 37.5702L148.326 37.654C147.224 42.836 147.655 46.9715 149.922 49.7867L151.306 48.6444ZM149.924 37.5702L151.521 37.4865C152.524 32.7704 154.434 29.4061 157.051 27.1322L156.141 26.0978L155.232 25.0633C151.668 28.1598 149.433 32.4438 148.326 37.654L149.924 37.5702ZM156.141 26.0978L157.043 27.1387C159.76 24.7984 162.884 23.5071 166.542 23.3155L166.874 21.7504L167.207 20.1854C162.791 20.4168 158.76 22.0238 155.239 25.0568L156.141 26.0978ZM166.874 21.7504L166.542 23.3155C170.237 23.1218 172.838 24.1046 174.523 26.1684L175.903 25.0205L177.283 23.8726C175.06 21.1502 171.641 19.953 167.207 20.1854L166.874 21.7504ZM175.903 25.0205L174.528 26.1744C176.171 28.1567 176.656 31.4243 175.618 36.3068L177.216 36.2231L178.814 36.1393C179.946 30.8152 179.556 26.6144 177.278 23.8666L175.903 25.0205ZM177.216 36.2231L175.618 36.3068C174.589 41.1497 172.669 44.526 170.086 46.7322L170.981 47.7796L171.875 48.8271C175.449 45.7751 177.686 41.447 178.814 36.1393L177.216 36.2231ZM170.981 47.7796L170.094 46.7256C167.429 48.9817 164.324 50.241 160.65 50.4335L160.317 51.9986L159.985 53.5636C164.384 53.3331 168.388 51.7797 171.868 48.8337L170.981 47.7796ZM165.072 29.8305L165.405 28.2655C163.449 28.3679 161.65 29.3664 160.122 30.9914L161.2 31.8635L162.279 32.7355C163.164 31.7939 163.946 31.4371 164.739 31.3955L165.072 29.8305ZM161.2 31.8635L160.104 31.0107C158.575 32.6735 157.635 34.8092 157.12 37.2347L158.718 37.1509L160.315 37.0672C160.753 35.0062 161.469 33.617 162.297 32.7162L161.2 31.8635ZM158.718 37.1509L157.12 37.2347C156.612 39.6256 156.643 41.6824 157.467 43.1957L158.958 42.2125L160.449 41.2294C160.01 40.4242 159.882 39.1067 160.315 37.0672L158.718 37.1509ZM158.958 42.2125L157.475 43.2093C158.317 44.7046 159.764 45.4648 161.728 45.3618L162.061 43.7968L162.393 42.2318C161.495 42.2788 160.873 41.9829 160.441 41.2158L158.958 42.2125ZM162.061 43.7968L161.728 45.3618C163.725 45.2572 165.555 44.3073 167.068 42.651L165.966 41.8037L164.865 40.9564C164.09 41.8045 163.316 42.1834 162.393 42.2318L162.061 43.7968ZM165.966 41.8037L167.05 42.6708C168.585 41.0283 169.523 38.8966 170.038 36.4745L168.44 36.5582L166.842 36.642C166.404 38.7063 165.692 40.0715 164.883 40.9365L165.966 41.8037ZM168.44 36.5582L170.038 36.4745C170.555 34.044 170.496 31.9568 169.593 30.4398L168.123 31.4591L166.653 32.4783C167.126 33.2737 167.279 34.586 166.842 36.642L168.44 36.5582ZM168.123 31.4591L169.603 30.4575C168.755 28.97 167.348 28.1636 165.405 28.2655L165.072 29.8305L164.739 31.3955C165.544 31.3534 166.171 31.6327 166.642 32.4606L168.123 31.4591ZM199.733 33.6289L201.03 34.2306L201.037 34.2195L199.733 33.6289ZM196.098 37.1467L195.473 35.9008L194.05 36.7981L194.557 38.0237L196.098 37.1467ZM199.631 45.6959L201.042 46.1113L201.419 45.4163L201.172 44.8188L199.631 45.6959ZM196.906 48.1262L196.258 46.895L196.246 46.9029L196.906 48.1262ZM190.031 49.1104L188.431 49.8047L188.462 49.9391L188.522 50.0585L190.031 49.1104ZM187.952 40.1108L189.552 39.4165L189.338 38.4905L188.285 38.5457L187.952 40.1108ZM186.621 40.1805L186.954 38.6155L185.356 38.6992L185.023 40.2643L186.621 40.1805ZM189.142 28.3195L189.475 26.7545L187.877 26.8382L187.544 28.4032L189.142 28.3195ZM187.801 34.6285L186.203 34.7123L185.871 36.2773L187.468 36.1936L187.801 34.6285ZM192.459 28.8943L191.094 30.0602L191.119 30.0892L191.146 30.1165L192.459 28.8943ZM184.591 49.7282L182.994 49.812C183.072 49.4432 183.286 49.139 183.491 48.9408C183.669 48.7682 183.82 48.6916 183.85 48.6769C183.9 48.6521 183.825 48.6944 183.527 48.757C182.964 48.8752 182.041 48.9798 180.702 49.0499L180.369 50.615L180.036 52.18C181.417 52.1076 182.557 51.9931 183.402 51.8158C183.808 51.7305 184.272 51.6059 184.698 51.3951C185.06 51.2155 185.971 50.6721 186.189 49.6445L184.591 49.7282ZM180.369 50.615L180.702 49.0499C179.347 49.1209 178.428 49.1165 177.886 49.0601C177.599 49.0303 177.528 48.9959 177.559 49.01C177.577 49.0179 177.702 49.074 177.817 49.2268C177.951 49.4034 178.065 49.7075 177.979 50.1164L176.381 50.2001L174.783 50.2838C174.553 51.3662 175.346 51.8007 175.6 51.9152C175.942 52.0691 176.357 52.1392 176.735 52.1785C177.523 52.2604 178.643 52.253 180.036 52.18L180.369 50.615ZM176.381 50.2001L177.979 50.1164L183.808 22.693L182.21 22.7768L180.612 22.8605L174.783 50.2838L176.381 50.2001ZM182.21 22.7768L183.808 22.693C183.831 22.5812 183.854 22.5485 183.842 22.5687C183.836 22.5802 183.821 22.6042 183.795 22.6355C183.768 22.6674 183.736 22.7004 183.698 22.7313C183.66 22.762 183.626 22.7841 183.599 22.7989C183.572 22.8133 183.558 22.818 183.56 22.8172C183.563 22.8163 183.581 22.8103 183.619 22.8036C183.656 22.7969 183.709 22.7901 183.779 22.7864L184.111 21.2214L184.444 19.6563C183.69 19.6959 182.79 19.9143 181.985 20.5725C181.161 21.2469 180.772 22.1057 180.612 22.8605L182.21 22.7768ZM184.111 21.2214L183.779 22.7864L191.981 22.3566L192.313 20.7915L192.646 19.2265L184.444 19.6563L184.111 21.2214ZM192.313 20.7915L191.981 22.3566C195.581 22.1679 197.84 22.7364 199.081 23.7891C200.257 24.7879 200.711 26.3914 200.176 28.9058L201.774 28.8221L203.372 28.7383C204.059 25.5044 203.547 22.8954 201.57 21.2174C199.656 19.5933 196.574 19.0206 192.646 19.2265L192.313 20.7915ZM201.774 28.8221L200.176 28.9058C199.851 30.4372 199.262 31.8065 198.429 33.0383L199.733 33.6289L201.037 34.2195C202.187 32.5191 202.958 30.6839 203.372 28.7383L201.774 28.8221ZM199.733 33.6289L198.437 33.0271C197.618 34.2215 196.635 35.168 195.473 35.9008L196.098 37.1467L196.723 38.3926C198.438 37.311 199.878 35.9123 201.03 34.2306L199.733 33.6289ZM196.098 37.1467L194.557 38.0237L198.09 46.5729L199.631 45.6959L201.172 44.8188L197.639 36.2697L196.098 37.1467ZM199.631 45.6959L198.22 45.2804C198.135 45.4378 197.675 45.9779 196.258 46.895L196.906 48.1262L197.555 49.3574C199.027 48.404 200.383 47.3238 201.042 46.1113L199.631 45.6959ZM196.906 48.1262L196.246 46.9029C194.346 48.1502 193.199 48.5613 192.604 48.5926L192.271 50.1576L191.938 51.7226C193.575 51.6368 195.519 50.6937 197.567 49.3495L196.906 48.1262ZM192.271 50.1576L192.604 48.5926C191.923 48.6282 191.676 48.4372 191.54 48.1624L190.031 49.1104L188.522 50.0585C189.139 51.2969 190.386 51.804 191.938 51.7226L192.271 50.1576ZM190.031 49.1104L191.63 48.4162L189.552 39.4165L187.952 40.1108L186.353 40.805L188.431 49.8047L190.031 49.1104ZM187.952 40.1108L188.285 38.5457L186.954 38.6155L186.621 40.1805L186.288 41.7456L187.619 41.6758L187.952 40.1108ZM186.621 40.1805L185.023 40.2643L182.994 49.812L184.591 49.7282L186.189 49.6445L188.219 40.0968L186.621 40.1805ZM189.142 28.3195L187.544 28.4032L186.203 34.7123L187.801 34.6285L189.399 34.5448L190.74 28.2358L189.142 28.3195ZM187.801 34.6285L187.468 36.1936L187.683 36.1823L188.016 34.6173L188.348 33.0523L188.134 33.0635L187.801 34.6285ZM188.016 34.6173L187.683 36.1823C189.225 36.1015 190.744 35.7174 192.018 34.7761C193.358 33.7858 194.095 32.4295 194.399 30.997L192.801 31.0807L191.204 31.1645C191.037 31.9471 190.741 32.2879 190.486 32.4765C190.165 32.714 189.526 32.9905 188.348 33.0523L188.016 34.6173ZM192.801 31.0807L194.399 30.997C194.668 29.7312 194.589 28.4993 193.773 27.6721L192.459 28.8943L191.146 30.1165C191.214 30.1857 191.364 30.4114 191.204 31.1645L192.801 31.0807ZM192.459 28.8943L193.824 27.7284C193.065 26.8388 191.741 26.6357 190.376 26.7072L190.044 28.2722L189.711 29.8373C190.751 29.7828 191.038 29.9943 191.094 30.0602L192.459 28.8943ZM190.044 28.2722L190.376 26.7072L189.475 26.7545L189.142 28.3195L188.809 29.8845L189.711 29.8373L190.044 28.2722ZM221.211 20.6496L222.562 21.168L222.578 21.1422L222.593 21.116L221.211 20.6496ZM229.905 18.9046L229.411 20.47L229.415 20.4702L229.905 18.9046ZM231.404 19.242L230.124 18.617L230.122 18.6197L231.404 19.242ZM218.736 37.2913L217.453 36.669L217.216 37.0072L217.138 37.375L218.736 37.2913ZM213.978 48.6872L214.106 47.1453L214.094 47.1474L214.081 47.1498L213.978 48.6872ZM209.288 48.9746L208.757 50.5377L208.769 50.5386L208.781 50.5393L209.288 48.9746ZM209.278 38.0365L210.876 37.9528L210.956 37.5771L210.853 37.2514L209.278 38.0365ZM203.818 20.7709L205.393 19.9858L205.368 19.9065L205.332 19.8331L203.818 20.7709ZM205.677 20.2159L205.523 21.7622L205.541 21.7594L205.559 21.7562L205.677 20.2159ZM214.47 21.0029L212.849 21.5773L212.851 21.5932L212.853 21.609L214.47 21.0029ZM215.781 29.4189L214.164 30.0251L214.75 33.7834L217.131 29.9374L215.781 29.4189ZM221.211 20.6496L222.593 21.116C222.445 21.3719 222.361 21.2005 223.2 20.9464C223.955 20.7177 225.097 20.5379 226.688 20.4545L227.021 18.8894L227.353 17.3244C225.653 17.4135 224.18 17.6133 222.999 17.9713C221.901 18.3039 220.559 18.9263 219.829 20.1832L221.211 20.6496ZM227.021 18.8894L226.688 20.4545C227.449 20.4146 228.354 20.4182 229.411 20.47L229.905 18.9046L230.399 17.3392C229.27 17.2838 228.253 17.2772 227.353 17.3244L227.021 18.8894ZM229.905 18.9046L229.415 20.4702C229.962 20.4957 230.259 20.533 230.383 20.5608C230.474 20.5813 230.342 20.5683 230.183 20.4485C230.1 20.3856 229.893 20.2076 229.817 19.8549C229.726 19.4301 229.872 18.9747 230.124 18.617L231.404 19.242L232.685 19.867C232.967 19.4661 233.124 18.9693 233.025 18.5051C232.941 18.113 232.706 17.8975 232.575 17.799C232.322 17.6078 232.017 17.5311 231.859 17.4954C231.482 17.4107 230.969 17.3657 230.395 17.339L229.905 18.9046ZM231.404 19.242L230.122 18.6197L217.453 36.669L218.736 37.2913L220.018 37.9135L232.687 19.8642L231.404 19.242ZM218.736 37.2913L217.138 37.375L214.956 47.6377L216.554 47.554L218.152 47.4703L220.333 37.2075L218.736 37.2913ZM216.554 47.554L214.956 47.6377C215.031 47.2869 215.247 47.0183 215.406 46.8768C215.532 46.7644 215.598 46.7508 215.5 46.7939C215.301 46.8816 214.867 47.0141 214.106 47.1453L213.978 48.6872L213.85 50.2292C214.705 50.0816 215.509 49.8858 216.168 49.5958C216.717 49.3544 217.888 48.7145 218.152 47.4703L216.554 47.554ZM213.978 48.6872L214.081 47.1498C213.329 47.2902 212.607 47.3778 211.913 47.4142L211.58 48.9792L211.248 50.5443C212.1 50.4996 212.976 50.3926 213.875 50.2247L213.978 48.6872ZM211.58 48.9792L211.913 47.4142C211.199 47.4516 210.494 47.4502 209.796 47.4099L209.288 48.9746L208.781 50.5393C209.593 50.5862 210.416 50.5879 211.248 50.5443L211.58 48.9792ZM209.288 48.9746L209.82 47.4115C209.102 47.3582 208.725 47.2661 208.568 47.1979C208.493 47.1653 208.555 47.1744 208.633 47.2786C208.73 47.4092 208.815 47.6476 208.748 47.9631L207.15 48.0469L205.552 48.1306C205.294 49.3459 206.146 49.9022 206.64 50.1167C207.196 50.3578 207.942 50.4772 208.757 50.5377L209.288 48.9746ZM207.15 48.0469L208.748 47.9631L210.876 37.9528L209.278 38.0365L207.68 38.1202L205.552 48.1306L207.15 48.0469ZM209.278 38.0365L210.853 37.2514L205.393 19.9858L203.818 20.7709L202.244 21.5559L207.703 38.8216L209.278 38.0365ZM203.818 20.7709L205.332 19.8331C205.482 20.1413 205.515 20.6292 205.211 21.1625C204.968 21.5887 204.634 21.815 204.531 21.881C204.321 22.016 204.188 22.0386 204.317 22.0003C204.495 21.947 204.876 21.8642 205.523 21.7622L205.677 20.2159L205.831 18.6697C205.161 18.7754 204.572 18.8889 204.131 19.0206C203.95 19.0748 203.595 19.187 203.25 19.4089C203.079 19.5183 202.699 19.7872 202.432 20.2554C202.104 20.8307 202.135 21.3599 202.304 21.7087L203.818 20.7709ZM205.677 20.2159L205.559 21.7562C206.841 21.5279 207.869 21.3991 208.662 21.3576L208.994 19.7925L209.327 18.2275C208.345 18.279 207.162 18.4324 205.796 18.6757L205.677 20.2159ZM208.994 19.7925L208.662 21.3576C210.372 21.268 211.546 21.3303 212.271 21.4905C213.092 21.672 212.887 21.8687 212.849 21.5773L214.47 21.0029L216.091 20.4286C215.924 19.1456 214.741 18.6449 213.737 18.423C212.637 18.1797 211.139 18.1326 209.327 18.2275L208.994 19.7925ZM214.47 21.0029L212.853 21.609L214.164 30.0251L215.781 29.4189L217.397 28.8128L216.086 20.3968L214.47 21.0029ZM215.781 29.4189L217.131 29.9374L222.562 21.168L221.211 20.6496L219.861 20.1311L214.43 28.9005L215.781 29.4189ZM234.183 38.9772L232.6 38.9974L232.592 39.0292L232.586 39.0609L234.183 38.9772ZM228.034 39.3411L229.632 39.2573L229.638 39.2256L229.644 39.194L228.034 39.3411ZM231.583 18.6503L229.985 18.7341L229.978 18.7658L229.973 18.7975L231.583 18.6503ZM239.45 18.1965L241.033 18.1762L241.041 18.1444L241.048 18.1127L239.45 18.1965ZM234.183 38.9772L232.586 39.0609C232.767 38.2069 233.503 37.786 233.605 37.7292C233.708 37.6718 233.789 37.6395 233.827 37.6251C233.869 37.6093 233.896 37.6015 233.902 37.5997C233.902 37.5997 233.809 37.6227 233.569 37.6543C233.115 37.7142 232.391 37.7731 231.371 37.8266L231.038 39.3916L230.705 40.9566C231.746 40.9021 232.577 40.8379 233.171 40.7597C233.455 40.7222 233.76 40.6724 234.032 40.5957C234.153 40.5613 234.386 40.4899 234.64 40.3485C234.815 40.2516 235.591 39.7896 235.781 38.8935L234.183 38.9772ZM231.038 39.3916L231.371 37.8266C230.363 37.8794 229.65 37.8993 229.207 37.8918C229.099 37.89 229.015 37.8867 228.952 37.8826C228.886 37.8784 228.86 37.8745 228.861 37.8746C228.862 37.8747 228.88 37.8777 228.91 37.8856C228.937 37.8926 228.999 37.9103 229.076 37.9471C229.142 37.9786 229.295 38.0598 229.429 38.2292C229.576 38.4141 229.738 38.7596 229.632 39.2573L228.034 39.3411L226.436 39.4248C226.327 39.9401 226.492 40.3021 226.651 40.5027C226.798 40.6877 226.972 40.7835 227.066 40.8286C227.256 40.9198 227.449 40.9554 227.549 40.9717C227.777 41.0085 228.051 41.0214 228.319 41.0259C228.876 41.0353 229.681 41.0103 230.705 40.9566L231.038 39.3916ZM228.034 39.3411L229.644 39.194L233.193 18.5032L231.583 18.6503L229.973 18.7975L226.424 39.4882L228.034 39.3411ZM231.583 18.6503L233.18 18.5666C233.009 19.3724 232.336 19.7869 232.215 19.8573C232.114 19.9158 232.036 19.9481 232.002 19.9615C231.982 19.9693 231.968 19.9745 231.959 19.9775C231.95 19.9806 231.945 19.9821 231.944 19.9823C231.943 19.9824 231.954 19.9793 231.979 19.9736C232.003 19.968 232.036 19.961 232.078 19.9529C232.164 19.9365 232.278 19.918 232.422 19.8985C233.011 19.8183 233.937 19.7418 235.229 19.6741L235.562 18.1091L235.894 16.544C234.581 16.6129 233.541 16.6949 232.805 16.7951C232.45 16.8434 232.087 16.9058 231.772 16.9984C231.628 17.0408 231.376 17.1229 231.106 17.2793C230.893 17.403 230.168 17.8722 229.985 18.7341L231.583 18.6503ZM235.562 18.1091L235.229 19.6741C236.537 19.6056 237.47 19.5811 238.056 19.5943C238.361 19.6011 238.507 19.6172 238.55 19.625C238.585 19.6313 238.488 19.6199 238.358 19.5514C238.33 19.5365 237.656 19.2022 237.852 18.2802L239.45 18.1965L241.048 18.1127C241.254 17.1416 240.549 16.7635 240.447 16.71C240.244 16.6029 240.032 16.5581 239.91 16.5362C239.64 16.4876 239.305 16.4682 238.962 16.4605C238.252 16.4446 237.22 16.4745 235.894 16.544L235.562 18.1091ZM239.45 18.1965L237.867 18.2167L232.6 38.9974L234.183 38.9772L235.766 38.957L241.033 18.1762L239.45 18.1965ZM226.562 41.8722L228.16 41.7884C227.964 42.7104 227.131 43.1237 227.096 43.1419C226.934 43.2257 226.829 43.2477 226.867 43.2376C226.915 43.225 227.071 43.1931 227.386 43.1538C227.991 43.0781 228.934 43.0043 230.242 42.9357L230.575 41.3707L230.908 39.8057C229.582 39.8751 228.539 39.9539 227.807 40.0454C227.453 40.0897 227.102 40.1449 226.805 40.2233C226.671 40.2586 226.434 40.3269 226.181 40.458C226.054 40.5234 225.17 40.9848 224.964 41.9559L226.562 41.8722ZM230.575 41.3707L230.242 42.9357C231.566 42.8664 232.518 42.8374 233.122 42.844C233.434 42.8474 233.597 42.8601 233.658 42.8689C233.703 42.8752 233.622 42.8693 233.504 42.8187C233.448 42.7947 233.296 42.7242 233.155 42.5669C233.005 42.398 232.801 42.0426 232.917 41.4975L234.515 41.4138L236.113 41.33C236.233 40.7639 236.023 40.3887 235.856 40.2012C235.699 40.0252 235.519 39.9373 235.426 39.8971C235.233 39.814 235.034 39.7805 234.919 39.764C234.661 39.7271 234.336 39.7134 233.991 39.7096C233.282 39.7019 232.246 39.7355 230.908 39.8057L230.575 41.3707ZM234.515 41.4138L232.917 41.4975L231.63 47.5542L233.227 47.4705L234.825 47.3867L236.113 41.33L234.515 41.4138ZM233.227 47.4705L231.63 47.5542C231.768 46.9027 232.254 46.505 232.449 46.3722C232.555 46.3 232.64 46.2577 232.683 46.2375C232.73 46.2161 232.759 46.2058 232.765 46.2038C232.773 46.2009 232.743 46.2116 232.657 46.2305C232.575 46.2484 232.465 46.269 232.322 46.2911C231.731 46.3822 230.795 46.4662 229.477 46.5353L229.144 48.1003L228.812 49.6654C230.156 49.5949 231.231 49.5042 232.002 49.3853C232.372 49.3282 232.765 49.2513 233.113 49.1313C233.277 49.0746 233.552 48.9681 233.839 48.7724C234.13 48.5739 234.672 48.1083 234.825 47.3867L233.227 47.4705ZM229.144 48.1003L229.477 46.5353C228.168 46.6039 227.227 46.6323 226.631 46.6254C226.322 46.6218 226.163 46.609 226.104 46.6005C226.061 46.5943 226.144 46.6006 226.263 46.6525C226.32 46.6772 226.472 46.7488 226.612 46.9075C226.762 47.0784 226.96 47.4325 226.845 47.9713L225.248 48.055L223.65 48.1388C223.531 48.6986 223.735 49.0725 223.901 49.2621C224.057 49.4394 224.237 49.5284 224.331 49.5694C224.524 49.6538 224.723 49.6878 224.838 49.7045C225.095 49.7418 225.418 49.7557 225.759 49.7597C226.462 49.7679 227.487 49.7348 228.812 49.6654L229.144 48.1003ZM225.248 48.055L226.845 47.9713L228.16 41.7884L226.562 41.8722L224.964 41.9559L223.65 48.1388L225.248 48.055Z" fill="black" mask="url(#path-2-outside-1_2028_1388)"/>
</g>
<defs>
<filter id="filter0_d_2028_1388" x="62.2087" y="16.4563" width="178.876" height="45.4231" filterUnits="userSpaceOnUse" color-interpolation-filters="sRGB">
<feFlood flood-opacity="0" result="BackgroundImageFix"/>
<feColorMatrix in="SourceAlpha" type="matrix" values="0 0 0 0 0 0 0 0 0 0 0 0 0 0 0 0 0 0 127 0" result="hardAlpha"/>
<feOffset dx="-1" dy="4"/>
<feComposite in2="hardAlpha" operator="out"/>
<feColorMatrix type="matrix" values="0 0 0 0 0 0 0 0 0 0 0 0 0 0 0 0 0 0 1 0"/>
<feBlend mode="normal" in2="BackgroundImageFix" result="effect1_dropShadow_2028_1388"/>
<feBlend mode="normal" in="SourceGraphic" in2="effect1_dropShadow_2028_1388" result="shape"/>
</filter>
</defs>
</svg>
